<svg xmlns="http://www.w3.org/2000/svg" xmlns:xlink="http://www.w3.org/1999/xlink" width="1024" zoomAndPan="magnify" viewBox="0 0 768 576" height="768" preserveAspectRatio="xMidYMid meet" version="1.0"><path fill="#000000" d="M 234.082031 567.796875 C 196.144531 531.75 171.628906 485.191406 168.734375 432.519531 C 166.035156 383.410156 183.023438 335.175781 209.234375 294.253906 C 225.078125 269.515625 243.894531 250.910156 266.023438 232.210938 C 291.925781 210.328125 318.652344 189.390625 345.921875 169.238281 C 353.445312 163.679688 441.28125 98.070312 448.449219 110.808594 C 450.703125 114.816406 456.859375 111.222656 454.601562 107.210938 C 447.3125 94.253906 421.222656 111.109375 413.539062 115.386719 C 385.5 131.003906 359.363281 150.292969 333.710938 169.488281 C 285.515625 205.546875 234.363281 241.808594 201.472656 293.164062 C 174.527344 335.238281 159 385.132812 161.757812 435.285156 C 164.683594 488.550781 190.824219 536.523438 229.042969 572.835938 C 232.371094 576 237.421875 570.96875 234.082031 567.796875 Z M 234.082031 567.796875 " fill-opacity="1" fill-rule="nonzero"/><path fill="#000000" d="M 448.492188 104.15625 C 430.867188 74.265625 418.808594 40.246094 421.484375 5.140625 C 419.453125 5.980469 417.425781 6.820312 415.398438 7.660156 C 462.304688 62.714844 537.34375 69.410156 603.328125 84.949219 C 603.328125 82.660156 603.328125 80.367188 603.328125 78.074219 C 536.15625 103.042969 486.277344 154.730469 439.839844 207.304688 C 441.824219 207.828125 443.8125 208.351562 445.796875 208.875 C 438.824219 173.371094 432.980469 133.695312 439.6875 97.738281 C 440.527344 93.242188 433.65625 91.328125 432.8125 95.839844 C 425.847656 133.179688 431.671875 173.863281 438.921875 210.773438 C 439.429688 213.34375 443.171875 214.28125 444.882812 212.34375 C 490.398438 160.816406 539.335938 109.441406 605.222656 84.949219 C 608.308594 83.804688 608.921875 78.949219 605.222656 78.074219 C 540.503906 62.835938 466.46875 56.640625 420.441406 2.617188 C 418.246094 0.0429688 414.570312 2.328125 414.355469 5.136719 C 411.59375 41.414062 424.125 76.863281 442.335938 107.75 C 444.667969 111.707031 450.832031 108.125 448.492188 104.15625 Z M 448.492188 104.15625 " fill-opacity="1" fill-rule="nonzero"/><path fill="#000000" d="M 479.527344 139.558594 C 478.035156 127.535156 495.636719 113.863281 503.289062 106.703125 C 515.382812 95.394531 528.484375 85.082031 541.917969 75.429688 C 540.480469 73.558594 539.039062 71.695312 537.597656 69.828125 C 508.710938 92.226562 479.128906 113.816406 457.609375 143.871094 C 455.089844 147.390625 460.316406 150.59375 463.210938 148.191406 C 478.898438 135.160156 490.359375 118.234375 502.925781 102.363281 C 501.058594 100.925781 499.195312 99.484375 497.324219 98.042969 C 483.921875 121.019531 466.734375 141.523438 454.554688 165.253906 C 452.605469 169.050781 457.039062 172.003906 460.15625 169.574219 C 484.226562 150.796875 495.960938 122.269531 515.144531 99.308594 C 513.28125 97.867188 511.414062 96.429688 509.546875 94.988281 C 495.617188 124.945312 469.910156 147.363281 451.5 174.417969 C 449.121094 177.917969 454.21875 181.328125 457.101562 178.738281 C 481.417969 156.875 496.9375 127.28125 521.257812 105.417969 C 519.390625 103.976562 517.523438 102.539062 515.65625 101.097656 C 503.503906 118.507812 486.824219 132.773438 473.445312 149.257812 C 470.507812 152.875 474.867188 157.097656 478.484375 154.296875 C 502.605469 135.652344 518.523438 108.789062 542.640625 90.140625 C 540.960938 88.460938 539.28125 86.78125 537.601562 85.101562 C 521.734375 97.664062 504.808594 109.125 491.777344 124.816406 C 488.886719 128.292969 493.472656 133.128906 496.816406 129.855469 C 515.515625 111.554688 537.664062 97.5625 560.253906 84.589844 C 558.625 82.964844 557 81.339844 555.375 79.710938 C 545.691406 97.863281 528.722656 109.046875 510.828125 118.148438 C 512.269531 120.015625 513.707031 121.878906 515.148438 123.746094 C 532.148438 107.339844 554.066406 96.925781 575.527344 87.644531 C 574.328125 85.59375 573.128906 83.539062 571.929688 81.488281 C 557.8125 89.882812 543.277344 97.535156 529.160156 105.929688 C 525.753906 107.957031 527.992188 113.765625 531.90625 112.445312 C 549.226562 106.609375 565.910156 99.910156 579.304688 87.089844 C 581.554688 84.933594 579.855469 80.976562 576.785156 81.003906 C 548.550781 81.269531 520.679688 86.597656 493.351562 93.351562 C 494.269531 95.523438 495.183594 97.695312 496.101562 99.867188 C 502.0625 97.328125 508.457031 96.300781 514.429688 93.757812 C 513.230469 91.707031 512.03125 89.65625 510.832031 87.605469 C 489.027344 97.320312 470.273438 112.304688 449.730469 124.261719 C 451.355469 125.890625 452.980469 127.515625 454.609375 129.140625 C 461.582031 115.664062 470.988281 104.933594 483.882812 96.816406 C 482.441406 94.949219 481 93.082031 479.5625 91.21875 C 469.394531 103.789062 454.203125 110.136719 440.566406 118.152344 C 442.3125 119.496094 444.058594 120.835938 445.804688 122.179688 C 447.46875 117.910156 448.734375 113.382812 450.84375 109.304688 C 453.722656 103.730469 460.574219 100.167969 465.550781 96.816406 C 468.753906 94.660156 466.828125 88.953125 462.804688 90.300781 C 453.375 93.460938 444.296875 96.695312 436.792969 103.4375 C 438.472656 105.117188 440.152344 106.796875 441.835938 108.480469 C 452.707031 98.296875 465.890625 94.546875 479.976562 91.066406 C 478.632812 89.320312 477.292969 87.574219 475.949219 85.828125 C 463.222656 107.867188 448.65625 129.027344 441.988281 153.894531 C 440.953125 157.738281 446.589844 160.277344 448.503906 156.640625 C 452.472656 149.09375 457.34375 142.171875 463.21875 135.976562 C 461.355469 134.535156 459.488281 133.09375 457.621094 131.65625 C 451.871094 143.683594 448.277344 156.265625 445.042969 169.167969 C 443.910156 173.671875 450.394531 175.351562 451.917969 171.0625 C 457.554688 155.183594 455.121094 139.464844 451.917969 123.339844 C 451.226562 119.871094 445.8125 119.988281 445.042969 123.339844 C 441.964844 136.738281 441.867188 150.320312 441.859375 164.003906 C 444.195312 163.6875 446.527344 163.371094 448.863281 163.054688 C 446.914062 152.566406 446.226562 141.78125 449.726562 131.539062 C 454.507812 117.535156 469.34375 119.644531 480.285156 124.308594 C 482.285156 125.160156 484.964844 124.648438 485.523438 122.179688 C 489.386719 105.152344 515.695312 97.675781 530.964844 97.304688 C 535.554688 97.191406 535.566406 90.0625 530.964844 90.175781 C 512.53125 90.625 483.300781 99.796875 478.648438 120.285156 C 480.394531 119.574219 482.140625 118.867188 483.886719 118.15625 C 471.59375 112.914062 457.132812 110.050781 447.40625 121.425781 C 437.617188 132.871094 439.464844 151.355469 441.988281 164.953125 C 442.742188 168.988281 448.988281 167.933594 448.992188 164.003906 C 448.996094 150.96875 448.984375 138.015625 451.917969 125.238281 C 449.625 125.238281 447.335938 125.238281 445.042969 125.238281 C 448.023438 140.21875 450.28125 154.410156 445.042969 169.167969 C 447.335938 169.796875 449.625 170.429688 451.917969 171.0625 C 455 158.773438 458.292969 146.730469 463.78125 135.253906 C 465.449219 131.757812 461.121094 127.839844 458.179688 130.933594 C 451.902344 137.550781 446.597656 144.96875 442.347656 153.042969 C 444.519531 153.957031 446.691406 154.871094 448.863281 155.789062 C 455.371094 131.527344 469.699219 110.925781 482.113281 89.429688 C 483.707031 86.667969 481.101562 83.445312 478.085938 84.191406 C 462.710938 87.992188 448.605469 92.382812 436.796875 103.441406 C 433.425781 106.597656 438.4375 111.535156 441.839844 108.480469 C 448.375 102.605469 456.515625 99.925781 464.707031 97.179688 C 463.789062 95.007812 462.875 92.835938 461.960938 90.664062 C 456.554688 94.304688 450.144531 98.023438 446.230469 103.40625 C 442.628906 108.367188 441.136719 114.644531 438.9375 120.289062 C 437.753906 123.320312 441.671875 125.78125 444.171875 124.316406 C 458.332031 115.992188 474.050781 109.320312 484.609375 96.261719 C 487.003906 93.300781 483.957031 88.355469 480.289062 90.664062 C 466.414062 99.398438 455.980469 111.007812 448.460938 125.546875 C 446.855469 128.652344 450.132812 132.289062 453.339844 130.425781 C 473.878906 118.464844 492.632812 103.480469 514.4375 93.765625 C 518.65625 91.886719 514.996094 85.839844 510.839844 87.609375 C 504.875 90.152344 498.484375 91.175781 492.507812 93.71875 C 488.675781 95.355469 491.484375 101.167969 495.257812 100.234375 C 521.988281 93.625 549.175781 88.402344 576.796875 88.140625 C 575.953125 86.113281 575.113281 84.085938 574.277344 82.058594 C 561.773438 94.023438 546.175781 100.136719 530.023438 105.582031 C 530.9375 107.75 531.855469 109.921875 532.769531 112.097656 C 546.886719 103.703125 561.421875 96.046875 575.539062 87.65625 C 579.59375 85.242188 576.050781 79.722656 571.941406 81.5 C 549.882812 91.039062 527.589844 101.855469 510.121094 118.71875 C 507.097656 121.632812 510.925781 126.101562 514.4375 124.316406 C 533.382812 114.679688 551.3125 102.503906 561.542969 83.324219 C 563.207031 80.207031 559.84375 76.621094 556.664062 78.445312 C 533.558594 91.710938 510.910156 106.109375 491.789062 124.828125 C 493.46875 126.507812 495.148438 128.1875 496.828125 129.867188 C 509.863281 114.175781 526.785156 102.722656 542.65625 90.152344 C 546.273438 87.289062 541.1875 82.351562 537.613281 85.113281 C 513.496094 103.757812 497.578125 130.621094 473.457031 149.269531 C 475.136719 150.949219 476.816406 152.628906 478.5 154.308594 C 492.273438 137.339844 509.304688 122.644531 521.828125 104.707031 C 524.253906 101.234375 519.101562 97.804688 516.226562 100.386719 C 491.910156 122.25 476.386719 151.851562 452.070312 173.710938 C 453.9375 175.152344 455.800781 176.589844 457.671875 178.03125 C 476.070312 150.984375 501.777344 128.574219 515.714844 98.601562 C 517.304688 95.183594 512.894531 90.957031 510.117188 94.28125 C 490.964844 117.203125 479.128906 145.820312 455.125 164.546875 C 456.992188 165.984375 458.859375 167.425781 460.726562 168.863281 C 472.90625 145.132812 490.089844 124.628906 503.496094 101.65625 C 505.484375 98.25 500.464844 94.09375 497.898438 97.335938 C 485.328125 113.207031 473.871094 130.125 458.179688 143.160156 C 460.046875 144.601562 461.914062 146.039062 463.78125 147.480469 C 484.882812 118.003906 514.324219 96.84375 542.652344 74.882812 C 545.84375 72.410156 541.609375 66.929688 538.332031 69.28125 C 522.992188 80.304688 508.183594 92.171875 494.511719 105.214844 C 486.316406 113.035156 470.804688 126.628906 472.414062 139.570312 C 472.957031 144.058594 480.09375 144.113281 479.527344 139.558594 Z M 479.527344 139.558594 " fill-opacity="1" fill-rule="nonzero"/><path fill="#000000" d="M 489.132812 81.128906 C 473.019531 74.902344 456.546875 72.03125 439.304688 71.839844 C 440.492188 73.027344 441.679688 74.214844 442.867188 75.402344 C 442.867188 74.386719 442.867188 73.367188 442.867188 72.347656 C 441.996094 73.496094 441.125 74.640625 440.25 75.785156 C 453.609375 70.691406 469.558594 66.359375 483.328125 72.371094 C 483.613281 70.203125 483.898438 68.03125 484.179688 65.855469 C 464.988281 71.207031 448.632812 58.011719 435.714844 45.390625 C 434.035156 47.070312 432.351562 48.75 430.671875 50.429688 C 435.679688 54.480469 442.058594 56.960938 448.46875 57.585938 C 448.46875 55.207031 448.46875 52.832031 448.46875 50.457031 C 431.234375 49.980469 415.238281 42.488281 405.722656 27.78125 C 404.695312 29.570312 403.667969 31.355469 402.644531 33.144531 C 420.257812 33.691406 434.984375 42.15625 449.722656 50.988281 C 450.324219 48.773438 450.925781 46.5625 451.523438 44.347656 C 438.546875 44.339844 427.929688 43.136719 415.808594 38.363281 C 415.496094 40.695312 415.179688 43.03125 414.863281 45.363281 C 432.496094 45.546875 447.777344 49.316406 461.945312 60.152344 C 462.226562 57.984375 462.511719 55.8125 462.796875 53.636719 C 445.851562 56.035156 434.058594 48.980469 423.496094 36.226562 C 422.65625 38.253906 421.816406 40.285156 420.976562 42.308594 C 456.863281 46.027344 491.578125 62.871094 519.992188 84.59375 C 520.90625 82.421875 521.824219 80.25 522.738281 78.078125 C 504.1875 74.992188 485.652344 72.058594 466.800781 71.839844 C 462.871094 71.796875 461.8125 78.214844 465.855469 78.84375 C 483.089844 81.523438 500.632812 81.800781 517.789062 84.953125 C 517.789062 82.664062 517.789062 80.371094 517.789062 78.078125 C 494.03125 86.574219 468.683594 86.859375 447.21875 72.328125 C 446.933594 74.5 446.648438 76.671875 446.367188 78.84375 C 481.136719 66.867188 519.125 72.480469 554.449219 78.84375 C 554.765625 76.511719 555.082031 74.175781 555.398438 71.84375 C 534.085938 74.703125 512.550781 75.09375 491.238281 77.953125 C 486.839844 78.542969 486.496094 85.082031 491.238281 85.082031 C 494.296875 85.082031 497.351562 85.082031 500.40625 85.082031 C 505.070312 85.082031 504.914062 78.347656 500.40625 77.953125 C 465.519531 74.898438 413.285156 65.472656 403.027344 25.578125 C 401.28125 26.921875 399.535156 28.265625 397.789062 29.605469 C 422.53125 44.6875 436.351562 79.660156 444.753906 105.800781 C 452.449219 129.730469 463.097656 174.074219 437.507812 191.476562 C 439.25 192.820312 440.996094 194.160156 442.742188 195.503906 C 447.148438 171.652344 470.074219 155.363281 482.097656 135.253906 C 483.488281 132.925781 481.703125 129.890625 479.023438 129.890625 C 474.949219 129.890625 470.875 129.890625 466.800781 129.890625 C 462.203125 129.890625 462.203125 137.019531 466.800781 137.019531 C 470.875 137.019531 474.949219 137.019531 479.023438 137.019531 C 477.996094 135.230469 476.96875 133.445312 475.945312 131.65625 C 463.59375 152.316406 440.429688 168.917969 435.871094 193.609375 C 435.351562 196.410156 438.28125 199.558594 441.105469 197.636719 C 468.289062 179.152344 460.980469 137.457031 453.65625 110.710938 C 448.480469 91.8125 440.574219 73.476562 430.632812 56.605469 C 423.265625 44.101562 413.992188 31.136719 401.390625 23.457031 C 398.664062 21.792969 395.394531 24.515625 396.15625 27.480469 C 407.339844 70.96875 462.1875 81.742188 500.40625 85.089844 C 500.40625 82.710938 500.40625 80.335938 500.40625 77.960938 C 497.351562 77.960938 494.296875 77.960938 491.242188 77.960938 C 491.242188 80.335938 491.242188 82.710938 491.242188 85.089844 C 512.550781 82.226562 534.085938 81.839844 555.398438 78.976562 C 558.996094 78.496094 560.6875 72.761719 556.34375 71.976562 C 519.773438 65.382812 480.460938 59.578125 444.46875 71.976562 C 441.476562 73.007812 441.003906 76.722656 443.617188 78.492188 C 466.519531 93.988281 494.273438 94.042969 519.6875 84.960938 C 522.703125 83.882812 523.449219 78.777344 519.6875 78.085938 C 502.515625 74.929688 484.992188 74.65625 467.75 71.976562 C 467.433594 74.308594 467.117188 76.644531 466.804688 78.976562 C 485.019531 79.191406 502.914062 81.976562 520.84375 84.960938 C 524.960938 85.644531 526.828125 80.917969 523.59375 78.445312 C 494.121094 55.914062 458.136719 39.039062 420.976562 35.1875 C 417.554688 34.835938 416.714844 39.167969 418.457031 41.273438 C 430.871094 56.265625 445.15625 63.285156 464.695312 60.519531 C 468.167969 60.03125 467.625 55.59375 465.546875 54.003906 C 450.425781 42.4375 433.660156 38.4375 414.871094 38.242188 C 410.582031 38.199219 410.367188 43.84375 413.921875 45.246094 C 426.695312 50.277344 437.859375 51.476562 451.527344 51.484375 C 455.105469 51.484375 456.355469 46.65625 453.328125 44.839844 C 437.429688 35.316406 421.59375 26.609375 402.648438 26.027344 C 400.015625 25.945312 398.113281 29.140625 399.570312 31.390625 C 410.472656 48.234375 428.652344 57.046875 448.472656 57.59375 C 453.140625 57.722656 452.957031 50.902344 448.472656 50.464844 C 444.117188 50.042969 439.097656 48.132812 435.71875 45.398438 C 432.226562 42.570312 427.320312 47.15625 430.679688 50.441406 C 445.558594 64.980469 464.265625 78.824219 486.082031 72.742188 C 488.800781 71.984375 489.894531 67.519531 486.933594 66.226562 C 471.199219 59.355469 453.839844 63.023438 438.359375 68.925781 C 436.859375 69.496094 435.742188 70.660156 435.742188 72.363281 C 435.742188 73.382812 435.742188 74.398438 435.742188 75.417969 C 435.742188 77.378906 437.367188 78.960938 439.308594 78.980469 C 455.964844 79.167969 471.707031 82.015625 487.238281 88.019531 C 491.53125 89.664062 493.371094 82.769531 489.132812 81.128906 Z M 489.132812 81.128906 " fill-opacity="1" fill-rule="nonzero"/><path fill="#000000" d="M 432.660156 48.441406 C 421.0625 39.199219 415.683594 25.878906 415.371094 11.246094 C 413.585938 12.273438 411.796875 13.296875 410.007812 14.324219 C 419.796875 19.296875 425.140625 24.644531 430.117188 34.433594 C 432.167969 33.230469 434.222656 32.03125 436.273438 30.832031 C 435.226562 28.796875 433.808594 25.710938 431.253906 25.347656 C 429.425781 25.085938 427.3125 25.765625 426.871094 27.835938 C 425.472656 34.378906 429.207031 41.390625 429.628906 47.90625 C 429.921875 52.472656 437.054688 52.5 436.757812 47.90625 C 436.398438 42.402344 432.621094 34.988281 433.742188 29.734375 C 432.285156 30.5625 430.820312 31.390625 429.359375 32.222656 C 428.316406 32.074219 429.875 33.96875 430.113281 34.433594 C 432.214844 38.527344 438.347656 34.917969 436.269531 30.832031 C 430.75 19.976562 424.464844 13.6875 413.605469 8.167969 C 411.277344 6.984375 408.183594 8.410156 408.242188 11.246094 C 408.589844 27.59375 414.617188 43.121094 427.617188 53.480469 C 431.171875 56.316406 436.253906 51.308594 432.660156 48.441406 Z M 432.660156 48.441406 " fill-opacity="1" fill-rule="nonzero"/><path fill="#000000" d="M 448.46875 108.5 C 421.351562 109.101562 398.167969 126.953125 378.257812 143.617188 C 357.050781 161.367188 337.550781 185.535156 312.25 197.578125 C 308.101562 199.554688 311.722656 205.699219 315.847656 203.734375 C 337.636719 193.359375 355.117188 173.539062 372.871094 157.707031 C 393.589844 139.230469 419.082031 116.277344 448.46875 115.625 C 453.058594 115.527344 453.070312 108.398438 448.46875 108.5 Z M 448.46875 108.5 " fill-opacity="1" fill-rule="nonzero"/><path fill="#000000" d="M 429.191406 123.902344 C 385.960938 137.988281 346.152344 162.535156 309.871094 189.53125 C 272.050781 217.667969 236.277344 250.753906 210.199219 290.300781 C 184.289062 329.59375 178.359375 379.222656 178.359375 425.355469 C 178.359375 442.820312 180.164062 457.449219 187.128906 473.488281 C 194.128906 489.625 203.507812 505.214844 214.339844 519.074219 C 217.890625 523.613281 234.480469 545.320312 240.753906 532.398438 C 242.753906 528.28125 236.605469 524.667969 234.601562 528.800781 C 234.378906 529.257812 234.417969 529.136719 232.296875 527.769531 C 229.988281 526.277344 228.042969 524.097656 226.167969 522.121094 C 220.144531 515.777344 215.144531 508.449219 210.371094 501.148438 C 200.703125 486.367188 191.625 470.027344 187.300781 452.792969 C 185.109375 444.046875 185.574219 434.296875 185.492188 425.355469 C 185.367188 411.878906 186.234375 398.398438 187.609375 385 C 190.167969 360.113281 194.820312 333.707031 206.234375 311.203125 C 227.828125 268.632812 265.152344 233.871094 302 204.519531 C 339.320312 174.785156 381.511719 147.992188 426.765625 132.214844 C 428.203125 131.71875 429.644531 131.242188 431.089844 130.777344 C 435.4375 129.359375 433.574219 122.472656 429.191406 123.902344 Z M 429.191406 123.902344 " fill-opacity="1" fill-rule="nonzero"/></svg>