<svg xmlns="http://www.w3.org/2000/svg" xmlns:xlink="http://www.w3.org/1999/xlink" width="1024" zoomAndPan="magnify" viewBox="0 0 768 576" height="768" preserveAspectRatio="xMidYMid meet" version="1.0"><path fill="#ae6c3d" d="M 385.191406 61.890625 C 371.671875 94.542969 373.074219 134.664062 370.347656 184.445312 C 365.765625 268.125 369.039062 360.632812 371.058594 388.984375 C 379.574219 508.722656 386.34375 397.683594 406.5625 440.828125 C 448.523438 530.347656 605.390625 550.152344 599.910156 260.164062 C 598.816406 202.472656 617.046875 109.925781 591.511719 71.554688 C 578.816406 69.382812 540.421875 37.074219 491.726562 34.527344 C 448.128906 32.246094 393.789062 63.648438 385.191406 61.890625 " fill-opacity="1" fill-rule="evenodd"/><path fill="#f6af7a" d="M 180.984375 427.328125 C 168.765625 412.109375 121.640625 363.390625 110.292969 376.519531 C 97.480469 391.339844 148.167969 425.703125 148.167969 425.703125 C 148.167969 425.703125 96.890625 392.289062 92.800781 411.125 C 88.710938 429.957031 147.695312 446.679688 147.695312 446.679688 C 147.695312 446.679688 87.941406 430.101562 88.195312 446.402344 C 88.453125 462.707031 151.964844 466.53125 151.964844 466.53125 C 151.964844 466.53125 85.871094 462.597656 95.894531 485.71875 C 105.914062 508.835938 182.042969 483.78125 182.042969 483.78125 C 182.042969 483.78125 193.199219 442.550781 180.984375 427.328125 " fill-opacity="1" fill-rule="evenodd"/><path fill="#ae6c3d" d="M 555.554688 377.546875 C 562.367188 354.832031 592.65625 361.074219 592.65625 361.074219 C 592.65625 361.074219 635.835938 300.3125 649.585938 319.851562 C 663.34375 339.398438 603.261719 384.664062 603.261719 384.664062 C 603.261719 384.664062 664.296875 339.21875 671.816406 357.832031 C 679.332031 376.441406 607.839844 409.089844 607.839844 409.089844 C 607.839844 409.089844 682.257812 375.160156 681.769531 405.859375 C 681.289062 436.558594 581.390625 442.066406 581.390625 442.066406 C 581.390625 442.066406 548.746094 400.257812 555.554688 377.546875 " fill-opacity="1" fill-rule="evenodd"/><path fill="#f6af7a" d="M 225.949219 119.109375 C 249.488281 133.523438 352.082031 166.402344 374.714844 163.582031 C 387.730469 206.625 390.695312 280.449219 378.652344 359.957031 C 365.070312 449.664062 159.527344 440.941406 159.527344 440.941406 C 159.527344 440.941406 145.785156 426.953125 147.027344 346.707031 C 148.394531 258.492188 164.867188 214.703125 201.648438 145.832031 C 207.851562 134.210938 216.226562 125.449219 225.949219 119.109375 " fill-opacity="1" fill-rule="evenodd"/><path fill="#ae6c3d" d="M 292.195312 191.152344 C 285.59375 159.949219 248.65625 133.015625 225.949219 119.109375 C 273.816406 87.824219 354.339844 115.195312 369.242188 148.59375 C 371.230469 153.050781 373.0625 158.066406 374.714844 163.582031 C 352.082031 166.402344 332.476562 179.515625 321.742188 190.640625 C 319.804688 192.652344 317.878906 195.34375 316.011719 198.449219 C 305.925781 206.015625 295.875 199.535156 292.195312 191.152344 " fill-opacity="1" fill-rule="evenodd"/><path fill="#f9e705" d="M 292.195312 191.152344 C 298.371094 186.304688 310.894531 179.476562 316.011719 198.449219 C 306.554688 213.882812 298.152344 239.238281 294.753906 238.328125 C 289.386719 236.882812 294.878906 209.628906 292.808594 194.585938 C 292.648438 193.429688 292.449219 192.292969 292.195312 191.152344 " fill-opacity="1" fill-rule="evenodd"/><path fill="#8b481c" d="M 474.003906 126.066406 C 478.222656 117.828125 500.230469 94.039062 506.601562 89.050781 C 534.132812 67.53125 567.453125 67.433594 591.511719 71.554688 C 580.277344 54.605469 564.363281 39.953125 541.503906 27.949219 C 502.679688 7.566406 418.722656 0 385.191406 61.886719 C 403.394531 65.605469 435.375 92.667969 451.371094 118.671875 C 453.242188 121.714844 454.273438 107.097656 455.765625 110.359375 C 468.660156 123.878906 466.578125 134.167969 474.003906 126.066406 " fill-opacity="1" fill-rule="evenodd"/><path fill="#ca8556" d="M 539.011719 299.019531 C 538.648438 299.820312 537.847656 300.335938 536.96875 300.328125 C 536.09375 300.324219 535.296875 299.800781 534.941406 298.996094 C 530.738281 289.445312 520.984375 267.304688 516.113281 256.238281 C 515.480469 254.804688 515.617188 253.144531 516.484375 251.828125 C 517.34375 250.519531 518.808594 249.730469 520.382812 249.742188 C 529.417969 249.792969 544.894531 249.886719 554 249.9375 C 555.605469 249.949219 557.097656 250.769531 557.960938 252.121094 C 558.820312 253.46875 558.945312 255.164062 558.285156 256.628906 C 553.257812 267.679688 543.3125 289.558594 539.011719 299.019531 " fill-opacity="1" fill-rule="evenodd"/><path fill="#fab40a" d="M 512.488281 186.5625 C 509.46875 183.65625 479.195312 198.117188 469.8125 206.753906 C 469.8125 206.753906 466.242188 211.410156 490.683594 236.957031 C 498.292969 244.910156 503.984375 239.777344 512.433594 221.996094 C 520.785156 204.417969 514.808594 188.792969 512.488281 186.5625 " fill-opacity="1" fill-rule="evenodd"/><path fill="#fab40a" d="M 426.519531 187.554688 C 429.472656 184.972656 457.148438 199.808594 465.542969 208.292969 C 465.542969 208.292969 468.679688 212.800781 444.714844 235.621094 C 437.25 242.730469 432.160156 237.683594 425.027344 220.6875 C 417.984375 203.890625 424.257812 189.542969 426.519531 187.554688 " fill-opacity="1" fill-rule="evenodd"/><path fill="#f89e0e" d="M 467.285156 198.140625 C 462.164062 198.371094 458.21875 203.203125 458.472656 208.925781 C 458.726562 214.648438 463.089844 219.113281 468.207031 218.882812 C 473.324219 218.652344 477.273438 213.824219 477.015625 208.097656 C 476.765625 202.375 472.402344 197.910156 467.285156 198.140625 " fill-opacity="1" fill-rule="evenodd"/><path fill="#5a323a" d="M 539.855469 181.519531 C 564.816406 177.160156 581.578125 153.304688 577.214844 128.351562 C 572.851562 103.394531 548.996094 86.640625 524.039062 91.003906 C 499.078125 95.363281 482.316406 119.214844 486.679688 144.171875 C 491.042969 169.125 514.902344 185.875 539.855469 181.519531 Z M 525.382812 98.691406 C 546.097656 95.074219 565.898438 108.980469 569.519531 129.699219 C 573.140625 150.410156 559.234375 170.207031 538.511719 173.824219 C 517.796875 177.445312 497.996094 163.539062 494.375 142.824219 C 490.753906 122.113281 504.664062 102.316406 525.382812 98.691406 " fill-opacity="1" fill-rule="nonzero"/><path fill="#5a323a" d="M 411.59375 181.132812 C 436.554688 176.773438 453.308594 152.921875 448.945312 127.96875 C 444.582031 103.011719 420.730469 86.257812 395.769531 90.617188 C 370.808594 94.980469 354.050781 118.832031 358.414062 143.789062 C 362.777344 168.742188 386.632812 185.496094 411.59375 181.132812 Z M 397.113281 98.3125 C 417.828125 94.691406 437.632812 108.601562 441.253906 129.3125 C 444.875 150.023438 430.964844 169.824219 410.246094 173.445312 C 389.527344 177.0625 369.730469 163.15625 366.105469 142.445312 C 362.484375 121.726562 376.394531 101.933594 397.113281 98.3125 " fill-opacity="1" fill-rule="nonzero"/><path fill="#fcfeff" d="M 491.167969 143.390625 C 495.101562 165.90625 516.550781 180.972656 539.078125 177.035156 C 561.597656 173.101562 576.667969 151.65625 572.730469 129.132812 C 568.792969 106.617188 547.34375 91.550781 524.816406 95.484375 C 502.296875 99.421875 487.226562 120.867188 491.167969 143.390625 " fill-opacity="1" fill-rule="nonzero"/><path fill="#fcfeff" d="M 362.898438 143.003906 C 366.832031 165.527344 388.28125 180.589844 410.808594 176.652344 C 433.328125 172.71875 448.398438 151.269531 444.464844 128.753906 C 440.523438 106.230469 419.074219 91.167969 396.554688 95.101562 C 374.027344 99.035156 358.960938 120.484375 362.898438 143.003906 " fill-opacity="1" fill-rule="nonzero"/><path fill="#5a323a" d="M 498.199219 142.15625 C 501.460938 160.789062 519.207031 173.257812 537.84375 170 C 556.480469 166.742188 568.949219 148.996094 565.695312 130.363281 C 562.4375 111.730469 544.6875 99.265625 526.046875 102.523438 C 507.414062 105.777344 494.945312 123.523438 498.199219 142.15625 " fill-opacity="1" fill-rule="nonzero"/><path fill="#5a323a" d="M 369.933594 141.773438 C 373.191406 160.410156 390.941406 172.871094 409.578125 169.617188 C 428.21875 166.359375 440.683594 148.617188 437.425781 129.980469 C 434.167969 111.347656 416.421875 98.878906 397.78125 102.140625 C 379.144531 105.394531 366.675781 123.140625 369.933594 141.773438 " fill-opacity="1" fill-rule="nonzero"/><path fill="#f8c6a4" d="M 286.546875 329.355469 C 286.089844 330.234375 285.109375 330.703125 284.140625 330.515625 C 283.167969 330.320312 282.441406 329.515625 282.347656 328.535156 C 281.136719 315.292969 278.644531 288.152344 277.53125 275.964844 C 277.394531 274.515625 277.957031 273.082031 279.039062 272.109375 C 280.121094 271.128906 281.605469 270.71875 283.035156 271 C 289.816406 272.332031 300.734375 274.476562 307.566406 275.820312 C 309.027344 276.109375 310.269531 277.066406 310.917969 278.410156 C 311.5625 279.753906 311.539062 281.324219 310.851562 282.644531 C 305.171875 293.558594 292.664062 317.601562 286.546875 329.355469 " fill-opacity="1" fill-rule="evenodd"/><path fill="#88c5b8" d="M 475.019531 79.90625 C 474.972656 80.011719 474.859375 80.074219 474.742188 80.054688 C 474.628906 80.035156 474.539062 79.9375 474.523438 79.824219 C 473.273438 65.59375 465.171875 64.105469 464.773438 56.085938 C 464.539062 51.351562 468.191406 47.320312 472.925781 47.082031 C 477.65625 46.851562 481.695312 50.5 481.929688 55.234375 C 482.320312 63.144531 478.75 71.679688 475.019531 79.90625 " fill-opacity="1" fill-rule="evenodd"/><path fill="#88c5b8" d="M 450.160156 60.875 C 450.207031 60.984375 450.183594 61.109375 450.09375 61.1875 C 450.007812 61.261719 449.878906 61.269531 449.78125 61.207031 C 440.96875 55.140625 436.160156 59.0625 431.3125 55.382812 C 428.429688 53.199219 427.863281 49.089844 430.050781 46.207031 C 432.230469 43.328125 436.347656 42.757812 439.226562 44.945312 C 443.988281 48.554688 447.207031 54.730469 450.160156 60.875 " fill-opacity="1" fill-rule="evenodd"/><path fill="#88c5b8" d="M 496.722656 59.617188 C 496.667969 59.726562 496.695312 59.851562 496.785156 59.929688 C 496.875 60.007812 497.003906 60.015625 497.101562 59.953125 C 505.898438 53.867188 510.714844 57.777344 515.558594 54.09375 C 518.4375 51.902344 518.996094 47.789062 516.804688 44.914062 C 514.613281 42.039062 510.5 41.480469 507.621094 43.671875 C 502.867188 47.285156 499.660156 53.464844 496.722656 59.617188 " fill-opacity="1" fill-rule="evenodd"/><path fill="#f9e705" d="M 483.144531 113.660156 C 476.082031 105.585938 461.742188 94.308594 448.089844 114.242188 C 458.136719 136.085938 460.488281 160.742188 464.683594 160.535156 C 467.476562 160.402344 472.214844 134.679688 483.144531 113.660156 " fill-opacity="1" fill-rule="evenodd"/><path fill="#82c345" d="M 270.28125 86.648438 C 257.855469 87.609375 243.578125 102.804688 220.425781 118.632812 C 208.300781 126.925781 196.859375 122.863281 192.277344 127.765625 C 191.324219 115.792969 196.949219 97.691406 196.949219 97.691406 C 196.949219 97.691406 212.890625 72.691406 270.371094 86.589844 L 270.28125 86.648438 " fill-opacity="1" fill-rule="evenodd"/><path fill="#82c345" d="M 158.542969 68.574219 C 160.785156 78.769531 175.0625 88.832031 190.902344 106.1875 C 199.195312 115.277344 197.167969 125.238281 201.761719 128.46875 C 191.945312 130.65625 176.269531 128.109375 176.269531 128.109375 C 176.269531 128.109375 153.664062 117.808594 158.480469 68.507812 L 158.542969 68.574219 " fill-opacity="1" fill-rule="evenodd"/><path fill="#679c2e" d="M 270.28125 86.648438 C 269.199219 87.363281 259.875 93.878906 253.902344 109.738281 C 244.257812 135.332031 207.320312 142.699219 196.78125 137.425781 C 193.882812 135.972656 192.589844 132.308594 192.277344 127.765625 C 196.859375 122.863281 208.8125 125.933594 216.839844 113.636719 C 232.625 89.460938 257.855469 87.609375 270.28125 86.648438 " fill-opacity="1" fill-rule="evenodd"/><path fill="#679c2e" d="M 158.542969 68.574219 C 159.257812 69.390625 165.753906 76.363281 179.605469 79.464844 C 201.96875 84.472656 212.398438 114.246094 209.253906 123.601562 C 208.386719 126.179688 205.5 127.675781 201.761719 128.46875 C 197.167969 125.238281 201.425781 112.449219 189.96875 107.964844 C 168.339844 99.5 160.785156 78.769531 158.542969 68.574219 " fill-opacity="1" fill-rule="evenodd"/><path fill="#ee70bf" d="M 208.945312 121.386719 C 207.789062 121.308594 206.703125 120.976562 205.742188 120.375 C 205.101562 119.972656 204.546875 119.464844 204.078125 118.871094 C 203.546875 119.335938 202.953125 119.71875 202.300781 119.996094 C 201.589844 120.296875 200.847656 120.460938 200.078125 120.503906 C 200.03125 120.691406 199.976562 120.875 199.910156 121.058594 C 199.394531 122.496094 198.398438 123.683594 197.046875 124.585938 C 197.96875 125.414062 198.648438 126.398438 199.023438 127.539062 C 199.414062 128.71875 199.449219 129.957031 199.175781 131.207031 C 199.722656 131.253906 200.261719 131.367188 200.78125 131.550781 C 201.207031 131.699219 201.609375 131.886719 201.992188 132.117188 C 202.699219 131.265625 203.5625 130.605469 204.5625 130.179688 C 205.402344 129.824219 206.296875 129.660156 207.214844 129.664062 C 207.332031 129.003906 207.542969 128.367188 207.851562 127.765625 C 208.324219 126.859375 208.992188 126.09375 209.824219 125.476562 C 209.582031 125.074219 209.386719 124.644531 209.234375 124.191406 C 208.9375 123.28125 208.84375 122.34375 208.945312 121.386719 Z M 225.289062 108.210938 C 232.867188 106.726562 239.65625 108.875 241.222656 113.609375 C 242.886719 118.632812 238.105469 124.816406 230.371094 128.015625 C 236.8125 132.410156 240.074219 138.824219 237.757812 143.285156 C 235.566406 147.511719 229.0625 148.65625 222.175781 146.4375 C 223.648438 153.265625 221.972656 159.394531 217.695312 161.203125 C 213.34375 163.046875 207.644531 159.832031 203.757812 153.808594 C 200.324219 160.847656 194.417969 165.007812 189.660156 163.347656 C 184.269531 161.460938 182.386719 152.808594 185.457031 144.035156 C 185.605469 143.601562 185.765625 143.179688 185.933594 142.761719 C 177.230469 145.519531 168.808594 143.46875 167.035156 138.121094 C 165.398438 133.171875 170.019531 127.09375 177.558594 123.851562 C 170.585938 120.371094 166.488281 114.457031 168.179688 109.726562 C 169.910156 104.878906 177.132812 102.914062 184.957031 104.875 C 183.035156 97.597656 184.652344 90.882812 189.164062 88.972656 C 194.421875 86.746094 201.632812 91.890625 205.257812 100.453125 C 205.371094 100.710938 205.472656 100.96875 205.574219 101.226562 C 205.695312 101.019531 205.820312 100.816406 205.949219 100.613281 C 210.898438 92.742188 218.839844 88.816406 223.671875 91.855469 C 227.820312 94.457031 228.34375 101.34375 225.289062 108.210938 " fill-opacity="1" fill-rule="evenodd"/><path fill="#f9e705" d="M 215.285156 121.59375 C 217.105469 127.863281 213.359375 134.46875 206.917969 136.339844 C 200.480469 138.210938 193.773438 134.636719 191.953125 128.367188 C 190.132812 122.09375 193.878906 115.484375 200.320312 113.613281 C 206.757812 111.746094 213.464844 115.316406 215.285156 121.59375 " fill-opacity="1" fill-rule="evenodd"/><path fill="#5a323a" d="M 234.890625 240.449219 C 212.269531 238.492188 195.402344 218.148438 197.285156 195.105469 C 199.171875 172.0625 219.109375 154.90625 241.734375 156.867188 C 264.351562 158.828125 281.222656 179.171875 279.335938 202.214844 C 277.449219 225.261719 257.511719 242.414062 234.890625 240.449219 Z M 241.152344 163.96875 C 222.375 162.339844 205.824219 176.582031 204.257812 195.707031 C 202.695312 214.839844 216.695312 231.722656 235.472656 233.351562 C 254.25 234.976562 270.796875 220.738281 272.363281 201.613281 C 273.929688 182.484375 259.925781 165.597656 241.152344 163.96875 " fill-opacity="1" fill-rule="nonzero"/><path fill="#5a323a" d="M 352.253906 260.609375 C 332.089844 258.867188 317.054688 240.730469 318.738281 220.191406 C 320.417969 199.648438 338.191406 184.359375 358.355469 186.109375 C 378.519531 187.855469 393.554688 205.988281 391.871094 226.53125 C 390.1875 247.074219 372.421875 262.359375 352.253906 260.609375 Z M 357.835938 192.4375 C 341.097656 190.988281 326.347656 203.679688 324.953125 220.730469 C 323.558594 237.78125 336.035156 252.828125 352.773438 254.28125 C 369.511719 255.734375 384.261719 243.039062 385.65625 225.992188 C 387.050781 208.941406 374.574219 193.890625 357.835938 192.4375 " fill-opacity="1" fill-rule="nonzero"/><path fill="#fcfeff" d="M 275.273438 201.867188 C 273.570312 222.660156 255.644531 238.085938 235.230469 236.3125 C 214.816406 234.546875 199.648438 216.253906 201.351562 195.457031 C 203.050781 174.660156 220.980469 159.238281 241.394531 161.007812 C 261.808594 162.777344 276.976562 181.070312 275.273438 201.867188 " fill-opacity="1" fill-rule="nonzero"/><path fill="#fcfeff" d="M 388.25 226.214844 C 386.734375 244.753906 370.753906 258.5 352.558594 256.921875 C 334.363281 255.347656 320.839844 239.042969 322.359375 220.507812 C 323.875 201.96875 339.859375 188.222656 358.050781 189.796875 C 376.25 191.375 389.769531 207.679688 388.25 226.214844 " fill-opacity="1" fill-rule="nonzero"/><path fill="#5a323a" d="M 268.894531 201.3125 C 267.488281 218.515625 252.652344 231.28125 235.761719 229.816406 C 218.871094 228.351562 206.316406 213.21875 207.726562 196.007812 C 209.136719 178.804688 223.972656 166.042969 240.863281 167.503906 C 257.753906 168.96875 270.304688 184.105469 268.894531 201.3125 " fill-opacity="1" fill-rule="nonzero"/><path fill="#f57821" d="M 326.097656 283.078125 C 315.363281 293.867188 311.691406 312.527344 310.3125 333.261719 C 307.191406 380.105469 309.796875 425.566406 321.902344 456.636719 C 327.484375 470.957031 432.085938 489.003906 464.222656 475.078125 C 496.355469 461.148438 462.6875 406.304688 459.273438 364.003906 C 456.90625 334.648438 456.117188 309.082031 441.878906 289.554688 C 434.761719 288.472656 413.300781 272.074219 385.992188 270.886719 C 361.542969 269.820312 330.914062 283.957031 326.097656 283.078125 " fill-opacity="1" fill-rule="evenodd"/><path fill="#c8501f" d="M 389.375 311.578125 C 391.347656 305.722656 393.296875 297.125 402.542969 291.304688 C 414.085938 284.054688 428.390625 287.507812 441.878906 289.554688 C 435.617188 280.933594 426.726562 273.492188 413.929688 267.414062 C 392.195312 257.101562 344.085938 251.183594 319.652344 291.859375 C 329.855469 293.714844 356.203125 289.253906 366.753906 301.222656 C 370.035156 304.9375 373.167969 310.929688 373.996094 312.589844 C 381.199219 319.460938 385.195312 315.726562 389.375 311.578125 " fill-opacity="1" fill-rule="evenodd"/><path fill="#5a323a" d="M 419.144531 334.226562 C 431.535156 331.480469 439.363281 320.097656 436.582031 308.851562 C 433.804688 297.609375 421.457031 290.695312 409.0625 293.441406 C 396.667969 296.1875 388.839844 307.570312 391.621094 318.8125 C 394.398438 330.058594 406.746094 336.972656 419.144531 334.226562 Z M 409.917969 296.910156 C 420.207031 294.628906 430.453125 300.367188 432.761719 309.699219 C 435.070312 319.035156 428.574219 328.480469 418.285156 330.757812 C 407.996094 333.039062 397.75 327.300781 395.441406 317.96875 C 393.136719 308.636719 399.632812 299.1875 409.917969 296.910156 " fill-opacity="1" fill-rule="nonzero"/><path fill="#5a323a" d="M 354.363281 338.867188 C 366.757812 336.121094 374.582031 324.738281 371.804688 313.5 C 369.023438 302.25 356.679688 295.339844 344.28125 298.085938 C 331.886719 300.832031 324.0625 312.214844 326.839844 323.460938 C 329.621094 334.703125 341.964844 341.613281 354.363281 338.867188 Z M 345.140625 301.550781 C 355.429688 299.269531 365.675781 305.011719 367.984375 314.339844 C 370.289062 323.675781 363.792969 333.125 353.503906 335.40625 C 343.214844 337.683594 332.96875 331.945312 330.664062 322.613281 C 328.355469 313.28125 334.851562 303.832031 345.140625 301.550781 " fill-opacity="1" fill-rule="nonzero"/><path fill="#fcfeff" d="M 393.847656 318.320312 C 396.355469 328.46875 407.453125 334.683594 418.644531 332.203125 C 429.828125 329.730469 436.863281 319.492188 434.355469 309.347656 C 431.851562 299.199219 420.746094 292.984375 409.5625 295.460938 C 398.375 297.941406 391.339844 308.179688 393.847656 318.320312 " fill-opacity="1" fill-rule="nonzero"/><path fill="#fcfeff" d="M 329.066406 322.96875 C 331.578125 333.113281 342.675781 339.328125 353.863281 336.851562 C 365.046875 334.371094 372.082031 324.136719 369.578125 313.988281 C 367.070312 303.847656 355.96875 297.625 344.78125 300.105469 C 333.59375 302.585938 326.558594 312.820312 329.066406 322.96875 " fill-opacity="1" fill-rule="nonzero"/><path fill="#5a323a" d="M 332.5625 322.191406 C 334.636719 330.589844 343.824219 335.730469 353.078125 333.679688 C 362.335938 331.628906 368.15625 323.160156 366.082031 314.765625 C 364.007812 306.367188 354.820312 301.226562 345.566406 303.277344 C 336.308594 305.324219 330.488281 313.792969 332.5625 322.191406 " fill-opacity="1" fill-rule="nonzero"/><path fill="#db611c" d="M 376.691406 293.742188 C 376.640625 293.839844 376.527344 293.902344 376.414062 293.878906 C 376.300781 293.863281 376.214844 293.773438 376.199219 293.660156 C 375.410156 286.753906 371.027344 285.96875 370.828125 281.945312 C 370.707031 279.53125 372.761719 277.464844 375.417969 277.332031 C 378.074219 277.203125 380.328125 279.058594 380.449219 281.476562 C 380.648438 285.402344 378.738281 289.640625 376.691406 293.742188 " fill-opacity="1" fill-rule="evenodd"/><path fill="#db611c" d="M 362.414062 284.035156 C 362.46875 284.136719 362.449219 284.265625 362.363281 284.347656 C 362.285156 284.425781 362.15625 284.445312 362.058594 284.386719 C 357.347656 281.609375 354.707031 283.484375 352.058594 281.667969 C 350.445312 280.554688 350.140625 278.457031 351.371094 276.984375 C 352.605469 275.507812 354.914062 275.210938 356.523438 276.320312 C 359.074219 278.074219 360.828125 281.039062 362.414062 284.035156 " fill-opacity="1" fill-rule="evenodd"/><path fill="#db611c" d="M 388.945312 283.28125 C 388.894531 283.382812 388.914062 283.511719 389 283.589844 C 389.078125 283.671875 389.207031 283.6875 389.308594 283.632812 C 394.03125 280.816406 396.660156 282.664062 399.316406 280.820312 C 400.9375 279.691406 401.257812 277.59375 400.035156 276.128906 C 398.8125 274.664062 396.507812 274.386719 394.886719 275.515625 C 392.324219 277.292969 390.554688 280.269531 388.945312 283.28125 " fill-opacity="1" fill-rule="evenodd"/><path fill="#5a323a" d="M 382.566406 225.722656 C 381.308594 241.0625 368.085938 252.441406 353.03125 251.132812 C 337.976562 249.828125 326.789062 236.335938 328.042969 220.996094 C 329.300781 205.660156 342.523438 194.285156 357.578125 195.589844 C 372.632812 196.894531 383.824219 210.386719 382.566406 225.722656 " fill-opacity="1" fill-rule="nonzero"/><path fill="#f8c6a4" d="M 203.714844 321.925781 C 203.296875 322.824219 202.339844 323.335938 201.359375 323.191406 C 200.378906 323.042969 199.617188 322.269531 199.484375 321.289062 C 197.675781 308.113281 193.972656 281.117188 192.3125 268.992188 C 192.113281 267.546875 192.609375 266.09375 193.648438 265.066406 C 194.6875 264.039062 196.148438 263.566406 197.589844 263.78125 C 204.425781 264.8125 215.425781 266.464844 222.3125 267.503906 C 223.789062 267.726562 225.070312 268.628906 225.777344 269.941406 C 226.480469 271.25 226.527344 272.820312 225.898438 274.171875 C 220.71875 285.324219 209.296875 309.90625 203.714844 321.925781 " fill-opacity="1" fill-rule="evenodd"/><path fill="#f5e2d5" d="M 222.574219 328.257812 C 222.574219 328.257812 225.644531 314.574219 229.445312 313.046875 C 233.25 311.527344 296.617188 327.566406 321.691406 337.632812 C 346.765625 347.703125 380.777344 372.316406 380.777344 372.316406 L 385.988281 372.089844 C 385.988281 372.089844 421.117188 339.128906 457.96875 327.539062 C 494.816406 315.945312 540.597656 305.011719 547.117188 307.914062 C 553.636719 310.8125 553.789062 331.582031 553.789062 331.582031 L 404.21875 390.054688 L 356.21875 390.449219 L 222.574219 328.257812 " fill-opacity="1" fill-rule="evenodd"/><path fill="#c23643" d="M 213.097656 326.164062 C 213.097656 326.164062 213.601562 322.429688 216.414062 320.371094 C 219.226562 318.308594 363.097656 379.6875 363.097656 379.6875 C 363.097656 379.6875 365.414062 370.871094 380.671875 370 C 395.929688 369.128906 401.777344 378.742188 401.777344 378.742188 C 401.777344 378.742188 554.886719 317.148438 559.960938 318.078125 C 565.039062 319.015625 564.511719 324.558594 564.511719 324.558594 L 396.71875 390.386719 L 364.027344 391.84375 L 213.097656 326.164062 " fill-opacity="1" fill-rule="evenodd"/><path fill="#f9ae7a" d="M 385.78125 363.433594 C 385.472656 364.132812 384.796875 364.589844 384.035156 364.625 C 383.273438 364.65625 382.558594 364.261719 382.1875 363.59375 C 379.773438 359.253906 375.632812 351.816406 372.730469 346.59375 C 372.027344 345.328125 372.027344 343.789062 372.734375 342.527344 C 373.441406 341.265625 374.75 340.457031 376.195312 340.390625 C 380.269531 340.210938 385.445312 339.980469 389.546875 339.796875 C 391.019531 339.734375 392.429688 340.4375 393.261719 341.65625 C 394.089844 342.878906 394.234375 344.441406 393.632812 345.789062 C 391.207031 351.242188 387.785156 358.933594 385.78125 363.433594 " fill-opacity="1" fill-rule="evenodd"/><path fill="#ca8556" d="M 472.382812 314.535156 C 472.101562 315.140625 471.488281 315.523438 470.824219 315.503906 C 470.152344 315.480469 469.5625 315.0625 469.328125 314.4375 C 466.058594 305.796875 457.941406 284.359375 454.300781 274.734375 C 453.894531 273.65625 454.050781 272.449219 454.714844 271.515625 C 455.386719 270.582031 456.476562 270.042969 457.625 270.078125 C 465.183594 270.324219 479.203125 270.777344 486.820312 271.027344 C 487.996094 271.0625 489.070312 271.683594 489.691406 272.679688 C 490.308594 273.675781 490.390625 274.917969 489.902344 275.984375 C 485.621094 285.40625 476.191406 306.152344 472.382812 314.535156 " fill-opacity="1" fill-rule="evenodd"/><path fill="#5a323a" d="M 397.34375 317.546875 C 399.414062 325.945312 408.601562 331.085938 417.859375 329.039062 C 427.113281 326.988281 432.9375 318.515625 430.863281 310.117188 C 428.789062 301.726562 419.601562 296.582031 410.34375 298.632812 C 401.089844 300.683594 395.269531 309.152344 397.34375 317.546875 " fill-opacity="1" fill-rule="nonzero"/><path fill="#f9e705" d="M 389.386719 311.535156 C 387.554688 310.023438 380.609375 305.796875 373.941406 312.535156 C 379.015625 323.390625 380.777344 335.828125 382.621094 335.640625 C 383.847656 335.519531 385.183594 322.398438 389.386719 311.535156 " fill-opacity="1" fill-rule="evenodd"/><path fill="#e6495d" d="M 367.027344 387.0625 C 365.546875 386.789062 216.566406 321.6875 213.027344 324.542969 C 208.351562 328.320312 210.578125 515.394531 214.28125 520.261719 C 217.984375 525.125 362.847656 575.585938 362.847656 575.585938 L 367.027344 387.0625 " fill-opacity="1" fill-rule="evenodd"/><path fill="#e6495d" d="M 394.359375 388.699219 C 399.523438 386.976562 560.433594 319.957031 564.429688 322.796875 C 568.429688 325.640625 552.789062 522.226562 546.445312 527.542969 C 540.097656 532.859375 397.769531 575.984375 397.769531 575.984375 L 394.359375 388.699219 " fill-opacity="1" fill-rule="evenodd"/><path fill="#d53d4d" d="M 397.488281 575.980469 L 363.441406 575.613281 C 361.742188 575.59375 360.367188 574.191406 360.386719 572.488281 L 362.375 387.5 C 362.394531 385.796875 363.800781 384.425781 365.496094 384.441406 L 399.546875 384.8125 C 401.246094 384.828125 402.621094 386.230469 402.605469 387.929688 L 400.613281 572.921875 C 400.59375 574.621094 399.191406 575.996094 397.488281 575.980469 " fill-opacity="1" fill-rule="evenodd"/><path fill="#8b481c" d="M 604.78125 161.214844 C 604.78125 161.214844 619.148438 335.867188 609.617188 398.425781 C 597.78125 476.089844 559.34375 512.839844 536.847656 498.929688 C 516.289062 486.21875 552.203125 459.203125 552.203125 459.203125 C 552.203125 459.203125 531.125 470.246094 526.660156 458.625 C 521.558594 445.34375 549.523438 418.492188 549.523438 418.492188 C 549.523438 418.492188 530.339844 432.375 526.003906 422.570312 C 517.699219 403.777344 555.082031 382.371094 572.988281 336.664062 C 583.613281 309.542969 604.78125 161.214844 604.78125 161.214844 " fill-opacity="1" fill-rule="evenodd"/><path fill="#88c5b8" d="M 588.773438 430 C 588.824219 429.820312 588.742188 429.632812 588.578125 429.546875 C 588.417969 429.460938 588.214844 429.507812 588.113281 429.660156 C 573.15625 451.902344 563.027344 454.816406 554.996094 466.585938 C 550.742188 472.820312 549.214844 480.761719 551.585938 484.308594 C 553.949219 487.851562 559.066406 484.554688 563.796875 479.160156 C 574.972656 466.4375 582.296875 451.292969 588.773438 430 " fill-opacity="1" fill-rule="evenodd"/><path fill="#88c5b8" d="M 594.582031 391.445312 C 594.652344 391.28125 594.59375 391.082031 594.445312 390.976562 C 594.296875 390.871094 594.101562 390.894531 593.984375 391.03125 C 576.894531 411.039062 566.738281 412.609375 557.582031 423.183594 C 552.734375 428.785156 550.328125 436.414062 552.214844 440.210938 C 554.101562 444.007812 559.445312 441.40625 564.660156 436.703125 C 576.96875 425.585938 585.835938 411.601562 594.582031 391.445312 " fill-opacity="1" fill-rule="evenodd"/><path fill="#88c5b8" d="M 585.585938 358.644531 C 585.648438 358.484375 585.585938 358.300781 585.445312 358.207031 C 585.300781 358.117188 585.117188 358.148438 585.011719 358.273438 C 569.886719 377.605469 560.480469 379.476562 552.371094 389.699219 C 548.078125 395.109375 546.140625 402.316406 548.046875 405.78125 C 549.960938 409.246094 554.835938 406.609375 559.507812 402.011719 C 570.535156 391.164062 578.234375 377.777344 585.585938 358.644531 " fill-opacity="1" fill-rule="evenodd"/><path fill="#ae6c3d" d="M 167.980469 217.96875 C 167.980469 217.96875 163.035156 273.734375 185.214844 328.4375 C 207.398438 383.132812 260.957031 420.625 253.289062 431.035156 C 245.621094 441.441406 224.046875 426.527344 224.046875 426.527344 C 224.046875 426.527344 253.425781 451.546875 244.109375 459.703125 C 234.792969 467.859375 218.96875 454.238281 218.96875 454.238281 C 218.96875 454.238281 244.582031 479.035156 232.914062 486.527344 C 221.242188 494.011719 210.835938 477.820312 210.835938 477.820312 C 210.835938 477.820312 222.964844 498.414062 214.8125 504.75 C 198.425781 517.492188 146.53125 447.25 144.316406 366.417969 C 141.542969 265.339844 167.980469 217.96875 167.980469 217.96875 " fill-opacity="1" fill-rule="evenodd"/><path fill="#ee70bf" d="M 202.359375 412.347656 C 202.289062 412.097656 202.40625 411.832031 202.644531 411.714844 C 202.878906 411.605469 203.160156 411.679688 203.3125 411.890625 C 214.925781 428.695312 223.71875 432.351562 230.03125 441.550781 C 233.441406 446.523438 234.238281 452.238281 231.8125 454.304688 C 229.386719 456.375 224.96875 453.289062 221.058594 448.820312 C 212.09375 438.585938 206.609375 427.359375 202.359375 412.347656 " fill-opacity="1" fill-rule="evenodd"/><path fill="#ee70bf" d="M 174.714844 426.957031 C 174.679688 426.695312 174.839844 426.457031 175.089844 426.378906 C 175.339844 426.304688 175.609375 426.417969 175.726562 426.652344 C 184.625 445.042969 192.75 450.003906 197.574219 460.0625 C 200.179688 465.496094 200.09375 471.265625 197.375 472.9375 C 194.660156 474.609375 190.769531 470.882812 187.589844 465.871094 C 180.304688 454.382812 176.609375 442.445312 174.714844 426.957031 " fill-opacity="1" fill-rule="evenodd"/><path fill="#ee70bf" d="M 167.953125 376.246094 C 167.929688 376.007812 168.074219 375.746094 168.289062 375.640625 C 168.503906 375.535156 168.730469 375.601562 168.824219 375.8125 C 176.023438 392.019531 182.859375 395.574219 186.761719 404.445312 C 188.871094 409.234375 188.667969 414.734375 186.3125 416.714844 C 183.953125 418.695312 180.714844 415.707031 178.105469 411.394531 C 172.132812 401.519531 169.234375 390.699219 167.953125 376.246094 " fill-opacity="1" fill-rule="evenodd"/><path fill="#ee70bf" d="M 169.746094 324.832031 C 169.753906 324.605469 169.910156 324.363281 170.113281 324.265625 C 170.320312 324.167969 170.511719 324.234375 170.574219 324.429688 C 175.046875 339.9375 180.703125 343.414062 183.121094 351.894531 C 184.425781 356.480469 183.59375 361.695312 181.257812 363.539062 C 178.925781 365.378906 176.398438 362.492188 174.59375 358.359375 C 170.453125 348.890625 169.164062 338.570312 169.746094 324.832031 " fill-opacity="1" fill-rule="evenodd"/></svg>