<svg xmlns="http://www.w3.org/2000/svg" xmlns:xlink="http://www.w3.org/1999/xlink" width="1024" zoomAndPan="magnify" viewBox="0 0 768 576" height="768" preserveAspectRatio="xMidYMid meet" version="1.0"><path fill="#ffc1a0" d="M 161.347656 227.484375 C 162.417969 230.699219 212.105469 221.410156 221.757812 226.054688 C 231.585938 230.875 290.386719 263.914062 290.386719 263.914062 L 302.183594 231.949219 C 302.183594 231.949219 234.265625 202.304688 226.582031 197.839844 C 218.898438 193.375 192.089844 174.800781 187.976562 178.015625 C 183.867188 181.230469 200.488281 197.660156 200.488281 197.660156 C 200.488281 197.660156 168.675781 197.304688 163.847656 201.765625 C 159.203125 206.230469 182.972656 208.019531 182.972656 208.019531 C 182.972656 208.019531 157.238281 211.945312 155.984375 216.054688 C 154.734375 220.160156 172.070312 218.019531 172.070312 218.019531 C 172.070312 218.019531 160.273438 224.269531 161.347656 227.484375 Z M 161.347656 227.484375 " fill-opacity="1" fill-rule="nonzero"/><path fill="#ffc1a0" d="M 580.636719 180.160156 C 576.527344 176.945312 549.71875 195.515625 542.035156 199.980469 C 534.347656 204.445312 466.433594 234.089844 466.433594 234.089844 L 478.226562 266.058594 C 478.226562 266.058594 537.027344 233.019531 546.859375 228.199219 C 556.6875 223.375 606.195312 232.839844 607.269531 229.625 C 608.339844 226.410156 596.367188 220.160156 596.367188 220.160156 C 596.367188 220.160156 613.703125 222.304688 612.453125 218.195312 C 611.199219 214.089844 585.464844 210.160156 585.464844 210.160156 C 585.464844 210.160156 609.234375 208.375 604.585938 203.910156 C 599.941406 199.445312 567.949219 199.804688 567.949219 199.804688 C 567.949219 199.804688 584.75 183.550781 580.636719 180.160156 Z M 580.636719 180.160156 " fill-opacity="1" fill-rule="nonzero"/><path fill="#4fbead" d="M 480.015625 225.519531 L 423 241.054688 L 427.46875 295.167969 L 497.710938 268.914062 Z M 480.015625 225.519531 " fill-opacity="1" fill-rule="nonzero"/><path fill="#224966" d="M 486.257812 568.160156 C 485.546875 560.976562 438.6875 539.195312 438.6875 539.195312 L 407.097656 538.863281 C 407.097656 538.863281 398.871094 564.472656 403.171875 570.144531 C 407.476562 575.8125 486.96875 575.339844 486.257812 568.160156 Z M 486.257812 568.160156 " fill-opacity="1" fill-rule="nonzero"/><path fill="#fa9c22" d="M 459.546875 560.484375 C 462.101562 558.925781 464.75 551.316406 464.75 551.316406 C 464.75 551.316406 454.015625 543.617188 447.867188 543.238281 C 447.867188 543.238281 442.191406 549.804688 442.996094 553.726562 C 443.847656 557.648438 456.992188 561.996094 459.546875 560.484375 Z M 459.546875 560.484375 " fill-opacity="1" fill-rule="nonzero"/><path fill="#fa9c22" d="M 486.230469 568.175781 C 486.183594 567.609375 485.757812 566.898438 485.140625 566.144531 C 481.546875 567.277344 472.894531 569.496094 457.574219 570.253906 C 438.375 571.199219 412.792969 571.011719 401.914062 565.246094 C 402.007812 567.371094 402.339844 569.121094 403.144531 570.160156 C 407.496094 575.828125 486.9375 575.355469 486.230469 568.175781 Z M 486.230469 568.175781 " fill-opacity="1" fill-rule="nonzero"/><path fill="#224966" d="M 175.1875 414.734375 C 168.613281 417.710938 207.910156 486.699219 215.003906 487.644531 C 222.097656 488.542969 240.160156 468.601562 240.160156 468.601562 L 224.082031 441.433594 C 224.082031 441.433594 181.761719 411.757812 175.1875 414.734375 Z M 175.1875 414.734375 " fill-opacity="1" fill-rule="nonzero"/><path fill="#fa9c22" d="M 236.695312 428.222656 C 234.238281 428.929688 232.34375 432.664062 230.074219 434.269531 C 227.757812 435.828125 223.03125 436.160156 221.042969 438.472656 C 219.058594 440.789062 221.375 457.375 227.757812 465.21875 C 234.144531 473.0625 237.121094 476.699219 241.378906 472.921875 C 245.632812 469.09375 249.699219 467.535156 253.625 464.558594 C 257.550781 461.578125 256.984375 460.351562 255.042969 453.972656 C 253.105469 447.59375 249.417969 437.8125 242.324219 430.582031 C 242.324219 430.582031 239.15625 427.511719 236.695312 428.222656 Z M 236.695312 428.222656 " fill-opacity="1" fill-rule="nonzero"/><path fill="#ffc1a0" d="M 252.5 461.167969 C 276.902344 449.023438 305.367188 430.546875 321.398438 430.171875 C 315.300781 409.804688 305.367188 390.855469 305.367188 390.855469 C 302.578125 392.179688 267.820312 409.851562 237.367188 432.722656 C 240.441406 446.613281 247.15625 457.199219 252.5 461.167969 Z M 252.5 461.167969 " fill-opacity="1" fill-rule="nonzero"/><path fill="#fa9c22" d="M 444.34375 521.683594 C 443.730469 519.226562 439.472656 517.949219 439.472656 517.949219 C 429.636719 515.445312 419.375 517.148438 412.851562 518.613281 C 406.324219 520.125 404.953125 520.21875 404.386719 525.132812 C 403.773438 530.046875 404.433594 534.347656 403.25 539.921875 C 402.070312 545.496094 406.75 546.253906 416.730469 547.859375 C 426.707031 549.464844 442.265625 543.183594 443.257812 540.300781 C 444.296875 537.417969 442.167969 533.164062 442.40625 530.378906 C 442.691406 527.683594 444.960938 524.140625 444.34375 521.683594 Z M 444.34375 521.683594 " fill-opacity="1" fill-rule="nonzero"/><path fill="#ffc1a0" d="M 439.660156 523.347656 C 444.246094 485.546875 442.167969 446.660156 441.929688 443.589844 C 441.929688 443.589844 420.507812 444.488281 399.84375 449.402344 C 407.550781 463.433594 405.753906 497.359375 407.457031 524.53125 C 413.558594 527.128906 426.089844 527.648438 439.660156 523.347656 Z M 439.660156 523.347656 " fill-opacity="1" fill-rule="nonzero"/><path fill="#224966" d="M 328.636719 444.964844 C 328.636719 444.964844 358.238281 431.40625 370.867188 431.453125 C 391.816406 431.59375 396.636719 455.03125 396.636719 455.03125 C 396.636719 455.03125 433.285156 461.171875 448.324219 452.007812 C 443.691406 379.523438 439.71875 369.835938 439.71875 369.835938 L 328.589844 372.578125 C 328.589844 372.578125 308.917969 386.328125 293.785156 392.09375 C 309.722656 428.996094 327.078125 445.769531 328.636719 444.964844 Z M 328.636719 444.964844 " fill-opacity="1" fill-rule="nonzero"/><path fill="#4fbead" d="M 330.988281 309.34375 C 323.566406 350.453125 319.261719 375.777344 319.261719 375.777344 C 319.261719 375.777344 401.921875 398.695312 448.785156 371.003906 C 443.914062 334.101562 437.007812 306.648438 437.007812 306.648438 L 426.039062 243.757812 C 401.828125 237.191406 346.972656 233.503906 344.703125 244.277344 Z M 330.988281 309.34375 " fill-opacity="1" fill-rule="nonzero"/><path fill="#fa9c22" d="M 444.195312 341.285156 C 442.070312 329.378906 440.175781 320.398438 438.804688 314.398438 C 404.003906 319.265625 357.941406 316.382812 330.183594 313.785156 C 328.246094 324.605469 326.921875 332.070312 325.503906 340.292969 C 364.800781 350.121094 414.925781 345.488281 444.195312 341.285156 Z M 444.195312 341.285156 " fill-opacity="1" fill-rule="nonzero"/><path fill="#ffffff" d="M 376.507812 263.707031 C 394.527344 265.832031 404.882812 256.714844 408.191406 243.390625 C 400.671875 241.972656 393.25 241.59375 386.390625 241.6875 C 373.957031 241.878906 363.269531 243.765625 357.074219 244.429688 C 356.082031 244.523438 355.039062 244.710938 354.046875 244.855469 C 357.214844 252.601562 363.695312 262.195312 376.507812 263.707031 Z M 376.507812 263.707031 " fill-opacity="1" fill-rule="nonzero"/><path fill="#ff8e52" d="M 377.515625 257.308594 C 393.5 259.34375 401.066406 246.347656 401.066406 246.347656 L 359.59375 243.039062 C 359.59375 243.039062 361.53125 255.277344 377.515625 257.308594 Z M 377.515625 257.308594 " fill-opacity="1" fill-rule="nonzero"/><path fill="#fa9c22" d="M 195.183594 433.992188 C 195.136719 436.972656 205.492188 446.136719 209.277344 444.910156 C 213.058594 443.679688 215.945312 435.457031 215.945312 435.457031 C 212.539062 430.355469 200.480469 424.921875 200.480469 424.921875 C 200.480469 424.921875 195.277344 431.015625 195.183594 433.992188 Z M 195.183594 433.992188 " fill-opacity="1" fill-rule="nonzero"/><path fill="#fa9c22" d="M 177.484375 414.65625 C 176.492188 414.515625 175.734375 414.515625 175.167969 414.75 C 168.59375 417.726562 207.890625 486.714844 214.984375 487.660156 C 216.308594 487.847656 217.964844 487.28125 219.855469 486.289062 C 209.40625 479.722656 196.449219 457.703125 187.699219 440.597656 C 180.699219 426.941406 178.289062 418.34375 177.484375 414.65625 Z M 177.484375 414.65625 " fill-opacity="1" fill-rule="nonzero"/><path fill="#632d28" d="M 497.300781 64.1875 C 496.75 64.328125 496.398438 64.410156 496.398438 64.410156 C 496.398438 64.410156 496.738281 64.375 497.300781 64.1875 Z M 497.300781 64.1875 " fill-opacity="1" fill-rule="nonzero"/><path fill="#632d28" d="M 426.253906 28.816406 C 391.316406 21.910156 350.445312 25.710938 323.207031 45.792969 C 295.980469 65.832031 291.714844 73.90625 280.765625 71.726562 C 281.128906 85.660156 295.867188 85.675781 295.867188 85.675781 C 295.867188 85.675781 281.425781 124.339844 288.410156 150.769531 C 295.390625 177.199219 476.441406 205.125 476.441406 205.125 C 476.441406 205.125 529.796875 151.230469 497.90625 76.484375 C 518.738281 80.605469 521.265625 73.132812 517.402344 66.210938 C 514.042969 60.242188 500.824219 63.277344 497.300781 64.1875 C 496.75 64.328125 496.398438 64.410156 496.398438 64.410156 C 496.398438 64.410156 496.75 64.328125 497.300781 64.1875 C 500.996094 63.113281 514.816406 58.316406 510.375 48.699219 C 505.277344 37.625 497 48.011719 489.941406 57.75 C 489.941406 57.75 490.613281 37.714844 481.308594 38.996094 C 472 40.320312 479.207031 56.28125 479.207031 56.28125 C 479.207031 56.28125 461.191406 35.722656 426.253906 28.816406 Z M 426.253906 28.816406 " fill-opacity="1" fill-rule="nonzero"/><path fill="#ffc1a0" d="M 474.804688 224.136719 C 493.164062 222.445312 509.453125 190.441406 494.082031 175.292969 C 478.757812 160.152344 456.023438 185.160156 456.023438 185.160156 L 448.242188 214.15625 C 448.289062 214.164062 456.449219 225.832031 474.804688 224.136719 Z M 474.804688 224.136719 " fill-opacity="1" fill-rule="nonzero"/><path fill="#ff8e52" d="M 472.027344 208.328125 C 479.988281 207.578125 487.003906 193.753906 480.394531 187.160156 C 473.773438 180.613281 463.929688 191.441406 463.929688 191.441406 L 460.550781 203.992188 C 460.503906 203.984375 464.074219 209.03125 472.027344 208.328125 Z M 472.027344 208.328125 " fill-opacity="1" fill-rule="nonzero"/><path fill="#ffc1a0" d="M 279.507812 137.285156 C 259.910156 146.246094 264.15625 181.882812 280.8125 189.773438 C 297.472656 197.667969 309.148438 189.511719 309.148438 189.511719 L 311.808594 159.609375 C 311.808594 159.609375 299.105469 128.328125 279.507812 137.285156 Z M 279.507812 137.285156 " fill-opacity="1" fill-rule="nonzero"/><path fill="#ff8e52" d="M 288.304688 153.160156 C 279.835938 157.035156 281.664062 172.472656 288.882812 175.910156 C 296.097656 179.347656 301.152344 175.78125 301.152344 175.78125 L 302.292969 162.832031 C 302.292969 162.832031 296.773438 149.285156 288.304688 153.160156 Z M 288.304688 153.160156 " fill-opacity="1" fill-rule="nonzero"/><path fill="#4fbead" d="M 344.183594 295.167969 L 350.796875 241.054688 L 293.78125 225.519531 L 279.664062 268.914062 Z M 344.183594 295.167969 " fill-opacity="1" fill-rule="nonzero"/><path fill="#ffc1a0" d="M 300.332031 200.363281 C 311.242188 226.578125 337.59375 243.191406 371.117188 249.125 C 404.644531 255.0625 435.148438 248.511719 454.363281 227.632812 C 474.636719 205.644531 476.320312 156.613281 463.457031 109.710938 L 332.382812 86.503906 C 304.128906 126.128906 288.851562 172.753906 300.332031 200.363281 Z M 300.332031 200.363281 " fill-opacity="1" fill-rule="nonzero"/><path fill="#fefefe" d="M 453.097656 178.160156 C 458.507812 162.558594 446.769531 149.925781 431.472656 149.808594 C 418.621094 148.347656 408.378906 156.804688 406.46875 171.101562 C 404.558594 185.402344 415.582031 193.925781 426.296875 195.246094 C 437.011719 196.570312 448.554688 191.320312 453.097656 178.160156 Z M 453.097656 178.160156 " fill-opacity="1" fill-rule="nonzero"/><path fill="#632d28" d="M 453.632812 163.449219 C 453.449219 147.964844 425.839844 136.023438 410.058594 158.949219 C 436.867188 135.863281 453.632812 163.449219 453.632812 163.449219 Z M 453.632812 163.449219 " fill-opacity="1" fill-rule="nonzero"/><path fill="#632d28" d="M 438.132812 175.519531 C 439.566406 167.425781 434.164062 159.703125 426.0625 158.265625 C 417.960938 156.832031 410.234375 162.230469 408.796875 170.328125 C 407.363281 178.421875 412.765625 186.144531 420.867188 187.578125 C 428.921875 189.003906 436.695312 183.617188 438.132812 175.519531 Z M 438.132812 175.519531 " fill-opacity="1" fill-rule="nonzero"/><path fill="#1d0703" d="M 430.082031 174.070312 C 430.734375 170.394531 428.28125 166.890625 424.601562 166.238281 C 420.925781 165.585938 417.417969 168.035156 416.765625 171.710938 C 416.113281 175.386719 418.566406 178.894531 422.242188 179.542969 C 425.921875 180.195312 429.429688 177.746094 430.082031 174.070312 Z M 430.082031 174.070312 " fill-opacity="1" fill-rule="nonzero"/><path fill="#fefefe" d="M 425.863281 167.3125 C 426.390625 164.335938 424.398438 161.488281 421.417969 160.960938 C 418.441406 160.433594 415.589844 162.425781 415.0625 165.402344 C 414.53125 168.378906 416.527344 171.226562 419.503906 171.753906 C 422.492188 172.234375 425.335938 170.292969 425.863281 167.3125 Z M 425.863281 167.3125 " fill-opacity="1" fill-rule="nonzero"/><path fill="#fefefe" d="M 428.929688 180.757812 C 429.179688 179.363281 428.257812 178.046875 426.863281 177.800781 C 425.464844 177.550781 424.148438 178.472656 423.902344 179.867188 C 423.65625 181.261719 424.574219 182.578125 425.972656 182.824219 C 427.3125 183.109375 428.683594 182.152344 428.929688 180.757812 Z M 428.929688 180.757812 " fill-opacity="1" fill-rule="nonzero"/><path fill="#632d28" d="M 465 152.878906 C 474.554688 164.261719 486.132812 154.507812 486.132812 154.507812 L 480.886719 94.988281 C 480.886719 94.988281 363.363281 60.074219 335.617188 75.457031 C 335.617188 75.457031 315.214844 81.636719 317.597656 94.199219 C 319.980469 106.761719 361.300781 96.082031 361.300781 96.082031 C 361.300781 96.082031 353.347656 100.046875 360.445312 104.710938 C 367.53125 109.421875 398.628906 105.761719 398.628906 105.761719 C 398.628906 105.761719 387.253906 110.320312 394.511719 116.261719 C 401.765625 122.199219 438.890625 114.617188 438.890625 114.617188 C 438.890625 114.617188 432.589844 117.914062 443.191406 123.390625 C 453.792969 128.867188 462.609375 122.222656 462.609375 122.222656 C 462.609375 122.222656 455.445312 141.492188 465 152.878906 Z M 465 152.878906 " fill-opacity="1" fill-rule="nonzero"/><path fill="#ff8e52" d="M 390.910156 185.148438 C 389.882812 181.75 379.070312 185.308594 376.109375 189.820312 C 376.109375 189.820312 383.414062 186.796875 386.890625 188.324219 C 390.367188 189.851562 387.421875 195.617188 387.421875 195.617188 C 392.617188 190.96875 391.339844 186.519531 390.910156 185.148438 Z M 390.910156 185.148438 " fill-opacity="1" fill-rule="nonzero"/><path fill="#f2957c" d="M 447.101562 212.179688 C 447.828125 208.085938 443.53125 203.871094 437.476562 202.796875 C 431.425781 201.726562 425.941406 204.210938 425.214844 208.304688 C 424.488281 212.398438 428.785156 216.613281 434.839844 217.6875 C 440.84375 218.75 446.375 216.273438 447.101562 212.179688 Z M 447.101562 212.179688 " fill-opacity="1" fill-rule="nonzero"/><path fill="#f2957c" d="M 309.71875 187.855469 C 308.992188 191.949219 313.289062 196.167969 319.339844 197.238281 C 325.394531 198.308594 330.878906 195.824219 331.605469 191.730469 C 332.328125 187.636719 328.035156 183.421875 321.980469 182.351562 C 315.929688 181.277344 310.453125 183.714844 309.71875 187.855469 Z M 309.71875 187.855469 " fill-opacity="1" fill-rule="nonzero"/><path fill="#fefefe" d="M 321.761719 154.882812 C 321.503906 168.800781 330.59375 177.65625 341.113281 180.09375 C 351.574219 182.570312 364.914062 178.308594 368.035156 164.226562 C 371.15625 150.140625 364.390625 138.722656 351.875 135.644531 C 337.414062 130.539062 322.085938 138.429688 321.761719 154.882812 Z M 321.761719 154.882812 " fill-opacity="1" fill-rule="nonzero"/><path fill="#632d28" d="M 326.339844 140.914062 C 326.339844 140.914062 351.570312 120.761719 368.8125 151.648438 C 361.757812 125.347656 331.835938 126.433594 326.339844 140.914062 Z M 326.339844 140.914062 " fill-opacity="1" fill-rule="nonzero"/><path fill="#632d28" d="M 336.765625 157.539062 C 335.332031 165.632812 340.734375 173.355469 348.835938 174.789062 C 356.9375 176.226562 364.664062 170.828125 366.101562 162.730469 C 367.535156 154.636719 362.132812 146.914062 354.03125 145.480469 C 345.929688 144.042969 338.203125 149.441406 336.765625 157.539062 Z M 336.765625 157.539062 " fill-opacity="1" fill-rule="nonzero"/><path fill="#1d0703" d="M 344.800781 158.960938 C 344.148438 162.636719 346.597656 166.140625 350.277344 166.792969 C 353.957031 167.445312 357.464844 164.992188 358.117188 161.320312 C 358.769531 157.644531 356.316406 154.136719 352.636719 153.484375 C 348.960938 152.835938 345.449219 155.285156 344.800781 158.960938 Z M 344.800781 158.960938 " fill-opacity="1" fill-rule="nonzero"/><path fill="#fefefe" d="M 351.078125 154.058594 C 350.550781 157.035156 352.542969 159.882812 355.523438 160.410156 C 358.503906 160.9375 361.351562 158.949219 361.878906 155.96875 C 362.410156 152.992188 360.414062 150.144531 357.4375 149.617188 C 354.449219 149.136719 351.605469 151.078125 351.078125 154.058594 Z M 351.078125 154.058594 " fill-opacity="1" fill-rule="nonzero"/><path fill="#fefefe" d="M 343.589844 165.652344 C 343.34375 167.046875 344.261719 168.363281 345.660156 168.609375 C 347.058594 168.855469 348.371094 167.9375 348.621094 166.542969 C 348.867188 165.148438 347.949219 163.832031 346.550781 163.585938 C 345.15625 163.335938 343.839844 164.257812 343.589844 165.652344 Z M 343.589844 165.652344 " fill-opacity="1" fill-rule="nonzero"/><path fill="#632d28" d="M 420.25 132.476562 C 421.433594 133.117188 423.039062 133.546875 424.398438 133.449219 C 426.25 133.296875 428.09375 133.191406 429.957031 132.996094 C 433.621094 132.636719 436.765625 133.863281 440.351562 135.027344 C 441.128906 135.261719 442.042969 135.519531 442.636719 135.144531 C 442.847656 135.035156 442.972656 134.867188 443.101562 134.699219 C 443.3125 134.304688 443.320312 133.730469 443.167969 133.222656 C 442.914062 132.503906 442.304688 131.871094 441.726562 131.335938 C 438.046875 127.996094 432.566406 125.585938 427.8125 125.035156 C 425.042969 124.6875 422.21875 124.617188 419.921875 126.46875 C 418.800781 127.371094 418.054688 128.871094 418.382812 130.273438 C 418.550781 131.214844 419.328125 131.976562 420.25 132.476562 Z M 420.25 132.476562 " fill-opacity="1" fill-rule="nonzero"/><path fill="#632d28" d="M 344.472656 114.117188 C 343.699219 114.414062 342.957031 114.808594 342.46875 115.394531 C 342.105469 115.808594 341.96875 116.3125 342.027344 116.804688 C 342.039062 117 342.148438 117.207031 342.308594 117.382812 C 342.785156 117.945312 343.683594 118.007812 344.492188 118.054688 C 348.308594 118.203125 351.628906 118.167969 354.957031 119.714844 C 356.636719 120.542969 358.285156 121.265625 360.015625 122.050781 C 361.21875 122.601562 362.917969 122.757812 364.25 122.5625 C 365.238281 122.402344 366.230469 121.953125 366.8125 121.097656 C 367.652344 119.902344 367.464844 118.238281 366.675781 116.992188 C 365.15625 114.46875 362.429688 113.601562 359.761719 112.9375 C 355.050781 111.863281 349.070312 112.292969 344.472656 114.117188 Z M 344.472656 114.117188 " fill-opacity="1" fill-rule="nonzero"/><path fill="#632d28" d="M 373.957031 233 C 409.53125 239.300781 421.632812 212.503906 414.457031 205.574219 C 407.335938 198.601562 394.96875 204.714844 380.300781 202.117188 C 365.679688 199.527344 354.441406 189.238281 345.355469 193.339844 C 336.28125 197.394531 338.476562 226.71875 373.957031 233 Z M 373.957031 233 " fill-opacity="1" fill-rule="nonzero"/><path fill="#fefefe" d="M 376.945312 216.351562 C 390.773438 218.800781 403.796875 212.804688 408.636719 202.574219 C 408.449219 202.542969 408.214844 202.5 408.03125 202.46875 C 400.859375 201.199219 391.21875 204.097656 380.324219 202.171875 C 369.335938 200.226562 360.3125 193.972656 352.621094 192.660156 C 352.386719 192.617188 352.15625 192.578125 351.914062 192.582031 C 352.996094 203.808594 363.164062 213.910156 376.945312 216.351562 Z M 376.945312 216.351562 " fill-opacity="1" fill-rule="nonzero"/><path fill="#632d28" d="M 365.683594 206.683594 L 357.414062 208.628906 L 365.464844 214.949219 Z M 365.683594 206.683594 " fill-opacity="1" fill-rule="nonzero"/><path fill="#d84141" d="M 373.996094 232.996094 C 383.589844 234.695312 391.449219 233.972656 397.71875 231.917969 C 392.394531 227.28125 384.78125 223.628906 375.980469 222.070312 C 367.136719 220.503906 358.730469 221.320312 352.132812 223.847656 C 357.269531 227.921875 364.40625 231.296875 373.996094 232.996094 Z M 373.996094 232.996094 " fill-opacity="1" fill-rule="nonzero"/></svg>