<svg xmlns="http://www.w3.org/2000/svg" xmlns:xlink="http://www.w3.org/1999/xlink" width="1024" zoomAndPan="magnify" viewBox="0 0 768 576" height="768" preserveAspectRatio="xMidYMid meet" version="1.0"><defs><clipPath id="d92946c62c"><path d="M 173.5 31 L 330 31 L 330 104 L 173.5 104 Z M 173.5 31 " clip-rule="nonzero"/></clipPath></defs><path fill="#cf7534" d="M 397.289062 393.414062 C 397.289062 393.414062 401.632812 400.316406 429.253906 428.359375 C 441.941406 441.242188 484.589844 436.359375 478.171875 402.472656 C 471.484375 368.0625 443.535156 357.890625 416.855469 339.175781 L 397.289062 393.433594 Z M 397.289062 393.414062 " fill-opacity="1" fill-rule="nonzero"/><path fill="#cf7534" d="M 428.601562 425.144531 L 430.695312 499.84375 L 454.722656 518.941406 C 454.722656 518.941406 494.742188 406.257812 471.695312 387.046875 Z M 428.601562 425.144531 " fill-opacity="1" fill-rule="nonzero"/><path fill="#f3c984" d="M 412.53125 513.539062 C 415.914062 525.847656 421.585938 563.695312 430.832031 566.734375 C 435.039062 569.136719 436.691406 559.847656 436.980469 556.347656 C 438.058594 556.347656 438.863281 570.945312 444.765625 571.695312 C 450.667969 572.445312 450.457031 557.386719 450.320312 556.175781 C 450.320312 556.175781 451.761719 574.832031 456.546875 575.371094 C 461.335938 575.910156 468.792969 561.792969 460.871094 548.117188 C 453.164062 534.828125 454.742188 518.960938 454.742188 518.960938 L 430.714844 499.863281 C 430.714844 499.863281 409.167969 501.25 412.550781 513.558594 Z M 412.53125 513.539062 " fill-opacity="1" fill-rule="nonzero"/><path fill="#cf7534" d="M 435.195312 365.390625 C 430.3125 365.390625 427.214844 365.21875 426.640625 365.179688 C 422.046875 364.890625 418.566406 360.949219 418.835938 356.371094 C 419.105469 351.792969 423.066406 348.292969 427.640625 348.5625 C 428.3125 348.601562 495.394531 352.21875 524.035156 320.945312 C 534.855469 309.136719 538.738281 294 535.894531 274.691406 C 525.839844 206.570312 539.410156 169.257812 581.273438 149.910156 C 585.445312 147.988281 590.382812 149.796875 592.308594 153.96875 C 594.230469 158.144531 592.421875 163.085938 588.25 165.007812 C 570.605469 173.164062 559.746094 184.78125 554.09375 201.53125 C 548.40625 218.417969 547.828125 241.535156 552.367188 272.230469 C 555.941406 296.480469 550.539062 316.675781 536.296875 332.195312 C 508.753906 362.238281 455.953125 365.351562 435.230469 365.351562 Z M 435.195312 365.390625 " fill-opacity="1" fill-rule="nonzero"/><path fill="#cf7534" d="M 326.171875 276.941406 C 302.335938 252.421875 267.664062 201.664062 248.113281 103.253906 C 251.171875 90.945312 267.71875 85.292969 281.75 92.886719 C 296.6875 100.003906 307.855469 182.816406 344.679688 232.515625 C 350.46875 240.34375 335.859375 270.863281 326.171875 276.941406 Z M 326.171875 276.941406 " fill-opacity="1" fill-rule="nonzero"/><path fill="#cf7534" d="M 455.625 270.5 C 455.585938 264.265625 454.933594 258.726562 453.722656 253.804688 C 453.722656 253.765625 453.722656 253.746094 453.722656 253.746094 C 446.707031 225.417969 421.394531 217.976562 391.214844 217.976562 C 363.191406 217.976562 339.355469 224.417969 330.476562 248.035156 C 330.476562 248.074219 330.4375 248.113281 330.417969 248.152344 C 330.285156 248.515625 330.148438 248.882812 330.035156 249.285156 C 328.191406 254.632812 327.074219 260.804688 326.824219 267.960938 C 324.769531 290.289062 325.671875 320.773438 326.074219 331.3125 C 325.769531 334.371094 325.59375 337.390625 325.59375 340.332031 C 325.59375 380.621094 355.15625 394.105469 391.636719 394.105469 C 423.238281 394.105469 449.628906 383.988281 456.125 355.082031 L 456.414062 355.082031 C 461.429688 336.886719 458.046875 294.289062 455.585938 270.535156 Z M 455.625 270.5 " fill-opacity="1" fill-rule="nonzero"/><path fill="#f3c984" d="M 349.929688 316.503906 C 349.929688 278.324219 354.3125 221.765625 389.582031 221.765625 C 424.851562 221.765625 429.234375 278.324219 429.234375 316.503906 C 429.234375 354.679688 411.476562 360.023438 389.582031 360.023438 C 367.6875 360.023438 349.929688 354.679688 349.929688 316.503906 Z M 349.929688 316.503906 " fill-opacity="1" fill-rule="nonzero"/><path fill="#d6a05b" d="M 396.90625 336.582031 C 396.90625 336.875 396.859375 337.167969 396.773438 337.457031 C 396.683594 337.742188 396.554688 338.023438 396.382812 338.296875 C 396.207031 338.566406 395.996094 338.824219 395.746094 339.070312 C 395.496094 339.316406 395.210938 339.542969 394.890625 339.75 C 394.570312 339.957031 394.222656 340.144531 393.847656 340.308594 C 393.472656 340.46875 393.074219 340.609375 392.65625 340.722656 C 392.238281 340.832031 391.808594 340.917969 391.367188 340.976562 C 390.921875 341.035156 390.476562 341.0625 390.023438 341.0625 C 389.570312 341.0625 389.125 341.035156 388.679688 340.976562 C 388.238281 340.917969 387.808594 340.832031 387.390625 340.722656 C 386.972656 340.609375 386.578125 340.46875 386.199219 340.308594 C 385.824219 340.144531 385.476562 339.957031 385.15625 339.75 C 384.839844 339.542969 384.554688 339.316406 384.300781 339.070312 C 384.050781 338.824219 383.839844 338.566406 383.667969 338.296875 C 383.492188 338.023438 383.363281 337.742188 383.273438 337.457031 C 383.1875 337.167969 383.144531 336.875 383.144531 336.582031 C 383.144531 336.285156 383.1875 335.996094 383.273438 335.707031 C 383.363281 335.417969 383.492188 335.136719 383.667969 334.867188 C 383.839844 334.59375 384.050781 334.335938 384.300781 334.089844 C 384.554688 333.847656 384.839844 333.621094 385.15625 333.414062 C 385.476562 333.203125 385.824219 333.019531 386.199219 332.855469 C 386.578125 332.691406 386.972656 332.554688 387.390625 332.441406 C 387.808594 332.328125 388.238281 332.242188 388.679688 332.1875 C 389.125 332.128906 389.570312 332.101562 390.023438 332.101562 C 390.476562 332.101562 390.921875 332.128906 391.367188 332.1875 C 391.808594 332.242188 392.238281 332.328125 392.65625 332.441406 C 393.074219 332.554688 393.472656 332.691406 393.847656 332.855469 C 394.222656 333.019531 394.570312 333.203125 394.890625 333.414062 C 395.210938 333.621094 395.496094 333.847656 395.746094 334.089844 C 395.996094 334.335938 396.207031 334.59375 396.382812 334.867188 C 396.554688 335.136719 396.683594 335.417969 396.773438 335.707031 C 396.859375 335.996094 396.90625 336.285156 396.90625 336.582031 Z M 396.90625 336.582031 " fill-opacity="1" fill-rule="nonzero"/><path fill="#cf7534" d="M 492.300781 141.507812 C 480.804688 136.429688 458.738281 138.316406 452.203125 153.199219 C 447.667969 163.507812 448.1875 174.433594 452.761719 181.855469 C 443.09375 175.761719 440.054688 160.816406 446.167969 146.988281 C 452.722656 132.101562 478.171875 120.390625 492.320312 141.507812 Z M 492.300781 141.507812 " fill-opacity="1" fill-rule="nonzero"/><path fill="#f3c984" d="M 493.78125 171.527344 C 487.226562 186.394531 466.5625 188.164062 455.085938 183.105469 C 454.28125 182.742188 453.492188 182.335938 452.78125 181.855469 C 448.207031 174.453125 447.667969 163.507812 452.222656 153.199219 C 458.777344 138.316406 473.386719 130.351562 484.878906 135.410156 C 496.355469 140.46875 500.351562 156.644531 493.796875 171.507812 Z M 493.78125 171.527344 " fill-opacity="1" fill-rule="nonzero"/><path fill="#d6a05b" d="M 485.207031 154.199219 C 485.089844 153.96875 482.207031 148.46875 476.671875 146.910156 C 473.425781 145.988281 469.984375 146.621094 466.445312 148.777344 C 454.03125 156.355469 450.953125 169.933594 450.820312 170.507812 C 450.667969 171.203125 451.109375 171.875 451.800781 172.027344 C 451.898438 172.046875 451.992188 172.066406 452.070312 172.066406 C 452.664062 172.066406 453.183594 171.664062 453.320312 171.066406 C 453.339844 170.972656 454.914062 164.125 460.160156 157.699219 C 464.523438 157.027344 467.851562 157.664062 470.0625 159.605469 C 473.347656 162.527344 473.117188 167.566406 473.117188 167.644531 C 473.078125 168.355469 473.617188 168.953125 474.308594 168.992188 C 474.328125 168.992188 474.367188 168.992188 474.386719 168.992188 C 475.058594 168.992188 475.617188 168.472656 475.652344 167.777344 C 475.652344 167.527344 475.980469 161.46875 471.753906 157.679688 C 469.523438 155.679688 466.484375 154.738281 462.71875 154.855469 C 464.179688 153.449219 465.851562 152.105469 467.753906 150.949219 C 470.636719 149.179688 473.386719 148.640625 475.921875 149.355469 C 480.363281 150.585938 482.84375 155.257812 482.898438 155.355469 C 483.226562 155.988281 483.996094 156.238281 484.628906 155.914062 C 485.265625 155.585938 485.515625 154.816406 485.1875 154.179688 Z M 485.207031 154.199219 " fill-opacity="1" fill-rule="nonzero"/><path fill="#cf7534" d="M 254.804688 139.738281 C 266.296875 134.660156 288.363281 136.546875 294.898438 151.429688 C 299.433594 161.738281 298.914062 172.664062 294.339844 180.085938 C 304.007812 173.992188 307.046875 159.046875 300.933594 145.21875 C 294.378906 130.332031 268.929688 118.621094 254.785156 139.738281 Z M 254.804688 139.738281 " fill-opacity="1" fill-rule="nonzero"/><path fill="#f3c984" d="M 253.34375 169.742188 C 259.898438 184.605469 280.558594 186.375 292.035156 181.316406 C 292.84375 180.953125 293.628906 180.550781 294.339844 180.066406 C 298.914062 172.664062 299.453125 161.71875 294.898438 151.410156 C 288.34375 136.527344 273.734375 128.5625 262.242188 133.621094 C 250.765625 138.679688 246.769531 154.855469 253.324219 169.722656 Z M 253.34375 169.742188 " fill-opacity="1" fill-rule="nonzero"/><path fill="#d6a05b" d="M 261.894531 152.429688 C 262.011719 152.199219 264.894531 146.699219 270.429688 145.140625 C 273.679688 144.21875 277.121094 144.855469 280.65625 147.007812 C 293.074219 154.585938 296.148438 168.164062 296.28125 168.738281 C 296.4375 169.433594 295.996094 170.105469 295.300781 170.257812 C 295.207031 170.277344 295.109375 170.296875 295.035156 170.296875 C 294.4375 170.296875 293.917969 169.894531 293.785156 169.296875 C 293.765625 169.203125 292.1875 162.355469 286.941406 155.929688 C 282.578125 155.257812 279.253906 155.894531 277.042969 157.835938 C 273.753906 160.757812 273.984375 165.796875 273.984375 165.875 C 274.023438 166.585938 273.488281 167.183594 272.792969 167.222656 C 272.773438 167.222656 272.738281 167.222656 272.71875 167.222656 C 272.042969 167.222656 271.488281 166.703125 271.449219 166.007812 C 271.449219 165.757812 271.121094 159.699219 275.351562 155.914062 C 277.582031 153.910156 280.617188 152.96875 284.382812 153.085938 C 282.925781 151.679688 281.25 150.335938 279.347656 149.179688 C 276.464844 147.410156 273.71875 146.875 271.179688 147.585938 C 266.738281 148.816406 264.261719 153.488281 264.203125 153.585938 C 263.875 154.21875 263.105469 154.46875 262.472656 154.144531 C 261.839844 153.816406 261.589844 153.046875 261.914062 152.410156 Z M 261.894531 152.429688 " fill-opacity="1" fill-rule="nonzero"/><path fill="#cf7534" d="M 448.609375 166.027344 C 451.03125 156.066406 452.339844 143.988281 452.339844 129.3125 C 452.339844 95.023438 432.308594 65.597656 403.785156 53.058594 C 403.421875 46.25 409.265625 41.863281 409.265625 41.863281 C 400.132812 41.25 389.253906 45.152344 389.253906 45.152344 C 388.410156 40.382812 389.660156 31.980469 389.660156 31.980469 C 377.433594 36.59375 375.050781 42.921875 375.050781 42.921875 C 375.453125 32.960938 368.476562 27.246094 368.476562 27.246094 C 368.476562 34.480469 364.285156 42.402344 360.960938 47.558594 C 322.867188 53.617188 293.6875 87.90625 293.6875 129.332031 C 293.6875 144.988281 295.570312 157.816406 298.992188 168.296875 C 295.550781 175.277344 293.6875 182.261719 293.6875 188.492188 C 293.6875 214.648438 326.132812 235.304688 373.109375 235.304688 C 420.085938 235.304688 455.625 214.648438 455.625 188.492188 C 455.625 181.585938 453.125 173.777344 448.589844 166.046875 Z M 448.609375 166.027344 " fill-opacity="1" fill-rule="nonzero"/><path fill="#f3c984" d="M 427.910156 175.105469 C 436.5 167.222656 441.941406 155.546875 441.941406 142.488281 C 441.941406 118.753906 423.949219 99.523438 401.75 99.523438 C 389.910156 99.523438 379.28125 105.003906 371.917969 113.714844 C 364.710938 106.425781 355.003906 101.945312 344.296875 101.945312 C 322.097656 101.945312 304.105469 121.179688 304.105469 144.910156 C 304.105469 159.355469 310.773438 172.125 321 179.914062 C 315.8125 185.03125 312.832031 190.933594 312.832031 197.203125 C 312.832031 216.820312 341.722656 232.726562 377.375 232.726562 C 413.03125 232.726562 441.921875 216.820312 441.921875 197.203125 C 441.921875 188.839844 436.671875 181.164062 427.890625 175.105469 Z M 427.910156 175.105469 " fill-opacity="1" fill-rule="nonzero"/><path fill="#ffffff" d="M 360.171875 153.816406 C 360.171875 154.390625 360.144531 154.96875 360.089844 155.539062 C 360.035156 156.113281 359.953125 156.683594 359.839844 157.25 C 359.730469 157.8125 359.59375 158.371094 359.429688 158.925781 C 359.265625 159.476562 359.074219 160.019531 358.859375 160.550781 C 358.640625 161.082031 358.398438 161.601562 358.132812 162.113281 C 357.867188 162.621094 357.574219 163.113281 357.261719 163.59375 C 356.945312 164.070312 356.609375 164.535156 356.25 164.980469 C 355.890625 165.425781 355.511719 165.851562 355.113281 166.257812 C 354.710938 166.667969 354.292969 167.054688 353.855469 167.417969 C 353.417969 167.785156 352.964844 168.128906 352.492188 168.449219 C 352.023438 168.769531 351.539062 169.0625 351.039062 169.335938 C 350.539062 169.605469 350.027344 169.851562 349.507812 170.074219 C 348.984375 170.292969 348.453125 170.488281 347.910156 170.65625 C 347.367188 170.824219 346.820312 170.964844 346.265625 171.074219 C 345.710938 171.1875 345.152344 171.273438 344.585938 171.328125 C 344.023438 171.386719 343.460938 171.414062 342.894531 171.414062 C 342.328125 171.414062 341.761719 171.386719 341.199219 171.328125 C 340.636719 171.273438 340.078125 171.1875 339.523438 171.074219 C 338.96875 170.964844 338.417969 170.824219 337.878906 170.65625 C 337.335938 170.488281 336.804688 170.292969 336.28125 170.074219 C 335.757812 169.851562 335.246094 169.605469 334.75 169.335938 C 334.25 169.0625 333.765625 168.769531 333.292969 168.449219 C 332.824219 168.128906 332.367188 167.785156 331.929688 167.417969 C 331.492188 167.054688 331.074219 166.667969 330.675781 166.257812 C 330.273438 165.851562 329.894531 165.425781 329.535156 164.980469 C 329.175781 164.535156 328.839844 164.070312 328.527344 163.59375 C 328.210938 163.113281 327.921875 162.621094 327.65625 162.113281 C 327.386719 161.601562 327.144531 161.082031 326.929688 160.550781 C 326.710938 160.019531 326.523438 159.476562 326.359375 158.925781 C 326.195312 158.371094 326.054688 157.8125 325.945312 157.25 C 325.835938 156.683594 325.753906 156.113281 325.695312 155.539062 C 325.640625 154.96875 325.613281 154.390625 325.613281 153.816406 C 325.613281 153.238281 325.640625 152.664062 325.695312 152.089844 C 325.753906 151.515625 325.835938 150.949219 325.945312 150.382812 C 326.054688 149.816406 326.195312 149.257812 326.359375 148.707031 C 326.523438 148.15625 326.710938 147.613281 326.929688 147.082031 C 327.144531 146.550781 327.386719 146.027344 327.65625 145.519531 C 327.921875 145.011719 328.210938 144.519531 328.527344 144.039062 C 328.839844 143.558594 329.175781 143.097656 329.535156 142.652344 C 329.894531 142.207031 330.273438 141.78125 330.675781 141.371094 C 331.074219 140.964844 331.492188 140.578125 331.929688 140.210938 C 332.367188 139.847656 332.824219 139.503906 333.292969 139.183594 C 333.765625 138.863281 334.25 138.566406 334.75 138.296875 C 335.246094 138.023438 335.757812 137.777344 336.28125 137.558594 C 336.804688 137.335938 337.335938 137.144531 337.878906 136.976562 C 338.417969 136.808594 338.96875 136.667969 339.523438 136.554688 C 340.078125 136.445312 340.636719 136.359375 341.199219 136.304688 C 341.761719 136.246094 342.328125 136.21875 342.894531 136.21875 C 343.460938 136.21875 344.023438 136.246094 344.585938 136.304688 C 345.152344 136.359375 345.710938 136.445312 346.265625 136.554688 C 346.820312 136.667969 347.367188 136.808594 347.910156 136.976562 C 348.453125 137.144531 348.984375 137.335938 349.507812 137.558594 C 350.027344 137.777344 350.539062 138.023438 351.039062 138.296875 C 351.539062 138.566406 352.023438 138.863281 352.492188 139.183594 C 352.964844 139.503906 353.417969 139.847656 353.855469 140.210938 C 354.292969 140.578125 354.710938 140.964844 355.113281 141.371094 C 355.511719 141.78125 355.890625 142.207031 356.25 142.652344 C 356.609375 143.097656 356.945312 143.558594 357.261719 144.039062 C 357.574219 144.519531 357.867188 145.011719 358.132812 145.519531 C 358.398438 146.027344 358.640625 146.550781 358.859375 147.082031 C 359.074219 147.613281 359.265625 148.15625 359.429688 148.707031 C 359.59375 149.257812 359.730469 149.816406 359.839844 150.382812 C 359.953125 150.949219 360.035156 151.515625 360.089844 152.089844 C 360.144531 152.664062 360.171875 153.238281 360.171875 153.816406 Z M 360.171875 153.816406 " fill-opacity="1" fill-rule="nonzero"/><path fill="#000000" d="M 358.230469 156.046875 C 358.230469 156.886719 358.160156 157.722656 358.015625 158.546875 C 357.875 159.371094 357.660156 160.171875 357.378906 160.949219 C 357.097656 161.726562 356.753906 162.464844 356.347656 163.164062 C 355.9375 163.863281 355.476562 164.507812 354.957031 165.105469 C 354.4375 165.699219 353.871094 166.230469 353.261719 166.695312 C 352.648438 167.164062 352.003906 167.558594 351.328125 167.878906 C 350.648438 168.203125 349.949219 168.445312 349.226562 168.609375 C 348.507812 168.773438 347.78125 168.855469 347.046875 168.855469 C 346.3125 168.855469 345.582031 168.773438 344.863281 168.609375 C 344.144531 168.445312 343.441406 168.203125 342.765625 167.878906 C 342.085938 167.558594 341.441406 167.164062 340.832031 166.695312 C 340.21875 166.230469 339.65625 165.699219 339.136719 165.105469 C 338.617188 164.507812 338.152344 163.863281 337.742188 163.164062 C 337.335938 162.464844 336.992188 161.726562 336.710938 160.949219 C 336.429688 160.171875 336.21875 159.371094 336.074219 158.546875 C 335.929688 157.722656 335.859375 156.886719 335.859375 156.046875 C 335.859375 155.207031 335.929688 154.371094 336.074219 153.546875 C 336.21875 152.722656 336.429688 151.921875 336.710938 151.144531 C 336.992188 150.367188 337.335938 149.628906 337.742188 148.929688 C 338.152344 148.230469 338.617188 147.585938 339.136719 146.988281 C 339.65625 146.394531 340.21875 145.863281 340.832031 145.398438 C 341.441406 144.929688 342.085938 144.535156 342.765625 144.214844 C 343.441406 143.890625 344.144531 143.648438 344.863281 143.484375 C 345.582031 143.320312 346.3125 143.238281 347.046875 143.238281 C 347.78125 143.238281 348.507812 143.320312 349.226562 143.484375 C 349.949219 143.648438 350.648438 143.890625 351.328125 144.214844 C 352.003906 144.535156 352.648438 144.929688 353.261719 145.398438 C 353.871094 145.863281 354.4375 146.394531 354.957031 146.988281 C 355.476562 147.585938 355.9375 148.230469 356.347656 148.929688 C 356.753906 149.628906 357.097656 150.367188 357.378906 151.144531 C 357.660156 151.921875 357.875 152.722656 358.015625 153.546875 C 358.160156 154.371094 358.230469 155.207031 358.230469 156.046875 Z M 358.230469 156.046875 " fill-opacity="1" fill-rule="nonzero"/><path fill="#ffffff" d="M 419.027344 153.816406 C 419.027344 154.390625 419 154.96875 418.945312 155.539062 C 418.890625 156.113281 418.808594 156.683594 418.695312 157.25 C 418.585938 157.8125 418.449219 158.371094 418.285156 158.925781 C 418.121094 159.476562 417.929688 160.019531 417.714844 160.550781 C 417.496094 161.082031 417.253906 161.601562 416.988281 162.113281 C 416.722656 162.621094 416.429688 163.113281 416.117188 163.59375 C 415.800781 164.070312 415.464844 164.535156 415.105469 164.980469 C 414.746094 165.425781 414.367188 165.851562 413.96875 166.257812 C 413.566406 166.667969 413.148438 167.054688 412.710938 167.417969 C 412.273438 167.785156 411.820312 168.128906 411.347656 168.449219 C 410.878906 168.769531 410.394531 169.0625 409.894531 169.335938 C 409.394531 169.605469 408.882812 169.851562 408.363281 170.074219 C 407.839844 170.292969 407.304688 170.488281 406.765625 170.65625 C 406.222656 170.824219 405.675781 170.964844 405.121094 171.074219 C 404.566406 171.1875 404.003906 171.273438 403.441406 171.328125 C 402.878906 171.386719 402.316406 171.414062 401.75 171.414062 C 401.183594 171.414062 400.617188 171.386719 400.054688 171.328125 C 399.492188 171.273438 398.933594 171.1875 398.378906 171.074219 C 397.824219 170.964844 397.273438 170.824219 396.734375 170.65625 C 396.191406 170.488281 395.660156 170.292969 395.136719 170.074219 C 394.613281 169.851562 394.101562 169.605469 393.601562 169.335938 C 393.105469 169.0625 392.621094 168.769531 392.148438 168.449219 C 391.679688 168.128906 391.222656 167.785156 390.785156 167.417969 C 390.347656 167.054688 389.929688 166.667969 389.53125 166.257812 C 389.128906 165.851562 388.75 165.425781 388.390625 164.980469 C 388.03125 164.535156 387.695312 164.070312 387.382812 163.59375 C 387.066406 163.113281 386.777344 162.621094 386.507812 162.113281 C 386.242188 161.601562 386 161.082031 385.785156 160.550781 C 385.566406 160.019531 385.378906 159.476562 385.214844 158.925781 C 385.046875 158.371094 384.910156 157.8125 384.800781 157.25 C 384.691406 156.683594 384.609375 156.113281 384.550781 155.539062 C 384.496094 154.96875 384.46875 154.390625 384.46875 153.816406 C 384.46875 153.238281 384.496094 152.664062 384.550781 152.089844 C 384.609375 151.515625 384.691406 150.949219 384.800781 150.382812 C 384.910156 149.816406 385.046875 149.257812 385.214844 148.707031 C 385.378906 148.15625 385.566406 147.613281 385.785156 147.082031 C 386 146.550781 386.242188 146.027344 386.507812 145.519531 C 386.777344 145.011719 387.066406 144.519531 387.382812 144.039062 C 387.695312 143.558594 388.03125 143.097656 388.390625 142.652344 C 388.75 142.207031 389.128906 141.78125 389.53125 141.371094 C 389.929688 140.964844 390.347656 140.578125 390.785156 140.210938 C 391.222656 139.847656 391.679688 139.503906 392.148438 139.183594 C 392.621094 138.863281 393.105469 138.566406 393.601562 138.296875 C 394.101562 138.023438 394.613281 137.777344 395.136719 137.558594 C 395.660156 137.335938 396.191406 137.144531 396.734375 136.976562 C 397.273438 136.808594 397.824219 136.667969 398.378906 136.554688 C 398.933594 136.445312 399.492188 136.359375 400.054688 136.304688 C 400.617188 136.246094 401.183594 136.21875 401.75 136.21875 C 402.316406 136.21875 402.878906 136.246094 403.441406 136.304688 C 404.003906 136.359375 404.566406 136.445312 405.121094 136.554688 C 405.675781 136.667969 406.222656 136.808594 406.765625 136.976562 C 407.304688 137.144531 407.839844 137.335938 408.363281 137.558594 C 408.882812 137.777344 409.394531 138.023438 409.894531 138.296875 C 410.394531 138.566406 410.878906 138.863281 411.347656 139.183594 C 411.820312 139.503906 412.273438 139.847656 412.710938 140.210938 C 413.148438 140.578125 413.566406 140.964844 413.96875 141.371094 C 414.367188 141.78125 414.746094 142.207031 415.105469 142.652344 C 415.464844 143.097656 415.800781 143.558594 416.117188 144.039062 C 416.429688 144.519531 416.722656 145.011719 416.988281 145.519531 C 417.253906 146.027344 417.496094 146.550781 417.714844 147.082031 C 417.929688 147.613281 418.121094 148.15625 418.285156 148.707031 C 418.449219 149.257812 418.585938 149.816406 418.695312 150.382812 C 418.808594 150.949219 418.890625 151.515625 418.945312 152.089844 C 419 152.664062 419.027344 153.238281 419.027344 153.816406 Z M 419.027344 153.816406 " fill-opacity="1" fill-rule="nonzero"/><path fill="#000000" d="M 417.085938 156.046875 C 417.085938 156.886719 417.015625 157.722656 416.871094 158.546875 C 416.730469 159.371094 416.515625 160.171875 416.234375 160.949219 C 415.953125 161.726562 415.609375 162.464844 415.203125 163.164062 C 414.792969 163.863281 414.332031 164.507812 413.8125 165.105469 C 413.292969 165.699219 412.726562 166.230469 412.117188 166.695312 C 411.503906 167.164062 410.859375 167.558594 410.179688 167.878906 C 409.503906 168.203125 408.804688 168.445312 408.082031 168.609375 C 407.363281 168.773438 406.636719 168.855469 405.902344 168.855469 C 405.167969 168.855469 404.4375 168.773438 403.71875 168.609375 C 402.996094 168.445312 402.296875 168.203125 401.621094 167.878906 C 400.941406 167.558594 400.296875 167.164062 399.6875 166.695312 C 399.074219 166.230469 398.507812 165.699219 397.992188 165.105469 C 397.472656 164.507812 397.007812 163.863281 396.597656 163.164062 C 396.191406 162.464844 395.847656 161.726562 395.566406 160.949219 C 395.285156 160.171875 395.070312 159.371094 394.929688 158.546875 C 394.785156 157.722656 394.714844 156.886719 394.714844 156.046875 C 394.714844 155.207031 394.785156 154.371094 394.929688 153.546875 C 395.070312 152.722656 395.285156 151.921875 395.566406 151.144531 C 395.847656 150.367188 396.191406 149.628906 396.597656 148.929688 C 397.007812 148.230469 397.472656 147.585938 397.992188 146.988281 C 398.507812 146.394531 399.074219 145.863281 399.6875 145.398438 C 400.296875 144.929688 400.941406 144.535156 401.621094 144.214844 C 402.296875 143.890625 402.996094 143.648438 403.71875 143.484375 C 404.4375 143.320312 405.167969 143.238281 405.902344 143.238281 C 406.636719 143.238281 407.363281 143.320312 408.082031 143.484375 C 408.804688 143.648438 409.503906 143.890625 410.179688 144.214844 C 410.859375 144.535156 411.503906 144.929688 412.117188 145.398438 C 412.726562 145.863281 413.292969 146.394531 413.8125 146.988281 C 414.332031 147.585938 414.792969 148.230469 415.203125 148.929688 C 415.609375 149.628906 415.953125 150.367188 416.234375 151.144531 C 416.515625 151.921875 416.730469 152.722656 416.871094 153.546875 C 417.015625 154.371094 417.085938 155.207031 417.085938 156.046875 Z M 417.085938 156.046875 " fill-opacity="1" fill-rule="nonzero"/><path fill="#8a391c" d="M 365.574219 179.011719 C 365.574219 179.011719 366.671875 167.355469 375.878906 167.355469 C 383.566406 167.355469 384.46875 178.914062 384.46875 178.914062 Z M 365.574219 179.011719 " fill-opacity="1" fill-rule="nonzero"/><path fill="#8a391c" d="M 415.953125 130.292969 C 415.203125 130.292969 414.472656 129.96875 413.953125 129.332031 C 403.113281 115.871094 391.695312 124.238281 391.214844 124.601562 C 390.082031 125.449219 388.484375 125.238281 387.640625 124.101562 C 386.792969 122.988281 387.007812 121.390625 388.121094 120.523438 C 388.273438 120.410156 403.941406 108.714844 417.953125 126.121094 C 418.835938 127.21875 418.664062 128.832031 417.566406 129.71875 C 417.085938 130.101562 416.53125 130.277344 415.972656 130.277344 Z M 415.953125 130.292969 " fill-opacity="1" fill-rule="nonzero"/><path fill="#8a391c" d="M 326.765625 128.429688 C 326.210938 128.429688 325.632812 128.238281 325.171875 127.871094 C 324.078125 126.988281 323.882812 125.390625 324.769531 124.292969 C 324.882812 124.140625 337.242188 108.984375 355.0625 122.46875 C 356.195312 123.3125 356.40625 124.929688 355.558594 126.042969 C 354.714844 127.179688 353.101562 127.390625 351.984375 126.542969 C 338.203125 116.121094 329.152344 127.023438 328.765625 127.488281 C 328.265625 128.121094 327.515625 128.449219 326.765625 128.449219 Z M 326.765625 128.429688 " fill-opacity="1" fill-rule="nonzero"/><path fill="#d6a05b" d="M 339.070312 195.703125 C 338.589844 195.703125 338.144531 195.433594 337.914062 194.992188 C 337.609375 194.359375 337.859375 193.589844 338.492188 193.28125 C 343.144531 190.992188 343.699219 186.511719 343.71875 186.320312 C 343.796875 185.625 344.449219 185.125 345.125 185.183594 C 345.816406 185.261719 346.335938 185.875 346.257812 186.585938 C 346.238281 186.835938 345.566406 192.644531 339.605469 195.589844 C 339.433594 195.683594 339.242188 195.722656 339.050781 195.722656 Z M 339.070312 195.703125 " fill-opacity="1" fill-rule="nonzero"/><path fill="#d6a05b" d="M 413.148438 191.550781 C 412.28125 191.550781 406.917969 191.339844 403.460938 186.164062 C 403.074219 185.585938 403.230469 184.78125 403.804688 184.394531 C 404.382812 183.992188 405.1875 184.164062 405.574219 184.742188 C 408.476562 189.050781 412.972656 188.972656 413.167969 188.992188 C 413.859375 188.953125 414.453125 189.53125 414.472656 190.242188 C 414.492188 190.953125 413.933594 191.53125 413.242188 191.550781 C 413.242188 191.550781 413.183594 191.550781 413.128906 191.550781 Z M 413.148438 191.550781 " fill-opacity="1" fill-rule="nonzero"/><path fill="#ba3f42" d="M 406.246094 189.125 C 406.246094 189.125 403.574219 202.167969 393.136719 209.417969 C 389.503906 211.957031 384.910156 213.78125 379.164062 214.109375 C 373.148438 214.4375 368.015625 213.4375 363.691406 211.707031 C 349.390625 205.953125 343.683594 192.203125 343.46875 191.664062 C 344.355469 192.011719 382.125 206.878906 406.246094 189.144531 Z M 406.246094 189.125 " fill-opacity="1" fill-rule="nonzero"/><path fill="#ff8162" d="M 393.136719 209.417969 C 389.503906 211.957031 384.910156 213.78125 379.164062 214.109375 C 373.148438 214.4375 368.015625 213.4375 363.691406 211.707031 C 367.707031 208.53125 378.335938 202.222656 393.136719 209.4375 Z M 393.136719 209.417969 " fill-opacity="1" fill-rule="nonzero"/><path fill="#cf7534" d="M 383.160156 393.796875 C 383.160156 393.796875 281.617188 383.375 266.527344 347.332031 C 262.125 336.832031 261.320312 304.789062 295.761719 306 C 330.765625 307.40625 345.066406 333.503906 367.59375 357.042969 L 383.144531 393.796875 Z M 383.160156 393.796875 " fill-opacity="1" fill-rule="nonzero"/><g clip-path="url(#d92946c62c)"><path fill="#56a029" d="M 175.324219 84.867188 L 327.015625 31.054688 L 329.863281 47.921875 L 173.5 103.925781 Z M 175.324219 84.867188 " fill-opacity="1" fill-rule="nonzero"/></g><path fill="#cf7534" d="M 309.101562 357.96875 L 327.363281 411.511719 L 299.339844 417.550781 C 299.339844 417.550781 249.84375 346.773438 268.277344 323.078125 Z M 309.101562 357.96875 " fill-opacity="1" fill-rule="nonzero"/><path fill="#f3c984" d="M 338.703125 433.722656 C 329.667969 442.742188 306.046875 472.84375 296.511719 470.898438 C 291.667969 470.898438 294.820312 462.015625 296.320312 458.820312 C 295.398438 458.285156 287.480469 470.574219 281.980469 468.304688 C 276.484375 466.035156 284.117188 453.050781 284.808594 452.070312 C 284.808594 452.070312 274.332031 467.574219 269.910156 465.667969 C 265.492188 463.765625 265.972656 447.800781 279.617188 439.839844 C 292.878906 432.089844 299.359375 417.53125 299.359375 417.53125 L 327.382812 411.492188 C 327.382812 411.492188 347.738281 424.664062 338.722656 433.703125 Z M 338.703125 433.722656 " fill-opacity="1" fill-rule="nonzero"/><path fill="#f3c984" d="M 280.984375 92.484375 C 280.984375 92.484375 282.308594 78.269531 280.328125 65.347656 C 279.078125 57.191406 274.679688 50.113281 266.488281 49.152344 C 266.488281 49.152344 259.339844 48.921875 256.976562 49.519531 C 254.824219 50.058594 251.132812 54.367188 249.210938 55.460938 C 247.113281 56.671875 240.0625 56.039062 237.023438 56.367188 C 233.988281 56.691406 229.738281 57.980469 229.679688 65.597656 C 229.625 73.214844 238.234375 80.753906 238.234375 80.753906 C 238.234375 80.753906 230.160156 82.523438 230.355469 85.136719 C 231.371094 99.0625 248.132812 103.273438 248.132812 103.273438 L 281 92.503906 Z M 280.984375 92.484375 " fill-opacity="1" fill-rule="nonzero"/><path fill="#cf7534" d="M 441.941406 232.648438 C 441.941406 232.648438 511.945312 278.613281 513.867188 390.179688 C 515.382812 403.183594 493.222656 399.914062 483.09375 386.910156 C 470.175781 371.96875 481.957031 355.199219 424.8125 258.265625 L 441.921875 232.648438 Z M 441.941406 232.648438 " fill-opacity="1" fill-rule="nonzero"/><path fill="#8ec100" d="M 197.042969 107.082031 C 194.566406 114.851562 196.410156 122.949219 201.214844 128.832031 C 208.019531 126.582031 213.691406 121.21875 216.035156 113.871094 C 218.515625 106.101562 216.667969 98.003906 211.863281 92.117188 C 205.058594 94.367188 199.390625 99.734375 197.042969 107.082031 Z M 197.042969 107.082031 " fill-opacity="1" fill-rule="nonzero"/><path fill="#8ec100" d="M 294.417969 18.304688 C 293.976562 26.460938 297.800781 33.824219 303.933594 38.304688 C 309.949219 34.402344 314.082031 27.804688 314.503906 20.09375 C 314.945312 11.9375 311.121094 4.574219 304.988281 0.0898438 C 298.972656 3.996094 294.839844 10.59375 294.417969 18.304688 Z M 294.417969 18.304688 " fill-opacity="1" fill-rule="nonzero"/><path fill="#8ec100" d="M 208.75 48.671875 C 202.117188 43.921875 193.851562 43.171875 186.78125 45.921875 C 186.835938 53.097656 190.164062 60.136719 196.429688 64.636719 C 203.058594 69.386719 211.324219 70.136719 218.398438 67.386719 C 218.339844 60.210938 215.015625 53.171875 208.75 48.671875 Z M 208.75 48.671875 " fill-opacity="1" fill-rule="nonzero"/><path fill="#f3c984" d="M 521.132812 432.992188 C 519.015625 433.242188 515.210938 429.859375 513.136719 430.183594 C 510.519531 430.609375 507.234375 436.183594 503.503906 434.628906 C 496.066406 431.53125 494.375 412.03125 484.359375 408.644531 C 474.347656 405.277344 460.605469 417.664062 457.703125 409.453125 C 453.761719 398.335938 489.683594 383.699219 489.683594 383.699219 C 489.683594 383.699219 508.636719 383.527344 513.867188 390.164062 C 519.113281 396.777344 529.492188 416.992188 526.917969 426.414062 C 526.28125 428.742188 523.535156 432.683594 521.132812 432.972656 Z M 521.132812 432.992188 " fill-opacity="1" fill-rule="nonzero"/><path fill="#d6a05b" d="M 507.792969 431.261719 C 507.117188 430.78125 506.675781 429.992188 506.65625 429.109375 C 506.621094 410.972656 498.507812 404.296875 498.429688 404.242188 C 497.296875 403.335938 497.085938 401.683594 497.988281 400.546875 C 498.875 399.414062 500.488281 399.203125 501.660156 400.066406 C 502.082031 400.394531 511.886719 408.144531 511.945312 429.109375 C 511.945312 430.570312 510.769531 431.761719 509.308594 431.761719 C 508.753906 431.761719 508.214844 431.589844 507.792969 431.28125 Z M 507.792969 431.261719 " fill-opacity="1" fill-rule="nonzero"/><path fill="#d6a05b" d="M 516.730469 431.109375 C 515.921875 430.550781 515.460938 429.550781 515.632812 428.511719 C 517.84375 415.125 511.058594 403.644531 511 403.527344 C 510.253906 402.277344 510.65625 400.664062 511.90625 399.914062 C 513.15625 399.164062 514.769531 399.566406 515.519531 400.796875 C 515.84375 401.335938 523.398438 414.011719 520.84375 429.378906 C 520.613281 430.820312 519.246094 431.78125 517.804688 431.550781 C 517.402344 431.492188 517.035156 431.320312 516.730469 431.109375 Z M 516.730469 431.109375 " fill-opacity="1" fill-rule="nonzero"/></svg>