<svg xmlns="http://www.w3.org/2000/svg" xmlns:xlink="http://www.w3.org/1999/xlink" width="1024" zoomAndPan="magnify" viewBox="0 0 768 576" height="768" preserveAspectRatio="xMidYMid meet" version="1.0"><defs><clipPath id="22e0a7e884"><path d="M 128.761719 327 L 639.511719 327 L 639.511719 576 L 128.761719 576 Z M 128.761719 327 " clip-rule="nonzero"/></clipPath></defs><path fill="#383835" d="M 378.492188 43.148438 L 238.269531 32.90625 L 382.292969 0 L 518.832031 32.90625 Z M 378.492188 43.148438 " fill-opacity="1" fill-rule="nonzero"/><path fill="#383835" d="M 310.570312 18.066406 L 454.132812 18.066406 L 454.132812 101.980469 L 310.570312 101.980469 Z M 310.570312 18.066406 " fill-opacity="1" fill-rule="nonzero"/><path fill="#383835" d="M 255.769531 78.011719 C 255.550781 78.011719 255.339844 77.972656 255.136719 77.890625 C 254.929688 77.8125 254.75 77.699219 254.589844 77.546875 C 254.429688 77.398438 254.300781 77.222656 254.207031 77.027344 C 254.113281 76.828125 254.058594 76.621094 254.042969 76.402344 C 253.785156 72.414062 253.851562 68.4375 254.238281 64.460938 C 254.621094 60.484375 255.324219 56.566406 256.339844 52.707031 C 257.359375 48.84375 258.679688 45.089844 260.300781 41.4375 C 261.925781 37.789062 263.828125 34.292969 266.015625 30.953125 C 266.144531 30.761719 266.308594 30.601562 266.5 30.476562 C 266.691406 30.347656 266.902344 30.265625 267.128906 30.222656 C 267.355469 30.179688 267.582031 30.179688 267.808594 30.226562 C 268.035156 30.273438 268.242188 30.363281 268.433594 30.492188 C 268.625 30.621094 268.785156 30.78125 268.910156 30.976562 C 269.035156 31.167969 269.121094 31.378906 269.164062 31.605469 C 269.207031 31.832031 269.207031 32.058594 269.160156 32.28125 C 269.113281 32.507812 269.023438 32.71875 268.894531 32.90625 C 268.78125 33.136719 255.65625 51.777344 257.496094 76.171875 C 257.511719 76.398438 257.484375 76.625 257.410156 76.839844 C 257.335938 77.058594 257.226562 77.253906 257.074219 77.425781 C 256.921875 77.597656 256.742188 77.734375 256.539062 77.835938 C 256.332031 77.9375 256.113281 77.996094 255.886719 78.011719 Z M 255.769531 78.011719 " fill-opacity="1" fill-rule="nonzero"/><path fill="#383835" d="M 252.203125 77.4375 C 250.976562 76.105469 250.035156 74.59375 249.378906 72.90625 C 248.722656 71.21875 248.398438 69.46875 248.402344 67.65625 C 248.402344 67.65625 254.390625 62.480469 260.949219 68.578125 L 257.265625 77.207031 C 257.265625 77.207031 262.449219 100.679688 269.46875 109.769531 C 269.46875 109.769531 255.886719 117.019531 242.875 110.917969 C 242.875 110.917969 240.113281 94.8125 252.203125 77.4375 Z M 252.203125 77.4375 " fill-opacity="1" fill-rule="nonzero"/><path fill="#bb6c4d" d="M 471.628906 488.324219 C 469.140625 492.453125 466.398438 496.402344 463.398438 500.179688 C 460.402344 503.953125 457.175781 507.519531 453.714844 510.878906 C 450.257812 514.238281 446.597656 517.363281 442.738281 520.25 C 438.875 523.136719 434.84375 525.765625 430.644531 528.132812 C 427.226562 530.066406 423.699219 531.773438 420.058594 533.25 C 416.421875 534.730469 412.703125 535.96875 408.90625 536.96875 C 405.109375 537.96875 401.261719 538.71875 397.367188 539.222656 C 393.46875 539.726562 389.558594 539.980469 385.632812 539.980469 C 381.703125 539.980469 377.792969 539.726562 373.898438 539.222656 C 370.003906 538.71875 366.15625 537.96875 362.359375 536.96875 C 358.558594 535.96875 354.839844 534.730469 351.203125 533.25 C 347.5625 531.773438 344.035156 530.066406 340.617188 528.132812 C 336.410156 525.765625 332.371094 523.140625 328.5 520.253906 C 324.628906 517.367188 320.960938 514.242188 317.492188 510.886719 C 314.023438 507.527344 310.785156 503.957031 307.777344 500.183594 C 304.769531 496.40625 302.015625 492.453125 299.519531 488.324219 C 280.292969 457.484375 274.882812 417.214844 283.515625 371.878906 C 285.121094 365.886719 287.320312 360.117188 290.113281 354.574219 C 292.90625 349.03125 296.230469 343.832031 300.09375 338.972656 C 300.992188 337.808594 301.949219 336.695312 302.972656 335.636719 C 323.003906 312.738281 353.855469 300.195312 385.632812 300.3125 C 417.40625 300.425781 448.261719 312.738281 468.292969 335.636719 C 472.214844 340.132812 475.667969 344.964844 478.652344 350.132812 C 482.640625 356.972656 485.632812 364.222656 487.632812 371.878906 C 496.382812 417.214844 490.855469 457.484375 471.628906 488.324219 Z M 471.628906 488.324219 " fill-opacity="1" fill-rule="nonzero"/><path fill="#8d4530" d="M 468.292969 335.636719 C 448.261719 358.53125 417.292969 371.074219 385.632812 370.960938 C 353.972656 370.84375 323.003906 358.53125 302.972656 335.636719 C 323.003906 312.738281 353.855469 300.195312 385.632812 300.3125 C 417.40625 300.425781 448.261719 312.738281 468.292969 335.636719 Z M 468.292969 335.636719 " fill-opacity="1" fill-rule="nonzero"/><path fill="#8d4530" d="M 561.082031 130.824219 C 561.082031 130.824219 571.90625 138.074219 563.5 148.429688 L 562.117188 149.582031 C 560.367188 151.160156 558.410156 152.414062 556.238281 153.339844 C 554.070312 154.269531 551.808594 154.816406 549.453125 154.988281 C 546.414062 155.1875 543.398438 154.984375 540.410156 154.378906 C 537.421875 153.773438 534.566406 152.789062 531.839844 151.421875 C 539.324219 165 542.316406 186.285156 543.582031 203.660156 C 543.582031 205.15625 543.46875 206.765625 543.46875 208.378906 C 543.46875 209.988281 543.238281 214.128906 543.238281 216.777344 C 543.230469 222.246094 543.578125 227.691406 544.273438 233.117188 C 547.382812 254.632812 556.015625 254.863281 556.246094 254.976562 C 555.5 255.988281 554.636719 256.886719 553.652344 257.667969 C 552.671875 258.453125 551.605469 259.097656 550.453125 259.601562 C 549.300781 260.109375 548.105469 260.457031 546.863281 260.648438 C 545.621094 260.835938 544.371094 260.867188 543.125 260.730469 L 545.195312 267.863281 C 546.460938 272.121094 547.613281 276.265625 548.765625 280.519531 C 548.648438 280.40625 536.214844 291.335938 526.316406 285.929688 L 525.625 295.480469 C 525.394531 295.480469 503.40625 353.355469 388.855469 359.570312 L 382.40625 359.570312 C 267.859375 353.355469 245.871094 295.480469 245.523438 295.480469 C 245.523438 292.140625 245.410156 288.921875 245.410156 285.699219 C 235.855469 291.105469 222.613281 280.40625 222.5 280.519531 C 223.421875 276.839844 224.457031 273.042969 225.605469 269.359375 C 226.757812 265.679688 227.21875 263.605469 228.140625 260.730469 C 226.890625 260.867188 225.644531 260.835938 224.402344 260.648438 C 223.160156 260.457031 221.960938 260.109375 220.808594 259.601562 C 219.660156 259.097656 218.59375 258.453125 217.609375 257.667969 C 216.628906 256.886719 215.761719 255.988281 215.015625 254.976562 C 215.132812 254.863281 224.109375 254.632812 227.105469 232.195312 C 227.566406 227.824219 227.910156 222.761719 228.023438 216.777344 C 228.023438 214.128906 227.910156 211.367188 227.792969 208.378906 C 227.679688 205.386719 227.679688 203.890625 227.566406 201.820312 C 228.714844 184.90625 231.59375 164.652344 238.847656 151.421875 C 238.847656 151.421875 229.523438 156.484375 219.621094 154.757812 C 217.582031 154.453125 215.632812 153.863281 213.769531 152.980469 C 211.90625 152.097656 210.210938 150.964844 208.683594 149.582031 C 198.554688 138.535156 210.066406 130.824219 210.179688 130.824219 C 176.792969 129.445312 185.3125 111.378906 185.429688 111.265625 L 209.605469 109.195312 C 168.503906 97.113281 199.933594 70.53125 200.394531 70.417969 C 223.996094 104.9375 257.152344 97.917969 257.382812 97.917969 C 301.589844 63.859375 367.789062 63.515625 385.632812 65.011719 C 403.476562 63.515625 469.671875 63.859375 513.882812 97.917969 C 514.113281 97.917969 547.265625 104.9375 570.867188 70.417969 C 571.328125 70.53125 602.644531 97.113281 561.660156 109.195312 C 569.71875 109.769531 577.777344 110.574219 585.71875 111.265625 C 585.949219 111.378906 594.355469 129.445312 561.082031 130.824219 Z M 561.082031 130.824219 " fill-opacity="1" fill-rule="nonzero"/><path fill="#bb6c4d" d="M 543.125 260.730469 L 545.195312 267.863281 C 546.460938 272.121094 547.613281 276.265625 548.765625 280.519531 C 548.648438 280.40625 536.214844 291.335938 526.316406 285.929688 L 525.625 295.480469 C 525.394531 295.480469 503.40625 353.355469 388.855469 359.570312 L 382.40625 359.570312 C 267.859375 353.355469 245.871094 295.480469 245.523438 295.480469 C 245.523438 292.140625 245.410156 288.921875 245.410156 285.699219 C 235.855469 291.105469 222.613281 280.40625 222.5 280.519531 C 223.421875 276.839844 224.457031 273.042969 225.605469 269.359375 C 226.757812 265.679688 227.21875 263.605469 228.140625 260.730469 C 226.890625 260.867188 225.644531 260.835938 224.402344 260.648438 C 223.160156 260.457031 221.960938 260.109375 220.808594 259.601562 C 219.660156 259.097656 218.59375 258.453125 217.609375 257.667969 C 216.628906 256.886719 215.761719 255.988281 215.015625 254.976562 C 215.132812 254.863281 224.109375 254.632812 227.105469 232.195312 C 227.566406 227.824219 227.910156 222.761719 228.023438 216.777344 C 228.023438 214.128906 227.910156 211.367188 227.792969 208.378906 C 227.679688 205.386719 227.679688 203.890625 227.566406 201.820312 C 228.714844 184.90625 231.59375 164.652344 238.847656 151.421875 C 238.847656 151.421875 229.523438 156.484375 219.621094 154.757812 C 222.796875 151.148438 226.324219 147.925781 230.210938 145.09375 C 248.171875 131.628906 272.578125 127.605469 299.75 127.144531 C 326.917969 126.683594 351.324219 131.628906 369.285156 145.09375 C 375.039062 149.351562 380.222656 159.128906 384.480469 165.113281 C 388.738281 159.128906 393.804688 149.351562 399.5625 145.09375 C 417.519531 131.628906 441.929688 127.605469 469.097656 127.144531 C 496.265625 126.683594 520.789062 131.628906 538.75 145.09375 C 542.679688 148 546.246094 151.300781 549.453125 154.988281 C 546.414062 155.1875 543.398438 154.984375 540.410156 154.378906 C 537.421875 153.773438 534.566406 152.789062 531.839844 151.421875 C 539.324219 165 542.316406 186.285156 543.582031 203.660156 C 543.582031 205.15625 543.46875 206.765625 543.46875 208.378906 C 543.46875 209.988281 543.238281 214.128906 543.238281 216.777344 C 543.230469 222.246094 543.578125 227.691406 544.273438 233.117188 C 547.382812 254.632812 556.015625 254.863281 556.246094 254.976562 C 555.5 255.988281 554.636719 256.886719 553.652344 257.667969 C 552.671875 258.453125 551.605469 259.097656 550.453125 259.601562 C 549.300781 260.105469 548.105469 260.457031 546.863281 260.648438 C 545.621094 260.835938 544.371094 260.867188 543.125 260.730469 Z M 543.125 260.730469 " fill-opacity="1" fill-rule="nonzero"/><path fill="#8d4530" d="M 382.636719 69.152344 C 382.636719 69.152344 373.3125 42.226562 382.636719 38.777344 C 391.964844 35.324219 401.980469 44.644531 392.078125 69.152344 C 392.078125 69.152344 401.402344 50.855469 408.425781 53.617188 C 415.449219 56.378906 399.675781 72.605469 399.675781 72.605469 Z M 382.636719 69.152344 " fill-opacity="1" fill-rule="nonzero"/><path fill="#ffffff" d="M 359.152344 207.226562 C 359.152344 240.019531 334.285156 266.597656 303.664062 266.597656 C 273.039062 266.597656 248.171875 240.019531 248.171875 207.226562 C 248.171875 174.433594 273.039062 147.96875 303.664062 147.96875 C 334.285156 147.96875 359.152344 174.433594 359.152344 207.226562 Z M 359.152344 207.226562 " fill-opacity="1" fill-rule="nonzero"/><path fill="#e8aa66" d="M 346.835938 215.050781 C 346.835938 242.664062 326.457031 265.101562 301.359375 265.101562 C 276.261719 265.101562 255.769531 242.664062 255.769531 215.050781 C 255.769531 187.4375 276.148438 164.882812 301.359375 164.882812 C 326.574219 164.882812 346.835938 187.320312 346.835938 215.050781 Z M 346.835938 215.050781 " fill-opacity="1" fill-rule="nonzero"/><path fill="#383835" d="M 335.207031 215.050781 C 335.207031 235.648438 320.011719 252.332031 301.359375 252.332031 C 282.710938 252.332031 267.511719 235.648438 267.511719 215.050781 C 267.511719 194.453125 282.59375 177.769531 301.359375 177.769531 C 320.125 177.769531 335.207031 194.453125 335.207031 215.050781 Z M 335.207031 215.050781 " fill-opacity="1" fill-rule="nonzero"/><path fill="#ffffff" d="M 298.828125 186.054688 C 298.828125 186.617188 298.800781 187.175781 298.746094 187.734375 C 298.691406 188.292969 298.605469 188.847656 298.496094 189.398438 C 298.386719 189.949219 298.25 190.496094 298.089844 191.03125 C 297.925781 191.570312 297.738281 192.097656 297.519531 192.617188 C 297.304688 193.132812 297.066406 193.640625 296.800781 194.136719 C 296.535156 194.632812 296.25 195.113281 295.9375 195.578125 C 295.625 196.046875 295.289062 196.496094 294.933594 196.929688 C 294.578125 197.367188 294.199219 197.78125 293.804688 198.179688 C 293.40625 198.574219 292.988281 198.953125 292.554688 199.308594 C 292.121094 199.664062 291.671875 199.996094 291.203125 200.308594 C 290.738281 200.621094 290.253906 200.910156 289.757812 201.175781 C 289.265625 201.441406 288.757812 201.679688 288.238281 201.894531 C 287.71875 202.109375 287.191406 202.296875 286.652344 202.460938 C 286.117188 202.625 285.570312 202.761719 285.019531 202.871094 C 284.46875 202.980469 283.914062 203.0625 283.355469 203.117188 C 282.796875 203.171875 282.234375 203.199219 281.671875 203.199219 C 281.113281 203.199219 280.550781 203.171875 279.992188 203.117188 C 279.433594 203.0625 278.878906 202.980469 278.328125 202.871094 C 277.777344 202.761719 277.230469 202.625 276.695312 202.460938 C 276.15625 202.296875 275.628906 202.109375 275.109375 201.894531 C 274.589844 201.679688 274.082031 201.441406 273.585938 201.175781 C 273.089844 200.910156 272.609375 200.621094 272.144531 200.308594 C 271.675781 199.996094 271.226562 199.664062 270.792969 199.308594 C 270.355469 198.953125 269.941406 198.574219 269.542969 198.179688 C 269.148438 197.78125 268.769531 197.367188 268.414062 196.929688 C 268.058594 196.496094 267.722656 196.046875 267.410156 195.578125 C 267.097656 195.113281 266.808594 194.632812 266.546875 194.136719 C 266.28125 193.640625 266.039062 193.132812 265.824219 192.617188 C 265.609375 192.097656 265.421875 191.570312 265.257812 191.03125 C 265.09375 190.496094 264.960938 189.949219 264.847656 189.398438 C 264.738281 188.847656 264.65625 188.292969 264.601562 187.734375 C 264.546875 187.175781 264.519531 186.617188 264.519531 186.054688 C 264.519531 185.492188 264.546875 184.933594 264.601562 184.375 C 264.65625 183.816406 264.738281 183.261719 264.847656 182.710938 C 264.960938 182.160156 265.09375 181.617188 265.257812 181.078125 C 265.421875 180.542969 265.609375 180.011719 265.824219 179.496094 C 266.039062 178.976562 266.28125 178.46875 266.546875 177.972656 C 266.808594 177.476562 267.097656 176.996094 267.410156 176.53125 C 267.722656 176.0625 268.058594 175.613281 268.414062 175.179688 C 268.769531 174.746094 269.148438 174.328125 269.542969 173.933594 C 269.941406 173.535156 270.355469 173.160156 270.792969 172.800781 C 271.226562 172.445312 271.675781 172.113281 272.144531 171.800781 C 272.609375 171.488281 273.089844 171.199219 273.585938 170.933594 C 274.082031 170.671875 274.589844 170.429688 275.109375 170.214844 C 275.628906 170 276.15625 169.8125 276.695312 169.648438 C 277.230469 169.484375 277.777344 169.351562 278.328125 169.242188 C 278.878906 169.128906 279.433594 169.046875 279.992188 168.992188 C 280.550781 168.9375 281.113281 168.910156 281.671875 168.910156 C 282.234375 168.910156 282.796875 168.9375 283.355469 168.992188 C 283.914062 169.046875 284.46875 169.128906 285.019531 169.242188 C 285.570312 169.351562 286.117188 169.484375 286.652344 169.648438 C 287.191406 169.8125 287.71875 170 288.238281 170.214844 C 288.757812 170.429688 289.265625 170.671875 289.757812 170.933594 C 290.253906 171.199219 290.738281 171.488281 291.203125 171.800781 C 291.671875 172.113281 292.121094 172.445312 292.554688 172.800781 C 292.988281 173.160156 293.40625 173.535156 293.804688 173.933594 C 294.199219 174.328125 294.578125 174.746094 294.933594 175.179688 C 295.289062 175.613281 295.625 176.0625 295.9375 176.53125 C 296.25 176.996094 296.535156 177.476562 296.800781 177.972656 C 297.066406 178.46875 297.304688 178.976562 297.519531 179.496094 C 297.738281 180.011719 297.925781 180.542969 298.089844 181.078125 C 298.25 181.617188 298.386719 182.160156 298.496094 182.710938 C 298.605469 183.261719 298.691406 183.816406 298.746094 184.375 C 298.800781 184.933594 298.828125 185.492188 298.828125 186.054688 Z M 298.828125 186.054688 " fill-opacity="1" fill-rule="nonzero"/><path fill="#ffffff" d="M 315.175781 237.027344 C 315.175781 237.398438 315.140625 237.765625 315.066406 238.128906 C 314.996094 238.492188 314.886719 238.84375 314.746094 239.183594 C 314.605469 239.527344 314.429688 239.851562 314.222656 240.160156 C 314.019531 240.46875 313.785156 240.753906 313.523438 241.015625 C 313.261719 241.277344 312.976562 241.507812 312.667969 241.714844 C 312.359375 241.921875 312.035156 242.09375 311.691406 242.238281 C 311.351562 242.378906 310.996094 242.484375 310.632812 242.558594 C 310.269531 242.628906 309.902344 242.664062 309.535156 242.664062 C 309.164062 242.664062 308.796875 242.628906 308.433594 242.558594 C 308.070312 242.484375 307.71875 242.378906 307.375 242.238281 C 307.03125 242.09375 306.707031 241.921875 306.398438 241.714844 C 306.089844 241.507812 305.808594 241.277344 305.542969 241.015625 C 305.28125 240.753906 305.050781 240.46875 304.84375 240.160156 C 304.636719 239.851562 304.464844 239.527344 304.320312 239.183594 C 304.179688 238.84375 304.074219 238.492188 304 238.128906 C 303.929688 237.765625 303.894531 237.398438 303.894531 237.027344 C 303.894531 236.65625 303.929688 236.289062 304 235.925781 C 304.074219 235.566406 304.179688 235.210938 304.320312 234.871094 C 304.464844 234.527344 304.636719 234.203125 304.84375 233.894531 C 305.050781 233.585938 305.28125 233.300781 305.542969 233.039062 C 305.808594 232.777344 306.089844 232.546875 306.398438 232.339844 C 306.707031 232.132812 307.03125 231.960938 307.375 231.820312 C 307.71875 231.675781 308.070312 231.570312 308.433594 231.496094 C 308.796875 231.425781 309.164062 231.390625 309.535156 231.390625 C 309.902344 231.390625 310.269531 231.425781 310.632812 231.496094 C 310.996094 231.570312 311.351562 231.675781 311.691406 231.820312 C 312.035156 231.960938 312.359375 232.132812 312.667969 232.339844 C 312.976562 232.546875 313.261719 232.777344 313.523438 233.039062 C 313.785156 233.300781 314.019531 233.585938 314.222656 233.894531 C 314.429688 234.203125 314.605469 234.527344 314.746094 234.871094 C 314.886719 235.210938 314.996094 235.566406 315.066406 235.925781 C 315.140625 236.289062 315.175781 236.65625 315.175781 237.027344 Z M 315.175781 237.027344 " fill-opacity="1" fill-rule="nonzero"/><path fill="#ffffff" d="M 520.558594 207.226562 C 520.558594 240.019531 495.691406 266.597656 465.066406 266.597656 C 434.445312 266.597656 409.578125 240.019531 409.578125 207.226562 C 409.578125 174.433594 434.445312 147.96875 465.066406 147.96875 C 495.691406 147.96875 520.558594 174.433594 520.558594 207.226562 Z M 520.558594 207.226562 " fill-opacity="1" fill-rule="nonzero"/><path fill="#e8aa66" d="M 508.355469 215.050781 C 508.355469 216.695312 508.28125 218.332031 508.136719 219.96875 C 507.988281 221.601562 507.769531 223.226562 507.480469 224.835938 C 507.1875 226.449219 506.824219 228.042969 506.390625 229.613281 C 505.957031 231.1875 505.457031 232.730469 504.886719 234.25 C 504.3125 235.765625 503.675781 237.25 502.972656 238.699219 C 502.269531 240.148438 501.5 241.554688 500.671875 242.921875 C 499.84375 244.289062 498.953125 245.605469 498.007812 246.875 C 497.058594 248.144531 496.058594 249.363281 495.003906 250.523438 C 493.945312 251.6875 492.839844 252.789062 491.6875 253.832031 C 490.53125 254.871094 489.335938 255.851562 488.09375 256.761719 C 486.851562 257.675781 485.574219 258.519531 484.257812 259.292969 C 482.941406 260.070312 481.589844 260.769531 480.210938 261.398438 C 478.832031 262.027344 477.429688 262.582031 476 263.058594 C 474.570312 263.535156 473.125 263.933594 471.660156 264.253906 C 470.195312 264.574219 468.71875 264.816406 467.234375 264.976562 C 465.75 265.136719 464.257812 265.21875 462.765625 265.21875 C 461.273438 265.21875 459.78125 265.136719 458.296875 264.976562 C 456.8125 264.816406 455.335938 264.574219 453.871094 264.253906 C 452.40625 263.933594 450.960938 263.535156 449.53125 263.058594 C 448.101562 262.582031 446.699219 262.027344 445.320312 261.398438 C 443.941406 260.769531 442.589844 260.070312 441.273438 259.292969 C 439.957031 258.519531 438.679688 257.675781 437.4375 256.761719 C 436.195312 255.851562 434.996094 254.871094 433.84375 253.832031 C 432.691406 252.789062 431.585938 251.6875 430.527344 250.523438 C 429.472656 249.363281 428.472656 248.144531 427.523438 246.875 C 426.578125 245.605469 425.6875 244.289062 424.859375 242.921875 C 424.03125 241.554688 423.261719 240.148438 422.558594 238.699219 C 421.855469 237.25 421.21875 235.765625 420.644531 234.25 C 420.074219 232.730469 419.574219 231.1875 419.140625 229.613281 C 418.707031 228.042969 418.34375 226.449219 418.050781 224.835938 C 417.761719 223.226562 417.542969 221.601562 417.394531 219.96875 C 417.25 218.332031 417.175781 216.695312 417.175781 215.050781 C 417.175781 213.40625 417.25 211.769531 417.394531 210.132812 C 417.542969 208.5 417.761719 206.875 418.050781 205.261719 C 418.34375 203.652344 418.707031 202.058594 419.140625 200.488281 C 419.574219 198.914062 420.074219 197.371094 420.644531 195.851562 C 421.21875 194.335938 421.855469 192.851562 422.558594 191.402344 C 423.261719 189.953125 424.03125 188.546875 424.859375 187.179688 C 425.6875 185.8125 426.578125 184.496094 427.523438 183.226562 C 428.472656 181.953125 429.472656 180.738281 430.527344 179.578125 C 431.585938 178.414062 432.691406 177.3125 433.84375 176.269531 C 434.996094 175.230469 436.195312 174.25 437.4375 173.339844 C 438.679688 172.425781 439.957031 171.582031 441.273438 170.808594 C 442.589844 170.03125 443.941406 169.332031 445.320312 168.703125 C 446.699219 168.074219 448.101562 167.519531 449.53125 167.042969 C 450.960938 166.566406 452.40625 166.167969 453.871094 165.847656 C 455.335938 165.527344 456.8125 165.285156 458.296875 165.125 C 459.78125 164.964844 461.273438 164.882812 462.765625 164.882812 C 464.257812 164.882812 465.75 164.964844 467.234375 165.125 C 468.71875 165.285156 470.195312 165.527344 471.660156 165.847656 C 473.125 166.167969 474.570312 166.566406 476 167.042969 C 477.429688 167.519531 478.832031 168.074219 480.210938 168.703125 C 481.589844 169.332031 482.941406 170.03125 484.257812 170.808594 C 485.574219 171.582031 486.851562 172.425781 488.09375 173.339844 C 489.335938 174.25 490.53125 175.230469 491.6875 176.269531 C 492.839844 177.3125 493.945312 178.414062 495.003906 179.578125 C 496.058594 180.738281 497.058594 181.953125 498.007812 183.226562 C 498.953125 184.496094 499.84375 185.8125 500.671875 187.179688 C 501.5 188.546875 502.269531 189.953125 502.972656 191.402344 C 503.675781 192.851562 504.3125 194.335938 504.886719 195.851562 C 505.457031 197.371094 505.957031 198.914062 506.390625 200.488281 C 506.824219 202.058594 507.1875 203.652344 507.480469 205.261719 C 507.769531 206.875 507.988281 208.5 508.136719 210.132812 C 508.28125 211.769531 508.355469 213.40625 508.355469 215.050781 Z M 508.355469 215.050781 " fill-opacity="1" fill-rule="nonzero"/><path fill="#383835" d="M 496.613281 215.050781 C 496.613281 235.648438 481.414062 252.332031 462.765625 252.332031 C 444.117188 252.332031 428.804688 235.648438 428.804688 215.050781 C 428.804688 194.453125 444 177.769531 462.765625 177.769531 C 481.53125 177.769531 496.613281 194.453125 496.613281 215.050781 Z M 496.613281 215.050781 " fill-opacity="1" fill-rule="nonzero"/><path fill="#ffffff" d="M 461.039062 184.675781 C 461.042969 185.234375 461.019531 185.792969 460.96875 186.347656 C 460.917969 186.90625 460.835938 187.457031 460.730469 188.007812 C 460.625 188.558594 460.492188 189.101562 460.335938 189.636719 C 460.175781 190.171875 459.988281 190.699219 459.777344 191.21875 C 459.566406 191.734375 459.332031 192.242188 459.070312 192.738281 C 458.808594 193.230469 458.523438 193.710938 458.214844 194.179688 C 457.90625 194.644531 457.574219 195.09375 457.222656 195.53125 C 456.871094 195.964844 456.496094 196.378906 456.101562 196.777344 C 455.707031 197.171875 455.296875 197.550781 454.863281 197.90625 C 454.433594 198.265625 453.984375 198.597656 453.523438 198.910156 C 453.058594 199.222656 452.578125 199.511719 452.085938 199.777344 C 451.59375 200.042969 451.089844 200.285156 450.574219 200.5 C 450.058594 200.714844 449.53125 200.90625 448.996094 201.070312 C 448.460938 201.234375 447.921875 201.371094 447.371094 201.480469 C 446.824219 201.59375 446.269531 201.675781 445.714844 201.730469 C 445.15625 201.789062 444.597656 201.816406 444.039062 201.816406 C 443.480469 201.820312 442.921875 201.792969 442.363281 201.738281 C 441.808594 201.6875 441.253906 201.605469 440.703125 201.496094 C 440.15625 201.386719 439.613281 201.253906 439.078125 201.09375 C 438.542969 200.929688 438.015625 200.742188 437.496094 200.527344 C 436.980469 200.316406 436.476562 200.078125 435.980469 199.8125 C 435.488281 199.550781 435.007812 199.265625 434.542969 198.953125 C 434.078125 198.644531 433.628906 198.308594 433.195312 197.957031 C 432.761719 197.601562 432.347656 197.226562 431.953125 196.832031 C 431.558594 196.433594 431.179688 196.019531 430.828125 195.589844 C 430.472656 195.15625 430.140625 194.707031 429.828125 194.242188 C 429.515625 193.777344 429.230469 193.296875 428.96875 192.804688 C 428.703125 192.308594 428.464844 191.804688 428.25 191.289062 C 428.039062 190.769531 427.851562 190.246094 427.6875 189.710938 C 427.527344 189.175781 427.390625 188.632812 427.285156 188.082031 C 427.175781 187.535156 427.09375 186.980469 427.039062 186.425781 C 426.988281 185.867188 426.960938 185.308594 426.960938 184.75 C 426.964844 184.191406 426.992188 183.632812 427.046875 183.078125 C 427.105469 182.519531 427.1875 181.96875 427.296875 181.421875 C 427.410156 180.871094 427.546875 180.332031 427.710938 179.796875 C 427.875 179.261719 428.066406 178.734375 428.28125 178.21875 C 428.496094 177.703125 428.738281 177.199219 429.003906 176.707031 C 429.269531 176.214844 429.558594 175.738281 429.871094 175.273438 C 430.183594 174.808594 430.519531 174.363281 430.875 173.929688 C 431.230469 173.5 431.609375 173.085938 432.007812 172.695312 C 432.402344 172.300781 432.820312 171.925781 433.253906 171.574219 C 433.6875 171.222656 434.140625 170.890625 434.605469 170.582031 C 435.074219 170.273438 435.554688 169.988281 436.046875 169.726562 C 436.542969 169.46875 437.050781 169.230469 437.570312 169.019531 C 438.085938 168.808594 438.613281 168.625 439.152344 168.464844 C 439.6875 168.304688 440.230469 168.171875 440.78125 168.066406 C 441.328125 167.960938 441.882812 167.882812 442.441406 167.832031 C 442.996094 167.78125 443.554688 167.757812 444.117188 167.761719 C 444.667969 167.761719 445.222656 167.789062 445.773438 167.839844 C 446.324219 167.894531 446.875 167.976562 447.417969 168.085938 C 447.960938 168.191406 448.496094 168.328125 449.027344 168.488281 C 449.558594 168.648438 450.078125 168.835938 450.589844 169.046875 C 451.105469 169.261719 451.605469 169.496094 452.09375 169.757812 C 452.582031 170.019531 453.054688 170.304688 453.515625 170.609375 C 453.976562 170.917969 454.421875 171.25 454.851562 171.597656 C 455.28125 171.949219 455.691406 172.324219 456.082031 172.714844 C 456.472656 173.105469 456.84375 173.515625 457.195312 173.945312 C 457.550781 174.371094 457.878906 174.816406 458.1875 175.277344 C 458.496094 175.738281 458.777344 176.210938 459.039062 176.699219 C 459.300781 177.191406 459.539062 177.691406 459.75 178.203125 C 459.960938 178.714844 460.148438 179.234375 460.308594 179.765625 C 460.472656 180.292969 460.605469 180.832031 460.714844 181.375 C 460.820312 181.917969 460.902344 182.464844 460.957031 183.015625 C 461.011719 183.566406 461.039062 184.121094 461.039062 184.675781 Z M 461.039062 184.675781 " fill-opacity="1" fill-rule="nonzero"/><path fill="#ffffff" d="M 476.582031 237.027344 C 476.582031 237.398438 476.542969 237.765625 476.472656 238.128906 C 476.398438 238.492188 476.292969 238.84375 476.152344 239.183594 C 476.007812 239.527344 475.835938 239.851562 475.628906 240.160156 C 475.425781 240.46875 475.191406 240.753906 474.929688 241.015625 C 474.667969 241.277344 474.382812 241.507812 474.074219 241.714844 C 473.765625 241.921875 473.441406 242.09375 473.097656 242.238281 C 472.757812 242.378906 472.402344 242.484375 472.039062 242.558594 C 471.675781 242.628906 471.308594 242.664062 470.9375 242.664062 C 470.570312 242.664062 470.203125 242.628906 469.839844 242.558594 C 469.476562 242.484375 469.121094 242.378906 468.78125 242.238281 C 468.4375 242.09375 468.113281 241.921875 467.804688 241.714844 C 467.496094 241.507812 467.210938 241.277344 466.949219 241.015625 C 466.6875 240.753906 466.453125 240.46875 466.25 240.160156 C 466.042969 239.851562 465.871094 239.527344 465.726562 239.183594 C 465.585938 238.84375 465.480469 238.492188 465.40625 238.128906 C 465.335938 237.765625 465.296875 237.398438 465.296875 237.027344 C 465.296875 236.65625 465.335938 236.289062 465.40625 235.925781 C 465.480469 235.566406 465.585938 235.210938 465.726562 234.871094 C 465.871094 234.527344 466.042969 234.203125 466.25 233.894531 C 466.453125 233.585938 466.6875 233.300781 466.949219 233.039062 C 467.210938 232.777344 467.496094 232.546875 467.804688 232.339844 C 468.113281 232.132812 468.4375 231.960938 468.78125 231.820312 C 469.121094 231.675781 469.476562 231.570312 469.839844 231.496094 C 470.203125 231.425781 470.570312 231.390625 470.941406 231.390625 C 471.308594 231.390625 471.675781 231.425781 472.039062 231.496094 C 472.402344 231.570312 472.757812 231.675781 473.097656 231.820312 C 473.441406 231.960938 473.765625 232.132812 474.074219 232.339844 C 474.382812 232.546875 474.667969 232.777344 474.929688 233.039062 C 475.191406 233.300781 475.425781 233.585938 475.628906 233.894531 C 475.835938 234.203125 476.007812 234.527344 476.152344 234.871094 C 476.292969 235.210938 476.398438 235.566406 476.472656 235.925781 C 476.542969 236.289062 476.582031 236.65625 476.582031 237.027344 Z M 476.582031 237.027344 " fill-opacity="1" fill-rule="nonzero"/><path fill="#e8aa66" d="M 405.777344 233.804688 C 405.777344 251.640625 396.222656 266.023438 384.480469 266.023438 C 372.738281 266.023438 363.066406 251.640625 363.066406 233.804688 C 363.058594 232.316406 363.363281 230.898438 363.988281 229.546875 C 364.332031 228.972656 364.5625 228.398438 364.910156 227.9375 C 371.933594 217.8125 396.914062 217.8125 403.9375 227.9375 C 404.3125 228.4375 404.617188 228.972656 404.859375 229.546875 C 405.480469 230.898438 405.789062 232.316406 405.777344 233.804688 Z M 405.777344 233.804688 " fill-opacity="1" fill-rule="nonzero"/><path fill="#8d4530" d="M 404.859375 229.546875 C 400.136719 246.234375 392.769531 256.933594 384.480469 256.933594 C 376.191406 256.933594 368.707031 246.234375 363.988281 229.546875 C 364.332031 228.972656 364.5625 228.398438 364.910156 227.9375 C 371.933594 217.8125 396.914062 217.8125 403.9375 227.9375 C 404.3125 228.4375 404.617188 228.972656 404.859375 229.546875 Z M 404.859375 229.546875 " fill-opacity="1" fill-rule="nonzero"/><path fill="#e8aa66" d="M 403.9375 227.9375 C 400.597656 239.214844 393.113281 247.152344 384.480469 247.152344 C 375.847656 247.152344 368.246094 239.214844 364.910156 227.9375 C 371.933594 217.8125 396.914062 217.8125 403.9375 227.9375 Z M 403.9375 227.9375 " fill-opacity="1" fill-rule="nonzero"/><path fill="#383835" d="M 394.613281 123.460938 L 391.847656 123.460938 C 384.480469 122.886719 380.105469 120.238281 377.574219 117.59375 C 373.773438 118.742188 368.476562 119.089844 361.226562 117.363281 C 335.4375 110.804688 339.8125 87.5625 339.8125 87.332031 C 339.851562 87.101562 339.929688 86.890625 340.054688 86.695312 C 340.175781 86.496094 340.332031 86.332031 340.519531 86.195312 C 340.710938 86.0625 340.917969 85.96875 341.144531 85.914062 C 341.371094 85.863281 341.597656 85.855469 341.828125 85.894531 C 342.054688 85.933594 342.269531 86.011719 342.464844 86.136719 C 342.664062 86.257812 342.828125 86.414062 342.964844 86.601562 C 343.097656 86.792969 343.191406 87 343.246094 87.226562 C 343.296875 87.449219 343.304688 87.679688 343.265625 87.90625 C 343.035156 88.828125 339.582031 108.273438 362.144531 113.910156 C 366.507812 115.160156 370.917969 115.390625 375.386719 114.601562 C 375.25 114.210938 375.097656 113.828125 374.925781 113.449219 C 374.472656 112.460938 374.15625 111.429688 373.980469 110.355469 C 373.800781 109.285156 373.769531 108.207031 373.878906 107.121094 C 373.992188 106.039062 374.242188 104.992188 374.636719 103.976562 C 375.027344 102.960938 375.546875 102.015625 376.191406 101.140625 C 376.554688 100.664062 376.976562 100.246094 377.457031 99.890625 C 377.933594 99.53125 378.453125 99.246094 379.015625 99.03125 C 379.574219 98.820312 380.152344 98.6875 380.746094 98.632812 C 381.34375 98.582031 381.933594 98.609375 382.523438 98.722656 C 383.089844 98.851562 383.628906 99.058594 384.140625 99.335938 C 384.648438 99.613281 385.113281 99.957031 385.53125 100.363281 C 385.945312 100.769531 386.300781 101.222656 386.589844 101.726562 C 386.882812 102.230469 387.097656 102.761719 387.242188 103.324219 C 388.28125 106.546875 387.128906 110.460938 384.367188 113.449219 C 383.359375 114.46875 382.246094 115.351562 381.027344 116.097656 C 383.558594 118.285156 387.359375 119.664062 392.195312 120.007812 C 403.820312 120.929688 416.253906 114.945312 422.355469 105.398438 C 426.960938 98.261719 427.308594 90.324219 423.277344 83.191406 C 423.117188 82.988281 423.007812 82.765625 422.949219 82.515625 C 422.890625 82.269531 422.886719 82.019531 422.9375 81.769531 C 422.988281 81.519531 423.09375 81.289062 423.246094 81.085938 C 423.398438 80.882812 423.585938 80.71875 423.8125 80.597656 C 424.035156 80.476562 424.277344 80.40625 424.53125 80.394531 C 424.785156 80.378906 425.03125 80.417969 425.269531 80.511719 C 425.507812 80.609375 425.714844 80.75 425.890625 80.933594 C 426.0625 81.121094 426.191406 81.335938 426.269531 81.578125 C 430.992188 89.863281 430.53125 98.953125 425.234375 107.238281 C 418.902344 117.132812 406.816406 123.460938 394.613281 123.460938 Z M 381.140625 101.945312 C 380.683594 101.976562 380.253906 102.101562 379.851562 102.324219 C 379.449219 102.542969 379.109375 102.839844 378.839844 103.210938 C 378.394531 103.851562 378.042969 104.542969 377.785156 105.277344 C 377.523438 106.011719 377.363281 106.769531 377.300781 107.546875 C 377.242188 108.324219 377.28125 109.097656 377.425781 109.863281 C 377.570312 110.632812 377.8125 111.367188 378.148438 112.070312 C 378.292969 112.476562 378.484375 112.859375 378.722656 113.222656 C 379.925781 112.679688 380.964844 111.914062 381.832031 110.917969 C 382.296875 110.5 382.699219 110.027344 383.039062 109.5 C 383.378906 108.976562 383.644531 108.414062 383.835938 107.816406 C 384.027344 107.222656 384.140625 106.613281 384.171875 105.988281 C 384.203125 105.363281 384.152344 104.742188 384.019531 104.132812 C 383.871094 103.589844 383.585938 103.132812 383.171875 102.757812 C 382.753906 102.386719 382.269531 102.152344 381.71875 102.058594 Z M 381.140625 101.945312 " fill-opacity="1" fill-rule="nonzero"/><path fill="#8d4530" d="M 270.160156 270.855469 C 270.132812 271.191406 270.070312 271.519531 269.976562 271.84375 C 269.882812 272.167969 269.761719 272.476562 269.605469 272.777344 C 269.453125 273.078125 269.269531 273.359375 269.0625 273.621094 C 268.851562 273.886719 268.621094 274.125 268.363281 274.34375 C 268.109375 274.5625 267.832031 274.753906 267.539062 274.921875 C 267.246094 275.085938 266.941406 275.222656 266.621094 275.328125 C 266.300781 275.429688 265.972656 275.503906 265.640625 275.546875 C 265.304688 275.589844 264.972656 275.597656 264.636719 275.574219 C 264.296875 275.550781 263.964844 275.496094 263.636719 275.410156 C 263.308594 275.320312 262.996094 275.199219 262.691406 275.046875 C 262.390625 274.898438 262.105469 274.71875 261.835938 274.507812 C 261.570312 274.300781 261.328125 274.066406 261.105469 273.808594 C 260.886719 273.550781 260.695312 273.273438 260.53125 272.980469 C 260.367188 272.683594 260.230469 272.375 260.128906 272.050781 C 260.027344 271.726562 259.957031 271.398438 259.921875 271.0625 C 259.886719 270.722656 259.882812 270.386719 259.914062 270.050781 C 259.9375 269.710938 259.992188 269.375 260.078125 269.046875 C 260.167969 268.714844 260.289062 268.398438 260.4375 268.09375 C 260.589844 267.789062 260.769531 267.5 260.976562 267.230469 C 261.183594 266.957031 261.417969 266.710938 261.671875 266.488281 C 261.929688 266.261719 262.207031 266.066406 262.5 265.894531 C 262.796875 265.726562 263.105469 265.585938 263.429688 265.476562 C 263.753906 265.367188 264.085938 265.292969 264.421875 265.246094 C 264.761719 265.203125 265.101562 265.195312 265.441406 265.21875 C 265.78125 265.246094 266.117188 265.308594 266.445312 265.402344 C 266.773438 265.5 267.089844 265.625 267.390625 265.78125 C 267.695312 265.941406 267.980469 266.125 268.246094 266.339844 C 268.511719 266.554688 268.757812 266.792969 268.976562 267.054688 C 269.195312 267.316406 269.386719 267.597656 269.550781 267.898438 C 269.714844 268.199219 269.847656 268.511719 269.949219 268.835938 C 270.050781 269.164062 270.117188 269.496094 270.15625 269.835938 C 270.191406 270.175781 270.191406 270.515625 270.160156 270.855469 Z M 270.160156 270.855469 " fill-opacity="1" fill-rule="nonzero"/><path fill="#8d4530" d="M 294.566406 283.972656 C 292.957031 288.34375 286.625 290.070312 280.292969 287.769531 C 273.960938 285.46875 270.390625 279.945312 272.003906 275.574219 C 273.613281 271.199219 280.0625 269.476562 286.277344 271.777344 C 292.496094 274.078125 296.292969 279.601562 294.566406 283.972656 Z M 294.566406 283.972656 " fill-opacity="1" fill-rule="nonzero"/><path fill="#8d4530" d="M 495.804688 270.855469 C 495.828125 271.195312 495.882812 271.527344 495.972656 271.851562 C 496.058594 272.179688 496.179688 272.496094 496.332031 272.796875 C 496.484375 273.101562 496.664062 273.386719 496.871094 273.652344 C 497.082031 273.917969 497.3125 274.160156 497.570312 274.382812 C 497.828125 274.601562 498.105469 274.792969 498.402344 274.957031 C 498.699219 275.121094 499.007812 275.257812 499.332031 275.359375 C 499.65625 275.460938 499.984375 275.53125 500.320312 275.566406 C 500.65625 275.601562 500.996094 275.605469 501.332031 275.574219 C 501.667969 275.542969 501.996094 275.484375 502.320312 275.390625 C 502.644531 275.296875 502.957031 275.171875 503.253906 275.019531 C 503.554688 274.863281 503.835938 274.683594 504.101562 274.476562 C 504.363281 274.265625 504.605469 274.035156 504.824219 273.777344 C 505.042969 273.523438 505.234375 273.246094 505.398438 272.953125 C 505.566406 272.660156 505.699219 272.355469 505.804688 272.035156 C 505.910156 271.714844 505.984375 271.386719 506.027344 271.054688 C 506.066406 270.722656 506.078125 270.386719 506.050781 270.050781 C 506.023438 269.707031 505.960938 269.371094 505.867188 269.039062 C 505.773438 268.710938 505.644531 268.390625 505.488281 268.085938 C 505.332031 267.777344 505.148438 267.492188 504.933594 267.21875 C 504.722656 266.949219 504.484375 266.703125 504.222656 266.480469 C 503.960938 266.253906 503.679688 266.058594 503.378906 265.890625 C 503.082031 265.71875 502.769531 265.582031 502.441406 265.472656 C 502.113281 265.367188 501.78125 265.289062 501.4375 265.246094 C 501.097656 265.203125 500.753906 265.195312 500.410156 265.21875 C 500.074219 265.246094 499.742188 265.308594 499.414062 265.402344 C 499.089844 265.5 498.777344 265.625 498.476562 265.785156 C 498.175781 265.941406 497.894531 266.128906 497.628906 266.34375 C 497.367188 266.558594 497.128906 266.796875 496.914062 267.0625 C 496.699219 267.324219 496.511719 267.605469 496.355469 267.90625 C 496.195312 268.207031 496.070312 268.519531 495.972656 268.847656 C 495.878906 269.171875 495.816406 269.503906 495.789062 269.84375 C 495.761719 270.179688 495.765625 270.519531 495.804688 270.855469 Z M 495.804688 270.855469 " fill-opacity="1" fill-rule="nonzero"/><path fill="#8d4530" d="M 471.285156 283.972656 C 472.898438 288.34375 479.34375 290.070312 485.558594 287.769531 C 491.777344 285.46875 495.578125 279.945312 493.964844 275.574219 C 492.351562 271.199219 485.90625 269.476562 479.574219 271.777344 C 473.242188 274.078125 469.671875 279.601562 471.285156 283.972656 Z M 471.285156 283.972656 " fill-opacity="1" fill-rule="nonzero"/><path fill="#383835" d="M 293.070312 291.566406 L 291.574219 291.566406 C 267.972656 291.910156 247.019531 283.859375 232.398438 268.785156 C 217.777344 253.710938 211.332031 234.609375 212.023438 211.945312 C 213.519531 165.804688 246.328125 132.207031 290.078125 132.207031 L 291.574219 132.207031 C 336.011719 131.402344 369.515625 165.230469 371.011719 211.945312 C 371.703125 234.609375 364.679688 254.285156 350.632812 268.785156 C 336.589844 283.28125 315.980469 291.566406 293.070312 291.566406 Z M 291.574219 283.511719 L 293.070312 283.511719 C 313.792969 283.511719 332.097656 276.261719 344.878906 263.148438 C 357.65625 250.03125 363.644531 232.65625 362.953125 212.175781 C 361.683594 170.523438 332.214844 140.261719 292.957031 140.261719 L 290.078125 140.261719 C 250.820312 140.261719 221.464844 170.523438 220.082031 212.175781 C 219.503906 232.65625 225.722656 250.257812 238.269531 263.148438 C 250.820312 276.035156 270.160156 283.859375 291.460938 283.511719 Z M 291.574219 283.511719 " fill-opacity="1" fill-rule="nonzero"/><path fill="#383835" d="M 480.496094 291.566406 L 478.882812 291.566406 C 455.28125 291.910156 434.328125 283.859375 419.824219 268.785156 C 405.316406 253.710938 398.640625 234.609375 399.445312 211.945312 C 400.828125 165.804688 433.640625 132.207031 477.386719 132.207031 L 480.378906 132.207031 C 524.128906 132.207031 556.9375 165.804688 558.320312 211.945312 C 559.011719 234.609375 551.988281 254.285156 537.941406 268.785156 C 523.898438 283.28125 503.289062 291.566406 480.496094 291.566406 Z M 478.882812 283.511719 L 480.496094 283.511719 C 501.101562 283.511719 519.523438 276.261719 532.1875 263.148438 C 544.851562 250.03125 550.953125 232.65625 550.261719 212.175781 C 548.996094 170.523438 519.523438 140.261719 480.378906 140.261719 L 478.769531 140.261719 C 438.933594 139.570312 408.773438 170.0625 407.503906 212.175781 C 406.816406 232.65625 413.03125 250.257812 425.582031 263.148438 C 438.128906 276.035156 457.585938 283.859375 478.769531 283.511719 Z M 478.882812 283.511719 " fill-opacity="1" fill-rule="nonzero"/><path fill="#383835" d="M 403.476562 209.757812 L 366.980469 209.757812 C 366.714844 209.757812 366.453125 209.730469 366.195312 209.679688 C 365.9375 209.628906 365.683594 209.550781 365.4375 209.453125 C 365.195312 209.351562 364.960938 209.226562 364.742188 209.078125 C 364.523438 208.933594 364.320312 208.765625 364.132812 208.578125 C 363.945312 208.390625 363.777344 208.1875 363.632812 207.96875 C 363.484375 207.75 363.359375 207.515625 363.257812 207.273438 C 363.15625 207.027344 363.082031 206.777344 363.03125 206.515625 C 362.976562 206.257812 362.953125 205.996094 362.953125 205.730469 C 362.953125 205.464844 362.976562 205.203125 363.03125 204.945312 C 363.082031 204.6875 363.15625 204.433594 363.257812 204.191406 C 363.359375 203.945312 363.484375 203.714844 363.632812 203.492188 C 363.777344 203.273438 363.945312 203.070312 364.132812 202.882812 C 364.320312 202.695312 364.523438 202.527344 364.742188 202.382812 C 364.960938 202.234375 365.195312 202.109375 365.4375 202.011719 C 365.683594 201.910156 365.9375 201.832031 366.195312 201.78125 C 366.453125 201.730469 366.714844 201.703125 366.980469 201.703125 L 403.476562 201.703125 C 403.742188 201.703125 404.003906 201.730469 404.261719 201.78125 C 404.523438 201.832031 404.773438 201.910156 405.019531 202.011719 C 405.261719 202.109375 405.496094 202.234375 405.714844 202.382812 C 405.933594 202.527344 406.136719 202.695312 406.324219 202.882812 C 406.511719 203.070312 406.679688 203.273438 406.828125 203.492188 C 406.972656 203.714844 407.097656 203.945312 407.199219 204.191406 C 407.300781 204.433594 407.375 204.6875 407.429688 204.945312 C 407.480469 205.203125 407.503906 205.464844 407.503906 205.730469 C 407.503906 205.996094 407.480469 206.257812 407.429688 206.515625 C 407.375 206.777344 407.300781 207.027344 407.199219 207.273438 C 407.097656 207.515625 406.972656 207.75 406.828125 207.96875 C 406.679688 208.1875 406.511719 208.390625 406.324219 208.578125 C 406.136719 208.765625 405.933594 208.933594 405.714844 209.078125 C 405.496094 209.226562 405.261719 209.351562 405.019531 209.453125 C 404.773438 209.550781 404.523438 209.628906 404.261719 209.679688 C 404.003906 209.730469 403.742188 209.757812 403.476562 209.757812 Z M 403.476562 209.757812 " fill-opacity="1" fill-rule="nonzero"/><path fill="#e8aa66" d="M 430.644531 528.132812 C 427.226562 530.066406 423.699219 531.773438 420.058594 533.25 C 416.421875 534.730469 412.703125 535.96875 408.90625 536.96875 C 405.109375 537.96875 401.261719 538.71875 397.367188 539.222656 C 393.46875 539.726562 389.558594 539.980469 385.632812 539.980469 C 381.703125 539.980469 377.792969 539.726562 373.898438 539.222656 C 370.003906 538.71875 366.15625 537.96875 362.359375 536.96875 C 358.558594 535.96875 354.839844 534.730469 351.203125 533.25 C 347.5625 531.773438 344.035156 530.066406 340.617188 528.132812 C 336.242188 517.777344 286.855469 395.929688 385.632812 395.929688 C 484.410156 395.929688 435.019531 517.777344 430.644531 528.132812 Z M 430.644531 528.132812 " fill-opacity="1" fill-rule="nonzero"/><g clip-path="url(#22e0a7e884)"><path fill="#383835" d="M 179.902344 327.007812 L 128.902344 330.804688 L 128.902344 563.113281 C 128.902344 563.113281 248.058594 557.476562 340.386719 568.175781 C 340.386719 568.175781 347.179688 575.308594 373.773438 575.308594 C 400.367188 575.308594 423.851562 576 429.148438 563.113281 C 429.148438 563.113281 563.960938 553.101562 635.109375 560.238281 L 639.367188 337.015625 Z M 179.902344 327.007812 " fill-opacity="1" fill-rule="nonzero"/></g><path fill="#e8aa66" d="M 166.894531 319.871094 C 166.894531 319.871094 156.1875 333.449219 145.363281 340.699219 C 145.363281 340.699219 149.738281 519.042969 145.363281 544.703125 C 145.363281 544.703125 318.511719 540.332031 351.09375 556.324219 C 351.09375 556.324219 353.855469 564.492188 375.15625 566.679688 C 396.453125 568.867188 415.910156 571.167969 415.910156 553.792969 C 415.910156 553.792969 518.027344 531.242188 620.71875 544.703125 C 620.71875 544.703125 625.78125 359.453125 625.78125 339.894531 L 625.78125 337.820312 C 625.78125 337.820312 610.816406 329.882812 604.601562 319.871094 L 403.246094 377.289062 Z M 166.894531 319.871094 " fill-opacity="1" fill-rule="nonzero"/><path fill="#ffffff" d="M 385.746094 330.457031 C 376.765625 325.511719 281.671875 276.148438 166.894531 319.871094 L 166.894531 529.398438 C 166.894531 529.398438 216.972656 527.328125 267.28125 524.105469 C 317.59375 520.886719 356.273438 543.550781 384.710938 544.589844 L 386.898438 544.589844 C 415.21875 543.550781 455.050781 520.886719 504.210938 524.105469 C 553.371094 527.328125 604.601562 529.398438 604.601562 529.398438 L 604.601562 319.871094 C 489.820312 276.148438 394.726562 325.511719 385.746094 330.457031 Z M 385.746094 330.457031 " fill-opacity="1" fill-rule="nonzero"/><path fill="#e8aa66" d="M 386.898438 546.3125 C 386.679688 546.3125 386.46875 546.273438 386.261719 546.195312 C 386.058594 546.113281 385.875 546 385.714844 545.851562 C 385.554688 545.699219 385.429688 545.527344 385.335938 545.328125 C 385.238281 545.128906 385.1875 544.921875 385.171875 544.703125 C 380.335938 463.46875 384.019531 331.722656 384.019531 330.34375 C 384.035156 330.113281 384.09375 329.894531 384.195312 329.691406 C 384.296875 329.484375 384.433594 329.304688 384.605469 329.15625 C 384.777344 329.003906 384.972656 328.890625 385.191406 328.816406 C 385.410156 328.746094 385.632812 328.714844 385.863281 328.730469 C 386.082031 328.746094 386.289062 328.800781 386.488281 328.894531 C 386.6875 328.988281 386.859375 329.117188 387.007812 329.277344 C 387.160156 329.4375 387.273438 329.617188 387.355469 329.824219 C 387.433594 330.027344 387.472656 330.238281 387.472656 330.457031 C 387.472656 331.839844 383.789062 463.46875 388.507812 544.589844 C 388.546875 544.816406 388.53125 545.039062 388.464844 545.261719 C 388.394531 545.480469 388.285156 545.675781 388.125 545.84375 C 387.96875 546.011719 387.78125 546.140625 387.566406 546.222656 C 387.351562 546.304688 387.128906 546.335938 386.898438 546.3125 Z M 386.898438 546.3125 " fill-opacity="1" fill-rule="nonzero"/><path fill="#e8aa66" d="M 348.101562 352.894531 L 347.410156 352.894531 C 284.089844 327.121094 201.316406 344.265625 200.511719 344.496094 C 200.28125 344.546875 200.050781 344.550781 199.820312 344.507812 C 199.589844 344.464844 199.375 344.375 199.179688 344.246094 C 198.984375 344.117188 198.820312 343.953125 198.691406 343.757812 C 198.5625 343.558594 198.480469 343.347656 198.4375 343.113281 C 198.386719 342.894531 198.378906 342.671875 198.414062 342.445312 C 198.449219 342.222656 198.527344 342.011719 198.644531 341.820312 C 198.765625 341.625 198.914062 341.460938 199.097656 341.328125 C 199.28125 341.191406 199.484375 341.097656 199.703125 341.042969 C 200.625 340.929688 284.320312 323.554688 348.675781 349.671875 C 348.886719 349.75 349.078125 349.863281 349.242188 350.019531 C 349.402344 350.175781 349.53125 350.355469 349.617188 350.5625 C 349.703125 350.773438 349.746094 350.988281 349.742188 351.214844 C 349.738281 351.4375 349.691406 351.65625 349.597656 351.859375 C 349.464844 352.160156 349.265625 352.402344 348.996094 352.589844 C 348.726562 352.777344 348.429688 352.878906 348.101562 352.894531 Z M 348.101562 352.894531 " fill-opacity="1" fill-rule="nonzero"/><path fill="#e8aa66" d="M 348.101562 383.960938 L 347.410156 383.960938 C 283.976562 358.304688 201.316406 375.445312 200.511719 375.5625 C 200.289062 375.632812 200.0625 375.652344 199.832031 375.625 C 199.597656 375.597656 199.382812 375.519531 199.1875 375.398438 C 198.988281 375.277344 198.824219 375.121094 198.691406 374.929688 C 198.5625 374.738281 198.476562 374.527344 198.4375 374.296875 C 198.386719 374.074219 198.378906 373.851562 198.414062 373.628906 C 198.449219 373.402344 198.527344 373.195312 198.644531 373 C 198.765625 372.808594 198.914062 372.644531 199.097656 372.507812 C 199.28125 372.375 199.484375 372.28125 199.703125 372.226562 C 200.625 371.996094 284.320312 354.621094 348.675781 380.738281 C 348.90625 380.8125 349.105469 380.933594 349.28125 381.09375 C 349.457031 381.257812 349.589844 381.453125 349.675781 381.675781 C 349.765625 381.898438 349.804688 382.128906 349.789062 382.367188 C 349.777344 382.605469 349.710938 382.832031 349.597656 383.042969 C 349.460938 383.328125 349.257812 383.554688 348.984375 383.722656 C 348.714844 383.890625 348.417969 383.96875 348.101562 383.960938 Z M 348.101562 383.960938 " fill-opacity="1" fill-rule="nonzero"/><path fill="#e8aa66" d="M 348.101562 415.144531 L 347.410156 414.914062 C 284.089844 389.253906 201.316406 406.398438 200.511719 406.628906 C 200.28125 406.679688 200.050781 406.683594 199.820312 406.640625 C 199.589844 406.597656 199.375 406.511719 199.179688 406.378906 C 198.984375 406.25 198.820312 406.085938 198.691406 405.890625 C 198.5625 405.691406 198.480469 405.480469 198.4375 405.246094 C 198.386719 405.027344 198.378906 404.804688 198.414062 404.578125 C 198.449219 404.355469 198.527344 404.144531 198.644531 403.953125 C 198.765625 403.757812 198.914062 403.59375 199.097656 403.460938 C 199.28125 403.324219 199.484375 403.230469 199.703125 403.175781 C 200.625 403.0625 284.320312 385.6875 348.675781 411.804688 C 348.886719 411.882812 349.078125 412 349.242188 412.152344 C 349.402344 412.308594 349.53125 412.488281 349.617188 412.699219 C 349.703125 412.90625 349.746094 413.121094 349.742188 413.347656 C 349.738281 413.574219 349.691406 413.789062 349.597656 413.992188 C 349.484375 414.316406 349.292969 414.582031 349.019531 414.789062 C 348.75 415 348.441406 415.117188 348.101562 415.144531 Z M 348.101562 415.144531 " fill-opacity="1" fill-rule="nonzero"/><path fill="#e8aa66" d="M 348.101562 446.210938 L 347.410156 446.210938 C 283.976562 420.550781 201.316406 437.695312 200.511719 437.8125 C 200.28125 437.894531 200.042969 437.925781 199.796875 437.90625 C 199.554688 437.886719 199.324219 437.820312 199.109375 437.703125 C 198.894531 437.585938 198.710938 437.429688 198.5625 437.238281 C 198.414062 437.042969 198.308594 436.828125 198.25 436.589844 C 198.195312 436.351562 198.1875 436.113281 198.230469 435.871094 C 198.277344 435.632812 198.367188 435.410156 198.507812 435.207031 C 198.644531 435.007812 198.820312 434.84375 199.027344 434.714844 C 199.234375 434.585938 199.460938 434.507812 199.703125 434.472656 C 200.625 434.242188 284.320312 416.871094 348.675781 442.988281 C 348.90625 443.0625 349.105469 443.179688 349.28125 443.34375 C 349.457031 443.507812 349.589844 443.699219 349.675781 443.921875 C 349.765625 444.144531 349.804688 444.375 349.789062 444.617188 C 349.777344 444.855469 349.710938 445.078125 349.597656 445.289062 C 349.460938 445.578125 349.257812 445.804688 348.984375 445.972656 C 348.714844 446.136719 348.417969 446.21875 348.101562 446.210938 Z M 348.101562 446.210938 " fill-opacity="1" fill-rule="nonzero"/><path fill="#e8aa66" d="M 348.101562 477.277344 L 347.410156 477.277344 C 283.976562 451.617188 201.316406 468.761719 200.511719 468.992188 C 200.28125 469.042969 200.050781 469.046875 199.820312 469.003906 C 199.589844 468.960938 199.375 468.875 199.179688 468.742188 C 198.984375 468.613281 198.820312 468.449219 198.691406 468.253906 C 198.5625 468.054688 198.480469 467.84375 198.4375 467.613281 C 198.386719 467.390625 198.378906 467.167969 198.414062 466.941406 C 198.449219 466.71875 198.527344 466.511719 198.644531 466.316406 C 198.765625 466.121094 198.914062 465.957031 199.097656 465.824219 C 199.28125 465.6875 199.484375 465.59375 199.703125 465.539062 C 200.625 465.425781 284.320312 448.050781 348.675781 474.171875 C 348.902344 474.230469 349.101562 474.335938 349.277344 474.488281 C 349.453125 474.640625 349.585938 474.824219 349.675781 475.035156 C 349.765625 475.25 349.804688 475.472656 349.789062 475.707031 C 349.777344 475.9375 349.710938 476.15625 349.597656 476.355469 C 349.460938 476.644531 349.257812 476.871094 348.984375 477.039062 C 348.714844 477.207031 348.417969 477.285156 348.101562 477.277344 Z M 348.101562 477.277344 " fill-opacity="1" fill-rule="nonzero"/><path fill="#e8aa66" d="M 348.101562 508.457031 L 347.410156 508.457031 C 284.089844 482.800781 201.316406 499.828125 200.511719 500.058594 C 200.28125 500.128906 200.042969 500.148438 199.804688 500.113281 C 199.566406 500.078125 199.347656 499.992188 199.148438 499.859375 C 198.945312 499.722656 198.785156 499.554688 198.660156 499.347656 C 198.535156 499.140625 198.460938 498.917969 198.4375 498.679688 C 198.367188 498.464844 198.347656 498.242188 198.375 498.019531 C 198.402344 497.792969 198.480469 497.585938 198.601562 497.398438 C 198.726562 497.207031 198.882812 497.054688 199.078125 496.933594 C 199.269531 496.816406 199.480469 496.746094 199.703125 496.722656 C 200.625 496.492188 284.320312 479.117188 348.675781 505.238281 C 348.90625 505.308594 349.105469 505.429688 349.28125 505.59375 C 349.457031 505.757812 349.589844 505.949219 349.675781 506.171875 C 349.765625 506.394531 349.804688 506.625 349.789062 506.863281 C 349.777344 507.101562 349.710938 507.328125 349.597656 507.539062 C 349.449219 507.816406 349.242188 508.039062 348.976562 508.203125 C 348.707031 508.367188 348.414062 508.453125 348.101562 508.457031 Z M 348.101562 508.457031 " fill-opacity="1" fill-rule="nonzero"/><path fill="#e8aa66" d="M 422.585938 352.894531 C 422.230469 352.875 421.90625 352.761719 421.613281 352.554688 C 421.320312 352.347656 421.109375 352.078125 420.976562 351.746094 C 420.902344 351.53125 420.871094 351.3125 420.882812 351.085938 C 420.894531 350.859375 420.949219 350.644531 421.046875 350.4375 C 421.144531 350.234375 421.273438 350.054688 421.441406 349.902344 C 421.609375 349.75 421.796875 349.636719 422.011719 349.558594 C 486.367188 323.4375 570.0625 340.8125 570.984375 340.929688 C 571.203125 340.984375 571.40625 341.078125 571.589844 341.210938 C 571.773438 341.347656 571.921875 341.511719 572.042969 341.703125 C 572.160156 341.898438 572.238281 342.105469 572.273438 342.332031 C 572.308594 342.554688 572.300781 342.777344 572.25 343 C 572.195312 343.222656 572.101562 343.429688 571.96875 343.617188 C 571.835938 343.808594 571.675781 343.964844 571.484375 344.09375 C 571.289062 344.222656 571.082031 344.308594 570.855469 344.359375 C 570.632812 344.410156 570.40625 344.414062 570.175781 344.378906 C 569.371094 344.148438 486.597656 327.007812 423.277344 352.78125 Z M 422.585938 352.894531 " fill-opacity="1" fill-rule="nonzero"/><path fill="#e8aa66" d="M 422.585938 383.960938 C 422.238281 383.96875 421.917969 383.875 421.625 383.6875 C 421.332031 383.5 421.113281 383.246094 420.976562 382.925781 C 420.898438 382.703125 420.867188 382.476562 420.875 382.242188 C 420.886719 382.007812 420.941406 381.785156 421.035156 381.570312 C 421.132812 381.355469 421.265625 381.167969 421.433594 381.003906 C 421.601562 380.839844 421.792969 380.714844 422.011719 380.625 C 486.367188 354.503906 570.0625 371.878906 570.984375 372.109375 C 571.183594 372.183594 571.367188 372.285156 571.527344 372.425781 C 571.6875 372.5625 571.820312 372.726562 571.921875 372.914062 C 572.023438 373.101562 572.089844 373.300781 572.117188 373.511719 C 572.144531 373.722656 572.132812 373.933594 572.082031 374.140625 C 572.03125 374.347656 571.945312 374.539062 571.824219 374.714844 C 571.703125 374.890625 571.554688 375.039062 571.378906 375.160156 C 571.203125 375.28125 571.011719 375.363281 570.804688 375.414062 C 570.597656 375.464844 570.390625 375.476562 570.175781 375.445312 C 569.371094 375.332031 486.597656 358.1875 423.277344 383.847656 Z M 422.585938 383.960938 " fill-opacity="1" fill-rule="nonzero"/><path fill="#e8aa66" d="M 422.585938 415.144531 C 422.230469 415.125 421.90625 415.011719 421.613281 414.804688 C 421.320312 414.59375 421.109375 414.324219 420.976562 413.992188 C 420.902344 413.777344 420.871094 413.558594 420.882812 413.332031 C 420.894531 413.109375 420.949219 412.890625 421.046875 412.6875 C 421.144531 412.484375 421.273438 412.304688 421.441406 412.152344 C 421.609375 412 421.796875 411.882812 422.011719 411.804688 C 486.367188 385.6875 570.0625 403.0625 570.984375 403.175781 C 571.203125 403.230469 571.40625 403.324219 571.589844 403.460938 C 571.773438 403.59375 571.921875 403.757812 572.042969 403.953125 C 572.160156 404.144531 572.238281 404.355469 572.273438 404.578125 C 572.308594 404.804688 572.300781 405.027344 572.25 405.25 C 572.195312 405.472656 572.101562 405.679688 571.96875 405.867188 C 571.835938 406.054688 571.675781 406.214844 571.484375 406.339844 C 571.289062 406.46875 571.082031 406.558594 570.855469 406.609375 C 570.632812 406.65625 570.40625 406.664062 570.175781 406.628906 C 569.371094 406.398438 486.597656 389.253906 423.277344 414.914062 Z M 422.585938 415.144531 " fill-opacity="1" fill-rule="nonzero"/><path fill="#e8aa66" d="M 422.585938 446.210938 C 422.238281 446.214844 421.917969 446.125 421.625 445.9375 C 421.332031 445.746094 421.113281 445.492188 420.976562 445.175781 C 420.898438 444.953125 420.867188 444.726562 420.875 444.492188 C 420.886719 444.257812 420.941406 444.03125 421.035156 443.820312 C 421.132812 443.605469 421.265625 443.417969 421.433594 443.253906 C 421.601562 443.089844 421.792969 442.964844 422.011719 442.875 C 486.367188 416.753906 570.0625 434.128906 570.984375 434.359375 C 571.210938 434.398438 571.425781 434.484375 571.617188 434.613281 C 571.808594 434.742188 571.964844 434.90625 572.085938 435.105469 C 572.207031 435.304688 572.285156 435.519531 572.3125 435.75 C 572.339844 435.980469 572.320312 436.207031 572.25 436.429688 C 572.195312 436.652344 572.101562 436.851562 571.964844 437.035156 C 571.832031 437.21875 571.667969 437.371094 571.472656 437.488281 C 571.28125 437.605469 571.070312 437.683594 570.847656 437.71875 C 570.621094 437.753906 570.398438 437.746094 570.175781 437.695312 C 569.371094 437.582031 486.597656 420.4375 423.277344 446.09375 Z M 422.585938 446.210938 " fill-opacity="1" fill-rule="nonzero"/><path fill="#e8aa66" d="M 422.585938 477.277344 C 422.238281 477.28125 421.917969 477.191406 421.625 477.003906 C 421.332031 476.816406 421.113281 476.5625 420.976562 476.242188 C 420.882812 476.027344 420.839844 475.804688 420.84375 475.574219 C 420.847656 475.34375 420.898438 475.125 421 474.914062 C 421.097656 474.703125 421.234375 474.523438 421.414062 474.375 C 421.589844 474.226562 421.789062 474.117188 422.011719 474.054688 C 486.367188 447.9375 570.0625 465.308594 570.984375 465.425781 C 571.203125 465.480469 571.40625 465.574219 571.589844 465.707031 C 571.773438 465.84375 571.925781 466.007812 572.042969 466.199219 C 572.160156 466.394531 572.238281 466.605469 572.273438 466.828125 C 572.308594 467.050781 572.300781 467.273438 572.25 467.496094 C 572.195312 467.71875 572.101562 467.925781 571.96875 468.117188 C 571.835938 468.304688 571.675781 468.460938 571.484375 468.589844 C 571.289062 468.71875 571.082031 468.804688 570.855469 468.855469 C 570.632812 468.90625 570.40625 468.914062 570.175781 468.878906 C 569.371094 468.648438 486.597656 451.503906 423.277344 477.160156 Z M 422.585938 477.277344 " fill-opacity="1" fill-rule="nonzero"/><path fill="#e8aa66" d="M 422.585938 508.457031 C 422.246094 508.4375 421.933594 508.335938 421.644531 508.152344 C 421.359375 507.96875 421.136719 507.722656 420.976562 507.421875 C 420.898438 507.203125 420.867188 506.972656 420.875 506.738281 C 420.886719 506.503906 420.941406 506.28125 421.035156 506.066406 C 421.132812 505.851562 421.265625 505.664062 421.433594 505.5 C 421.601562 505.339844 421.792969 505.210938 422.011719 505.121094 C 486.367188 479.003906 570.0625 496.378906 570.984375 496.605469 C 571.207031 496.628906 571.417969 496.703125 571.609375 496.820312 C 571.804688 496.9375 571.960938 497.09375 572.085938 497.28125 C 572.207031 497.472656 572.285156 497.679688 572.3125 497.902344 C 572.339844 498.128906 572.320312 498.347656 572.25 498.5625 C 572.207031 498.792969 572.125 499.007812 571.996094 499.203125 C 571.867188 499.402344 571.703125 499.566406 571.507812 499.695312 C 571.3125 499.824219 571.097656 499.910156 570.867188 499.957031 C 570.636719 500 570.40625 499.996094 570.175781 499.945312 C 569.371094 499.714844 486.597656 482.570312 423.277344 508.34375 Z M 422.585938 508.457031 " fill-opacity="1" fill-rule="nonzero"/><path fill="#8d4530" d="M 176.5625 308.136719 C 176.5625 308.136719 161.253906 319.757812 192.335938 338.742188 C 210.066406 349.558594 201.890625 314.117188 201.890625 314.117188 C 201.890625 314.117188 214.09375 343.921875 229.0625 343.921875 C 244.027344 343.921875 238.386719 315.269531 238.386719 315.269531 C 238.386719 315.269531 247.367188 339.085938 263.484375 332.183594 C 279.601562 325.28125 274.304688 245.542969 176.5625 308.136719 Z M 176.5625 308.136719 " fill-opacity="1" fill-rule="nonzero"/><path fill="#8d4530" d="M 594.699219 308.136719 C 594.699219 308.136719 610.125 319.757812 578.925781 338.742188 C 561.199219 349.558594 569.371094 314.117188 569.371094 314.117188 C 569.371094 314.117188 557.167969 343.921875 542.203125 343.921875 C 527.234375 343.921875 532.875 315.269531 532.875 315.269531 C 532.875 315.269531 524.011719 339.085938 507.894531 332.183594 C 491.777344 325.28125 496.957031 245.542969 594.699219 308.136719 Z M 594.699219 308.136719 " fill-opacity="1" fill-rule="nonzero"/></svg>