<svg xmlns="http://www.w3.org/2000/svg" xmlns:xlink="http://www.w3.org/1999/xlink" width="1024" zoomAndPan="magnify" viewBox="0 0 768 576" height="768" preserveAspectRatio="xMidYMid meet" version="1.0"><path fill="#000000" d="M 6.015625 323.984375 C 137.664062 346.632812 271.839844 316.285156 402.5 300.53125 C 447.226562 295.136719 491.808594 292.167969 536.816406 291.789062 C 568.050781 291.523438 600.269531 292.441406 631.265625 288.003906 C 634.976562 287.472656 641.242188 287.074219 642.671875 282.761719 C 644.378906 277.597656 637.582031 275.722656 634.042969 274.800781 C 629.015625 273.488281 626.882812 281.253906 631.902344 282.566406 C 633.34375 282.941406 634.863281 283.25 636.15625 284.011719 C 629.785156 280.253906 639.960938 278.121094 633.152344 279.574219 C 627.5 280.78125 621.59375 281.046875 615.84375 281.457031 C 598.980469 282.648438 582.046875 283.011719 565.148438 283.347656 C 529.378906 284.054688 493.898438 283.871094 458.183594 286.753906 C 324.308594 297.5625 191.367188 331.628906 56.347656 322.121094 C 40.191406 320.984375 24.117188 318.964844 8.160156 316.21875 C 3.078125 315.34375 0.90625 323.101562 6.015625 323.984375 Z M 6.015625 323.984375 " fill-opacity="1" fill-rule="nonzero"/><path fill="#000000" d="M 21.964844 360.800781 C 247.691406 324.355469 482.679688 352.257812 703.074219 282.566406 C 702.363281 279.976562 701.648438 277.386719 700.9375 274.796875 C 685.03125 279.890625 668.109375 283.53125 651.382812 283.859375 C 646.195312 283.960938 646.1875 292.015625 651.382812 291.914062 C 668.8125 291.574219 686.519531 287.867188 703.074219 282.566406 C 708.003906 280.988281 705.902344 273.226562 700.9375 274.796875 C 480.617188 344.464844 245.511719 316.59375 19.824219 353.035156 C 14.707031 353.859375 16.886719 361.621094 21.964844 360.800781 Z M 21.964844 360.800781 " fill-opacity="1" fill-rule="nonzero"/><path fill="#000000" d="M 524.277344 212.496094 C 550.160156 234.191406 549.074219 273.382812 547.066406 304.070312 C 544.90625 337.082031 537.175781 369.820312 536.90625 402.9375 C 536.878906 405.902344 540.375 408.070312 542.964844 406.414062 C 612.914062 361.65625 687.898438 324.6875 763.863281 291.363281 C 767.089844 289.945312 766.101562 284.714844 762.902344 284 C 725.054688 275.550781 690.015625 256.808594 656.867188 237.234375 C 622.144531 216.730469 589.03125 193.503906 556.769531 169.351562 C 555.109375 168.109375 552.132812 168.972656 551.261719 170.796875 C 531.878906 211.351562 536.777344 258.113281 536.90625 301.6875 C 536.917969 306.195312 543.71875 307.230469 544.816406 302.757812 C 553.070312 269.105469 556.296875 223.804688 588.984375 203.917969 C 587.015625 202.402344 585.042969 200.886719 583.070312 199.371094 C 577.574219 224.152344 564.167969 245.914062 551.261719 267.441406 C 553.582031 268.796875 555.898438 270.152344 558.214844 271.507812 C 567.582031 249.410156 583.90625 232.132812 602.792969 217.726562 C 600.773438 216.566406 598.753906 215.410156 596.734375 214.25 C 600.152344 246.261719 567.566406 266.824219 551.261719 290.453125 C 548.445312 294.53125 554.289062 297.941406 557.585938 295.332031 C 580.265625 277.359375 605.121094 260.417969 634.042969 254.949219 C 632.738281 252.707031 631.433594 250.464844 630.128906 248.21875 C 607.757812 275.121094 574.761719 290.625 551.890625 317.25 C 549.117188 320.480469 551.835938 324.570312 555.808594 323.980469 C 597.195312 317.847656 625.578125 284.03125 662.617188 268.351562 C 661.265625 266.035156 659.90625 263.714844 658.554688 261.398438 C 625.28125 285.058594 590.332031 306.894531 561.097656 335.660156 C 558.195312 338.511719 561.144531 343.433594 565.011719 342.390625 C 608.15625 330.785156 641.882812 297.578125 681.027344 277.558594 C 679.675781 275.242188 678.316406 272.921875 676.964844 270.605469 C 624.691406 308.128906 558.699219 329.324219 519.046875 382.5 C 516.789062 385.527344 520.488281 389.164062 523.59375 388.414062 C 587.980469 372.847656 640.3125 328.257812 699.433594 300.570312 C 698.082031 298.253906 696.726562 295.933594 695.371094 293.617188 C 649.863281 320.632812 599.578125 339.5 557.308594 371.851562 C 554.007812 374.378906 555.738281 380.9375 560.410156 379.214844 C 610.484375 360.726562 656.488281 333.671875 704.039062 309.777344 C 702.683594 307.460938 701.328125 305.140625 699.972656 302.824219 C 666.539062 321.691406 630.441406 336.109375 602.515625 363.28125 C 599.585938 366.132812 602.582031 371.027344 606.429688 370.011719 C 643.792969 360.152344 675.570312 338.035156 708.640625 318.984375 C 712.105469 316.984375 710.617188 311.445312 706.609375 311.480469 C 658.433594 311.886719 611.644531 324.863281 563.941406 329.886719 C 565.238281 331.585938 566.53125 333.285156 567.828125 334.984375 C 578.332031 299.734375 623.972656 226.664062 565.011719 210.375 C 560.632812 209.164062 557.882812 215.503906 561.910156 217.738281 C 592.6875 234.808594 627.261719 241.492188 659.515625 254.960938 C 660.230469 252.371094 660.945312 249.78125 661.65625 247.191406 C 623.945312 236.964844 596.457031 206.144531 560.410156 191.96875 C 556.660156 190.492188 553.539062 196.136719 556.492188 198.699219 C 598.855469 235.371094 663.292969 241.644531 699.160156 286.136719 C 701.058594 284.238281 702.953125 282.339844 704.855469 280.441406 C 683.269531 263.273438 664.347656 252.367188 636.507812 261 C 632.875 262.125 632.453125 267.859375 636.507812 268.765625 C 658.863281 273.761719 678.695312 286.554688 702.007812 287.320312 C 701.328125 284.816406 700.652344 282.316406 699.976562 279.816406 C 680.53125 293.617188 656.351562 297.449219 632.976562 297.671875 C 633.332031 300.3125 633.691406 302.949219 634.046875 305.585938 C 654.941406 301.660156 676.203125 301.132812 697.40625 301.125 C 696.726562 298.625 696.050781 296.121094 695.375 293.621094 C 657.644531 312.113281 616.386719 322.21875 580.320312 344.246094 C 582.292969 345.046875 584.261719 345.847656 586.234375 346.652344 C 572.949219 309.226562 583.273438 262.550781 557.585938 229.824219 C 556.335938 228.230469 553.144531 228.238281 551.890625 229.824219 C 527.011719 261.253906 534.421875 299.824219 561.097656 327.558594 C 563.550781 330.113281 567.96875 328.175781 567.96875 324.714844 C 567.980469 298.703125 567.761719 272.234375 577.03125 247.546875 C 574.789062 248.140625 572.542969 248.734375 570.300781 249.324219 C 594.105469 272.585938 623.191406 287.089844 654.914062 296.378906 C 655.628906 293.792969 656.339844 291.203125 657.054688 288.613281 C 650.109375 287.4375 641.707031 286.949219 635.671875 282.929688 C 630.519531 279.5 626.148438 274.40625 621.199219 270.609375 C 621.199219 272.929688 621.199219 275.246094 621.199219 277.566406 C 640.414062 268.113281 660.816406 260.570312 682.527344 264.164062 C 681.933594 261.917969 681.339844 259.675781 680.75 257.433594 C 674.980469 262.539062 668.113281 266.128906 662.34375 271.238281 C 658.445312 274.6875 664.164062 280.363281 668.039062 276.933594 C 673.804688 271.828125 680.675781 268.238281 686.445312 263.128906 C 688.582031 261.238281 687.625 256.886719 684.667969 256.398438 C 660.613281 252.417969 638.507812 260.09375 617.136719 270.609375 C 614.121094 272.09375 614.96875 275.894531 617.136719 277.5625 C 622.453125 281.644531 627.019531 286.828125 632.597656 290.539062 C 638.792969 294.667969 647.851562 295.175781 654.917969 296.375 C 659.949219 297.230469 662.128906 290.097656 657.058594 288.609375 C 626.621094 279.695312 598.839844 265.945312 575.996094 243.625 C 573.683594 241.367188 570.3125 242.613281 569.265625 245.402344 C 559.757812 270.722656 559.925781 298.027344 559.914062 324.707031 C 562.207031 323.757812 564.496094 322.808594 566.789062 321.859375 C 543.46875 297.613281 535.484375 263.4375 557.585938 235.511719 C 555.6875 235.511719 553.789062 235.511719 551.890625 235.511719 C 564.3125 251.34375 566.46875 272.46875 568.511719 291.796875 C 570.539062 311.019531 571.953125 330.4375 578.464844 348.789062 C 579.3125 351.175781 582.035156 352.628906 584.378906 351.195312 C 620.425781 329.183594 661.71875 319.0625 699.433594 300.574219 C 703.136719 298.757812 701.230469 293.066406 697.402344 293.070312 C 675.464844 293.074219 653.515625 293.753906 631.902344 297.816406 C 627.359375 298.667969 628.515625 305.769531 632.972656 305.726562 C 657.652344 305.488281 683.511719 301.339844 704.035156 286.769531 C 707.242188 284.492188 706.203125 279.402344 702.003906 279.265625 C 679.558594 278.535156 660.203125 265.820312 638.644531 261 C 638.644531 263.589844 638.644531 266.175781 638.644531 268.765625 C 663.554688 261.039062 679.960938 270.871094 699.15625 286.136719 C 703.230469 289.378906 708.132812 284.515625 704.851562 280.441406 C 668.75 235.652344 604.640625 229.757812 562.1875 193.003906 C 560.882812 195.246094 559.574219 197.488281 558.269531 199.734375 C 594.375 213.933594 621.597656 244.671875 659.515625 254.960938 C 664.683594 256.359375 666.296875 249.128906 661.65625 247.191406 C 630.050781 233.996094 596.132812 227.507812 565.972656 210.78125 C 564.941406 213.234375 563.90625 215.6875 562.871094 218.140625 C 613.824219 232.21875 569.046875 302.695312 560.058594 332.84375 C 559.367188 335.164062 561.332031 338.214844 563.941406 337.941406 C 611.636719 332.917969 658.457031 319.9375 706.609375 319.53125 C 705.929688 317.03125 705.253906 314.527344 704.574219 312.027344 C 672.117188 330.726562 640.964844 352.570312 604.292969 362.246094 C 605.597656 364.488281 606.902344 366.734375 608.207031 368.976562 C 635.609375 342.320312 671.238281 328.285156 704.039062 309.78125 C 708.589844 307.210938 704.582031 300.507812 699.972656 302.824219 C 653.054688 326.40625 607.679688 353.210938 558.269531 371.453125 C 559.304688 373.90625 560.335938 376.359375 561.371094 378.8125 C 603.644531 346.460938 653.925781 327.59375 699.4375 300.578125 C 703.972656 297.886719 700.007812 291.453125 695.371094 293.625 C 636.90625 321.003906 585.101562 365.265625 521.453125 380.660156 C 522.96875 382.628906 524.484375 384.601562 526 386.574219 C 564.589844 334.832031 630.136719 314.105469 681.027344 277.570312 C 685.207031 274.570312 681.652344 268.21875 676.964844 270.617188 C 638.511719 290.285156 605.214844 323.246094 562.871094 334.640625 C 564.175781 336.882812 565.484375 339.128906 566.789062 341.371094 C 595.542969 313.082031 629.898438 291.632812 662.617188 268.367188 C 666.925781 265.304688 663.289062 259.40625 658.554688 261.414062 C 622.144531 276.828125 594.335938 310.210938 553.667969 316.234375 C 554.972656 318.476562 556.28125 320.722656 557.585938 322.964844 C 580.453125 296.339844 613.449219 280.839844 635.820312 253.933594 C 638.445312 250.78125 635.980469 246.429688 631.90625 247.203125 C 601.59375 252.933594 575.644531 270.832031 551.890625 289.65625 C 554 291.285156 556.109375 292.910156 558.214844 294.535156 C 575.601562 269.347656 608.460938 248.664062 604.785156 214.269531 C 604.503906 211.632812 601.429688 208.730469 598.726562 210.792969 C 578.75 226.03125 561.1875 244.046875 551.261719 267.460938 C 549.292969 272.105469 555.464844 276.113281 558.214844 271.527344 C 571.46875 249.425781 585.191406 226.976562 590.835938 201.535156 C 591.574219 198.203125 588.082031 195.066406 584.921875 196.984375 C 549.851562 218.316406 545.917969 264.480469 537.046875 300.640625 C 539.683594 300.996094 542.320312 301.351562 544.957031 301.710938 C 544.835938 259.804688 539.566406 213.898438 558.214844 174.882812 C 556.378906 175.363281 554.542969 175.84375 552.707031 176.328125 C 584.996094 200.496094 618.15625 223.527344 652.800781 244.207031 C 686.339844 264.226562 722.371094 283.214844 760.761719 291.785156 C 760.441406 289.332031 760.121094 286.878906 759.800781 284.425781 C 683.832031 317.746094 608.847656 354.71875 538.898438 399.476562 C 540.917969 400.636719 542.9375 401.792969 544.957031 402.953125 C 545.246094 367.886719 553.46875 333.183594 555.480469 298.183594 C 557.273438 267.035156 555.871094 228.527344 529.972656 206.820312 C 526.023438 203.488281 520.292969 209.15625 524.277344 212.496094 Z M 524.277344 212.496094 " fill-opacity="1" fill-rule="nonzero"/><path fill="#000000" d="M 614.566406 302.265625 C 467.09375 302.359375 318.65625 312.035156 176.296875 353.035156 C 171.3125 354.46875 173.433594 362.242188 178.433594 360.800781 C 320.136719 319.992188 467.777344 310.414062 614.566406 310.320312 C 619.757812 310.316406 619.757812 302.265625 614.566406 302.265625 Z M 614.566406 302.265625 " fill-opacity="1" fill-rule="nonzero"/><path fill="#000000" d="M 609.964844 283.859375 C 516.382812 290.96875 423.382812 303.765625 330.523438 317.117188 C 284.140625 323.785156 237.773438 330.578125 191.335938 336.882812 C 166.277344 340.285156 141.191406 343.492188 116.082031 346.484375 C 95.652344 348.921875 73.300781 353.964844 52.734375 352.835938 C 53.894531 354.851562 55.054688 356.871094 56.210938 358.894531 C 54.027344 360.394531 53.867188 360.882812 55.730469 360.347656 C 57.558594 360.058594 59.355469 359.683594 61.160156 359.273438 C 63.960938 358.632812 66.667969 357.535156 68.949219 355.792969 C 73.019531 352.683594 69.011719 345.683594 64.886719 348.835938 C 61.097656 351.730469 51.515625 350.652344 49.257812 354.828125 C 47.757812 357.605469 49.660156 360.71875 52.734375 360.886719 C 71.878906 361.941406 92.574219 357.289062 111.59375 355.070312 C 135.5625 352.269531 159.503906 349.191406 183.429688 346 C 230.230469 339.753906 276.953125 332.914062 323.683594 326.175781 C 418.820312 312.453125 514.082031 299.203125 609.964844 291.910156 C 615.109375 291.519531 615.144531 283.464844 609.964844 283.859375 Z M 609.964844 283.859375 " fill-opacity="1" fill-rule="nonzero"/><path fill="#000000" d="M 660.585938 287.308594 C 677.394531 287.320312 693.703125 287.894531 710.140625 291.769531 C 710.496094 289.132812 710.851562 286.496094 711.210938 283.859375 C 699.429688 283.875 687.90625 284.289062 676.964844 289.011719 C 673.191406 290.636719 675.207031 296.632812 678.996094 296.515625 C 692.945312 296.082031 706.472656 292.34375 720.414062 291.910156 C 720.414062 289.226562 720.414062 286.542969 720.414062 283.859375 C 709.519531 284.34375 699.082031 287.976562 688.199219 288.460938 C 683.027344 288.691406 683.003906 296.746094 688.199219 296.515625 C 699.09375 296.027344 709.53125 292.398438 720.414062 291.910156 C 725.578125 291.683594 725.621094 283.695312 720.414062 283.859375 C 706.464844 284.289062 692.9375 288.027344 678.996094 288.460938 C 679.675781 290.960938 680.351562 293.460938 681.027344 295.964844 C 690.53125 291.863281 701.046875 291.929688 711.210938 291.910156 C 715.703125 291.90625 716.765625 285.058594 712.28125 284 C 695.152344 279.96875 678.125 279.261719 660.585938 279.253906 C 655.394531 279.253906 655.394531 287.308594 660.585938 287.308594 Z M 660.585938 287.308594 " fill-opacity="1" fill-rule="nonzero"/></svg>