<svg xmlns="http://www.w3.org/2000/svg" xmlns:xlink="http://www.w3.org/1999/xlink" width="1024" zoomAndPan="magnify" viewBox="0 0 768 576" height="768" preserveAspectRatio="xMidYMid meet" version="1.0"><defs><clipPath id="77b5a38f70"><path d="M 98.519531 0 L 604 0 L 604 337 L 98.519531 337 Z M 98.519531 0 " clip-rule="nonzero"/></clipPath></defs><g clip-path="url(#77b5a38f70)"><path fill="#0a0e18" d="M 600.355469 302.171875 L 596.792969 302.171875 C 596.792969 309.582031 593.800781 316.257812 588.949219 321.117188 C 584.089844 325.972656 577.414062 328.964844 570.007812 328.964844 L 132.4375 328.964844 C 125.027344 328.964844 118.355469 325.972656 113.496094 321.117188 C 108.644531 316.257812 105.652344 309.582031 105.652344 302.171875 L 105.652344 33.972656 C 105.652344 26.558594 108.644531 19.882812 113.496094 15.023438 C 118.355469 10.167969 125.027344 7.175781 132.4375 7.175781 L 570.007812 7.175781 C 577.414062 7.175781 584.089844 10.167969 588.949219 15.023438 C 593.800781 19.882812 596.792969 26.558594 596.792969 33.972656 L 596.792969 302.171875 L 603.921875 302.171875 L 603.921875 33.972656 C 603.925781 24.613281 600.125 16.105469 593.988281 9.976562 C 587.859375 3.84375 579.363281 0.0390625 570.007812 0.0390625 L 132.4375 0.0390625 C 123.082031 0.0390625 114.578125 3.84375 108.453125 9.976562 C 102.320312 16.105469 98.519531 24.613281 98.519531 33.972656 L 98.519531 302.171875 C 98.519531 311.527344 102.320312 320.035156 108.453125 326.164062 C 114.582031 332.296875 123.082031 336.101562 132.4375 336.101562 L 570.007812 336.101562 C 579.363281 336.101562 587.859375 332.296875 593.988281 326.164062 C 600.125 320.035156 603.925781 311.527344 603.921875 302.171875 L 600.355469 302.171875 " fill-opacity="1" fill-rule="nonzero"/></g><path fill="#0a0e18" d="M 195.226562 130.117188 C 195.214844 130.636719 195.410156 129.179688 195.234375 130.078125 C 195.164062 130.417969 195.078125 130.753906 194.988281 131.085938 C 194.699219 132.179688 194.355469 133.261719 194.007812 134.335938 C 192.957031 137.605469 191.796875 140.84375 190.640625 144.078125 C 187.21875 153.628906 183.652344 163.128906 180.121094 172.636719 C 173.253906 191.125 165.734375 209.625 160.425781 228.636719 C 160.25 229.265625 160.085938 229.902344 159.925781 230.535156 C 158.984375 234.253906 164.714844 235.832031 165.65625 232.117188 C 167.59375 224.441406 170.332031 216.945312 172.964844 209.488281 C 176.671875 198.976562 180.542969 188.519531 184.421875 178.070312 C 188.070312 168.238281 191.746094 158.417969 195.324219 148.5625 C 197.320312 143.050781 199.742188 137.414062 200.964844 131.660156 C 201.070312 131.152344 201.15625 130.632812 201.171875 130.117188 C 201.273438 126.28125 195.332031 126.289062 195.226562 130.117188 " fill-opacity="1" fill-rule="nonzero"/><path fill="#0a0e18" d="M 195.632812 134.152344 C 208.964844 163.613281 218.351562 194.679688 230.742188 224.527344 C 232.191406 228.011719 237.945312 226.484375 236.472656 222.945312 C 223.882812 192.617188 214.3125 161.085938 200.765625 131.148438 C 199.1875 127.660156 194.066406 130.6875 195.632812 134.152344 " fill-opacity="1" fill-rule="nonzero"/><path fill="#0a0e18" d="M 157.730469 191.285156 C 182.128906 188.875 206.679688 188.632812 231.082031 186.222656 C 234.859375 185.851562 234.894531 179.902344 231.082031 180.277344 C 206.679688 182.6875 182.128906 182.933594 157.730469 185.339844 C 153.953125 185.710938 153.917969 191.660156 157.730469 191.285156 " fill-opacity="1" fill-rule="nonzero"/><path fill="#0a0e18" d="M 250.871094 135.179688 C 250.871094 164.699219 250.871094 194.214844 250.871094 223.738281 C 250.871094 227.570312 256.816406 227.570312 256.816406 223.738281 C 256.816406 194.214844 256.816406 164.699219 256.816406 135.179688 C 256.816406 131.347656 250.871094 131.347656 250.871094 135.179688 " fill-opacity="1" fill-rule="nonzero"/><path fill="#0a0e18" d="M 255.34375 142.804688 C 261.757812 139.644531 270.09375 137.082031 276.746094 140.554688 C 281.492188 143.035156 283.972656 148.238281 284.359375 153.355469 C 284.789062 159.089844 282.910156 164.921875 278.875 169.222656 C 273.777344 174.660156 266.269531 175.921875 259.136719 175.15625 C 255.878906 174.804688 252.660156 173.855469 249.578125 172.792969 C 245.941406 171.542969 244.394531 177.289062 247.996094 178.527344 C 256.460938 181.4375 266.125 182.742188 274.605469 179.167969 C 281.214844 176.375 286.003906 171.160156 288.617188 164.523438 C 293.300781 152.636719 288.421875 137.195312 275.292969 133.671875 C 267.53125 131.585938 259.292969 134.246094 252.34375 137.671875 C 248.90625 139.363281 251.917969 144.496094 255.34375 142.804688 " fill-opacity="1" fill-rule="nonzero"/><path fill="#0a0e18" d="M 251.316406 181.164062 C 264.664062 179.828125 290.539062 179.621094 293.765625 196.75 C 294.605469 201.214844 292.488281 206.355469 289.007812 209.96875 C 284.535156 214.617188 278.003906 216.808594 271.613281 217.121094 C 263.277344 217.527344 255.078125 214.839844 247.757812 211.046875 C 244.359375 209.285156 241.351562 214.417969 244.757812 216.179688 C 259.386719 223.757812 278.800781 227.082031 292.179688 215.167969 C 301.796875 206.597656 302.378906 191.980469 292.457031 183.441406 C 281.519531 174.03125 264.84375 173.867188 251.316406 175.21875 C 247.539062 175.597656 247.503906 181.542969 251.316406 181.164062 " fill-opacity="1" fill-rule="nonzero"/><path fill="#6d89bd" d="M 263.921875 326.828125 C 270.421875 316.554688 281.832031 328.984375 286.777344 336.109375 C 281.984375 326.664062 271.847656 304.21875 280.632812 294.949219 C 287.324219 287.882812 294.867188 294.800781 298.941406 302.824219 C 299.039062 295.796875 296.566406 275.796875 304.15625 270.433594 C 315.355469 262.519531 316.929688 279.875 317.464844 287.386719 C 319.785156 319.769531 324.628906 377.742188 367.328125 378.628906 C 367.328125 378.628906 373.640625 404.757812 367.683594 415.292969 C 355.148438 437.484375 319.316406 437.300781 291.804688 415.742188 C 271.957031 400.1875 240.992188 340.925781 282.859375 361.507812 C 275.882812 356.871094 257.519531 336.945312 263.921875 326.828125 " fill-opacity="1" fill-rule="nonzero"/><path fill="#0a0e18" d="M 403.710938 96.320312 C 403.710938 96.320312 401.445312 91.234375 397.871094 96.894531 C 394.296875 102.550781 242.917969 405.804688 242.082031 415.324219 C 241.460938 422.367188 254.90625 425.867188 259.234375 421.902344 C 263.566406 417.941406 403.710938 96.320312 403.710938 96.320312 " fill-opacity="1" fill-rule="nonzero"/><path fill="#0a0e18" d="M 379.59375 96.351562 C 383.125 87.765625 388.644531 79.953125 394.386719 72.71875 C 395.566406 71.238281 393.480469 69.117188 392.285156 70.617188 C 386.195312 78.289062 380.46875 86.460938 376.726562 95.5625 C 376 97.335938 378.875 98.101562 379.59375 96.351562 " fill-opacity="1" fill-rule="nonzero"/><path fill="#0a0e18" d="M 372.003906 93.320312 C 373.6875 85.574219 377.804688 78.722656 382.476562 72.421875 C 383.621094 70.878906 381.039062 69.398438 379.914062 70.921875 C 375.09375 77.417969 370.871094 84.546875 369.140625 92.53125 C 368.734375 94.398438 371.597656 95.191406 372.003906 93.320312 " fill-opacity="1" fill-rule="nonzero"/><path fill="#6d89bd" d="M 551.332031 535.699219 L 536.652344 542.035156 C 534.09375 543.992188 526.875 562.867188 531.527344 565.144531 C 540.355469 569.464844 540.746094 558.136719 542.933594 552.523438 C 545.402344 573.09375 568.621094 567.71875 556.125 545.289062 C 559.800781 551.886719 570.402344 553.011719 570.667969 548.253906 C 571.183594 539.207031 561.269531 537.214844 551.332031 535.699219 " fill-opacity="1" fill-rule="nonzero"/><path fill="#6d89bd" d="M 445.9375 540.390625 L 430.679688 535.613281 C 427.460938 535.429688 409.6875 545.03125 411.726562 549.789062 C 415.605469 558.824219 423.285156 550.492188 428.601562 547.664062 C 417.066406 564.867188 438.171875 575.941406 443.316406 550.785156 C 441.804688 558.183594 449.109375 565.957031 452.414062 562.523438 C 458.699219 556 452.484375 548.023438 445.9375 540.390625 " fill-opacity="1" fill-rule="nonzero"/><path fill="#61c9b5" d="M 619.917969 403.550781 C 625.46875 368.136719 629.84375 318.75 609.75 287.347656 L 356.925781 306.558594 C 332.496094 386.246094 354.265625 489.636719 426.5625 533.867188 C 473.871094 562.808594 610.351562 551.394531 630.585938 480.550781 C 598.734375 489.523438 617.644531 418.078125 619.917969 403.550781 " fill-opacity="1" fill-rule="nonzero"/><path fill="#6d89bd" d="M 644.855469 232.972656 C 657.570312 243.179688 630.910156 256.644531 618.296875 260.320312 C 628.40625 258.738281 649.429688 258.414062 651.519531 266.554688 C 655.332031 281.421875 623.316406 278.816406 616.808594 275.6875 C 622.738281 279.15625 639.355469 286.707031 633.648438 293.535156 C 625.070312 303.808594 602.652344 284.558594 596.019531 276.003906 L 593.003906 258.601562 C 600.941406 248.625 629.960938 221.023438 644.855469 232.972656 " fill-opacity="1" fill-rule="nonzero"/><path fill="#6d89bd" d="M 399.46875 176.386719 C 383.570312 179.992188 401.652344 203.773438 411.382812 212.605469 C 402.984375 206.753906 384.226562 197.257812 378.785156 203.660156 C 368.847656 215.355469 398.769531 227.03125 405.996094 227.070312 C 399.148438 227.59375 380.898438 227.109375 383.039062 235.742188 C 386.261719 248.734375 414.839844 241.25 424.546875 236.460938 L 434.875 222.136719 C 432.105469 209.6875 418.09375 172.164062 399.46875 176.386719 " fill-opacity="1" fill-rule="nonzero"/><path fill="#61c9b5" d="M 624.535156 371.039062 C 608.746094 439.5625 541.070312 457.863281 466.75 440.722656 C 392.421875 423.582031 339.589844 377.488281 355.378906 308.96875 C 371.171875 240.449219 444.222656 198.804688 518.546875 215.941406 C 592.871094 233.078125 640.324219 302.519531 624.535156 371.039062 " fill-opacity="1" fill-rule="nonzero"/><path fill="#6d89bd" d="M 461.171875 327.441406 C 454.925781 354.554688 427.878906 371.472656 400.777344 365.222656 C 373.667969 358.96875 356.757812 331.917969 363.007812 304.800781 C 369.257812 277.683594 396.296875 260.769531 423.40625 267.023438 C 450.511719 273.273438 467.421875 300.324219 461.171875 327.441406 " fill-opacity="1" fill-rule="nonzero"/><path fill="#6d89bd" d="M 618.675781 363.761719 C 612.347656 391.230469 584.953125 408.367188 557.492188 402.035156 C 530.027344 395.703125 512.898438 368.296875 519.234375 340.828125 C 525.5625 313.355469 552.957031 296.222656 580.417969 302.554688 C 607.878906 308.886719 625.007812 336.289062 618.675781 363.761719 " fill-opacity="1" fill-rule="nonzero"/><path fill="#ffffff" d="M 448.210938 331.910156 C 443.722656 351.375 424.3125 363.519531 404.855469 359.03125 C 385.390625 354.542969 373.253906 335.125 377.738281 315.65625 C 382.226562 296.191406 401.636719 284.050781 421.097656 288.535156 C 440.554688 293.023438 452.695312 312.445312 448.210938 331.910156 " fill-opacity="1" fill-rule="nonzero"/><path fill="#ffffff" d="M 603.640625 367.75 C 599.15625 387.21875 579.742188 399.359375 560.28125 394.871094 C 540.820312 390.386719 528.679688 370.964844 533.171875 351.5 C 537.652344 332.035156 557.066406 319.890625 576.527344 324.375 C 595.984375 328.867188 608.125 348.285156 603.640625 367.75 " fill-opacity="1" fill-rule="nonzero"/><path fill="#0a0e18" d="M 440.5 329.582031 C 436.859375 345.367188 421.117188 355.21875 405.335938 351.578125 C 389.554688 347.9375 379.710938 332.1875 383.347656 316.398438 C 386.984375 300.617188 402.730469 290.765625 418.511719 294.40625 C 434.292969 298.046875 444.136719 313.796875 440.5 329.582031 " fill-opacity="1" fill-rule="nonzero"/><path fill="#0a0e18" d="M 596.621094 365.554688 C 592.980469 381.359375 577.21875 391.214844 561.425781 387.574219 C 545.621094 383.929688 535.769531 368.164062 539.414062 352.359375 C 543.054688 336.558594 558.8125 326.699219 574.613281 330.347656 C 590.40625 333.988281 600.261719 349.753906 596.621094 365.554688 " fill-opacity="1" fill-rule="nonzero"/><path fill="#f7961c" d="M 477.859375 384.554688 C 475.105469 383.828125 464.789062 344.523438 471.085938 334.324219 C 477.265625 324.296875 508.652344 332.8125 507.445312 345.25 C 506.136719 358.625 480.863281 385.34375 477.859375 384.554688 " fill-opacity="1" fill-rule="nonzero"/><path fill="#ffffff" d="M 437.714844 308.726562 C 436.863281 312.433594 433.167969 314.746094 429.464844 313.890625 C 425.761719 313.035156 423.449219 309.339844 424.304688 305.636719 C 425.15625 301.929688 428.851562 299.621094 432.554688 300.472656 C 436.261719 301.328125 438.570312 305.023438 437.714844 308.726562 " fill-opacity="1" fill-rule="nonzero"/><path fill="#ffffff" d="M 596.277344 345.296875 C 595.417969 349 591.726562 351.308594 588.023438 350.457031 C 584.320312 349.601562 582.007812 345.90625 582.863281 342.203125 C 583.71875 338.5 587.410156 336.1875 591.117188 337.042969 C 594.816406 337.894531 597.128906 341.589844 596.277344 345.296875 " fill-opacity="1" fill-rule="nonzero"/><path fill="#6d89bd" d="M 433.746094 219.480469 C 459.523438 228.203125 494.292969 270.277344 495.570312 312.964844 C 515.707031 273.824219 574.3125 254.671875 594.457031 259.453125 C 562.167969 224.292969 531.09375 212.628906 480.222656 210.738281 C 468.660156 210.304688 433.746094 219.480469 433.746094 219.480469 " fill-opacity="1" fill-rule="nonzero"/><path fill="#ffffff" d="M 503.894531 275.066406 C 502.925781 272.097656 501.082031 254.988281 508.035156 258.269531 C 512.742188 260.488281 505.765625 272.15625 504.816406 274.851562 L 503.894531 275.066406 " fill-opacity="1" fill-rule="nonzero"/><path fill="#ffffff" d="M 491.785156 250.015625 C 489.960938 247.480469 483.011719 231.738281 490.632812 232.75 C 495.789062 233.441406 492.6875 246.671875 492.601562 249.53125 L 491.785156 250.015625 " fill-opacity="1" fill-rule="nonzero"/><path fill="#ffffff" d="M 513.164062 239.261719 C 512.171875 236.296875 510.203125 219.203125 517.179688 222.433594 C 521.902344 224.621094 515.015625 236.335938 514.082031 239.039062 L 513.164062 239.261719 " fill-opacity="1" fill-rule="nonzero"/><path fill="#ffffff" d="M 527.113281 256.652344 C 529.867188 255.175781 543.007812 244.074219 535.714844 241.644531 C 530.78125 240 527.769531 253.257812 526.59375 255.863281 L 527.113281 256.652344 " fill-opacity="1" fill-rule="nonzero"/><path fill="#ffffff" d="M 386.351562 329.226562 C 386.273438 331.152344 384.652344 332.652344 382.726562 332.574219 C 380.800781 332.496094 379.304688 330.871094 379.382812 328.945312 C 379.460938 327.019531 381.085938 325.519531 383.011719 325.597656 C 384.933594 325.675781 386.429688 327.300781 386.351562 329.226562 " fill-opacity="1" fill-rule="nonzero"/><path fill="#ffffff" d="M 546.101562 366.730469 C 545.671875 368.609375 543.800781 369.78125 541.925781 369.347656 C 540.046875 368.914062 538.875 367.039062 539.304688 365.164062 C 539.742188 363.285156 541.613281 362.113281 543.488281 362.542969 C 545.367188 362.976562 546.535156 364.851562 546.101562 366.730469 " fill-opacity="1" fill-rule="nonzero"/><path fill="#fab918" d="M 489.703125 330.785156 C 481.511719 328.667969 472.730469 329.210938 469.761719 334.023438 C 463.46875 344.21875 473.785156 383.523438 476.539062 384.25 C 476.738281 384.304688 477.039062 384.230469 477.429688 384.050781 L 489.703125 330.785156 " fill-opacity="1" fill-rule="nonzero"/><path fill="#fab918" d="M 531.945312 435.003906 C 503.167969 407.652344 451.007812 404.644531 423.183594 440.0625 C 398.308594 471.734375 400.925781 528.621094 449.488281 543.804688 L 456.066406 543.804688 C 466.183594 548.359375 505.261719 554.519531 526.886719 539.25 C 569.882812 508.886719 552.167969 454.226562 531.945312 435.003906 " fill-opacity="1" fill-rule="nonzero"/><path fill="#0a0e18" d="M 478.960938 440.386719 C 480.378906 443.171875 484.824219 459.792969 477.449219 457.621094 C 472.457031 456.148438 477.5625 443.546875 478.082031 440.738281 L 478.960938 440.386719 " fill-opacity="1" fill-rule="nonzero"/><path fill="#0a0e18" d="M 447.085938 455.988281 C 448.574219 458.730469 453.480469 475.226562 446.050781 473.257812 C 441.019531 471.921875 445.773438 459.1875 446.21875 456.363281 L 447.085938 455.988281 " fill-opacity="1" fill-rule="nonzero"/><path fill="#0a0e18" d="M 510.589844 459.777344 C 512.160156 462.480469 517.519531 478.832031 510.039062 477.070312 C 504.972656 475.878906 509.367188 463.019531 509.734375 460.179688 L 510.589844 459.777344 " fill-opacity="1" fill-rule="nonzero"/><path fill="#0a0e18" d="M 476.792969 485.382812 C 475.460938 488.210938 471.511719 504.957031 478.820312 502.5625 C 483.761719 500.941406 478.289062 488.5 477.679688 485.707031 L 476.792969 485.382812 " fill-opacity="1" fill-rule="nonzero"/><path fill="#0a0e18" d="M 404.785156 262.777344 C 402.742188 263.214844 400.609375 262.996094 398.476562 263.09375 C 395.617188 263.230469 392.765625 263.585938 389.941406 264.046875 C 384.941406 264.867188 380.128906 266.398438 375.492188 268.40625 C 367.113281 272.03125 359.730469 277.933594 354.140625 285.121094 C 342.886719 299.589844 339.058594 318.453125 341.800781 336.390625 C 344.652344 355.019531 355.648438 371.800781 371.789062 381.554688 C 387.941406 391.320312 409.648438 395.390625 427.996094 390.347656 C 459.6875 381.632812 474.300781 346.414062 468.265625 316.03125 C 465.652344 302.871094 458.898438 290.609375 449.132812 281.417969 C 437.234375 270.230469 421.578125 264.5625 405.574219 262.667969 C 401.773438 262.21875 401.816406 268.167969 405.574219 268.613281 C 423.539062 270.738281 440.984375 278.625 451.945312 293.433594 C 461.199219 305.945312 464.914062 321.699219 463.429688 337.085938 C 462.015625 351.691406 455.273438 365.84375 444.03125 375.386719 C 431.1875 386.296875 413.695312 388.367188 397.648438 384.992188 C 387.550781 382.863281 377.757812 379.039062 369.460938 372.832031 C 362.140625 367.359375 356.476562 359.851562 352.578125 351.636719 C 345.09375 335.886719 344.851562 316.460938 351.835938 300.496094 C 356.078125 290.800781 363.015625 282.503906 372.019531 276.917969 C 376.910156 273.886719 382.28125 271.832031 387.867188 270.511719 C 390.917969 269.789062 394.019531 269.359375 397.144531 269.121094 C 400.238281 268.886719 403.328125 269.160156 406.363281 268.503906 C 410.109375 267.699219 408.523438 261.972656 404.785156 262.777344 " fill-opacity="1" fill-rule="nonzero"/><path fill="#0a0e18" d="M 575.445312 294.894531 C 571.902344 294.828125 568.359375 294.605469 564.832031 294.992188 C 559.574219 295.566406 554.425781 296.785156 549.488281 298.695312 C 540.277344 302.261719 532.136719 308.175781 525.726562 315.683594 C 513.050781 330.539062 507.699219 350.675781 510.324219 369.910156 C 513.09375 390.234375 526.375 407.378906 545.003906 415.714844 C 562.328125 423.460938 583.15625 426.320312 601.125 419.082031 C 631.234375 406.953125 644.359375 370.816406 635.421875 340.789062 C 631.949219 329.09375 625.003906 318.539062 615.589844 310.78125 C 604.175781 301.367188 589.992188 296.617188 575.445312 294.894531 C 571.640625 294.445312 571.691406 300.398438 575.445312 300.839844 C 593.390625 302.964844 610.886719 310.800781 621.605469 325.816406 C 630.464844 338.230469 633.855469 354.117188 631.703125 369.144531 C 629.609375 383.769531 622.382812 397.984375 610.496094 407.023438 C 596.511719 417.65625 578.609375 419.207031 561.929688 415.183594 C 551.417969 412.652344 541.214844 408.339844 533.0625 401.105469 C 525.882812 394.726562 520.777344 386.375 517.988281 377.210938 C 512.46875 359.070312 516.417969 338.746094 527.238281 323.359375 C 532.863281 315.355469 540.671875 309.070312 549.5625 305.054688 C 554.148438 302.988281 559.203125 301.664062 564.179688 301.015625 C 567.925781 300.523438 571.683594 300.773438 575.445312 300.839844 C 579.277344 300.914062 579.273438 294.96875 575.445312 294.894531 " fill-opacity="1" fill-rule="nonzero"/><path fill="#0a0e18" d="M 470.632812 334.707031 C 476.171875 329.488281 483.398438 326.902344 490.953125 328.496094 C 498.90625 330.171875 505.101562 336.101562 509.144531 342.886719 C 511.097656 346.175781 516.238281 343.1875 514.273438 339.886719 C 509.269531 331.488281 501.582031 324.664062 491.832031 322.613281 C 482.472656 320.644531 473.261719 324.070312 466.429688 330.503906 C 463.632812 333.136719 467.84375 337.332031 470.632812 334.707031 " fill-opacity="1" fill-rule="nonzero"/><path fill="#0a0e18" d="M 592.230469 258.132812 C 598.984375 249.515625 607.574219 242.375 617.160156 237.121094 C 625.8125 232.382812 637.066406 229.054688 647.019531 230.511719 C 652.523438 231.320312 655.351562 234.925781 652.675781 240.132812 C 649.386719 246.53125 642.101562 250.730469 635.667969 253.269531 C 633.90625 253.960938 634.671875 256.835938 636.453125 256.132812 C 644.636719 252.910156 661.519531 249.414062 664.257812 261.742188 C 665.125 265.644531 663.105469 269.496094 660.332031 272.101562 C 655.828125 276.347656 649.066406 277.367188 643.132812 277.324219 C 641.429688 277.3125 641.144531 279.773438 642.742188 280.246094 C 645.558594 281.082031 650.34375 282.601562 650.703125 286.167969 C 651.007812 289.179688 647.882812 291.730469 645.703125 293.21875 C 638.753906 297.949219 628.851562 299.113281 621.183594 295.570312 C 619.460938 294.773438 617.945312 297.332031 619.6875 298.136719 C 629.195312 302.53125 641.148438 300.804688 649.269531 294.242188 C 652.046875 292 654.171875 288.699219 653.519531 285.027344 C 652.726562 280.578125 647.257812 278.488281 643.53125 277.378906 C 643.398438 278.351562 643.269531 279.324219 643.132812 280.296875 C 653.972656 280.375 669.269531 274.824219 667.1875 261.300781 C 666.429688 256.386719 662.457031 252.875 658.019531 251.183594 C 650.871094 248.464844 642.464844 250.589844 635.667969 253.269531 C 635.929688 254.222656 636.191406 255.175781 636.453125 256.132812 C 643.757812 253.253906 651.339844 248.71875 655.242188 241.632812 C 658.027344 236.582031 656.890625 230.804688 651.230469 228.578125 C 647.144531 226.972656 642.542969 227.132812 638.253906 227.589844 C 632.207031 228.238281 626.425781 229.683594 620.828125 232.046875 C 608.914062 237.078125 598.078125 245.890625 590.125 256.027344 C 588.960938 257.519531 591.046875 259.640625 592.230469 258.132812 " fill-opacity="1" fill-rule="nonzero"/><path fill="#0a0e18" d="M 435.25 220.003906 C 435.054688 209.363281 430.664062 198.957031 424.921875 190.164062 C 419.101562 181.25 410.214844 173.023438 400.226562 169.101562 C 394.167969 166.71875 386.792969 167.96875 385.480469 175.246094 C 383.847656 184.316406 391.058594 193.5 397.015625 199.386719 C 397.617188 198.609375 398.214844 197.832031 398.816406 197.054688 C 390.433594 190.882812 372.429688 182.199219 365.585938 195.339844 C 359.472656 207.070312 372.652344 217.65625 382.175781 221.28125 C 382.4375 220.324219 382.703125 219.371094 382.964844 218.414062 C 379 217.355469 373.332031 216.257812 370.144531 219.6875 C 367.679688 222.332031 368.746094 226.3125 370.335938 229.089844 C 376.105469 239.183594 389.660156 241.125 399.699219 237.304688 C 401.46875 236.632812 400.699219 233.757812 398.90625 234.441406 C 390.179688 237.757812 380.019531 236.550781 373.863281 229.019531 C 372.410156 227.238281 370.792969 224.183594 372.132812 221.941406 C 373.886719 219.011719 379.765625 220.632812 382.175781 221.28125 C 384.0625 221.785156 384.722656 219.082031 382.964844 218.414062 C 375 215.382812 363.128906 206.476562 368.335938 196.484375 C 370.246094 192.816406 374.371094 191.484375 378.265625 191.496094 C 385.25 191.523438 391.890625 195.628906 397.316406 199.621094 C 398.703125 200.640625 400.289062 198.445312 399.117188 197.289062 C 393.683594 191.914062 387.625 184.296875 388.332031 176.132812 C 389.050781 167.917969 399.089844 171.476562 403.453125 173.90625 C 419.292969 182.738281 431.941406 201.613281 432.28125 220.003906 C 432.316406 221.914062 435.285156 221.917969 435.25 220.003906 " fill-opacity="1" fill-rule="nonzero"/></svg>