<svg xmlns="http://www.w3.org/2000/svg" xmlns:xlink="http://www.w3.org/1999/xlink" width="1024" zoomAndPan="magnify" viewBox="0 0 768 576" height="768" preserveAspectRatio="xMidYMid meet" version="1.0"><defs><clipPath id="6dd0512d4a"><path d="M 504 114.210938 L 544 114.210938 L 544 165 L 504 165 Z M 504 114.210938 " clip-rule="nonzero"/></clipPath><clipPath id="ebfdff74ca"><path d="M 535 163 L 567.839844 163 L 567.839844 198 L 535 198 Z M 535 163 " clip-rule="nonzero"/></clipPath><clipPath id="b19af91ae7"><path d="M 326 444 L 362 444 L 362 461.460938 L 326 461.460938 Z M 326 444 " clip-rule="nonzero"/></clipPath><clipPath id="0ede1d982d"><path d="M 415 444 L 451 444 L 451 461.460938 L 415 461.460938 Z M 415 444 " clip-rule="nonzero"/></clipPath></defs><rect x="-76.8" width="921.6" fill="#ffffff" y="-57.6" height="691.2" fill-opacity="1"/><rect x="-76.8" width="921.6" fill="#ffffff" y="-57.6" height="691.2" fill-opacity="1"/><path fill="#ffcfca" d="M 398.632812 375.230469 C 398.632812 375.230469 408.253906 386.289062 428.910156 386.375 C 461.652344 386.511719 470.03125 366.667969 470.03125 366.667969 C 470.03125 366.667969 495.527344 378.164062 511.96875 360.921875 C 528.417969 343.675781 524.46875 321.820312 524.46875 321.820312 C 536.285156 314.757812 544.457031 301.921875 545.828125 288.234375 C 547.203125 274.546875 541.753906 260.351562 531.574219 251.078125 C 534.199219 229.757812 515.820312 208.234375 494.320312 207.46875 C 492.292969 189.105469 480.679688 172.0625 464.3125 163.433594 C 447.949219 154.804688 427.308594 154.84375 410.976562 163.53125 C 405.222656 157.695312 400.945312 152.925781 388.28125 151.902344 C 367.691406 150.238281 357.867188 163.53125 357.867188 163.53125 C 341.535156 154.84375 320.894531 154.804688 304.53125 163.433594 C 288.167969 172.0625 276.550781 189.105469 274.523438 207.46875 C 253.023438 208.234375 234.636719 229.757812 237.269531 251.078125 C 227.09375 260.34375 221.640625 274.546875 223.019531 288.234375 C 224.394531 301.921875 232.558594 314.757812 244.375 321.820312 C 244.375 321.820312 240.433594 343.675781 256.875 360.921875 C 273.324219 378.164062 298.816406 366.667969 298.816406 366.667969 C 298.816406 366.667969 316.117188 388.433594 339.9375 386.375 C 360.519531 384.601562 370.210938 375.230469 370.210938 375.230469 C 370.210938 375.230469 381.21875 383.355469 398.628906 375.230469 Z M 398.632812 375.230469 " fill-opacity="1" fill-rule="nonzero"/><path fill="#ffa59b" d="M 281.539062 247.816406 C 281.675781 236.027344 292.1875 228.480469 303.546875 230.550781 C 306.132812 231.023438 308.566406 229.464844 308.632812 226.6875 C 308.761719 221.128906 310.625 215.921875 314.84375 212.265625 C 319.8125 207.960938 326.453125 205.996094 332.882812 207.582031 C 337.902344 208.820312 340.042969 201.085938 335.015625 199.847656 C 325.925781 197.609375 316.878906 200.195312 309.746094 206.101562 C 303.625 211.171875 300.777344 218.832031 300.59375 226.6875 L 305.679688 222.820312 C 296.894531 221.214844 288.441406 222.867188 281.671875 228.933594 C 276.277344 233.761719 273.59375 240.675781 273.507812 247.816406 C 273.449219 252.980469 281.480469 252.980469 281.539062 247.816406 Z M 281.539062 247.816406 " fill-opacity="1" fill-rule="nonzero"/><path fill="#ffa59b" d="M 281.164062 330.972656 C 285.484375 339.078125 291.5 346.460938 299.398438 351.304688 C 307.753906 356.425781 318.242188 358.308594 327.679688 355.339844 C 332.59375 353.792969 330.496094 346.046875 325.546875 347.609375 C 309.300781 352.710938 295.234375 340.320312 288.101562 326.929688 C 285.671875 322.371094 278.738281 326.417969 281.164062 330.980469 Z M 281.164062 330.972656 " fill-opacity="1" fill-rule="nonzero"/><path fill="#ffa59b" d="M 461.386719 205.898438 C 463.777344 207.054688 466.125 208.300781 468.371094 209.730469 C 469.433594 210.40625 470.476562 211.117188 471.480469 211.886719 C 471.035156 211.542969 471.519531 211.925781 471.710938 212.074219 C 471.953125 212.273438 472.195312 212.476562 472.4375 212.679688 C 472.957031 213.117188 473.453125 213.570312 473.945312 214.035156 C 474.78125 214.828125 475.574219 215.664062 476.320312 216.542969 C 476.503906 216.765625 476.6875 216.988281 476.875 217.210938 C 477.589844 218.097656 476.433594 216.570312 477.082031 217.5 C 477.410156 217.972656 477.746094 218.4375 478.054688 218.929688 C 478.671875 219.898438 479.230469 220.902344 479.714844 221.941406 C 479.765625 222.054688 480.148438 223.082031 479.851562 222.242188 C 479.945312 222.511719 480.054688 222.78125 480.152344 223.050781 C 480.363281 223.644531 480.546875 224.25 480.710938 224.859375 C 481.261719 226.882812 483.59375 228.324219 485.652344 227.65625 C 487.710938 226.988281 489.042969 224.890625 488.453125 222.722656 C 485.371094 211.355469 475.585938 203.886719 465.4375 198.972656 C 463.546875 198.0625 461.007812 198.394531 459.945312 200.414062 C 458.992188 202.207031 459.367188 204.921875 461.386719 205.898438 Z M 461.386719 205.898438 " fill-opacity="1" fill-rule="nonzero"/><path fill="#ffa59b" d="M 328.511719 272.28125 C 328.511719 272.28125 326.617188 265.710938 338.847656 263.476562 C 351.070312 261.242188 365.386719 263.394531 361.339844 273.125 C 357.292969 282.855469 326.726562 282.925781 328.511719 272.28125 Z M 328.511719 272.28125 " fill-opacity="1" fill-rule="nonzero"/><path fill="#ffa59b" d="M 452.269531 259.996094 C 452.269531 259.996094 450.484375 253.390625 462.746094 251.367188 C 475.007812 249.34375 489.28125 251.734375 485.074219 261.390625 C 480.863281 271.050781 450.304688 270.609375 452.269531 259.996094 Z M 452.269531 259.996094 " fill-opacity="1" fill-rule="nonzero"/><path fill="#ffffff" d="M 298.453125 209.800781 C 296.820312 211.90625 287.058594 216.269531 285.667969 202.214844 C 284.277344 188.160156 302.917969 166.371094 321.519531 168.308594 C 340.125 170.25 320.804688 183.378906 312.652344 189.898438 C 304.496094 196.417969 302.351562 204.777344 298.453125 209.800781 Z M 298.453125 209.800781 " fill-opacity="1" fill-rule="nonzero"/><path fill="#ffffff" d="M 451.386719 173.464844 C 448.417969 167.332031 436.632812 166.953125 430.03125 167.96875 C 429.296875 168.078125 428.507812 168.242188 427.992188 168.78125 C 427.300781 169.496094 427.328125 170.6875 427.808594 171.558594 C 428.285156 172.429688 429.117188 173.039062 429.957031 173.578125 C 435.902344 177.363281 443.429688 178.570312 450.261719 176.839844 C 451.074219 176.636719 452.011719 176.242188 452.15625 175.425781 C 452.226562 175.019531 452.078125 174.605469 451.886719 174.246094 C 450.765625 172.097656 448.027344 170.9375 445.699219 171.609375 " fill-opacity="1" fill-rule="nonzero"/><path fill="#ffffff" d="M 454.851562 171.441406 C 452.707031 167.207031 447.882812 165.066406 443.4375 164.21875 C 438.769531 163.335938 434.015625 163.34375 429.328125 164.042969 C 427.644531 164.292969 426.113281 164.902344 424.945312 166.191406 C 423.457031 167.84375 423.109375 170.234375 423.792969 172.3125 C 424.847656 175.546875 428.21875 177.4375 431.148438 178.757812 C 437.117188 181.457031 443.699219 182.269531 450.140625 180.96875 C 452.175781 180.554688 454.222656 179.828125 455.382812 177.972656 C 456.703125 175.871094 456.242188 173.289062 454.8125 171.382812 C 452.433594 168.203125 448.515625 166.742188 444.636719 167.730469 C 442.601562 168.25 441.171875 170.632812 441.835938 172.664062 C 442.515625 174.769531 444.589844 176.019531 446.777344 175.464844 C 447.511719 175.28125 446.835938 175.417969 446.675781 175.429688 C 446.894531 175.417969 447.117188 175.429688 447.332031 175.417969 C 447.175781 175.429688 446.507812 175.207031 447.242188 175.410156 C 447.394531 175.449219 447.5625 175.515625 447.71875 175.546875 C 448.246094 175.648438 447.242188 175.214844 447.675781 175.527344 C 447.773438 175.601562 448.390625 175.933594 447.964844 175.660156 C 447.578125 175.417969 448.003906 175.707031 448.070312 175.757812 C 448.914062 176.433594 447.503906 175.214844 448.273438 175.960938 C 448.789062 176.472656 447.9375 177.90625 448.941406 174.566406 L 449.445312 172.882812 C 449.105469 173.066406 449.074219 173.085938 449.339844 172.953125 C 449.753906 172.828125 448.621094 173.097656 448.417969 173.144531 C 447.882812 173.261719 447.351562 173.359375 446.816406 173.4375 C 447.457031 173.339844 446.78125 173.4375 446.671875 173.453125 C 446.335938 173.476562 445.996094 173.511719 445.660156 173.539062 C 444.644531 173.601562 443.625 173.609375 442.617188 173.558594 C 442.070312 173.53125 441.53125 173.476562 440.996094 173.417969 C 441.082031 173.425781 441.53125 173.496094 441.054688 173.425781 C 440.71875 173.375 440.386719 173.320312 440.050781 173.253906 C 439.054688 173.066406 438.070312 172.816406 437.097656 172.507812 C 436.578125 172.34375 436.066406 172.167969 435.5625 171.972656 C 435.371094 171.898438 435.183594 171.828125 434.996094 171.75 C 435.613281 172.011719 434.472656 171.488281 434.472656 171.488281 C 433.621094 171.074219 432.785156 170.609375 431.992188 170.097656 C 431.789062 169.964844 431.566406 169.828125 431.371094 169.679688 C 431.90625 170.105469 431.371094 169.671875 431.324219 169.585938 C 431.535156 169.972656 431.296875 169.828125 431.277344 169.519531 C 431.296875 169.847656 431.496094 170.089844 431.441406 170.472656 C 431.34375 171.191406 430.882812 171.445312 430.417969 171.839844 C 429.816406 172.339844 429.992188 172.015625 430.359375 171.972656 C 430.753906 171.917969 431.207031 171.851562 431.59375 171.753906 C 431.507812 171.773438 430.582031 171.871094 431.296875 171.800781 C 431.472656 171.78125 431.652344 171.761719 431.828125 171.742188 C 432.195312 171.703125 432.5625 171.667969 432.9375 171.644531 C 434.539062 171.527344 436.140625 171.5 437.742188 171.570312 C 438.46875 171.605469 439.199219 171.65625 439.917969 171.734375 C 440.128906 171.753906 440.332031 171.789062 440.542969 171.808594 C 439.617188 171.710938 440.195312 171.753906 440.398438 171.792969 C 440.851562 171.871094 441.308594 171.945312 441.761719 172.042969 C 442.589844 172.214844 443.410156 172.421875 444.21875 172.691406 C 444.402344 172.75 444.585938 172.816406 444.761719 172.882812 C 444.847656 172.914062 445.601562 173.292969 445.070312 173 C 444.566406 172.71875 445.089844 173.019531 445.222656 173.085938 C 445.425781 173.191406 445.628906 173.289062 445.824219 173.398438 C 446.171875 173.597656 446.488281 173.839844 446.835938 174.035156 C 447.214844 174.25 446.511719 173.832031 446.53125 173.800781 C 446.539062 173.792969 447.078125 174.285156 447.097656 174.304688 C 447.1875 174.390625 447.269531 174.488281 447.359375 174.574219 C 447.929688 175.121094 447.234375 174.613281 447.289062 174.429688 C 447.261719 174.511719 447.878906 175.390625 447.925781 175.488281 C 448.875 177.363281 451.671875 178.050781 453.414062 176.929688 C 455.332031 175.699219 455.875 173.453125 454.859375 171.445312 Z M 454.851562 171.441406 " fill-opacity="1" fill-rule="nonzero"/><path fill="#ffbdc5" d="M 504.339844 305.296875 C 502.113281 307.570312 498.691406 313.988281 507.796875 317.535156 C 516.898438 321.078125 530.074219 312.410156 535.898438 297.210938 C 541.726562 282.011719 533.636719 277.988281 527.105469 277.953125 C 520.585938 277.921875 513.316406 296.109375 504.347656 305.296875 Z M 504.339844 305.296875 " fill-opacity="1" fill-rule="nonzero"/><path fill="#ffa59b" d="M 394.738281 189.105469 C 395.398438 189.320312 396.050781 189.5625 396.699219 189.820312 C 396.042969 189.5625 396.769531 189.851562 397.015625 189.960938 C 397.277344 190.082031 397.539062 190.207031 397.792969 190.335938 C 398.988281 190.925781 400.144531 191.59375 401.253906 192.328125 C 401.542969 192.519531 401.828125 192.722656 402.113281 192.917969 C 402.257812 193.023438 403.078125 193.636719 402.414062 193.121094 C 402.917969 193.515625 403.40625 193.921875 403.882812 194.339844 C 404.882812 195.222656 405.824219 196.167969 406.710938 197.164062 C 406.941406 197.425781 407.171875 197.6875 407.394531 197.957031 C 407.453125 198.027344 408.050781 198.761719 407.734375 198.363281 C 407.445312 198 408.082031 198.835938 408.15625 198.925781 C 408.324219 199.160156 408.488281 199.398438 408.652344 199.640625 C 409.433594 200.785156 410.144531 201.984375 410.765625 203.222656 C 410.898438 203.480469 411.023438 203.742188 411.148438 204.003906 C 411.199219 204.109375 411.632812 205.078125 411.4375 204.632812 C 411.226562 204.148438 411.585938 205.027344 411.625 205.117188 C 411.75 205.4375 411.867188 205.765625 411.980469 206.09375 C 412.433594 207.410156 412.789062 208.746094 413.0625 210.109375 C 413.476562 212.171875 416.042969 213.542969 418.003906 212.90625 C 420.195312 212.199219 421.25 210.183594 420.804688 207.972656 C 418.332031 195.609375 408.796875 185.277344 396.875 181.355469 C 394.882812 180.699219 392.402344 182.113281 391.933594 184.152344 C 391.429688 186.359375 392.605469 188.378906 394.738281 189.085938 Z M 394.738281 189.105469 " fill-opacity="1" fill-rule="nonzero"/><path fill="#ffa59b" d="M 417.027344 219.742188 C 418.160156 218.40625 419.402344 217.167969 420.753906 216.046875 C 420.902344 215.921875 421.054688 215.804688 421.207031 215.679688 C 421.789062 215.199219 420.800781 215.96875 421.207031 215.679688 C 421.566406 215.429688 421.914062 215.160156 422.277344 214.917969 C 423.003906 214.425781 423.746094 213.960938 424.511719 213.535156 C 425.234375 213.128906 425.976562 212.757812 426.722656 212.410156 C 426.941406 212.3125 427.164062 212.1875 427.394531 212.113281 C 427.136719 212.199219 426.777344 212.363281 427.242188 212.1875 C 427.648438 212.03125 428.0625 211.871094 428.476562 211.726562 C 430.183594 211.136719 431.933594 210.707031 433.710938 210.425781 C 435.792969 210.097656 437.128906 207.390625 436.515625 205.492188 C 435.785156 203.230469 433.804688 202.339844 431.574219 202.691406 C 423.816406 203.917969 416.429688 208.097656 411.34375 214.074219 C 409.984375 215.671875 409.65625 218.203125 411.34375 219.746094 C 412.839844 221.117188 415.570312 221.449219 417.027344 219.746094 Z M 417.027344 219.742188 " fill-opacity="1" fill-rule="nonzero"/><path fill="#ffbdc5" d="M 267.78125 350.921875 C 263.398438 346.09375 254.773438 332.019531 268.023438 320.039062 C 281.277344 308.054688 302.882812 318.617188 306.75 326.050781 C 306.75 326.050781 317.835938 327.171875 326.570312 336.796875 C 326.570312 336.796875 345.613281 322.488281 365.152344 329.640625 C 384.691406 336.796875 385.839844 344.765625 391.890625 345.742188 C 397.945312 346.714844 403.003906 335.675781 418.238281 336.988281 C 433.476562 338.296875 437.957031 351.222656 437.957031 351.222656 C 437.957031 351.222656 456.816406 346.847656 460.429688 336.46875 C 464.046875 326.085938 481.058594 322.0625 489.792969 330.179688 C 498.527344 338.296875 498.347656 354.132812 486.386719 358.398438 C 474.433594 362.65625 467.648438 357.148438 466.671875 358.398438 C 465.691406 359.648438 455.136719 375.296875 436 377.378906 C 410.023438 380.214844 399.761719 367.65625 399.761719 367.65625 C 399.761719 367.65625 383.882812 373.664062 368.96875 366.347656 C 368.96875 366.347656 366.679688 366.582031 360.589844 369.453125 C 347.324219 375.707031 327.363281 377.117188 314.8125 369.453125 C 302.273438 361.792969 300.402344 357.421875 297.503906 355.214844 C 296.585938 354.511719 295.484375 354.167969 294.335938 354.191406 C 288.894531 354.304688 275.03125 358.929688 267.765625 350.921875 Z M 267.78125 350.921875 " fill-opacity="1" fill-rule="nonzero"/><path fill="#ffa59b" d="M 303.605469 327.617188 C 311.308594 337.335938 325.132812 341.476562 336.976562 338.007812 C 339.058594 337.398438 340.363281 335.191406 339.777344 333.074219 C 339.207031 331.003906 336.929688 329.660156 334.839844 330.277344 C 333.617188 330.636719 332.363281 330.941406 331.097656 331.101562 C 331.648438 331.03125 330.882812 331.109375 330.683594 331.128906 C 330.402344 331.15625 330.121094 331.175781 329.839844 331.1875 C 329.203125 331.222656 328.566406 331.234375 327.929688 331.226562 C 327.292969 331.222656 326.65625 331.183594 326.019531 331.128906 C 325.664062 331.097656 325.3125 331.070312 324.964844 331.019531 C 325.402344 331.078125 324.941406 331.011719 324.765625 330.980469 C 323.433594 330.730469 322.121094 330.433594 320.835938 330.027344 C 318.566406 329.308594 316.761719 328.4375 314.53125 326.9375 C 312.777344 325.757812 310.890625 323.96875 309.289062 321.957031 C 307.941406 320.261719 305.015625 320.546875 303.605469 321.957031 C 301.925781 323.632812 302.253906 325.925781 303.605469 327.632812 Z M 303.605469 327.617188 " fill-opacity="1" fill-rule="nonzero"/><path fill="#ffa59b" d="M 243.117188 298.882812 C 247.007812 304.863281 251.789062 310.164062 258.21875 313.464844 C 264.675781 316.78125 271.941406 318.027344 279.136719 317.109375 C 281.289062 316.832031 283.152344 315.464844 283.152344 313.097656 C 283.152344 311.144531 281.304688 308.8125 279.136719 309.089844 C 275.824219 309.507812 272.367188 309.554688 269.316406 308.9375 C 267.9375 308.664062 266.574219 308.289062 265.246094 307.824219 C 264.925781 307.714844 264.605469 307.589844 264.28125 307.464844 C 264.074219 307.386719 263.441406 307.109375 263.960938 307.339844 C 263.390625 307.089844 262.832031 306.820312 262.28125 306.539062 C 257.058594 303.859375 253.234375 299.714844 250.058594 294.839844 C 248.875 293.023438 246.5 292.269531 244.566406 293.398438 C 242.761719 294.453125 241.941406 297.058594 243.121094 298.882812 Z M 243.117188 298.882812 " fill-opacity="1" fill-rule="nonzero"/><path fill="#000000" d="M 424.550781 245.671875 C 435.714844 250.167969 449.398438 246.972656 457.628906 238.289062 C 459.117188 236.71875 459.191406 234.179688 457.628906 232.617188 C 456.125 231.113281 453.441406 231.035156 451.945312 232.617188 C 450.15625 234.507812 448.949219 235.472656 446.625 236.769531 C 446.074219 237.078125 445.503906 237.351562 444.933594 237.632812 C 444.808594 237.699219 444.339844 237.902344 444.730469 237.738281 C 444.40625 237.875 444.074219 238 443.746094 238.117188 C 442.550781 238.558594 441.328125 238.910156 440.089844 239.179688 C 439.539062 239.296875 438.980469 239.402344 438.421875 239.488281 C 438.140625 239.535156 438.148438 239.535156 438.441406 239.488281 L 438.023438 239.535156 C 437.742188 239.558594 437.457031 239.585938 437.183594 239.605469 C 435.917969 239.699219 434.648438 239.699219 433.382812 239.605469 C 433.101562 239.585938 432.828125 239.558594 432.542969 239.535156 L 432.125 239.488281 C 432.425781 239.527344 432.433594 239.527344 432.148438 239.488281 C 431.59375 239.398438 431.042969 239.292969 430.496094 239.160156 C 429.191406 238.859375 427.917969 238.445312 426.679688 237.941406 C 424.664062 237.128906 422.269531 238.828125 421.738281 240.738281 C 421.109375 243.03125 422.523438 244.859375 424.539062 245.671875 Z M 424.550781 245.671875 " fill-opacity="1" fill-rule="nonzero"/><path fill="#ffa59b" d="M 436.652344 292.878906 C 438.644531 293.21875 439.996094 295.566406 441.132812 297.09375 C 442.804688 299.347656 444.335938 301.710938 445.710938 304.148438 C 448.4375 308.957031 450.484375 314.050781 451.933594 319.382812 C 454.378906 318.351562 456.828125 317.324219 459.273438 316.289062 C 457.511719 312.890625 454.570312 310.136719 451.066406 308.585938 C 447.496094 307 441.960938 305.828125 438.699219 308.65625 C 435.347656 311.574219 434.695312 316.820312 435.542969 320.953125 C 436.394531 325.09375 439.035156 328.707031 442.3125 331.285156 C 445.777344 334.011719 450.484375 335.898438 454.78125 333.953125 C 458.703125 332.179688 460.507812 327.847656 459.898438 323.726562 C 459.289062 319.589844 456.382812 315.554688 452.957031 313.210938 C 449.355469 310.738281 443.808594 311.003906 441.410156 315.050781 C 439.28125 318.636719 440.714844 323.640625 442.996094 326.804688 C 445.226562 329.90625 449.453125 333.332031 453.554688 332.523438 C 463.515625 330.574219 457.332031 313.523438 451.027344 310.648438 C 446.605469 308.628906 441.664062 311.277344 441.074219 316.105469 C 440.570312 320.273438 442.511719 324.570312 445.097656 327.734375 C 447.667969 330.886719 452.453125 334.390625 456.53125 331.816406 C 461.015625 328.992188 459.722656 323.367188 458.121094 319.257812 C 457.246094 317.011719 456.285156 314.617188 454.070312 313.355469 C 451.613281 311.945312 448.460938 312.726562 446.984375 315.15625 C 444.597656 319.082031 446.691406 325.054688 449.761719 327.972656 C 451.59375 329.707031 454.019531 330.941406 456.558594 330.101562 C 459.085938 329.269531 460.304688 326.773438 460.429688 324.261719 C 460.632812 320.15625 458.664062 314.75 454.105469 313.964844 C 452.128906 313.621094 449.5625 314.46875 449.164062 316.761719 C 448.496094 320.632812 448.75 324.984375 451.058594 328.332031 C 453.0625 331.214844 457.832031 332.648438 459.890625 328.953125 C 460.953125 327.054688 460.621094 324.519531 460.402344 322.449219 C 460.226562 320.804688 460.257812 318.695312 459.644531 317.128906 C 458.90625 315.273438 457.351562 313.9375 455.238281 314.257812 C 453.402344 314.535156 451.597656 316.179688 451.757812 318.195312 C 451.796875 318.660156 451.875 319.121094 451.941406 319.585938 C 452.089844 320.671875 451.878906 318.976562 451.980469 319.878906 C 452.023438 320.3125 452.050781 320.75 452.109375 321.175781 C 452.289062 322.429688 451.488281 322.007812 452.574219 320.332031 C 453.375 319.714844 454.175781 319.101562 454.976562 318.492188 L 454.910156 318.503906 C 455.941406 318.640625 456.972656 318.773438 458.007812 318.910156 L 457.921875 318.851562 C 456.152344 317.601562 453.457031 318.535156 452.433594 320.292969 C 451.257812 322.296875 452.097656 324.523438 453.875 325.777344 C 456.933594 327.933594 460.15625 324.789062 460.179688 321.742188 C 460.179688 321.011719 460.074219 320.285156 459.984375 319.570312 C 459.917969 319.023438 459.839844 318.472656 459.761719 317.921875 C 459.644531 317.0625 459.765625 317.828125 459.800781 318.210938 C 457.167969 318.5625 454.542969 318.917969 451.914062 319.277344 C 452.039062 319.585938 452.050781 319.976562 452.105469 320.304688 C 452.167969 320.691406 452.222656 321.085938 452.28125 321.472656 C 452.183594 320.746094 452.332031 321.910156 452.347656 322.035156 C 452.445312 322.878906 452.53125 323.726562 452.570312 324.578125 C 452.589844 324.945312 452.570312 325.316406 452.597656 325.683594 C 452.597656 325.886719 452.582031 326.089844 452.5625 326.292969 C 452.5625 325.539062 452.863281 324.890625 453.457031 324.34375 L 455.226562 323.3125 C 456.058594 323.503906 456.886719 323.691406 457.71875 323.882812 C 457.589844 323.6875 457.484375 323.476562 457.40625 323.261719 C 457.320312 322.75 457.058594 322.238281 456.960938 321.722656 C 456.789062 320.808594 456.769531 319.839844 456.925781 318.921875 C 455.28125 319.855469 453.632812 320.789062 451.984375 321.722656 C 453.113281 321.917969 451.964844 321.78125 451.828125 321.378906 C 451.964844 321.800781 452.148438 322.121094 452.269531 322.578125 C 452.359375 322.945312 452.351562 323.285156 452.417969 323.5625 C 452.714844 324.75 452.039062 323.921875 452.667969 323.429688 L 454.441406 322.402344 C 456.394531 321.726562 455.417969 323.0625 455.035156 321.90625 C 454.90625 321.519531 454.5 321.125 454.339844 320.730469 C 454.234375 320.46875 454.164062 320.15625 454.125 319.878906 L 454.105469 319.285156 C 454.25 318.148438 453.953125 318.433594 453.21875 320.128906 L 451.191406 320.679688 C 449.792969 319.691406 449.386719 319.625 449.984375 320.476562 C 450.117188 320.730469 450.226562 320.992188 450.332031 321.261719 C 450.621094 321.949219 450.863281 322.65625 451.085938 323.367188 C 451.265625 323.910156 451.386719 324.964844 451.664062 325.441406 C 451.664062 326.011719 451.691406 326.066406 451.757812 325.613281 C 452.378906 325.296875 452.996094 324.976562 453.621094 324.664062 C 453.621094 324.675781 451.265625 322.691406 451.046875 322.421875 C 450.324219 321.503906 449.753906 320.425781 449.414062 319.316406 C 449.277344 318.863281 449.257812 318.15625 449.03125 317.765625 C 448.601562 317.003906 449.570312 317.316406 448.671875 317.59375 C 449.183594 317.4375 447.714844 318.242188 447.722656 317.90625 C 447.722656 318.019531 448.796875 319.277344 448.894531 319.453125 C 449.617188 320.707031 450.097656 322.027344 450.390625 323.4375 C 450.496094 323.941406 450.449219 324.695312 450.613281 325.179688 C 450.957031 326.195312 450.15625 325.515625 450.996094 325.15625 C 451.671875 324.972656 452.347656 324.789062 453.023438 324.605469 C 451.363281 324.789062 449.492188 322.515625 448.867188 321.039062 C 448.875 321.066406 448.304688 318.929688 448.398438 318.960938 C 447.761719 319.539062 447.582031 319.761719 447.859375 319.617188 C 447.878906 319.605469 447.890625 319.605469 447.917969 319.613281 C 447.878906 319.511719 449.335938 320.457031 448.652344 319.984375 C 450.121094 321 451.878906 323.28125 452.011719 325.101562 C 452.136719 326.84375 451.085938 327.066406 449.566406 326.464844 C 447.558594 325.671875 445.726562 323.960938 444.589844 322.152344 C 443.933594 321.105469 443.4375 319.976562 443.265625 318.738281 C 443.1875 318.164062 443.179688 317.546875 443.238281 316.972656 C 443.296875 316.425781 443.757812 315.648438 443.699219 315.164062 L 443.835938 314.925781 C 444.019531 314.554688 443.835938 314.605469 443.277344 315.097656 C 443.59375 315.292969 444.675781 315.070312 445.042969 315.117188 C 445.882812 315.214844 446.761719 315.457031 447.542969 315.792969 C 449.695312 316.714844 451.269531 318.332031 452.332031 320.382812 C 454.453125 324.464844 460.855469 321.628906 459.675781 317.292969 C 457.929688 310.878906 455.339844 304.652344 451.941406 298.933594 C 450.214844 296.019531 448.257812 293.257812 446.152344 290.605469 C 444.222656 288.175781 441.992188 285.746094 438.777344 285.195312 C 436.644531 284.828125 434.453125 285.765625 433.835938 287.992188 C 433.304688 289.917969 434.492188 292.550781 436.636719 292.925781 Z M 436.652344 292.878906 " fill-opacity="1" fill-rule="nonzero"/><path fill="#ffa59b" d="M 458.574219 323.214844 L 458.621094 322.71875 C 457.957031 323.871094 457.292969 325.023438 456.632812 326.175781 L 455.628906 326.394531 C 454.683594 326 453.730469 325.605469 452.785156 325.21875 C 453.613281 325.945312 453.953125 327.566406 454.398438 328.542969 C 454.957031 329.773438 455.542969 330.992188 456.160156 332.199219 C 457.378906 334.609375 458.703125 336.972656 460.128906 339.273438 C 462.96875 343.875 466.210938 348.25 469.746094 352.339844 C 472.957031 356.054688 476.5 359.945312 480.941406 362.199219 C 485.304688 364.414062 490.171875 364.957031 494.96875 364.175781 C 503.078125 362.867188 511.628906 357.617188 515.289062 350.070312 C 519.175781 342.066406 518.628906 332.503906 518.628906 323.84375 C 518.628906 318.679688 510.597656 318.675781 510.597656 323.84375 C 510.597656 331.203125 511.570312 340.484375 507.757812 347.164062 C 504.039062 353.679688 494.601562 358.023438 487.273438 356.09375 C 482.570312 354.855469 479.1875 350.9375 476.09375 347.429688 C 472.734375 343.625 469.726562 339.542969 467.058594 335.222656 C 464.367188 330.867188 462.472656 326.214844 460.113281 321.703125 C 457.640625 316.964844 451.074219 317.515625 450.535156 323.207031 C 450.050781 328.34375 458.082031 328.3125 458.566406 323.207031 Z M 458.574219 323.214844 " fill-opacity="1" fill-rule="nonzero"/><path fill="#000000" d="M 404.863281 266.417969 C 413.300781 263.71875 421.828125 262.929688 430.695312 263.980469 C 432.785156 264.226562 434.800781 261.953125 434.710938 259.96875 C 434.605469 257.585938 432.9375 256.230469 430.695312 255.960938 C 421.324219 254.847656 411.710938 255.808594 402.730469 258.683594 C 400.664062 259.347656 399.332031 261.46875 399.925781 263.617188 C 400.484375 265.644531 402.792969 267.085938 404.867188 266.417969 Z M 404.863281 266.417969 " fill-opacity="1" fill-rule="nonzero"/><path fill="#ffa59b" d="M 257.214844 263.925781 C 247.011719 269.667969 237.164062 276.035156 227.683594 282.894531 C 219.507812 288.8125 211.265625 295.480469 206.484375 304.566406 C 201.816406 313.425781 200.453125 324.308594 205.230469 333.417969 C 209.816406 342.164062 219.003906 346.980469 227.789062 350.542969 C 239.710938 355.378906 251.886719 359.316406 264.8125 360.074219 C 263.871094 357.796875 262.917969 355.507812 261.972656 353.230469 C 259.9375 355.765625 257.726562 357.265625 254.710938 358.449219 C 249.964844 360.3125 251.988281 368.035156 256.84375 366.183594 C 259.9375 365.003906 262.28125 362.867188 262.847656 359.472656 C 263.441406 355.863281 260.261719 353.472656 256.945312 354.945312 C 253.285156 356.578125 249.386719 359.242188 249.257812 363.6875 C 249.144531 367.550781 251.894531 371.496094 256.023438 371.488281 C 260.621094 371.476562 264.046875 366.523438 264.898438 362.449219 C 265.785156 358.207031 262.6875 354.714844 258.300781 355.382812 C 254.230469 356 252.800781 359.113281 252.425781 362.789062 C 252.070312 366.246094 252.066406 371.03125 256.863281 371.160156 C 260.207031 371.253906 263.707031 368.0625 265.96875 365.953125 C 268.582031 363.523438 270.570312 360.574219 270.070312 356.839844 C 269.347656 351.472656 263.953125 349.71875 259.625 352.535156 C 255.289062 355.359375 252.925781 360.296875 252.964844 365.402344 C 252.984375 368.199219 255.496094 369.714844 258.050781 369.269531 C 261.507812 368.664062 264.460938 366.398438 265.890625 363.1875 C 267.984375 358.515625 261.0625 354.433594 258.953125 359.140625 C 258.265625 360.679688 257.558594 361.242188 255.910156 361.53125 C 257.601562 362.820312 259.296875 364.105469 260.996094 365.394531 C 260.984375 363.542969 261.441406 361.8125 262.6875 360.378906 C 263.515625 359.425781 264.710938 359.578125 263.101562 358.679688 C 261.238281 357.644531 262.785156 358.183594 261.800781 358.746094 C 260.6875 359.386719 259.734375 360.855469 258.679688 361.660156 C 258.140625 362.066406 257.355469 362.375 256.914062 362.855469 C 256.140625 363.691406 255.957031 362.453125 257.558594 363.117188 C 258.359375 363.730469 259.160156 364.347656 259.957031 364.957031 C 260.390625 365.636719 260.019531 365.363281 260.226562 364.742188 C 260.351562 364.375 260.464844 363.542969 260.425781 363.160156 C 260.242188 361.53125 260.554688 363.378906 259.742188 363.195312 C 258.804688 362.539062 257.871094 361.890625 256.933594 361.234375 C 256.804688 361.679688 256.605469 362.09375 256.335938 362.472656 C 255.773438 363.359375 254.933594 363.382812 256.355469 363.804688 C 258.585938 364.453125 256.574219 364.058594 257.601562 363.730469 C 258.632812 363.402344 259.933594 362.34375 261.007812 361.859375 C 259.039062 360.351562 257.078125 358.835938 255.109375 357.332031 C 255.214844 357.828125 255.082031 358.195312 254.714844 358.4375 C 255.425781 361.011719 256.140625 363.59375 256.847656 366.167969 C 261.121094 364.492188 264.734375 362.519531 267.65625 358.882812 C 269.839844 356.164062 268.488281 352.253906 264.8125 352.035156 C 252.214844 351.289062 239.90625 347.136719 228.398438 342.15625 C 218.464844 337.859375 209.398438 330.921875 210.308594 318.996094 C 211.207031 307.3125 220.195312 298.496094 229.015625 291.804688 C 239.21875 284.066406 250.117188 277.097656 261.269531 270.824219 C 265.773438 268.296875 261.730469 261.363281 257.214844 263.902344 Z M 257.214844 263.925781 " fill-opacity="1" fill-rule="nonzero"/><path fill="#ffa59b" d="M 508.414062 272.5625 C 510.953125 286.152344 502.738281 301.402344 489.839844 306.617188 C 487.832031 307.429688 486.414062 309.292969 487.035156 311.550781 C 487.5625 313.453125 489.957031 315.167969 491.976562 314.351562 C 509.179688 307.398438 519.566406 288.699219 516.15625 270.433594 C 515.757812 268.304688 513.183594 267.089844 511.214844 267.636719 C 508.976562 268.25 508.011719 270.433594 508.414062 272.570312 Z M 508.414062 272.5625 " fill-opacity="1" fill-rule="nonzero"/><path fill="#000000" d="M 362.613281 230.027344 C 360.375 228.859375 357.480469 230.164062 356.058594 232.253906 C 354.632812 234.34375 354.339844 236.984375 354.15625 239.507812 C 354.003906 241.589844 353.925781 243.773438 354.785156 245.6875 C 355.644531 247.59375 357.722656 249.113281 359.75 248.621094 C 362.597656 247.941406 363.320312 244.277344 363.476562 241.347656 C 363.558594 239.875 363.636719 238.402344 363.714844 236.925781 C 363.804688 235.171875 363.886719 233.324219 363.125 231.738281 C 362.363281 230.152344 360.460938 228.964844 358.832031 229.621094 " fill-opacity="1" fill-rule="nonzero"/><path fill="#000000" d="M 364.621094 226.582031 C 361.910156 225.285156 359.226562 225.390625 356.53125 226.679688 C 354.28125 227.753906 352.613281 229.832031 351.660156 232.089844 C 350.664062 234.464844 350.347656 236.960938 350.164062 239.515625 C 349.96875 242.226562 350.113281 244.878906 351.207031 247.402344 C 353.40625 252.449219 360.179688 254.589844 364.292969 250.476562 C 367.515625 247.253906 367.414062 242.261719 367.644531 238.035156 C 367.800781 235.074219 367.972656 231.875 366.3125 229.261719 C 364.554688 226.488281 361.039062 224.648438 357.78125 225.769531 C 355.816406 226.449219 354.304688 228.539062 355 230.6875 C 355.632812 232.640625 357.796875 234.214844 359.902344 233.480469 C 360.25 233.363281 360.367188 233.460938 359.585938 233.449219 C 359.769531 233.449219 360.066406 233.519531 359.5625 233.394531 C 358.9375 233.238281 359.496094 233.421875 359.652344 233.449219 C 360.054688 233.511719 359.320312 233.355469 359.300781 233.296875 C 359.3125 233.34375 359.746094 233.5 359.75 233.578125 L 359.554688 233.433594 C 359.292969 233.230469 359.292969 233.246094 359.554688 233.480469 C 359.625 233.636719 359.71875 233.894531 359.582031 233.492188 C 359.371094 232.863281 359.691406 233.710938 359.691406 233.769531 C 359.691406 233.714844 359.449219 232.910156 359.632812 233.730469 C 359.667969 233.878906 359.699219 234.058594 359.746094 234.207031 C 359.933594 234.75 359.726562 233.539062 359.746094 234.117188 C 359.746094 234.28125 359.769531 234.445312 359.777344 234.613281 C 359.816406 235.511719 359.757812 236.414062 359.710938 237.3125 C 359.621094 238.984375 359.585938 240.667969 359.421875 242.339844 C 359.410156 242.464844 359.390625 242.585938 359.382812 242.710938 C 359.351562 243.242188 359.546875 241.875 359.421875 242.398438 C 359.359375 242.679688 359.320312 242.972656 359.253906 243.261719 C 359.1875 243.542969 359.113281 243.824219 359.03125 244.101562 C 358.992188 244.21875 358.949219 244.332031 358.910156 244.449219 C 358.6875 245.1875 359.234375 243.925781 358.992188 244.265625 C 358.929688 244.351562 358.589844 244.847656 358.589844 244.964844 C 358.570312 244.59375 359.167969 244.335938 358.808594 244.683594 C 358.753906 244.730469 358.503906 244.964844 358.5 244.992188 C 358.5 245.011719 359.199219 244.46875 358.871094 244.695312 C 358.714844 244.808594 358.289062 244.960938 358.867188 244.757812 C 359.546875 244.519531 358.992188 244.722656 358.917969 244.722656 C 358.109375 244.703125 359.628906 244.796875 359.089844 244.730469 C 358.9375 244.710938 358.335938 244.71875 358.964844 244.757812 C 359.5625 244.796875 359.09375 244.722656 358.976562 244.722656 C 358.464844 244.695312 359.011719 244.34375 359.1875 244.820312 C 359.175781 244.78125 358.878906 244.636719 358.832031 244.617188 C 358.367188 244.410156 359.339844 245.125 358.984375 244.75 C 358.890625 244.652344 358.78125 244.554688 358.683594 244.46875 C 358.105469 243.957031 358.753906 244.632812 358.765625 244.636719 C 358.617188 244.558594 358.472656 244.191406 358.398438 244.054688 C 358.355469 243.976562 358.214844 243.78125 358.214844 243.6875 L 358.378906 244.035156 L 358.28125 243.722656 C 358.242188 243.519531 358.175781 243.289062 358.125 243.085938 C 358.105469 243.007812 358.007812 242.457031 358.089844 242.96875 C 358.183594 243.511719 358.089844 242.816406 358.078125 242.679688 C 358.066406 242.515625 358.058594 242.351562 358.050781 242.179688 C 358.039062 241.734375 358.046875 241.289062 358.066406 240.851562 C 358.097656 240.039062 358.15625 239.226562 358.234375 238.414062 C 358.25 238.257812 358.269531 238.09375 358.28125 237.9375 C 358.355469 237.167969 358.261719 237.921875 358.261719 238.046875 C 358.273438 237.632812 358.398438 237.195312 358.492188 236.796875 C 358.597656 236.335938 358.722656 235.878906 358.871094 235.433594 C 358.910156 235.308594 358.957031 235.09375 359.035156 234.992188 C 358.558594 235.617188 358.964844 235.203125 359.09375 234.960938 C 359.167969 234.824219 359.253906 234.691406 359.332031 234.554688 C 359.785156 233.730469 358.972656 234.890625 359.277344 234.582031 C 359.402344 234.457031 359.515625 234.320312 359.640625 234.195312 C 359.949219 233.894531 360.171875 233.976562 359.542969 234.214844 C 359.835938 234.101562 360.164062 233.820312 360.445312 233.65625 C 360.878906 233.402344 360.589844 233.828125 360.21875 233.753906 C 360.324219 233.773438 360.605469 233.644531 360.714844 233.613281 C 361.410156 233.394531 360.472656 233.710938 360.414062 233.632812 C 360.441406 233.671875 360.992188 233.632812 361.042969 233.632812 C 361.429688 233.578125 360.65625 233.617188 360.605469 233.570312 C 360.730469 233.597656 360.847656 233.632812 360.972656 233.671875 C 361.253906 233.769531 361.136719 233.714844 360.609375 233.511719 C 362.488281 234.410156 365 234.097656 366.0625 232.078125 C 367.003906 230.296875 366.640625 227.570312 364.632812 226.605469 Z M 364.621094 226.582031 " fill-opacity="1" fill-rule="nonzero"/><g clip-path="url(#6dd0512d4a)"><path fill="#5e4d5c" d="M 524.804688 114.28125 C 528.832031 114.183594 534.339844 114.878906 537.625 117.210938 C 540.914062 119.535156 543.886719 125.320312 543.945312 129.351562 C 544.003906 133.339844 543.300781 136.414062 541.273438 139.855469 C 535.898438 148.96875 528.558594 156.910156 519.890625 162.988281 C 518.925781 163.664062 517.910156 164.332031 516.753906 164.554688 C 513.867188 165.113281 511.046875 162.492188 510.636719 159.574219 C 510.238281 156.667969 511.726562 153.769531 513.769531 151.652344 C 515.808594 149.539062 518.378906 148.023438 520.78125 146.320312 C 523.183594 144.617188 525.507812 142.605469 526.699219 139.925781 C 527.460938 138.214844 527.722656 136.28125 527.433594 134.433594 C 527.171875 132.738281 526.359375 131.003906 524.84375 130.203125 C 521.898438 128.648438 518.542969 131.304688 516.398438 133.847656 C 514.253906 136.386719 511.417969 139.347656 508.203125 138.476562 C 505.75 137.808594 504.40625 134.984375 504.5625 132.449219 C 504.71875 129.914062 506.011719 127.609375 507.273438 125.402344 C 507.273438 125.402344 512.539062 114.578125 524.792969 114.28125 Z M 524.804688 114.28125 " fill-opacity="1" fill-rule="nonzero"/></g><path fill="#5e4d5c" d="M 514.648438 170.070312 C 514.988281 171.007812 515.316406 172.496094 515.386719 173.484375 C 515.625 176.707031 513.6875 179.304688 510.597656 180.265625 C 509.476562 180.613281 508.28125 180.683594 507.109375 180.699219 C 505.414062 180.71875 503.855469 180.128906 502.3125 179.433594 C 500.921875 178.8125 499.871094 177.496094 499.429688 176.785156 C 497.789062 174.160156 497.910156 171.539062 499.429688 168.890625 C 500.207031 167.542969 501.558594 166.074219 503 165.484375 C 503.855469 165.132812 505.652344 164.554688 506.5625 164.671875 C 508.558594 164.921875 509.042969 165.089844 510.796875 166.082031 C 510.796875 166.082031 513.636719 167.3125 514.652344 170.070312 Z M 514.648438 170.070312 " fill-opacity="1" fill-rule="nonzero"/><path fill="#ffffff" d="M 512.910156 171.605469 C 512.816406 171.347656 512.691406 171.074219 512.441406 170.957031 C 512.191406 170.84375 511.820312 171.007812 511.84375 171.285156 C 511.621094 171.367188 511.347656 172.417969 511.457031 173.171875 C 511.523438 173.609375 511.976562 174.511719 512.199219 174.894531 C 512.257812 174.992188 512.335938 175.089844 512.441406 175.121094 C 512.710938 175.214844 512.929688 174.878906 513 174.605469 C 513.269531 173.621094 513.238281 172.5625 512.910156 171.605469 Z M 512.910156 171.605469 " fill-opacity="1" fill-rule="nonzero"/><path fill="#ffffff" d="M 514.195312 171.25 C 514.058594 170.859375 513.898438 170.535156 513.625 170.214844 C 513.300781 169.835938 512.828125 169.632812 512.34375 169.597656 C 511.386719 169.519531 510.492188 170.320312 510.5 171.289062 C 510.722656 170.902344 510.941406 170.523438 511.164062 170.136719 C 510.722656 170.347656 510.492188 170.832031 510.335938 171.257812 C 510.207031 171.609375 510.160156 171.992188 510.113281 172.359375 C 510.066406 172.757812 510.082031 173.164062 510.160156 173.5625 C 510.226562 173.902344 510.382812 174.226562 510.511719 174.546875 C 510.828125 175.273438 511.230469 176.203125 512.074219 176.421875 C 512.847656 176.617188 513.589844 176.257812 514.011719 175.59375 C 514.242188 175.234375 514.34375 174.800781 514.410156 174.390625 C 514.574219 173.339844 514.535156 172.273438 514.195312 171.257812 C 513.972656 170.59375 513.261719 170.089844 512.546875 170.328125 C 511.890625 170.535156 511.375 171.261719 511.617188 171.972656 C 511.722656 172.277344 511.792969 172.59375 511.839844 172.90625 L 511.792969 172.554688 C 511.859375 173.027344 511.859375 173.492188 511.792969 173.964844 L 511.839844 173.609375 C 511.800781 173.882812 511.753906 174.167969 511.648438 174.421875 L 511.785156 174.101562 C 511.753906 174.171875 511.714844 174.230469 511.667969 174.296875 L 511.878906 174.027344 C 511.84375 174.066406 511.804688 174.105469 511.765625 174.140625 L 512.035156 173.929688 C 512.035156 173.929688 511.984375 173.964844 511.949219 173.976562 L 512.273438 173.839844 L 512.226562 173.851562 L 512.582031 173.804688 C 512.582031 173.804688 512.515625 173.8125 512.480469 173.804688 L 512.835938 173.851562 L 512.785156 173.839844 L 513.105469 173.976562 C 513.066406 173.964844 513.03125 173.945312 513.007812 173.921875 L 513.277344 174.132812 C 513.277344 174.132812 513.21875 174.082031 513.195312 174.046875 L 513.40625 174.316406 C 513.164062 173.984375 512.988281 173.570312 512.828125 173.195312 L 512.96875 173.515625 C 512.875 173.292969 512.777344 173.058594 512.738281 172.824219 L 512.785156 173.175781 C 512.746094 172.894531 512.757812 172.613281 512.789062 172.332031 L 512.746094 172.683594 C 512.785156 172.417969 512.835938 172.15625 512.941406 171.90625 L 512.804688 172.226562 C 512.828125 172.160156 512.863281 172.097656 512.902344 172.035156 L 512.691406 172.304688 C 512.691406 172.304688 512.726562 172.265625 512.746094 172.253906 L 512.476562 172.460938 C 512.476562 172.460938 512.496094 172.449219 512.507812 172.441406 C 512.921875 172.246094 513.175781 171.730469 513.171875 171.289062 L 513.171875 171.242188 C 513.152344 171.363281 513.136719 171.480469 513.125 171.597656 C 513.125 171.566406 513.132812 171.539062 513.144531 171.511719 L 513.007812 171.832031 C 513.007812 171.832031 513.03125 171.78125 513.054688 171.761719 L 512.84375 172.03125 C 512.84375 172.03125 512.882812 171.984375 512.910156 171.972656 L 512.640625 172.179688 C 512.640625 172.179688 512.691406 172.148438 512.726562 172.136719 L 512.402344 172.273438 C 512.449219 172.253906 512.496094 172.238281 512.539062 172.234375 L 512.1875 172.277344 C 512.238281 172.277344 512.277344 172.277344 512.332031 172.277344 L 511.976562 172.234375 C 511.976562 172.234375 512.042969 172.246094 512.070312 172.257812 L 511.746094 172.121094 C 511.78125 172.136719 511.8125 172.15625 511.84375 172.179688 L 511.578125 171.972656 C 511.636719 172.015625 511.6875 172.070312 511.742188 172.136719 L 511.53125 171.867188 C 511.589844 171.953125 511.636719 172.035156 511.675781 172.121094 L 511.535156 171.800781 C 511.558594 171.851562 511.582031 171.914062 511.601562 171.964844 C 511.722656 172.300781 511.90625 172.582031 512.21875 172.765625 C 512.507812 172.933594 512.929688 173 513.25 172.902344 C 513.898438 172.691406 514.4375 171.964844 514.179688 171.257812 Z M 514.195312 171.25 " fill-opacity="1" fill-rule="nonzero"/><path fill="#ffffff" d="M 538.472656 121.117188 C 537.710938 121.050781 536.871094 121.226562 536.523438 121.910156 C 536.285156 122.367188 536.285156 122.910156 536.300781 123.429688 C 536.359375 127.003906 536.542969 130.699219 535.261719 134.042969 C 534.390625 136.324219 532.824219 138.53125 533.136719 140.953125 C 533.253906 141.878906 533.726562 142.839844 534.59375 143.195312 C 535.28125 143.476562 536.078125 143.320312 536.746094 143 C 538.800781 142.027344 539.929688 139.796875 540.570312 137.625 C 541.980469 132.855469 541.746094 127.613281 539.902344 122.996094 C 539.902344 122.996094 539.179688 121.175781 538.472656 121.117188 Z M 538.472656 121.117188 " fill-opacity="1" fill-rule="nonzero"/><g clip-path="url(#ebfdff74ca)"><path fill="#5e4d5c" d="M 557.054688 164.476562 C 559.90625 165.417969 563.59375 167.292969 565.316406 169.757812 C 567.035156 172.21875 567.664062 177.03125 566.691406 179.867188 C 565.726562 182.683594 564.460938 184.664062 562.171875 186.570312 C 556.101562 191.613281 548.945312 195.34375 541.324219 197.425781 C 540.480469 197.65625 539.59375 197.871094 538.726562 197.738281 C 536.554688 197.40625 535.242188 194.855469 535.691406 192.707031 C 536.140625 190.566406 537.921875 188.90625 539.890625 187.9375 C 541.855469 186.96875 544.042969 186.554688 546.15625 185.960938 C 548.269531 185.371094 550.40625 184.542969 551.921875 182.957031 C 552.886719 181.949219 553.554688 180.660156 553.824219 179.289062 C 554.066406 178.03125 553.9375 176.609375 553.070312 175.667969 C 551.398438 173.839844 548.371094 174.855469 546.226562 176.097656 C 544.082031 177.34375 541.339844 178.714844 539.304688 177.292969 C 537.75 176.203125 537.519531 173.882812 538.269531 172.148438 C 539.015625 170.410156 540.503906 169.113281 541.949219 167.882812 C 541.949219 167.882812 548.378906 161.613281 557.054688 164.488281 Z M 557.054688 164.476562 " fill-opacity="1" fill-rule="nonzero"/></g><path fill="#5e4d5c" d="M 533.273438 200.617188 C 533.273438 201.355469 533.128906 202.484375 532.933594 203.199219 C 532.289062 205.523438 530.277344 206.855469 527.863281 206.75 C 526.984375 206.710938 526.128906 206.460938 525.304688 206.171875 C 524.109375 205.757812 523.164062 204.953125 522.25 204.074219 C 521.433594 203.289062 521.03125 202.097656 520.898438 201.492188 C 520.40625 199.238281 521.15625 197.425781 522.894531 195.949219 C 523.78125 195.199219 525.097656 194.507812 526.261719 194.457031 C 526.949219 194.425781 528.355469 194.46875 528.972656 194.785156 C 530.308594 195.460938 530.605469 195.703125 531.582031 196.835938 C 531.582031 196.835938 533.269531 198.414062 533.28125 200.609375 Z M 533.273438 200.617188 " fill-opacity="1" fill-rule="nonzero"/><path fill="#ffa59b" d="M 343.742188 361.542969 C 342.59375 368.417969 343.648438 375.402344 344.3125 382.273438 C 345.019531 389.625 345.820312 396.964844 346.71875 404.292969 C 348.511719 418.878906 350.671875 433.417969 353.191406 447.898438 C 354.074219 452.976562 361.8125 450.820312 360.933594 445.769531 C 358.539062 431.996094 356.457031 418.171875 354.75 404.300781 C 353.90625 397.402344 353.144531 390.496094 352.46875 383.578125 C 351.84375 377.175781 350.414062 370.085938 351.484375 363.679688 C 352.332031 358.628906 344.59375 356.460938 343.742188 361.550781 Z M 343.742188 361.542969 " fill-opacity="1" fill-rule="nonzero"/><g clip-path="url(#b19af91ae7)"><path fill="#ffa59b" d="M 356.589844 444.40625 C 350.675781 443.914062 344.628906 443.789062 338.851562 445.363281 C 334.304688 446.601562 323.597656 450.890625 327.03125 457.304688 C 328.617188 460.273438 332.050781 460.804688 335.085938 461.105469 C 338.171875 461.414062 341.292969 461.078125 344.324219 460.503906 C 347.0625 459.980469 349.730469 459.160156 352.351562 458.210938 C 354.96875 457.261719 357.238281 456.402344 359.101562 454.304688 C 360.238281 453.027344 361.121094 451.679688 361.253906 449.933594 C 361.445312 447.476562 359.738281 445.386719 357.390625 444.832031 C 355.761719 444.445312 354.023438 444.832031 352.457031 445.308594 C 351.898438 445.480469 351.339844 445.675781 350.78125 445.847656 C 350.488281 445.9375 350.171875 445.996094 349.882812 446.09375 C 349.070312 446.371094 350.472656 446.09375 349.648438 446.140625 C 347.554688 446.238281 345.53125 447.917969 345.632812 450.152344 C 345.722656 452.242188 347.394531 454.265625 349.648438 454.160156 C 351.039062 454.09375 352.34375 453.769531 353.664062 453.34375 C 354.214844 453.164062 354.765625 452.976562 355.324219 452.824219 C 355.550781 452.765625 355.796875 452.726562 356.023438 452.652344 C 355.558594 452.699219 355.472656 452.714844 355.761719 452.695312 C 356.222656 452.695312 355.972656 452.601562 355.015625 452.445312 L 353.570312 451.003906 C 354.042969 448.347656 354.011719 447.535156 353.472656 448.550781 C 353.234375 448.898438 353.253906 448.878906 353.539062 448.492188 C 353.269531 448.796875 352.972656 449.078125 352.699219 449.363281 C 352.574219 449.484375 352.449219 449.59375 352.316406 449.707031 C 352.71875 449.410156 352.75 449.378906 352.410156 449.613281 C 352.09375 449.785156 352.128906 449.785156 352.507812 449.601562 C 352.277344 449.691406 352.054688 449.777344 351.824219 449.863281 C 349.609375 450.714844 347.351562 451.496094 345.054688 452.105469 C 342.875 452.679688 340.964844 453.046875 338.933594 453.152344 C 337.808594 453.210938 336.6875 453.203125 335.566406 453.113281 C 335.699219 453.125 334.195312 452.941406 334.71875 453.019531 C 334.398438 452.96875 334.082031 452.910156 333.761719 452.84375 C 333.328125 452.707031 333.308594 452.726562 333.710938 452.910156 C 333.300781 452.667969 333.289062 452.6875 333.671875 452.949219 C 332.894531 456.230469 333.015625 457.402344 334.019531 456.46875 C 334.195312 456.324219 334.203125 456.308594 334.039062 456.429688 C 334.273438 456.25 334.511719 456.082031 334.753906 455.917969 C 335.597656 455.339844 336.492188 454.824219 337.410156 454.371094 C 338.730469 453.722656 340.828125 453.066406 342.71875 452.667969 C 347.089844 451.757812 352.003906 452.03125 356.59375 452.410156 C 358.695312 452.589844 360.703125 450.445312 360.609375 448.402344 C 360.507812 446.082031 358.847656 444.574219 356.59375 444.390625 Z M 356.589844 444.40625 " fill-opacity="1" fill-rule="nonzero"/></g><path fill="#ffa59b" d="M 425.003906 363.671875 C 426.082031 370.082031 424.652344 377.167969 424.019531 383.570312 C 423.34375 390.488281 422.582031 397.394531 421.738281 404.292969 C 420.039062 418.164062 417.953125 431.988281 415.554688 445.761719 C 414.675781 450.804688 422.414062 452.976562 423.300781 447.890625 C 425.820312 433.410156 427.976562 418.878906 429.769531 404.289062 C 430.640625 397.171875 431.421875 390.050781 432.117188 382.914062 C 432.804688 375.839844 433.933594 368.605469 432.746094 361.535156 C 431.894531 356.460938 424.160156 358.613281 425.003906 363.667969 Z M 425.003906 363.671875 " fill-opacity="1" fill-rule="nonzero"/><g clip-path="url(#0ede1d982d)"><path fill="#ffa59b" d="M 419.898438 452.425781 C 424.5 452.042969 429.40625 451.769531 433.777344 452.679688 C 435.675781 453.074219 437.753906 453.730469 439.085938 454.382812 C 440.003906 454.835938 440.898438 455.347656 441.742188 455.929688 C 441.695312 455.898438 442.820312 456.652344 442.332031 456.363281 C 443.429688 457.445312 443.585938 456.308594 442.820312 452.96875 C 443.199219 452.699219 443.1875 452.6875 442.78125 452.929688 C 443.171875 452.753906 443.152344 452.726562 442.726562 452.863281 C 442.492188 452.917969 442.25 452.960938 442.011719 453 C 441.761719 453.046875 441.441406 453.09375 440.921875 453.132812 C 439.800781 453.21875 438.679688 453.230469 437.558594 453.171875 C 435.496094 453.058594 433.621094 452.695312 431.433594 452.125 C 429.25 451.554688 427.039062 450.792969 424.894531 449.972656 C 424.589844 449.855469 424.285156 449.738281 423.980469 449.621094 C 424.363281 449.804688 424.394531 449.804688 424.078125 449.632812 C 423.429688 449.332031 424.460938 450.066406 423.921875 449.507812 C 423.601562 449.175781 423.257812 448.867188 422.953125 448.519531 C 423.234375 448.90625 423.253906 448.925781 423.015625 448.578125 C 422.480469 447.558594 422.445312 448.375 422.917969 451.027344 C 422.4375 451.507812 421.960938 451.984375 421.476562 452.46875 L 420.574219 452.714844 C 420.949219 452.738281 420.984375 452.734375 420.675781 452.707031 C 420.410156 452.667969 420.398438 452.671875 420.640625 452.71875 C 420.757812 452.746094 420.878906 452.773438 420.988281 452.804688 C 421.613281 452.960938 422.214844 453.171875 422.828125 453.367188 C 424.144531 453.792969 425.445312 454.121094 426.84375 454.1875 C 428.941406 454.285156 430.949219 452.273438 430.859375 450.175781 C 430.757812 447.921875 429.09375 446.273438 426.84375 446.167969 C 426.113281 446.136719 426.824219 446.167969 426.953125 446.199219 C 426.660156 446.136719 426.363281 446.0625 426.074219 445.976562 C 425.574219 445.832031 425.082031 445.667969 424.589844 445.511719 C 423.339844 445.105469 422.058594 444.746094 420.734375 444.699219 C 416.441406 444.550781 413.804688 448.957031 416.089844 452.632812 C 417.519531 454.933594 419.589844 456.488281 422.078125 457.457031 C 424.75 458.5 427.464844 459.433594 430.261719 460.109375 C 433.109375 460.796875 436.074219 461.25 439.007812 461.242188 C 442.019531 461.242188 445.941406 461.066406 448.257812 458.878906 C 449.441406 457.765625 450.089844 456.308594 450.050781 454.683594 C 449.996094 452.484375 448.488281 451.050781 446.859375 449.808594 C 444.644531 448.121094 442.164062 446.902344 439.539062 445.976562 C 433.265625 443.769531 426.433594 443.886719 419.898438 444.429688 C 417.8125 444.601562 415.78125 446.15625 415.882812 448.441406 C 415.976562 450.464844 417.65625 452.632812 419.898438 452.449219 Z M 419.898438 452.425781 " fill-opacity="1" fill-rule="nonzero"/></g></svg>