<svg xmlns="http://www.w3.org/2000/svg" xmlns:xlink="http://www.w3.org/1999/xlink" width="1024" zoomAndPan="magnify" viewBox="0 0 768 576" height="768" preserveAspectRatio="xMidYMid meet" version="1.0"><defs><g/><clipPath id="da48ba6139"><path d="M 597 184.519531 L 637 184.519531 L 637 235 L 597 235 Z M 597 184.519531 " clip-rule="nonzero"/></clipPath><clipPath id="656d14c4ab"><path d="M 418 514 L 454 514 L 454 531.769531 L 418 531.769531 Z M 418 514 " clip-rule="nonzero"/></clipPath><clipPath id="2e16501364"><path d="M 507 514 L 543 514 L 543 531.769531 L 507 531.769531 Z M 507 514 " clip-rule="nonzero"/></clipPath><clipPath id="fdd2eca316"><path d="M 131.328125 105 L 161 105 L 161 183 L 131.328125 183 Z M 131.328125 105 " clip-rule="nonzero"/></clipPath></defs><rect x="-76.8" width="921.6" fill="#ffffff" y="-57.6" height="691.2" fill-opacity="1"/><rect x="-76.8" width="921.6" fill="#ffffff" y="-57.6" height="691.2" fill-opacity="1"/><path fill="#ffcfca" d="M 491.207031 445.542969 C 491.207031 445.542969 500.824219 456.601562 521.480469 456.6875 C 554.222656 456.824219 562.601562 436.980469 562.601562 436.980469 C 562.601562 436.980469 588.097656 448.476562 604.542969 431.234375 C 620.992188 413.988281 617.042969 392.132812 617.042969 392.132812 C 628.859375 385.066406 637.027344 372.234375 638.398438 358.546875 C 639.777344 344.859375 634.324219 330.660156 624.148438 321.390625 C 626.773438 300.070312 608.394531 278.546875 586.890625 277.78125 C 584.863281 259.414062 573.25 242.375 556.886719 233.746094 C 540.523438 225.117188 519.878906 225.15625 503.550781 233.84375 C 497.792969 228.007812 493.515625 223.238281 480.851562 222.214844 C 460.261719 220.550781 450.441406 233.84375 450.441406 233.84375 C 434.109375 225.15625 413.46875 225.117188 397.101562 233.746094 C 380.738281 242.375 369.125 259.414062 367.097656 277.78125 C 345.597656 278.546875 327.210938 300.070312 329.839844 321.390625 C 319.664062 330.65625 314.210938 344.859375 315.589844 358.546875 C 316.96875 372.234375 325.128906 385.066406 336.949219 392.132812 C 336.949219 392.132812 333.003906 413.988281 349.449219 431.234375 C 365.898438 448.476562 391.386719 436.980469 391.386719 436.980469 C 391.386719 436.980469 408.691406 458.742188 432.507812 456.6875 C 453.089844 454.910156 462.78125 445.542969 462.78125 445.542969 C 462.78125 445.542969 473.792969 453.667969 491.199219 445.542969 Z M 491.207031 445.542969 " fill-opacity="1" fill-rule="nonzero"/><path fill="#ffa59b" d="M 374.113281 318.128906 C 374.25 306.339844 384.761719 298.792969 396.117188 300.863281 C 398.703125 301.335938 401.136719 299.777344 401.203125 296.996094 C 401.335938 291.441406 403.199219 286.234375 407.417969 282.578125 C 412.382812 278.273438 419.023438 276.308594 425.453125 277.890625 C 430.472656 279.128906 432.613281 271.398438 427.585938 270.160156 C 418.5 267.921875 409.453125 270.507812 402.320312 276.410156 C 396.199219 281.484375 393.351562 289.140625 393.167969 296.996094 L 398.25 293.132812 C 389.464844 291.527344 381.015625 293.179688 374.242188 299.246094 C 368.847656 304.074219 366.164062 310.984375 366.082031 318.128906 C 366.023438 323.289062 374.054688 323.289062 374.113281 318.128906 Z M 374.113281 318.128906 " fill-opacity="1" fill-rule="nonzero"/><path fill="#ffa59b" d="M 373.738281 401.285156 C 378.054688 409.386719 384.070312 416.773438 391.972656 421.613281 C 400.324219 426.738281 410.816406 428.617188 420.25 425.652344 C 425.167969 424.105469 423.066406 416.359375 418.121094 417.917969 C 401.875 423.023438 387.804688 410.632812 380.671875 397.242188 C 378.246094 392.679688 371.308594 396.730469 373.738281 401.289062 Z M 373.738281 401.285156 " fill-opacity="1" fill-rule="nonzero"/><path fill="#ffa59b" d="M 553.960938 276.207031 C 556.347656 277.367188 558.699219 278.613281 560.941406 280.042969 C 562.003906 280.714844 563.046875 281.429688 564.050781 282.195312 C 563.605469 281.855469 564.089844 282.234375 564.28125 282.386719 C 564.523438 282.582031 564.765625 282.785156 565.011719 282.988281 C 565.527344 283.429688 566.027344 283.878906 566.519531 284.347656 C 567.351562 285.140625 568.144531 285.976562 568.894531 286.855469 C 569.078125 287.078125 569.261719 287.300781 569.445312 287.523438 C 570.160156 288.40625 569.003906 286.882812 569.65625 287.8125 C 569.984375 288.285156 570.316406 288.75 570.625 289.238281 C 571.242188 290.210938 571.800781 291.210938 572.285156 292.253906 C 572.339844 292.367188 572.71875 293.394531 572.425781 292.554688 C 572.515625 292.824219 572.628906 293.09375 572.726562 293.359375 C 572.9375 293.957031 573.121094 294.558594 573.285156 295.167969 C 573.835938 297.195312 576.164062 298.636719 578.222656 297.96875 C 580.285156 297.300781 581.617188 295.203125 581.027344 293.035156 C 577.941406 281.667969 568.160156 274.195312 558.007812 269.28125 C 556.117188 268.371094 553.578125 268.707031 552.515625 270.722656 C 551.566406 272.519531 551.941406 275.230469 553.960938 276.207031 Z M 553.960938 276.207031 " fill-opacity="1" fill-rule="nonzero"/><path fill="#ffa59b" d="M 421.085938 342.59375 C 421.085938 342.59375 419.1875 336.019531 431.417969 333.785156 C 443.644531 331.550781 457.960938 333.707031 453.910156 343.4375 C 449.863281 353.167969 419.300781 353.238281 421.085938 342.59375 Z M 421.085938 342.59375 " fill-opacity="1" fill-rule="nonzero"/><path fill="#ffa59b" d="M 544.839844 330.308594 C 544.839844 330.308594 543.054688 323.703125 555.320312 321.679688 C 567.582031 319.652344 581.851562 322.046875 577.648438 331.703125 C 573.433594 341.359375 542.878906 340.921875 544.839844 330.308594 Z M 544.839844 330.308594 " fill-opacity="1" fill-rule="nonzero"/><path fill="#ffffff" d="M 391.027344 280.113281 C 389.394531 282.214844 379.628906 286.582031 378.238281 272.527344 C 376.847656 258.472656 395.488281 236.679688 414.089844 238.621094 C 432.699219 240.558594 413.375 253.691406 405.226562 260.207031 C 397.070312 266.726562 394.925781 275.089844 391.027344 280.113281 Z M 391.027344 280.113281 " fill-opacity="1" fill-rule="nonzero"/><path fill="#ffffff" d="M 543.960938 243.777344 C 540.988281 237.644531 529.203125 237.265625 522.601562 238.28125 C 521.867188 238.390625 521.082031 238.554688 520.5625 239.09375 C 519.875 239.804688 519.898438 241 520.378906 241.871094 C 520.859375 242.742188 521.691406 243.351562 522.53125 243.886719 C 528.476562 247.675781 536 248.878906 542.832031 247.152344 C 543.644531 246.949219 544.585938 246.554688 544.730469 245.734375 C 544.800781 245.328125 544.648438 244.917969 544.460938 244.554688 C 543.335938 242.40625 540.601562 241.246094 538.273438 241.921875 " fill-opacity="1" fill-rule="nonzero"/><path fill="#ffffff" d="M 547.425781 241.753906 C 545.28125 237.519531 540.457031 235.378906 536.007812 234.53125 C 531.34375 233.648438 526.585938 233.652344 521.902344 234.355469 C 520.214844 234.605469 518.6875 235.214844 517.519531 236.503906 C 516.027344 238.15625 515.679688 240.546875 516.363281 242.625 C 517.417969 245.859375 520.792969 247.746094 523.71875 249.070312 C 529.691406 251.769531 536.269531 252.582031 542.714844 251.277344 C 544.75 250.867188 546.796875 250.136719 547.957031 248.285156 C 549.277344 246.179688 548.816406 243.601562 547.386719 241.691406 C 545.003906 238.515625 541.085938 237.054688 537.210938 238.042969 C 535.175781 238.5625 533.746094 240.945312 534.40625 242.976562 C 535.089844 245.082031 537.164062 246.332031 539.347656 245.773438 C 540.082031 245.589844 539.40625 245.730469 539.25 245.742188 C 539.464844 245.730469 539.6875 245.742188 539.90625 245.730469 C 539.75 245.742188 539.078125 245.519531 539.8125 245.722656 C 539.964844 245.761719 540.136719 245.828125 540.292969 245.859375 C 540.816406 245.957031 539.8125 245.527344 540.246094 245.839844 C 540.34375 245.914062 540.960938 246.246094 540.535156 245.972656 C 540.148438 245.730469 540.574219 246.015625 540.640625 246.070312 C 541.488281 246.746094 540.078125 245.527344 540.84375 246.273438 C 541.363281 246.785156 540.507812 248.21875 541.511719 244.878906 L 542.019531 243.195312 C 541.675781 243.378906 541.644531 243.398438 541.914062 243.265625 C 542.328125 243.140625 541.191406 243.410156 540.988281 243.457031 C 540.457031 243.574219 539.925781 243.671875 539.386719 243.75 C 540.03125 243.652344 539.355469 243.75 539.242188 243.761719 C 538.910156 243.789062 538.566406 243.824219 538.234375 243.847656 C 537.214844 243.914062 536.199219 243.921875 535.1875 243.867188 C 534.644531 243.84375 534.105469 243.789062 533.566406 243.730469 C 533.652344 243.738281 534.105469 243.808594 533.625 243.738281 C 533.292969 243.683594 532.957031 243.632812 532.621094 243.566406 C 531.625 243.375 530.640625 243.128906 529.671875 242.820312 C 529.152344 242.65625 528.640625 242.480469 528.132812 242.28125 C 527.945312 242.210938 527.753906 242.136719 527.570312 242.058594 C 528.1875 242.320312 527.046875 241.796875 527.046875 241.796875 C 526.191406 241.386719 525.359375 240.921875 524.566406 240.410156 C 524.363281 240.277344 524.140625 240.140625 523.941406 239.988281 C 524.480469 240.414062 523.941406 239.984375 523.894531 239.898438 C 524.105469 240.285156 523.871094 240.140625 523.851562 239.832031 C 523.871094 240.160156 524.066406 240.402344 524.015625 240.78125 C 523.914062 241.503906 523.457031 241.757812 522.992188 242.152344 C 522.386719 242.648438 522.5625 242.328125 522.929688 242.28125 C 523.324219 242.230469 523.777344 242.164062 524.164062 242.066406 C 524.078125 242.085938 523.15625 242.183594 523.871094 242.113281 C 524.046875 242.09375 524.222656 242.074219 524.402344 242.054688 C 524.769531 242.015625 525.136719 241.980469 525.511719 241.957031 C 527.109375 241.835938 528.710938 241.8125 530.3125 241.882812 C 531.042969 241.914062 531.769531 241.96875 532.492188 242.046875 C 532.703125 242.066406 532.90625 242.097656 533.113281 242.117188 C 532.191406 242.019531 532.765625 242.066406 532.96875 242.105469 C 533.421875 242.183594 533.882812 242.257812 534.335938 242.355469 C 535.160156 242.523438 535.980469 242.734375 536.789062 243.003906 C 536.972656 243.0625 537.15625 243.128906 537.332031 243.195312 C 537.417969 243.226562 538.171875 243.605469 537.640625 243.3125 C 537.136719 243.03125 537.660156 243.332031 537.792969 243.398438 C 537.996094 243.5 538.199219 243.601562 538.398438 243.710938 C 538.746094 243.90625 539.058594 244.148438 539.40625 244.347656 C 539.789062 244.5625 539.085938 244.144531 539.105469 244.109375 C 539.113281 244.105469 539.648438 244.59375 539.667969 244.617188 C 539.761719 244.699219 539.839844 244.796875 539.933594 244.882812 C 540.503906 245.433594 539.808594 244.921875 539.859375 244.738281 C 539.832031 244.824219 540.449219 245.703125 540.496094 245.800781 C 541.449219 247.675781 544.242188 248.363281 545.988281 247.242188 C 547.902344 246.011719 548.449219 243.761719 547.433594 241.757812 Z M 547.425781 241.753906 " fill-opacity="1" fill-rule="nonzero"/><path fill="#ffbdc5" d="M 596.910156 375.605469 C 594.6875 377.878906 591.261719 384.300781 600.371094 387.847656 C 609.46875 391.390625 622.644531 382.722656 628.472656 367.523438 C 634.296875 352.320312 626.207031 348.300781 619.679688 348.265625 C 613.15625 348.234375 605.886719 366.421875 596.917969 375.605469 Z M 596.910156 375.605469 " fill-opacity="1" fill-rule="nonzero"/><path fill="#ffa59b" d="M 487.308594 259.414062 C 487.972656 259.632812 488.621094 259.875 489.269531 260.128906 C 488.613281 259.875 489.34375 260.164062 489.585938 260.273438 C 489.847656 260.390625 490.109375 260.515625 490.367188 260.648438 C 491.5625 261.238281 492.714844 261.90625 493.824219 262.640625 C 494.113281 262.828125 494.402344 263.03125 494.683594 263.230469 C 494.828125 263.335938 495.648438 263.949219 494.988281 263.433594 C 495.492188 263.824219 495.976562 264.230469 496.457031 264.652344 C 497.453125 265.535156 498.398438 266.480469 499.285156 267.476562 C 499.515625 267.738281 499.742188 268 499.964844 268.265625 C 500.027344 268.339844 500.621094 269.074219 500.308594 268.671875 C 500.019531 268.3125 500.65625 269.144531 500.726562 269.238281 C 500.898438 269.472656 501.0625 269.707031 501.226562 269.953125 C 502.007812 271.097656 502.714844 272.296875 503.339844 273.535156 C 503.46875 273.789062 503.59375 274.054688 503.71875 274.316406 C 503.773438 274.417969 504.207031 275.390625 504.007812 274.945312 C 503.796875 274.460938 504.160156 275.335938 504.199219 275.429688 C 504.324219 275.75 504.441406 276.078125 504.554688 276.40625 C 505.003906 277.722656 505.359375 279.058594 505.636719 280.421875 C 506.050781 282.484375 508.613281 283.855469 510.578125 283.21875 C 512.769531 282.511719 513.824219 280.492188 513.378906 278.285156 C 510.90625 265.921875 501.371094 255.589844 489.449219 251.664062 C 487.453125 251.011719 484.972656 252.425781 484.507812 254.460938 C 484.003906 256.671875 485.175781 258.6875 487.308594 259.394531 Z M 487.308594 259.414062 " fill-opacity="1" fill-rule="nonzero"/><path fill="#ffa59b" d="M 509.597656 290.050781 C 510.734375 288.714844 511.972656 287.476562 513.324219 286.355469 C 513.476562 286.234375 513.628906 286.113281 513.777344 285.992188 C 514.363281 285.511719 513.371094 286.277344 513.777344 285.992188 C 514.140625 285.742188 514.488281 285.472656 514.847656 285.230469 C 515.574219 284.738281 516.316406 284.273438 517.085938 283.847656 C 517.808594 283.441406 518.546875 283.066406 519.296875 282.722656 C 519.511719 282.621094 519.734375 282.5 519.964844 282.425781 C 519.710938 282.511719 519.347656 282.675781 519.816406 282.5 C 520.222656 282.339844 520.636719 282.183594 521.046875 282.039062 C 522.753906 281.449219 524.507812 281.015625 526.285156 280.734375 C 528.363281 280.410156 529.703125 277.703125 529.085938 275.800781 C 528.359375 273.542969 526.375 272.652344 524.144531 273.003906 C 516.390625 274.230469 509 278.410156 503.917969 284.386719 C 502.558594 285.984375 502.230469 288.511719 503.917969 290.058594 C 505.414062 291.429688 508.140625 291.761719 509.597656 290.058594 Z M 509.597656 290.050781 " fill-opacity="1" fill-rule="nonzero"/><path fill="#ffbdc5" d="M 360.351562 421.234375 C 355.96875 416.40625 347.347656 402.332031 360.59375 390.347656 C 373.847656 378.367188 395.457031 388.925781 399.320312 396.363281 C 399.320312 396.363281 410.410156 397.484375 419.144531 407.109375 C 419.144531 407.109375 438.183594 392.800781 457.722656 399.953125 C 477.265625 407.109375 478.414062 415.074219 484.460938 416.050781 C 490.519531 417.027344 495.578125 405.988281 510.8125 407.296875 C 526.046875 408.609375 530.53125 421.535156 530.53125 421.535156 C 530.53125 421.535156 549.386719 417.160156 553.003906 406.78125 C 556.617188 396.394531 573.632812 392.375 582.363281 400.492188 C 591.097656 408.609375 590.921875 424.445312 578.960938 428.710938 C 567.003906 432.96875 560.21875 427.457031 559.242188 428.710938 C 558.265625 429.960938 547.707031 445.609375 528.574219 447.691406 C 502.597656 450.527344 492.335938 437.96875 492.335938 437.96875 C 492.335938 437.96875 476.457031 443.976562 461.542969 436.65625 C 461.542969 436.65625 459.253906 436.894531 453.164062 439.761719 C 439.898438 446.019531 419.9375 447.429688 407.386719 439.761719 C 394.847656 432.105469 392.976562 427.734375 390.074219 425.527344 C 389.15625 424.824219 388.054688 424.476562 386.90625 424.503906 C 381.46875 424.617188 367.601562 429.242188 360.339844 421.234375 Z M 360.351562 421.234375 " fill-opacity="1" fill-rule="nonzero"/><path fill="#ffa59b" d="M 396.179688 397.929688 C 403.882812 407.644531 417.707031 411.785156 429.550781 408.320312 C 431.628906 407.710938 432.933594 405.503906 432.351562 403.386719 C 431.78125 401.316406 429.503906 399.972656 427.410156 400.589844 C 426.191406 400.949219 424.9375 401.25 423.671875 401.414062 C 424.222656 401.34375 423.453125 401.421875 423.257812 401.441406 C 422.976562 401.46875 422.691406 401.488281 422.410156 401.5 C 421.773438 401.53125 421.136719 401.546875 420.5 401.539062 C 419.863281 401.53125 419.226562 401.492188 418.589844 401.441406 C 418.238281 401.410156 417.882812 401.382812 417.535156 401.328125 C 417.976562 401.390625 417.515625 401.324219 417.339844 401.289062 C 416.007812 401.042969 414.695312 400.746094 413.40625 400.339844 C 411.136719 399.621094 409.332031 398.75 407.101562 397.246094 C 405.351562 396.070312 403.460938 394.28125 401.859375 392.269531 C 400.515625 390.570312 397.589844 390.859375 396.179688 392.269531 C 394.5 393.945312 394.828125 396.238281 396.179688 397.941406 Z M 396.179688 397.929688 " fill-opacity="1" fill-rule="nonzero"/><path fill="#ffa59b" d="M 335.6875 369.191406 C 339.578125 375.175781 344.363281 380.476562 350.792969 383.777344 C 357.25 387.09375 364.511719 388.335938 371.710938 387.421875 C 373.863281 387.144531 375.726562 385.777344 375.726562 383.410156 C 375.726562 381.457031 373.875 379.125 371.710938 379.402344 C 368.398438 379.820312 364.9375 379.867188 361.886719 379.25 C 360.511719 378.976562 359.144531 378.601562 357.820312 378.136719 C 357.5 378.023438 357.175781 377.898438 356.855469 377.777344 C 356.644531 377.695312 356.015625 377.421875 356.535156 377.652344 C 355.960938 377.402344 355.40625 377.132812 354.855469 376.851562 C 349.632812 374.171875 345.804688 370.023438 342.628906 365.148438 C 341.449219 363.335938 339.074219 362.582031 337.136719 363.707031 C 335.332031 364.765625 334.511719 367.371094 335.695312 369.191406 Z M 335.6875 369.191406 " fill-opacity="1" fill-rule="nonzero"/><path fill="#000000" d="M 517.125 315.984375 C 528.285156 320.480469 541.972656 317.28125 550.199219 308.601562 C 551.691406 307.027344 551.761719 304.492188 550.199219 302.925781 C 548.699219 301.425781 546.015625 301.347656 544.519531 302.925781 C 542.726562 304.820312 541.519531 305.785156 539.195312 307.082031 C 538.644531 307.390625 538.074219 307.664062 537.503906 307.945312 C 537.378906 308.011719 536.914062 308.214844 537.300781 308.050781 C 536.980469 308.1875 536.644531 308.3125 536.316406 308.429688 C 535.121094 308.871094 533.902344 309.222656 532.660156 309.492188 C 532.109375 309.609375 531.554688 309.714844 530.996094 309.800781 C 530.714844 309.847656 530.71875 309.847656 531.015625 309.800781 L 530.59375 309.847656 C 530.3125 309.871094 530.03125 309.898438 529.753906 309.917969 C 528.488281 310.007812 527.222656 310.007812 525.957031 309.917969 C 525.675781 309.898438 525.398438 309.871094 525.117188 309.847656 L 524.695312 309.800781 C 525 309.839844 525.003906 309.839844 524.722656 309.800781 C 524.164062 309.707031 523.613281 309.601562 523.070312 309.472656 C 521.761719 309.171875 520.492188 308.757812 519.25 308.253906 C 517.234375 307.441406 514.839844 309.136719 514.308594 311.050781 C 513.679688 313.34375 515.097656 315.171875 517.113281 315.984375 Z M 517.125 315.984375 " fill-opacity="1" fill-rule="nonzero"/><path fill="#ffa59b" d="M 529.222656 363.191406 C 531.21875 363.53125 532.570312 365.878906 533.707031 367.402344 C 535.378906 369.65625 536.90625 372.023438 538.285156 374.460938 C 541.007812 379.269531 543.054688 384.359375 544.503906 389.695312 C 546.953125 388.664062 549.398438 387.636719 551.847656 386.601562 C 550.082031 383.199219 547.144531 380.449219 543.640625 378.894531 C 540.070312 377.3125 534.53125 376.136719 531.269531 378.96875 C 527.917969 381.882812 527.269531 387.132812 528.113281 391.265625 C 528.96875 395.40625 531.605469 399.015625 534.886719 401.597656 C 538.351562 404.324219 543.054688 406.210938 547.351562 404.265625 C 551.277344 402.488281 553.082031 398.160156 552.472656 394.039062 C 551.859375 389.902344 548.953125 385.867188 545.527344 383.523438 C 541.925781 381.050781 536.382812 381.3125 533.980469 385.363281 C 531.855469 388.945312 533.285156 393.953125 535.570312 397.117188 C 537.800781 400.214844 542.023438 403.644531 546.125 402.835938 C 556.085938 400.882812 549.90625 383.835938 543.601562 380.960938 C 539.175781 378.941406 534.238281 381.589844 533.644531 386.417969 C 533.140625 390.585938 535.082031 394.882812 537.667969 398.046875 C 540.242188 401.199219 545.023438 404.703125 549.105469 402.128906 C 553.585938 399.304688 552.292969 393.675781 550.691406 389.570312 C 549.820312 387.320312 548.855469 384.929688 546.644531 383.664062 C 544.183594 382.257812 541.035156 383.035156 539.558594 385.46875 C 537.167969 389.390625 539.261719 395.367188 542.332031 398.28125 C 544.164062 400.019531 546.59375 401.25 549.132812 400.414062 C 551.65625 399.582031 552.878906 397.085938 553.003906 394.574219 C 553.207031 390.464844 551.238281 385.0625 546.675781 384.273438 C 544.703125 383.933594 542.136719 384.78125 541.738281 387.074219 C 541.066406 390.945312 541.324219 395.296875 543.632812 398.644531 C 545.632812 401.527344 550.402344 402.960938 552.464844 399.265625 C 553.527344 397.367188 553.191406 394.832031 552.976562 392.761719 C 552.800781 391.117188 552.832031 389.003906 552.214844 387.441406 C 551.480469 385.585938 549.925781 384.25 547.8125 384.570312 C 545.976562 384.84375 544.171875 386.488281 544.328125 388.507812 C 544.367188 388.972656 544.445312 389.429688 544.511719 389.898438 C 544.664062 390.984375 544.453125 389.289062 544.550781 390.191406 C 544.597656 390.625 544.625 391.0625 544.683594 391.488281 C 544.859375 392.742188 544.058594 392.320312 545.148438 390.644531 C 545.949219 390.027344 546.75 389.410156 547.550781 388.800781 L 547.484375 388.816406 C 548.515625 388.953125 549.542969 389.085938 550.582031 389.222656 L 550.496094 389.164062 C 548.722656 387.910156 546.027344 388.847656 545.003906 390.605469 C 543.828125 392.609375 544.667969 394.835938 546.449219 396.089844 C 549.503906 398.242188 552.726562 395.097656 552.753906 392.050781 C 552.753906 391.324219 552.648438 390.597656 552.554688 389.882812 C 552.492188 389.332031 552.410156 388.78125 552.332031 388.234375 C 552.214844 387.375 552.339844 388.140625 552.371094 388.519531 C 549.742188 388.875 547.117188 389.226562 544.484375 389.589844 C 544.609375 389.898438 544.625 390.289062 544.675781 390.617188 C 544.742188 391.003906 544.792969 391.398438 544.851562 391.785156 C 544.753906 391.054688 544.90625 392.222656 544.917969 392.347656 C 545.015625 393.191406 545.101562 394.039062 545.140625 394.890625 C 545.160156 395.257812 545.140625 395.628906 545.167969 395.996094 C 545.167969 396.199219 545.15625 396.402344 545.136719 396.605469 C 545.136719 395.851562 545.4375 395.203125 546.027344 394.652344 L 547.800781 393.625 C 548.632812 393.816406 549.460938 394.003906 550.292969 394.195312 C 550.160156 394 550.054688 393.789062 549.976562 393.574219 C 549.890625 393.0625 549.628906 392.550781 549.53125 392.03125 C 549.359375 391.121094 549.339844 390.152344 549.5 389.234375 C 547.851562 390.164062 546.203125 391.101562 544.558594 392.03125 C 545.6875 392.230469 544.539062 392.089844 544.402344 391.691406 C 544.539062 392.109375 544.722656 392.433594 544.839844 392.890625 C 544.933594 393.257812 544.925781 393.597656 544.992188 393.875 C 545.285156 395.058594 544.609375 394.234375 545.242188 393.742188 L 547.011719 392.714844 C 548.96875 392.039062 547.988281 393.375 547.609375 392.214844 C 547.476562 391.828125 547.070312 391.4375 546.914062 391.042969 C 546.808594 390.78125 546.738281 390.464844 546.695312 390.191406 L 546.675781 389.59375 C 546.820312 388.460938 546.527344 388.742188 545.792969 390.441406 L 543.765625 390.992188 C 542.367188 390 541.960938 389.9375 542.558594 390.789062 C 542.6875 391.042969 542.800781 391.304688 542.90625 391.574219 C 543.191406 392.261719 543.4375 392.96875 543.660156 393.675781 C 543.835938 394.222656 543.960938 395.277344 544.238281 395.753906 C 544.238281 396.324219 544.261719 396.375 544.328125 395.925781 C 544.953125 395.609375 545.570312 395.289062 546.191406 394.972656 C 546.191406 394.988281 543.835938 393.003906 543.621094 392.734375 C 542.898438 391.816406 542.328125 390.734375 541.984375 389.628906 C 541.847656 389.175781 541.828125 388.46875 541.605469 388.074219 C 541.171875 387.316406 542.144531 387.628906 541.246094 387.90625 C 541.757812 387.746094 540.285156 388.554688 540.292969 388.21875 C 540.292969 388.332031 541.371094 389.589844 541.46875 389.765625 C 542.1875 391.015625 542.667969 392.339844 542.964844 393.75 C 543.070312 394.253906 543.023438 395.007812 543.1875 395.492188 C 543.527344 396.507812 542.726562 395.828125 543.566406 395.464844 C 544.242188 395.28125 544.917969 395.097656 545.59375 394.914062 C 543.933594 395.097656 542.066406 392.824219 541.441406 391.351562 C 541.449219 391.378906 540.878906 389.242188 540.96875 389.273438 C 540.332031 389.851562 540.15625 390.074219 540.429688 389.929688 C 540.449219 389.917969 540.464844 389.917969 540.488281 389.921875 C 540.449219 389.824219 541.90625 390.769531 541.226562 390.296875 C 542.695312 391.3125 544.453125 393.59375 544.585938 395.414062 C 544.707031 397.15625 543.660156 397.378906 542.136719 396.777344 C 540.128906 395.984375 538.296875 394.273438 537.164062 392.464844 C 536.507812 391.417969 536.007812 390.289062 535.835938 389.050781 C 535.757812 388.476562 535.753906 387.859375 535.8125 387.28125 C 535.871094 386.738281 536.328125 385.960938 536.269531 385.472656 L 536.410156 385.238281 C 536.59375 384.863281 536.410156 384.917969 535.851562 385.410156 C 536.164062 385.605469 537.25 385.382812 537.617188 385.429688 C 538.457031 385.527344 539.335938 385.769531 540.117188 386.101562 C 542.269531 387.027344 543.84375 388.644531 544.90625 390.695312 C 547.023438 394.777344 553.429688 391.941406 552.246094 387.605469 C 550.503906 381.1875 547.910156 374.964844 544.511719 369.246094 C 542.785156 366.328125 540.832031 363.570312 538.726562 360.917969 C 536.796875 358.488281 534.566406 356.054688 531.351562 355.507812 C 529.21875 355.140625 527.027344 356.074219 526.410156 358.304688 C 525.878906 360.230469 527.066406 362.863281 529.210938 363.238281 Z M 529.222656 363.191406 " fill-opacity="1" fill-rule="nonzero"/><path fill="#ffa59b" d="M 551.144531 393.527344 L 551.191406 393.027344 C 550.527344 394.183594 549.867188 395.335938 549.203125 396.488281 L 548.199219 396.703125 C 547.253906 396.3125 546.304688 395.917969 545.359375 395.53125 C 546.183594 396.257812 546.527344 397.878906 546.972656 398.851562 C 547.53125 400.085938 548.113281 401.304688 548.730469 402.507812 C 549.953125 404.921875 551.277344 407.285156 552.699219 409.585938 C 555.542969 414.183594 558.78125 418.5625 562.320312 422.648438 C 565.527344 426.363281 569.070312 430.257812 573.511719 432.511719 C 577.875 434.726562 582.746094 435.269531 587.542969 434.488281 C 595.652344 433.179688 604.203125 427.929688 607.863281 420.382812 C 611.746094 412.375 611.203125 402.816406 611.203125 394.15625 C 611.203125 388.992188 603.171875 388.984375 603.171875 394.15625 C 603.171875 401.511719 604.140625 410.796875 600.328125 417.472656 C 596.609375 423.992188 587.175781 428.335938 579.84375 426.402344 C 575.140625 425.164062 571.761719 421.246094 568.664062 417.742188 C 565.304688 413.9375 562.300781 409.855469 559.628906 405.535156 C 556.9375 401.179688 555.042969 396.527344 552.6875 392.011719 C 550.214844 387.277344 543.644531 387.828125 543.109375 393.519531 C 542.621094 398.65625 550.652344 398.625 551.140625 393.519531 Z M 551.144531 393.527344 " fill-opacity="1" fill-rule="nonzero"/><path fill="#000000" d="M 497.433594 336.726562 C 505.871094 334.027344 514.402344 333.242188 523.265625 334.289062 C 525.359375 334.539062 527.375 332.265625 527.28125 330.28125 C 527.175781 327.894531 525.511719 326.539062 523.265625 326.269531 C 513.894531 325.15625 504.285156 326.121094 495.300781 328.996094 C 493.234375 329.660156 491.902344 331.78125 492.5 333.929688 C 493.058594 335.957031 495.367188 337.398438 497.441406 336.726562 Z M 497.433594 336.726562 " fill-opacity="1" fill-rule="nonzero"/><path fill="#ffa59b" d="M 349.789062 334.238281 C 339.585938 339.976562 329.738281 346.347656 320.253906 353.207031 C 312.078125 359.121094 303.839844 365.792969 299.054688 374.878906 C 294.390625 383.738281 293.027344 394.621094 297.800781 403.726562 C 302.390625 412.472656 311.574219 417.289062 320.359375 420.855469 C 332.28125 425.691406 344.460938 429.628906 357.386719 430.386719 C 356.441406 428.105469 355.492188 425.820312 354.546875 423.539062 C 352.511719 426.078125 350.300781 427.578125 347.28125 428.761719 C 342.539062 430.625 344.558594 438.347656 349.414062 436.492188 C 352.511719 435.3125 354.855469 433.179688 355.417969 429.785156 C 356.015625 426.175781 352.832031 423.78125 349.519531 425.257812 C 345.859375 426.890625 341.960938 429.554688 341.828125 433.996094 C 341.71875 437.863281 344.46875 441.808594 348.59375 441.800781 C 353.195312 441.789062 356.617188 436.835938 357.472656 432.757812 C 358.359375 428.519531 355.261719 425.027344 350.871094 425.695312 C 346.804688 426.3125 345.371094 429.425781 345 433.101562 C 344.644531 436.558594 344.636719 441.34375 349.433594 441.472656 C 352.78125 441.566406 356.277344 438.375 358.542969 436.265625 C 361.152344 433.832031 363.140625 430.886719 362.640625 427.152344 C 361.921875 421.785156 356.527344 420.027344 352.195312 422.847656 C 347.859375 425.671875 345.496094 430.609375 345.535156 435.714844 C 345.554688 438.511719 348.070312 440.023438 350.621094 439.578125 C 354.078125 438.976562 357.03125 436.710938 358.460938 433.5 C 360.554688 428.828125 353.632812 424.746094 351.527344 429.449219 C 350.839844 430.988281 350.128906 431.554688 348.484375 431.84375 C 350.175781 433.132812 351.867188 434.417969 353.566406 435.707031 C 353.554688 433.851562 354.015625 432.125 355.261719 430.6875 C 356.085938 429.738281 357.28125 429.890625 355.675781 428.992188 C 353.8125 427.957031 355.359375 428.492188 354.375 429.058594 C 353.257812 429.699219 352.308594 431.167969 351.25 431.972656 C 350.714844 432.378906 349.925781 432.6875 349.488281 433.164062 C 348.710938 434.003906 348.527344 432.765625 350.128906 433.425781 C 350.929688 434.042969 351.730469 434.660156 352.53125 435.269531 C 352.964844 435.949219 352.589844 435.675781 352.800781 435.050781 C 352.925781 434.683594 353.035156 433.851562 352.996094 433.472656 C 352.8125 431.84375 353.128906 433.691406 352.316406 433.507812 C 351.375 432.851562 350.445312 432.203125 349.507812 431.546875 C 349.375 431.992188 349.179688 432.40625 348.910156 432.785156 C 348.34375 433.667969 347.503906 433.695312 348.929688 434.117188 C 351.160156 434.765625 349.144531 434.371094 350.175781 434.042969 C 351.207031 433.714844 352.503906 432.65625 353.582031 432.167969 C 351.613281 430.664062 349.652344 429.148438 347.683594 427.640625 C 347.789062 428.140625 347.65625 428.507812 347.289062 428.75 C 347.996094 431.324219 348.710938 433.90625 349.421875 436.480469 C 353.691406 434.804688 357.308594 432.832031 360.226562 429.195312 C 362.414062 426.476562 361.0625 422.566406 357.386719 422.347656 C 344.789062 421.601562 332.480469 417.449219 320.972656 412.46875 C 311.035156 408.171875 301.96875 401.230469 302.882812 389.308594 C 303.78125 377.625 312.769531 368.804688 321.585938 362.117188 C 331.789062 354.378906 342.6875 347.40625 353.84375 341.136719 C 358.34375 338.609375 354.304688 331.675781 349.789062 334.210938 Z M 349.789062 334.238281 " fill-opacity="1" fill-rule="nonzero"/><path fill="#ffa59b" d="M 600.984375 342.875 C 603.527344 356.460938 595.308594 371.714844 582.410156 376.929688 C 580.402344 377.742188 578.984375 379.605469 579.609375 381.863281 C 580.132812 383.765625 582.527344 385.480469 584.550781 384.660156 C 601.753906 377.710938 612.140625 359.011719 608.730469 340.746094 C 608.328125 338.613281 605.757812 337.402344 603.789062 337.945312 C 601.550781 338.5625 600.585938 340.746094 600.984375 342.878906 Z M 600.984375 342.875 " fill-opacity="1" fill-rule="nonzero"/><path fill="#000000" d="M 455.183594 300.339844 C 452.949219 299.171875 450.054688 300.476562 448.628906 302.566406 C 447.207031 304.65625 446.910156 307.296875 446.726562 309.820312 C 446.574219 311.902344 446.496094 314.085938 447.355469 316 C 448.214844 317.90625 450.296875 319.425781 452.324219 318.933594 C 455.171875 318.25 455.894531 314.589844 456.050781 311.660156 C 456.128906 310.1875 456.207031 308.710938 456.285156 307.238281 C 456.378906 305.480469 456.457031 303.632812 455.695312 302.050781 C 454.933594 300.464844 453.03125 299.277344 451.40625 299.933594 " fill-opacity="1" fill-rule="nonzero"/><path fill="#000000" d="M 457.191406 296.894531 C 454.484375 295.59375 451.800781 295.699219 449.101562 296.992188 C 446.851562 298.066406 445.183594 300.140625 444.234375 302.402344 C 443.238281 304.773438 442.921875 307.269531 442.738281 309.828125 C 442.539062 312.539062 442.683594 315.191406 443.78125 317.714844 C 445.980469 322.757812 452.75 324.902344 456.863281 320.789062 C 460.085938 317.5625 459.988281 312.570312 460.21875 308.34375 C 460.375 305.382812 460.546875 302.1875 458.886719 299.574219 C 457.125 296.800781 453.609375 294.960938 450.355469 296.082031 C 448.386719 296.761719 446.878906 298.851562 447.574219 301 C 448.203125 302.953125 450.367188 304.527344 452.476562 303.792969 C 452.824219 303.675781 452.941406 303.773438 452.160156 303.757812 C 452.34375 303.757812 452.640625 303.832031 452.132812 303.707031 C 451.511719 303.550781 452.066406 303.734375 452.226562 303.757812 C 452.625 303.824219 451.890625 303.667969 451.871094 303.609375 C 451.882812 303.65625 452.316406 303.8125 452.324219 303.890625 L 452.128906 303.746094 C 451.863281 303.542969 451.863281 303.554688 452.128906 303.792969 C 452.199219 303.949219 452.292969 304.203125 452.152344 303.804688 C 451.945312 303.175781 452.265625 304.019531 452.265625 304.082031 C 452.265625 304.027344 452.023438 303.222656 452.207031 304.039062 C 452.238281 304.191406 452.269531 304.367188 452.316406 304.519531 C 452.507812 305.0625 452.296875 303.851562 452.316406 304.425781 C 452.316406 304.589844 452.34375 304.753906 452.351562 304.925781 C 452.390625 305.824219 452.332031 306.726562 452.285156 307.625 C 452.191406 309.296875 452.160156 310.980469 451.996094 312.648438 C 451.984375 312.773438 451.964844 312.898438 451.957031 313.023438 C 451.921875 313.554688 452.121094 312.183594 451.996094 312.710938 C 451.929688 312.992188 451.890625 313.285156 451.824219 313.574219 C 451.757812 313.855469 451.6875 314.136719 451.601562 314.414062 C 451.5625 314.53125 451.523438 314.640625 451.484375 314.757812 C 451.261719 315.5 451.804688 314.234375 451.5625 314.578125 C 451.503906 314.660156 451.164062 315.160156 451.164062 315.277344 C 451.144531 314.902344 451.738281 314.648438 451.378906 314.996094 C 451.328125 315.042969 451.078125 315.277344 451.070312 315.304688 C 451.070312 315.324219 451.773438 314.78125 451.445312 315.007812 C 451.289062 315.121094 450.859375 315.269531 451.4375 315.066406 C 452.121094 314.832031 451.5625 315.035156 451.492188 315.035156 C 450.683594 315.015625 452.199219 315.105469 451.660156 315.042969 C 451.511719 315.023438 450.90625 315.027344 451.535156 315.066406 C 452.132812 315.105469 451.667969 315.035156 451.550781 315.035156 C 451.039062 315.007812 451.582031 314.65625 451.757812 315.132812 C 451.746094 315.09375 451.453125 314.949219 451.40625 314.929688 C 450.941406 314.71875 451.910156 315.433594 451.554688 315.0625 C 451.464844 314.960938 451.351562 314.863281 451.253906 314.78125 C 450.675781 314.269531 451.328125 314.941406 451.339844 314.949219 C 451.1875 314.871094 451.042969 314.503906 450.972656 314.367188 C 450.925781 314.289062 450.789062 314.089844 450.789062 314 L 450.953125 314.347656 L 450.855469 314.03125 C 450.816406 313.828125 450.75 313.601562 450.695312 313.398438 C 450.675781 313.316406 450.578125 312.769531 450.664062 313.277344 C 450.753906 313.824219 450.664062 313.128906 450.652344 312.992188 C 450.636719 312.828125 450.632812 312.664062 450.625 312.492188 C 450.613281 312.046875 450.617188 311.601562 450.636719 311.164062 C 450.671875 310.351562 450.730469 309.539062 450.808594 308.726562 C 450.820312 308.566406 450.839844 308.40625 450.855469 308.246094 C 450.925781 307.480469 450.835938 308.234375 450.835938 308.359375 C 450.847656 307.945312 450.972656 307.507812 451.0625 307.105469 C 451.167969 306.648438 451.292969 306.191406 451.445312 305.746094 C 451.484375 305.621094 451.53125 305.402344 451.609375 305.304688 C 451.128906 305.929688 451.535156 305.515625 451.667969 305.273438 C 451.738281 305.136719 451.824219 305.003906 451.902344 304.867188 C 452.355469 304.039062 451.542969 305.199219 451.851562 304.894531 C 451.976562 304.769531 452.085938 304.628906 452.210938 304.507812 C 452.519531 304.203125 452.742188 304.289062 452.113281 304.527344 C 452.410156 304.414062 452.738281 304.132812 453.019531 303.96875 C 453.453125 303.714844 453.164062 304.140625 452.789062 304.066406 C 452.894531 304.085938 453.175781 303.957031 453.289062 303.921875 C 453.984375 303.707031 453.046875 304.019531 452.988281 303.941406 C 453.011719 303.980469 453.5625 303.941406 453.617188 303.941406 C 454.003906 303.890625 453.230469 303.929688 453.175781 303.882812 C 453.300781 303.910156 453.417969 303.941406 453.542969 303.980469 C 453.828125 304.082031 453.707031 304.027344 453.183594 303.824219 C 455.058594 304.722656 457.574219 304.40625 458.636719 302.390625 C 459.574219 300.609375 459.214844 297.882812 457.207031 296.917969 Z M 457.191406 296.894531 " fill-opacity="1" fill-rule="nonzero"/><g clip-path="url(#da48ba6139)"><path fill="#5e4d5c" d="M 617.375 184.59375 C 621.40625 184.496094 626.910156 185.191406 630.199219 187.523438 C 633.484375 189.847656 636.457031 195.632812 636.515625 199.664062 C 636.574219 203.652344 635.875 206.726562 633.847656 210.164062 C 628.472656 219.277344 621.128906 227.21875 612.460938 233.300781 C 611.496094 233.976562 610.480469 234.644531 609.324219 234.867188 C 606.4375 235.421875 603.617188 232.800781 603.210938 229.886719 C 602.808594 226.976562 604.300781 224.082031 606.339844 221.964844 C 608.382812 219.847656 610.953125 218.335938 613.355469 216.632812 C 615.757812 214.929688 618.078125 212.917969 619.273438 210.238281 C 620.035156 208.527344 620.296875 206.59375 620.007812 204.746094 C 619.746094 203.050781 618.929688 201.3125 617.414062 200.515625 C 614.46875 198.960938 611.117188 201.617188 608.972656 204.15625 C 606.824219 206.699219 603.992188 209.660156 600.777344 208.789062 C 598.320312 208.121094 596.976562 205.296875 597.132812 202.761719 C 597.292969 200.226562 598.585938 197.921875 599.84375 195.710938 C 599.84375 195.710938 605.113281 184.886719 617.363281 184.59375 Z M 617.375 184.59375 " fill-opacity="1" fill-rule="nonzero"/></g><path fill="#5e4d5c" d="M 607.21875 240.382812 C 607.5625 241.320312 607.890625 242.808594 607.960938 243.796875 C 608.195312 247.019531 606.261719 249.613281 603.171875 250.578125 C 602.050781 250.925781 600.855469 250.996094 599.679688 251.011719 C 597.988281 251.03125 596.425781 250.441406 594.882812 249.746094 C 593.492188 249.121094 592.441406 247.804688 592.003906 247.097656 C 590.363281 244.472656 590.480469 241.851562 592.003906 239.203125 C 592.777344 237.855469 594.128906 236.386719 595.574219 235.796875 C 596.425781 235.441406 598.222656 234.867188 599.136719 234.984375 C 601.128906 235.234375 601.617188 235.402344 603.367188 236.394531 C 603.367188 236.394531 606.210938 237.625 607.226562 240.382812 Z M 607.21875 240.382812 " fill-opacity="1" fill-rule="nonzero"/><path fill="#ffffff" d="M 605.480469 241.914062 C 605.390625 241.660156 605.265625 241.386719 605.015625 241.265625 C 604.765625 241.15625 604.390625 241.320312 604.417969 241.59375 C 604.195312 241.679688 603.917969 242.726562 604.03125 243.480469 C 604.097656 243.921875 604.550781 244.824219 604.773438 245.203125 C 604.832031 245.304688 604.910156 245.402344 605.015625 245.433594 C 605.285156 245.527344 605.5 245.191406 605.574219 244.917969 C 605.839844 243.933594 605.808594 242.871094 605.480469 241.914062 Z M 605.480469 241.914062 " fill-opacity="1" fill-rule="nonzero"/><path fill="#ffffff" d="M 606.765625 241.5625 C 606.628906 241.167969 606.472656 240.847656 606.195312 240.527344 C 605.875 240.148438 605.402344 239.945312 604.917969 239.910156 C 603.957031 239.832031 603.066406 240.632812 603.074219 241.601562 C 603.296875 241.214844 603.511719 240.835938 603.734375 240.449219 C 603.296875 240.65625 603.066406 241.144531 602.910156 241.570312 C 602.777344 241.921875 602.730469 242.300781 602.6875 242.667969 C 602.640625 243.070312 602.652344 243.476562 602.730469 243.875 C 602.796875 244.214844 602.953125 244.535156 603.085938 244.859375 C 603.402344 245.585938 603.800781 246.515625 604.648438 246.730469 C 605.421875 246.929688 606.164062 246.566406 606.582031 245.90625 C 606.8125 245.546875 606.917969 245.113281 606.984375 244.699219 C 607.148438 243.652344 607.109375 242.585938 606.765625 241.570312 C 606.542969 240.90625 605.835938 240.402344 605.121094 240.636719 C 604.464844 240.847656 603.945312 241.574219 604.1875 242.28125 C 604.292969 242.589844 604.367188 242.90625 604.410156 243.21875 L 604.367188 242.867188 C 604.429688 243.335938 604.429688 243.804688 604.367188 244.273438 L 604.410156 243.921875 C 604.371094 244.195312 604.324219 244.476562 604.222656 244.734375 L 604.359375 244.414062 C 604.324219 244.484375 604.285156 244.542969 604.242188 244.609375 L 604.449219 244.339844 C 604.417969 244.378906 604.378906 244.417969 604.339844 244.453125 L 604.609375 244.242188 C 604.609375 244.242188 604.554688 244.273438 604.523438 244.289062 L 604.84375 244.148438 L 604.796875 244.164062 L 605.152344 244.117188 C 605.152344 244.117188 605.085938 244.125 605.054688 244.117188 L 605.410156 244.164062 L 605.355469 244.148438 L 605.675781 244.289062 C 605.636719 244.273438 605.605469 244.253906 605.578125 244.234375 L 605.847656 244.445312 C 605.847656 244.445312 605.789062 244.390625 605.769531 244.359375 L 605.980469 244.628906 C 605.738281 244.292969 605.558594 243.882812 605.402344 243.507812 L 605.539062 243.828125 C 605.449219 243.605469 605.347656 243.371094 605.308594 243.132812 L 605.355469 243.488281 C 605.316406 243.207031 605.328125 242.925781 605.363281 242.644531 L 605.316406 242.996094 C 605.355469 242.726562 605.410156 242.464844 605.511719 242.21875 L 605.375 242.539062 C 605.402344 242.472656 605.433594 242.40625 605.472656 242.347656 L 605.265625 242.617188 C 605.265625 242.617188 605.296875 242.578125 605.316406 242.566406 L 605.046875 242.773438 C 605.046875 242.773438 605.066406 242.761719 605.082031 242.753906 C 605.492188 242.558594 605.75 242.039062 605.742188 241.601562 L 605.742188 241.554688 C 605.722656 241.671875 605.710938 241.792969 605.699219 241.910156 C 605.699219 241.875 605.703125 241.851562 605.71875 241.824219 L 605.578125 242.144531 C 605.578125 242.144531 605.605469 242.09375 605.625 242.074219 L 605.414062 242.339844 C 605.414062 242.339844 605.453125 242.296875 605.480469 242.28125 L 605.210938 242.492188 C 605.210938 242.492188 605.265625 242.460938 605.296875 242.445312 L 604.976562 242.585938 C 605.019531 242.566406 605.066406 242.550781 605.113281 242.542969 L 604.757812 242.589844 C 604.8125 242.589844 604.851562 242.589844 604.902344 242.589844 L 604.550781 242.542969 C 604.550781 242.542969 604.613281 242.558594 604.640625 242.570312 L 604.320312 242.433594 C 604.351562 242.445312 604.386719 242.464844 604.417969 242.492188 L 604.148438 242.28125 C 604.207031 242.328125 604.261719 242.382812 604.3125 242.445312 L 604.101562 242.179688 C 604.160156 242.261719 604.207031 242.347656 604.246094 242.433594 L 604.109375 242.113281 C 604.128906 242.164062 604.15625 242.222656 604.175781 242.277344 C 604.292969 242.609375 604.476562 242.890625 604.792969 243.074219 C 605.082031 243.246094 605.5 243.3125 605.820312 243.214844 C 606.472656 243.003906 607.007812 242.277344 606.753906 241.570312 Z M 606.765625 241.5625 " fill-opacity="1" fill-rule="nonzero"/><path fill="#ffffff" d="M 631.042969 191.425781 C 630.28125 191.363281 629.441406 191.539062 629.09375 192.21875 C 628.859375 192.679688 628.859375 193.222656 628.871094 193.738281 C 628.929688 197.316406 629.113281 201.011719 627.835938 204.355469 C 626.960938 206.632812 625.394531 208.84375 625.710938 211.265625 C 625.828125 212.191406 626.300781 213.152344 627.167969 213.507812 C 627.855469 213.789062 628.648438 213.632812 629.320312 213.308594 C 631.371094 212.339844 632.5 210.105469 633.144531 207.9375 C 634.554688 203.167969 634.316406 197.925781 632.472656 193.308594 C 632.472656 193.308594 631.753906 191.484375 631.042969 191.425781 Z M 631.042969 191.425781 " fill-opacity="1" fill-rule="nonzero"/><path fill="#5e4d5c" d="M 649.625 234.789062 C 652.480469 235.730469 656.167969 237.605469 657.886719 240.066406 C 659.605469 242.53125 660.234375 247.339844 659.265625 250.179688 C 658.300781 252.996094 657.035156 254.972656 654.742188 256.878906 C 648.675781 261.925781 641.515625 265.652344 633.898438 267.738281 C 633.050781 267.964844 632.167969 268.183594 631.300781 268.050781 C 629.128906 267.71875 627.816406 265.167969 628.261719 263.019531 C 628.714844 260.878906 630.492188 259.21875 632.460938 258.25 C 634.429688 257.28125 636.613281 256.867188 638.726562 256.269531 C 640.839844 255.679688 642.980469 254.855469 644.496094 253.269531 C 645.460938 252.261719 646.128906 250.96875 646.398438 249.601562 C 646.640625 248.34375 646.507812 246.921875 645.644531 245.976562 C 643.96875 244.148438 640.945312 245.164062 638.800781 246.410156 C 636.652344 247.65625 633.910156 249.023438 631.878906 247.601562 C 630.324219 246.515625 630.09375 244.195312 630.839844 242.460938 C 631.589844 240.722656 633.078125 239.425781 634.523438 238.195312 C 634.523438 238.195312 640.953125 231.925781 649.625 234.800781 Z M 649.625 234.789062 " fill-opacity="1" fill-rule="nonzero"/><path fill="#5e4d5c" d="M 625.847656 270.925781 C 625.847656 271.667969 625.703125 272.796875 625.507812 273.507812 C 624.863281 275.835938 622.847656 277.164062 620.433594 277.058594 C 619.554688 277.019531 618.703125 276.773438 617.875 276.484375 C 616.679688 276.070312 615.734375 275.265625 614.824219 274.386719 C 614.003906 273.601562 613.605469 272.410156 613.472656 271.804688 C 612.980469 269.550781 613.726562 267.738281 615.46875 266.261719 C 616.351562 265.507812 617.671875 264.820312 618.832031 264.769531 C 619.523438 264.734375 620.925781 264.78125 621.542969 265.097656 C 622.882812 265.769531 623.175781 266.015625 624.15625 267.148438 C 624.15625 267.148438 625.839844 268.726562 625.855469 270.921875 Z M 625.847656 270.925781 " fill-opacity="1" fill-rule="nonzero"/><path fill="#ffa59b" d="M 436.3125 431.855469 C 435.164062 438.726562 436.222656 445.710938 436.886719 452.585938 C 437.59375 459.9375 438.394531 467.273438 439.292969 474.605469 C 441.085938 489.191406 443.242188 503.730469 445.761719 518.207031 C 446.648438 523.285156 454.382812 521.132812 453.503906 516.078125 C 451.109375 502.308594 449.03125 488.484375 447.324219 474.613281 C 446.476562 467.714844 445.714844 460.808594 445.039062 453.890625 C 444.417969 447.488281 442.988281 440.398438 444.054688 433.992188 C 444.902344 428.941406 437.167969 426.769531 436.3125 431.863281 Z M 436.3125 431.855469 " fill-opacity="1" fill-rule="nonzero"/><g clip-path="url(#656d14c4ab)"><path fill="#ffa59b" d="M 449.160156 514.714844 C 443.25 514.226562 437.199219 514.101562 431.425781 515.671875 C 426.878906 516.910156 416.171875 521.203125 419.601562 527.617188 C 421.191406 530.585938 424.621094 531.117188 427.660156 531.417969 C 430.742188 531.726562 433.867188 531.390625 436.898438 530.816406 C 439.632812 530.289062 442.304688 529.472656 444.921875 528.523438 C 447.539062 527.570312 449.8125 526.714844 451.675781 524.617188 C 452.808594 523.339844 453.695312 521.988281 453.828125 520.246094 C 454.015625 517.789062 452.3125 515.699219 449.960938 515.144531 C 448.335938 514.757812 446.597656 515.144531 445.027344 515.621094 C 444.46875 515.792969 443.914062 515.988281 443.355469 516.15625 C 443.058594 516.25 442.746094 516.308594 442.457031 516.40625 C 441.640625 516.683594 443.046875 516.40625 442.21875 516.453125 C 440.125 516.550781 438.105469 518.230469 438.203125 520.460938 C 438.296875 522.554688 439.96875 524.578125 442.21875 524.472656 C 443.609375 524.40625 444.917969 524.078125 446.234375 523.652344 C 446.785156 523.476562 447.335938 523.285156 447.894531 523.136719 C 448.125 523.078125 448.367188 523.039062 448.597656 522.964844 C 448.132812 523.011719 448.046875 523.023438 448.335938 523.003906 C 448.792969 523.003906 448.542969 522.914062 447.585938 522.757812 L 446.144531 521.316406 C 446.617188 518.660156 446.582031 517.847656 446.042969 518.863281 C 445.808594 519.210938 445.828125 519.191406 446.109375 518.804688 C 445.839844 519.105469 445.546875 519.386719 445.269531 519.675781 C 445.144531 519.792969 445.019531 519.90625 444.890625 520.015625 C 445.289062 519.722656 445.324219 519.691406 444.980469 519.925781 C 444.667969 520.097656 444.699219 520.097656 445.082031 519.914062 C 444.851562 520.003906 444.628906 520.089844 444.398438 520.175781 C 442.179688 521.027344 439.921875 521.804688 437.625 522.414062 C 435.449219 522.992188 433.539062 523.359375 431.503906 523.464844 C 430.382812 523.523438 429.261719 523.515625 428.136719 523.425781 C 428.269531 523.4375 426.765625 523.253906 427.292969 523.332031 C 426.96875 523.28125 426.65625 523.222656 426.335938 523.15625 C 425.902344 523.019531 425.882812 523.039062 426.28125 523.222656 C 425.875 522.980469 425.863281 523 426.242188 523.261719 C 425.46875 526.542969 425.585938 527.714844 426.589844 526.777344 C 426.765625 526.632812 426.773438 526.621094 426.609375 526.738281 C 426.847656 526.5625 427.082031 526.390625 427.324219 526.226562 C 428.171875 525.652344 429.0625 525.132812 429.980469 524.683594 C 431.300781 524.035156 433.402344 523.378906 435.289062 522.980469 C 439.660156 522.066406 444.574219 522.34375 449.167969 522.722656 C 451.265625 522.898438 453.273438 520.757812 453.183594 518.714844 C 453.078125 516.394531 451.417969 514.886719 449.167969 514.703125 Z M 449.160156 514.714844 " fill-opacity="1" fill-rule="nonzero"/></g><path fill="#ffa59b" d="M 517.578125 433.984375 C 518.652344 440.390625 517.222656 447.480469 516.59375 453.882812 C 515.917969 460.800781 515.15625 467.707031 514.308594 474.605469 C 512.609375 488.476562 510.523438 502.300781 508.128906 516.074219 C 507.25 521.117188 514.984375 523.285156 515.871094 518.203125 C 518.390625 503.722656 520.550781 489.191406 522.339844 474.597656 C 523.214844 467.484375 523.996094 460.363281 524.691406 453.226562 C 525.378906 446.152344 526.507812 438.917969 525.320312 431.847656 C 524.464844 426.769531 516.730469 428.925781 517.578125 433.976562 Z M 517.578125 433.984375 " fill-opacity="1" fill-rule="nonzero"/><g clip-path="url(#2e16501364)"><path fill="#ffa59b" d="M 512.472656 522.734375 C 517.070312 522.355469 521.980469 522.082031 526.351562 522.992188 C 528.246094 523.386719 530.328125 524.039062 531.65625 524.695312 C 532.578125 525.148438 533.46875 525.660156 534.316406 526.242188 C 534.269531 526.207031 535.390625 526.960938 534.90625 526.675781 C 536 527.753906 536.160156 526.621094 535.390625 523.28125 C 535.773438 523.011719 535.757812 523 535.351562 523.242188 C 535.746094 523.0625 535.726562 523.039062 535.300781 523.175781 C 535.0625 523.226562 534.820312 523.273438 534.585938 523.3125 C 534.335938 523.359375 534.015625 523.40625 533.496094 523.445312 C 532.375 523.527344 531.25 523.542969 530.128906 523.484375 C 528.070312 523.371094 526.191406 523.003906 524.007812 522.433594 C 521.824219 521.863281 519.613281 521.105469 517.464844 520.285156 C 517.164062 520.167969 516.855469 520.050781 516.554688 519.933594 C 516.933594 520.117188 516.96875 520.117188 516.652344 519.945312 C 516.003906 519.644531 517.03125 520.378906 516.496094 519.820312 C 516.171875 519.488281 515.832031 519.179688 515.523438 518.832031 C 515.804688 519.21875 515.824219 519.238281 515.589844 518.890625 C 515.050781 517.867188 515.019531 518.6875 515.492188 521.339844 C 515.011719 521.820312 514.53125 522.296875 514.046875 522.78125 L 513.148438 523.023438 C 513.523438 523.050781 513.554688 523.042969 513.246094 523.019531 C 512.984375 522.980469 512.972656 522.984375 513.214844 523.03125 C 513.332031 523.058594 513.449219 523.082031 513.5625 523.117188 C 514.183594 523.273438 514.789062 523.484375 515.398438 523.679688 C 516.71875 524.105469 518.015625 524.433594 519.414062 524.5 C 521.515625 524.597656 523.523438 522.585938 523.429688 520.488281 C 523.332031 518.234375 521.664062 516.585938 519.414062 516.480469 C 518.6875 516.445312 519.394531 516.480469 519.527344 516.511719 C 519.230469 516.445312 518.933594 516.375 518.648438 516.289062 C 518.148438 516.144531 517.65625 515.980469 517.164062 515.824219 C 515.910156 515.417969 514.632812 515.058594 513.304688 515.011719 C 509.015625 514.859375 506.378906 519.269531 508.660156 522.945312 C 510.089844 525.246094 512.164062 526.796875 514.652344 527.769531 C 517.320312 528.808594 520.039062 529.746094 522.832031 530.421875 C 525.679688 531.109375 528.644531 531.5625 531.578125 531.554688 C 534.589844 531.554688 538.515625 531.378906 540.832031 529.191406 C 542.011719 528.074219 542.660156 526.621094 542.621094 524.996094 C 542.570312 522.796875 541.0625 521.359375 539.433594 520.121094 C 537.214844 518.429688 534.734375 517.214844 532.109375 516.289062 C 525.839844 514.082031 519.007812 514.199219 512.472656 514.742188 C 510.386719 514.914062 508.351562 516.464844 508.457031 518.753906 C 508.550781 520.777344 510.230469 522.945312 512.472656 522.761719 Z M 512.472656 522.734375 " fill-opacity="1" fill-rule="nonzero"/></g><path fill="#ffa59b" d="M 143.917969 130.082031 C 148.019531 120.867188 154.613281 114.085938 162.542969 109.53125 C 169.40625 105.59375 177.28125 103.328125 185.40625 102.628906 L 184.796875 97.832031 C 184.796875 95.089844 185.570312 92.375 186.835938 89.890625 C 188.042969 87.523438 189.695312 85.371094 191.480469 83.621094 C 193.613281 81.527344 195.992188 79.785156 198.578125 78.523438 C 201.265625 77.214844 204.167969 76.414062 207.253906 76.269531 C 208.007812 76.230469 211.636719 76.894531 213.394531 77.234375 L 217.433594 66.175781 C 220.457031 61.886719 224.300781 58.386719 228.585938 55.523438 C 232.792969 52.71875 237.425781 50.53125 242.101562 48.8125 C 251.859375 45.226562 263.203125 43.886719 274.347656 44.828125 C 285.507812 45.769531 296.457031 49 305.425781 54.464844 C 308.597656 56.398438 311.753906 58.414062 314.679688 60.722656 C 316.691406 62.308594 318.597656 64.035156 320.332031 65.964844 C 320.785156 66.46875 322.355469 68.75 323.363281 70.242188 C 324.882812 69.144531 327.328125 67.414062 328.023438 67.082031 C 330.664062 65.808594 333.535156 64.828125 336.476562 64.304688 C 339.515625 63.757812 342.625 63.699219 345.628906 64.277344 C 349.601562 65.039062 353.300781 66.792969 356.480469 69.265625 C 359.59375 71.679688 362.210938 74.777344 364.113281 78.273438 L 366.125 84.164062 C 368.378906 83.605469 371.597656 82.78125 372.207031 82.753906 C 375.125 82.628906 378.183594 83.113281 381.117188 84.046875 C 383.960938 84.949219 386.6875 86.273438 389.0625 87.847656 C 393.449219 90.757812 397.292969 94.617188 400.3125 99.066406 C 403.300781 103.472656 405.484375 108.453125 406.597656 113.648438 L 406.878906 123.3125 C 407.898438 125.285156 412.21875 127.355469 415.40625 130.402344 C 416.9375 131.859375 418.269531 133.480469 419.171875 135.265625 C 422.148438 141.15625 422.210938 145.546875 420.871094 149.164062 C 419.085938 153.976562 414.285156 157.429688 409.566406 161.570312 L 409.683594 161.757812 L 413.046875 169.109375 C 414.253906 172.585938 415.050781 176.105469 415.460938 179.679688 C 415.867188 183.234375 415.886719 186.84375 415.523438 190.5 C 413.824219 207.609375 405.003906 219.902344 392.996094 226.648438 C 381.40625 233.164062 366.777344 234.492188 352.59375 229.8125 C 351.558594 233.71875 350.847656 237.671875 350.417969 241.660156 C 349.902344 246.40625 349.792969 251.199219 350.027344 256.015625 L 351.199219 265.433594 C 351.503906 266.882812 352.988281 270.097656 352.933594 270.898438 C 352.847656 272.191406 352.171875 272.933594 351.445312 273.371094 C 350.84375 273.730469 349.65625 274.269531 348.011719 273.238281 C 342.652344 269.875 337.871094 265.078125 333.929688 259.613281 C 330.070312 254.265625 327.019531 248.28125 324.992188 242.425781 L 322.480469 232.550781 L 314.515625 237.132812 C 310.375 238.808594 305.628906 239.835938 300.871094 240.023438 C 296.027344 240.214844 291.171875 239.53125 286.90625 237.820312 C 283.132812 236.308594 279.398438 234.398438 275.910156 232.109375 C 272.402344 229.808594 269.136719 227.128906 266.3125 224.089844 L 262.203125 218.957031 C 261.667969 219.746094 261.046875 220.554688 260.558594 220.894531 C 259 221.992188 257.207031 222.757812 255.339844 223.222656 C 253.554688 223.667969 251.699219 223.84375 249.921875 223.796875 C 247.246094 223.730469 245.136719 223.136719 243.324219 222.253906 C 239.816406 220.550781 237.6875 217.464844 234.121094 215.28125 C 232.070312 216.445312 228.601562 218.511719 227.898438 218.761719 C 224.242188 220.046875 220.554688 220.875 216.816406 221.273438 C 213.097656 221.671875 209.332031 221.648438 205.507812 221.238281 C 198.261719 220.457031 191.605469 218.367188 185.796875 214.863281 C 180 211.367188 175.039062 206.464844 171.1875 200.019531 L 166.566406 187.882812 C 164.699219 185.882812 160.167969 185.5 156.894531 183.96875 C 155.703125 183.410156 154.628906 182.753906 153.746094 181.96875 C 146.742188 175.773438 142.382812 166.917969 140.757812 157.492188 C 139.15625 148.210938 140.214844 138.386719 143.917969 130.082031 Z M 146.558594 156.492188 C 147.953125 164.59375 151.628906 172.238281 157.648438 177.5625 C 160.050781 179.691406 164.53125 180.234375 167.535156 181.605469 C 168.894531 182.222656 170.035156 182.972656 170.871094 183.863281 C 171.601562 184.648438 172.257812 185.75 172.8125 187.074219 C 174.089844 190.101562 174.820312 194.628906 176.238281 197 C 179.5625 202.5625 183.835938 206.804688 188.835938 209.824219 C 193.933594 212.898438 199.777344 214.703125 206.136719 215.386719 C 209.535156 215.75 212.886719 215.777344 216.191406 215.421875 C 219.480469 215.070312 222.726562 214.34375 225.941406 213.210938 C 226.640625 212.964844 230.414062 210.589844 232.003906 209.714844 C 233.816406 208.714844 235.308594 209.21875 235.488281 209.308594 C 239.328125 211.222656 241.570312 214.179688 244.640625 216.230469 C 246.0625 217.179688 247.726562 217.851562 250.070312 217.914062 C 251.332031 217.945312 252.648438 217.828125 253.914062 217.511719 C 255.078125 217.222656 256.203125 216.761719 257.175781 216.078125 C 258.140625 215.402344 258.695312 213.335938 259.496094 212.652344 C 260.839844 211.5 262.304688 211.246094 263.980469 212.289062 C 264.9375 212.886719 265.878906 213.800781 266.765625 214.890625 C 268.136719 216.574219 269.394531 218.761719 270.621094 220.082031 C 273.128906 222.777344 276.023438 225.148438 279.136719 227.1875 C 282.296875 229.257812 285.679688 230.988281 289.097656 232.355469 C 292.621094 233.769531 296.636719 234.300781 300.640625 234.144531 C 304.707031 233.984375 308.765625 233.109375 312.308594 231.679688 L 318.980469 227.828125 C 319.8125 227.195312 320.78125 225.3125 321.523438 224.75 C 322.359375 224.117188 323.203125 223.945312 323.917969 223.992188 C 324.878906 224.0625 325.933594 224.453125 326.675781 225.851562 C 327.410156 227.238281 327.960938 228.90625 328.394531 230.699219 C 329.1875 233.957031 329.585938 237.699219 330.554688 240.5 C 332.402344 245.839844 335.1875 251.292969 338.703125 256.171875 C 340.609375 258.816406 342.734375 261.292969 345.042969 263.476562 L 344.148438 256.304688 C 343.898438 251.179688 344.015625 246.078125 344.5625 241.03125 C 345.113281 235.949219 346.089844 230.925781 347.550781 225.980469 C 347.84375 224.984375 348.621094 224.261719 349.546875 223.992188 C 350.328125 223.355469 351.421875 223.140625 352.433594 223.519531 C 365.574219 228.460938 379.332031 227.578125 390.113281 221.519531 C 400.589844 215.632812 408.183594 204.84375 409.667969 189.917969 C 409.988281 186.683594 409.972656 183.492188 409.613281 180.347656 C 409.253906 177.199219 408.546875 174.097656 407.488281 171.035156 L 404.566406 164.667969 C 404.464844 164.484375 403.679688 163.246094 403.378906 162.734375 C 402.171875 160.683594 403.695312 158.945312 403.78125 158.863281 C 408.285156 154.65625 413.625 151.777344 415.355469 147.117188 C 416.246094 144.710938 415.894531 141.835938 413.917969 137.921875 C 413.308594 136.714844 412.375 135.644531 411.34375 134.660156 C 407.605469 131.089844 402.84375 128.324219 401.652344 126.011719 C 401.253906 125.246094 400.980469 124.148438 400.886719 122.84375 C 400.703125 120.355469 401.238281 116.730469 400.84375 114.882812 C 399.886719 110.425781 398.007812 106.152344 395.441406 102.371094 C 392.855469 98.558594 389.566406 95.246094 385.808594 92.75 C 383.875 91.46875 381.652344 90.386719 379.335938 89.652344 C 377.070312 88.933594 374.714844 88.539062 372.460938 88.636719 C 371.8125 88.664062 367.746094 89.84375 366.066406 90.242188 C 364.109375 90.703125 362.832031 89.871094 362.71875 89.773438 C 362.148438 89.296875 361.519531 88.421875 361.019531 87.234375 C 360.222656 85.359375 359.597656 82.289062 358.941406 81.085938 C 357.425781 78.304688 355.347656 75.839844 352.875 73.914062 C 350.421875 72.011719 347.582031 70.644531 344.519531 70.058594 C 342.21875 69.617188 339.839844 69.683594 337.511719 70.097656 C 335.101562 70.53125 332.746094 71.339844 330.578125 72.382812 C 329.5625 72.871094 326.363281 75.585938 324.761719 76.398438 C 323.691406 76.9375 322.78125 76.988281 322.246094 76.910156 C 321.722656 76.832031 320.800781 76.496094 319.917969 75.53125 C 318.738281 74.246094 316.644531 70.667969 315.957031 69.902344 C 314.445312 68.222656 312.785156 66.722656 311.035156 65.34375 C 308.292969 63.179688 305.332031 61.300781 302.363281 59.492188 C 294.136719 54.476562 284.085938 51.558594 273.851562 50.691406 C 263.582031 49.824219 253.125 51.03125 244.132812 54.335938 C 239.886719 55.898438 235.675781 57.871094 231.855469 60.421875 C 228.167969 62.878906 224.847656 65.878906 222.242188 69.566406 C 220.984375 71.355469 219.53125 77.835938 218.25 80.484375 C 217.695312 81.625 217.035156 82.355469 216.53125 82.710938 C 216.164062 82.96875 215.230469 83.398438 213.839844 83.273438 C 212.210938 83.128906 208.421875 82.105469 207.535156 82.148438 C 205.269531 82.253906 203.136719 82.847656 201.164062 83.8125 C 199.136719 84.800781 197.277344 86.179688 195.605469 87.820312 C 194.253906 89.148438 192.992188 90.773438 192.078125 92.5625 C 191.238281 94.214844 190.683594 96.003906 190.683594 97.828125 L 191.191406 102.0625 C 191.363281 102.660156 192.136719 103.636719 192.289062 104.171875 C 192.539062 105.066406 192.410156 105.816406 192.175781 106.371094 C 191.777344 107.324219 191.019531 108.246094 189.300781 108.296875 C 180.855469 108.53125 172.558594 110.570312 165.476562 114.636719 C 158.585938 118.589844 152.855469 124.476562 149.292969 132.476562 C 146.050781 139.75 145.15625 148.359375 146.558594 156.492188 Z M 146.558594 156.492188 " fill-opacity="1" fill-rule="evenodd"/><path fill="#ffa59b" d="M 398.546875 133.246094 C 398.273438 133.210938 398.257812 132.953125 398.367188 132.597656 C 398.433594 132.605469 398.460938 132.8125 398.480469 132.886719 C 398.503906 132.984375 398.691406 133.261719 398.546875 133.246094 Z M 398.546875 133.246094 " fill-opacity="1" fill-rule="evenodd"/><path fill="#ffa59b" d="M 399.394531 121.65625 C 399.613281 123.011719 399.765625 124.417969 399.796875 125.824219 C 399.828125 127.253906 399.734375 128.683594 399.539062 130.066406 C 399.453125 130.554688 398.605469 131.816406 398.367188 132.597656 C 398.355469 132.59375 398.34375 132.597656 398.328125 132.609375 C 397.183594 133.570312 402.148438 135.097656 402.984375 135.703125 C 406.359375 138.300781 409.3125 142.035156 409.550781 145.800781 C 409.703125 148.238281 408.8125 150.65625 406.101562 152.65625 C 408.117188 150.40625 408.554688 148.164062 408.011719 146.046875 C 407.230469 142.960938 404.277344 140.292969 401.113281 138.609375 C 400.21875 138.105469 397.539062 137.121094 396.0625 136.09375 C 395.136719 135.449219 394.628906 134.660156 394.417969 134.027344 C 394.28125 133.621094 394.261719 133.007812 394.378906 132.28125 C 394.519531 131.375 395.027344 130.0625 395.09375 129.449219 C 395.25 128.292969 395.292969 127.097656 395.277344 125.90625 C 395.257812 124.691406 395.183594 123.480469 395.023438 122.308594 C 394.363281 115.902344 391.839844 109.832031 387.9375 104.929688 C 383.894531 99.855469 378.449219 96.011719 371.777344 94.46875 C 378.898438 95.15625 385.117188 98.378906 389.894531 103.183594 C 394.785156 108.097656 398.035156 114.660156 399.394531 121.65625 Z M 399.394531 121.65625 " fill-opacity="1" fill-rule="evenodd"/><path fill="#ffa59b" d="M 388.285156 210.890625 C 389.65625 209.679688 390.914062 208.347656 392.132812 206.949219 C 393.332031 205.566406 394.480469 204.125 395.519531 202.59375 C 397.617188 199.5 399.316406 196.128906 400.417969 192.554688 C 402.136719 186.96875 402.5625 181.074219 401 175.453125 C 403.605469 180.984375 404.300781 187.183594 403.335938 193.234375 C 402.6875 197.328125 401.265625 201.308594 399.195312 204.898438 C 398.144531 206.71875 396.914062 208.4375 395.5 209.972656 C 394.0625 211.527344 392.449219 212.898438 390.703125 214.050781 C 388.066406 215.789062 385.195312 217.085938 382.121094 217.777344 C 379.191406 218.4375 376.179688 218.53125 373.039062 218.058594 C 376.054688 217.71875 378.765625 216.8125 381.359375 215.574219 C 383.902344 214.363281 386.167969 212.757812 388.285156 210.890625 Z M 388.285156 210.890625 " fill-opacity="1" fill-rule="evenodd"/><path fill="#ffa59b" d="M 337.671875 232.714844 C 338.21875 230.488281 338.992188 228.355469 340.007812 226.308594 C 341.5 223.289062 343.421875 220.613281 345.816406 218.113281 C 344.34375 221.089844 343.5 224.117188 342.839844 227.285156 C 342.394531 229.4375 342.179688 231.589844 341.914062 233.777344 C 341.742188 235.21875 341.585938 236.65625 341.375 238.097656 C 341.15625 239.578125 340.855469 241 340.597656 242.476562 C 340.1875 244.8125 339.71875 246.960938 339.445312 249.304688 C 338.871094 247.675781 338.335938 246.167969 337.929688 244.480469 C 337.523438 242.8125 337.261719 241.179688 337.121094 239.46875 C 337.03125 238.335938 337.015625 237.203125 337.101562 236.074219 C 337.195312 234.941406 337.402344 233.816406 337.671875 232.714844 Z M 337.671875 232.714844 " fill-opacity="1" fill-rule="evenodd"/><path fill="#ffa59b" d="M 206.777344 70.320312 L 206.886719 70.09375 C 206.941406 70 206.933594 70.007812 207.007812 69.929688 L 207.027344 69.921875 L 206.804688 70.3125 Z M 206.777344 70.320312 " fill-opacity="1" fill-rule="evenodd"/><path fill="#ffa59b" d="M 215.707031 57.964844 C 213.355469 62.304688 212.226562 67.058594 210.105469 72.214844 C 209.914062 72.660156 209.394531 73.175781 208.582031 73.5625 C 207.6875 73.992188 206.105469 74.3125 205.605469 74.460938 L 197.023438 77.527344 C 193.261719 78.859375 189.96875 80.773438 187.113281 83.203125 C 184.136719 85.734375 181.628906 88.703125 179.863281 92.535156 C 180.734375 88.164062 182.453125 84.390625 185.054688 81.191406 C 187.707031 77.921875 191.25 75.4375 195.242188 73.390625 C 196.761719 72.746094 198.285156 72.140625 199.847656 71.648438 C 201.410156 71.152344 203 70.761719 204.617188 70.421875 C 204.914062 70.367188 206.148438 70.453125 206.777344 70.320312 C 206.742188 70.402344 206.707031 70.480469 206.683594 70.523438 L 206.804688 70.3125 C 207.070312 70.253906 207.222656 70.148438 207.125 69.972656 C 207.09375 69.917969 207.0625 69.90625 207.027344 69.921875 C 209.667969 65.273438 211.390625 60.855469 214.273438 57.042969 C 216.21875 54.472656 218.644531 52.199219 222.167969 50.304688 C 219.113281 52.671875 217.1875 55.226562 215.707031 57.964844 Z M 215.707031 57.964844 " fill-opacity="1" fill-rule="evenodd"/><g clip-path="url(#fdd2eca316)"><path fill="#ffa59b" d="M 131.214844 149.605469 C 131.335938 146.515625 131.792969 143.414062 132.515625 140.371094 C 133.949219 134.351562 136.414062 128.539062 139.738281 123.375 C 144.792969 115.523438 151.804688 109.203125 160.191406 105.777344 C 152.480469 109.980469 146.503906 116.847656 142.332031 124.878906 C 139.679688 129.992188 137.832031 135.574219 136.761719 141.277344 C 136.226562 144.113281 135.902344 146.976562 135.730469 149.828125 C 135.5625 152.71875 135.546875 155.589844 135.777344 158.425781 C 136.132812 162.808594 136.992188 167.058594 138.53125 171.078125 C 140.109375 175.199219 142.261719 179.046875 145.273438 182.460938 C 141.609375 179.523438 138.660156 176.035156 136.425781 172.070312 C 134.152344 168.039062 132.640625 163.585938 131.832031 158.925781 C 131.300781 155.882812 131.089844 152.75 131.214844 149.605469 Z M 131.214844 149.605469 " fill-opacity="1" fill-rule="evenodd"/></g><g fill="#5e4d5c" fill-opacity="1"><g transform="translate(207.970829, 132.34873)"><g><path d="M 2.59375 0.25 C 2.101562 0.25 1.707031 0.132812 1.40625 -0.09375 C 1.101562 -0.320312 0.921875 -0.625 0.859375 -1 C 0.796875 -1.382812 0.867188 -1.8125 1.078125 -2.28125 L 9.234375 -20.359375 C 9.503906 -20.953125 9.828125 -21.378906 10.203125 -21.640625 C 10.585938 -21.898438 11.023438 -22.03125 11.515625 -22.03125 C 11.992188 -22.03125 12.421875 -21.898438 12.796875 -21.640625 C 13.179688 -21.378906 13.507812 -20.953125 13.78125 -20.359375 L 21.96875 -2.28125 C 22.1875 -1.8125 22.265625 -1.378906 22.203125 -0.984375 C 22.148438 -0.597656 21.976562 -0.296875 21.6875 -0.078125 C 21.394531 0.140625 21.015625 0.25 20.546875 0.25 C 19.960938 0.25 19.507812 0.109375 19.1875 -0.171875 C 18.875 -0.453125 18.59375 -0.878906 18.34375 -1.453125 L 16.34375 -6.109375 L 18.015625 -5.03125 L 4.96875 -5.03125 L 6.640625 -6.109375 L 4.671875 -1.453125 C 4.398438 -0.859375 4.117188 -0.425781 3.828125 -0.15625 C 3.535156 0.113281 3.125 0.25 2.59375 0.25 Z M 11.453125 -17.484375 L 7.140625 -7.203125 L 6.328125 -8.1875 L 16.65625 -8.1875 L 15.875 -7.203125 L 11.515625 -17.484375 Z M 11.453125 -17.484375 "/></g></g></g><g fill="#5e4d5c" fill-opacity="1"><g transform="translate(230.95317, 132.34873)"><g><path d="M 3.984375 0.25 C 3.347656 0.25 2.859375 0.0820312 2.515625 -0.25 C 2.179688 -0.59375 2.015625 -1.085938 2.015625 -1.734375 L 2.015625 -13.40625 C 2.015625 -14.039062 2.175781 -14.523438 2.5 -14.859375 C 2.832031 -15.191406 3.296875 -15.359375 3.890625 -15.359375 C 4.484375 -15.359375 4.945312 -15.191406 5.28125 -14.859375 C 5.613281 -14.523438 5.78125 -14.039062 5.78125 -13.40625 L 5.78125 -11.453125 L 5.46875 -11.453125 C 5.757812 -12.691406 6.328125 -13.628906 7.171875 -14.265625 C 8.015625 -14.910156 9.132812 -15.296875 10.53125 -15.421875 C 10.96875 -15.453125 11.3125 -15.335938 11.5625 -15.078125 C 11.820312 -14.828125 11.972656 -14.4375 12.015625 -13.90625 C 12.054688 -13.382812 11.9375 -12.960938 11.65625 -12.640625 C 11.382812 -12.328125 10.96875 -12.140625 10.40625 -12.078125 L 9.734375 -12.015625 C 8.472656 -11.890625 7.523438 -11.503906 6.890625 -10.859375 C 6.253906 -10.210938 5.9375 -9.300781 5.9375 -8.125 L 5.9375 -1.734375 C 5.9375 -1.085938 5.769531 -0.59375 5.4375 -0.25 C 5.101562 0.0820312 4.617188 0.25 3.984375 0.25 Z M 3.984375 0.25 "/></g></g></g><g fill="#5e4d5c" fill-opacity="1"><g transform="translate(243.06215, 132.34873)"><g><path d="M 9.453125 0.3125 C 7.742188 0.3125 6.269531 -0.00390625 5.03125 -0.640625 C 3.800781 -1.285156 2.847656 -2.191406 2.171875 -3.359375 C 1.503906 -4.535156 1.171875 -5.925781 1.171875 -7.53125 C 1.171875 -9.101562 1.492188 -10.472656 2.140625 -11.640625 C 2.796875 -12.816406 3.691406 -13.738281 4.828125 -14.40625 C 5.972656 -15.082031 7.273438 -15.421875 8.734375 -15.421875 C 9.804688 -15.421875 10.769531 -15.242188 11.625 -14.890625 C 12.476562 -14.535156 13.207031 -14.03125 13.8125 -13.375 C 14.425781 -12.71875 14.890625 -11.921875 15.203125 -10.984375 C 15.523438 -10.046875 15.6875 -8.988281 15.6875 -7.8125 C 15.6875 -7.445312 15.554688 -7.164062 15.296875 -6.96875 C 15.046875 -6.769531 14.679688 -6.671875 14.203125 -6.671875 L 4.296875 -6.671875 L 4.296875 -8.890625 L 12.96875 -8.890625 L 12.484375 -8.4375 C 12.484375 -9.382812 12.34375 -10.175781 12.0625 -10.8125 C 11.78125 -11.445312 11.378906 -11.929688 10.859375 -12.265625 C 10.335938 -12.609375 9.679688 -12.78125 8.890625 -12.78125 C 8.023438 -12.78125 7.289062 -12.578125 6.6875 -12.171875 C 6.082031 -11.773438 5.617188 -11.210938 5.296875 -10.484375 C 4.972656 -9.753906 4.8125 -8.882812 4.8125 -7.875 L 4.8125 -7.65625 C 4.8125 -5.96875 5.207031 -4.707031 6 -3.875 C 6.800781 -3.039062 7.972656 -2.625 9.515625 -2.625 C 10.046875 -2.625 10.644531 -2.691406 11.3125 -2.828125 C 11.988281 -2.960938 12.625 -3.191406 13.21875 -3.515625 C 13.65625 -3.765625 14.035156 -3.875 14.359375 -3.84375 C 14.691406 -3.8125 14.957031 -3.691406 15.15625 -3.484375 C 15.351562 -3.285156 15.46875 -3.035156 15.5 -2.734375 C 15.539062 -2.429688 15.484375 -2.125 15.328125 -1.8125 C 15.179688 -1.507812 14.921875 -1.242188 14.546875 -1.015625 C 13.828125 -0.566406 13 -0.234375 12.0625 -0.015625 C 11.125 0.203125 10.253906 0.3125 9.453125 0.3125 Z M 9.453125 0.3125 "/></g></g></g><g fill="#5e4d5c" fill-opacity="1"><g transform="translate(259.804665, 132.34873)"><g/></g></g><g fill="#5e4d5c" fill-opacity="1"><g transform="translate(268.17593, 132.34873)"><g><path d="M 5.84375 5.8125 C 5.382812 5.8125 5.007812 5.691406 4.71875 5.453125 C 4.4375 5.210938 4.269531 4.894531 4.21875 4.5 C 4.164062 4.113281 4.234375 3.707031 4.421875 3.28125 L 6.515625 -1.390625 L 6.515625 0.21875 L 0.890625 -12.78125 C 0.710938 -13.238281 0.648438 -13.660156 0.703125 -14.046875 C 0.765625 -14.441406 0.957031 -14.757812 1.28125 -15 C 1.601562 -15.238281 2.039062 -15.359375 2.59375 -15.359375 C 3.070312 -15.359375 3.453125 -15.25 3.734375 -15.03125 C 4.023438 -14.8125 4.285156 -14.40625 4.515625 -13.8125 L 8.6875 -3.390625 L 7.75 -3.390625 L 12.015625 -13.84375 C 12.242188 -14.414062 12.507812 -14.8125 12.8125 -15.03125 C 13.125 -15.25 13.539062 -15.359375 14.0625 -15.359375 C 14.507812 -15.359375 14.863281 -15.238281 15.125 -15 C 15.394531 -14.757812 15.5625 -14.445312 15.625 -14.0625 C 15.6875 -13.6875 15.617188 -13.269531 15.421875 -12.8125 L 7.90625 4.328125 C 7.632812 4.898438 7.34375 5.289062 7.03125 5.5 C 6.726562 5.707031 6.332031 5.8125 5.84375 5.8125 Z M 5.84375 5.8125 "/></g></g></g><g fill="#5e4d5c" fill-opacity="1"><g transform="translate(284.424197, 132.34873)"><g><path d="M 8.890625 0.3125 C 7.328125 0.3125 5.96875 -0.00390625 4.8125 -0.640625 C 3.664062 -1.285156 2.769531 -2.195312 2.125 -3.375 C 1.488281 -4.5625 1.171875 -5.957031 1.171875 -7.5625 C 1.171875 -8.78125 1.347656 -9.867188 1.703125 -10.828125 C 2.066406 -11.785156 2.585938 -12.609375 3.265625 -13.296875 C 3.953125 -13.984375 4.769531 -14.507812 5.71875 -14.875 C 6.664062 -15.238281 7.722656 -15.421875 8.890625 -15.421875 C 10.460938 -15.421875 11.820312 -15.097656 12.96875 -14.453125 C 14.125 -13.816406 15.019531 -12.910156 15.65625 -11.734375 C 16.300781 -10.566406 16.625 -9.175781 16.625 -7.5625 C 16.625 -6.351562 16.441406 -5.265625 16.078125 -4.296875 C 15.710938 -3.328125 15.191406 -2.492188 14.515625 -1.796875 C 13.835938 -1.109375 13.023438 -0.582031 12.078125 -0.21875 C 11.128906 0.132812 10.066406 0.3125 8.890625 0.3125 Z M 8.890625 -2.625 C 9.660156 -2.625 10.332031 -2.804688 10.90625 -3.171875 C 11.476562 -3.546875 11.925781 -4.097656 12.25 -4.828125 C 12.570312 -5.566406 12.734375 -6.476562 12.734375 -7.5625 C 12.734375 -9.21875 12.378906 -10.453125 11.671875 -11.265625 C 10.972656 -12.078125 10.046875 -12.484375 8.890625 -12.484375 C 8.128906 -12.484375 7.460938 -12.300781 6.890625 -11.9375 C 6.316406 -11.582031 5.867188 -11.035156 5.546875 -10.296875 C 5.222656 -9.566406 5.0625 -8.65625 5.0625 -7.5625 C 5.0625 -5.9375 5.410156 -4.707031 6.109375 -3.875 C 6.816406 -3.039062 7.742188 -2.625 8.890625 -2.625 Z M 8.890625 -2.625 "/></g></g></g><g fill="#5e4d5c" fill-opacity="1"><g transform="translate(302.216982, 132.34873)"><g><path d="M 7.46875 0.3125 C 6.21875 0.3125 5.179688 0.0820312 4.359375 -0.375 C 3.535156 -0.84375 2.921875 -1.539062 2.515625 -2.46875 C 2.117188 -3.394531 1.921875 -4.550781 1.921875 -5.9375 L 1.921875 -13.40625 C 1.921875 -14.0625 2.082031 -14.550781 2.40625 -14.875 C 2.738281 -15.195312 3.210938 -15.359375 3.828125 -15.359375 C 4.441406 -15.359375 4.921875 -15.195312 5.265625 -14.875 C 5.609375 -14.550781 5.78125 -14.0625 5.78125 -13.40625 L 5.78125 -5.875 C 5.78125 -4.800781 5.992188 -4.003906 6.421875 -3.484375 C 6.859375 -2.972656 7.550781 -2.71875 8.5 -2.71875 C 9.53125 -2.71875 10.375 -3.070312 11.03125 -3.78125 C 11.6875 -4.488281 12.015625 -5.429688 12.015625 -6.609375 L 12.015625 -13.40625 C 12.015625 -14.0625 12.175781 -14.550781 12.5 -14.875 C 12.832031 -15.195312 13.3125 -15.359375 13.9375 -15.359375 C 14.550781 -15.359375 15.023438 -15.195312 15.359375 -14.875 C 15.703125 -14.550781 15.875 -14.0625 15.875 -13.40625 L 15.875 -1.734375 C 15.875 -0.410156 15.25 0.25 14 0.25 C 13.394531 0.25 12.925781 0.0820312 12.59375 -0.25 C 12.269531 -0.59375 12.109375 -1.085938 12.109375 -1.734375 L 12.109375 -4.078125 L 12.546875 -3.15625 C 12.109375 -2.039062 11.453125 -1.179688 10.578125 -0.578125 C 9.703125 0.015625 8.664062 0.3125 7.46875 0.3125 Z M 7.46875 0.3125 "/></g></g></g><g fill="#5e4d5c" fill-opacity="1"><g transform="translate(320.102441, 132.34873)"><g/></g></g><g fill="#5e4d5c" fill-opacity="1"><g transform="translate(328.473705, 132.34873)"><g><path d="M 6.984375 0.3125 C 5.890625 0.3125 4.914062 0.101562 4.0625 -0.3125 C 3.207031 -0.738281 2.535156 -1.3125 2.046875 -2.03125 C 1.566406 -2.757812 1.328125 -3.578125 1.328125 -4.484375 C 1.328125 -5.585938 1.613281 -6.460938 2.1875 -7.109375 C 2.769531 -7.765625 3.707031 -8.234375 5 -8.515625 C 6.300781 -8.804688 8.039062 -8.953125 10.21875 -8.953125 L 11.765625 -8.953125 L 11.765625 -6.734375 L 10.25 -6.734375 C 8.976562 -6.734375 7.957031 -6.671875 7.1875 -6.546875 C 6.425781 -6.421875 5.882812 -6.207031 5.5625 -5.90625 C 5.25 -5.613281 5.09375 -5.203125 5.09375 -4.671875 C 5.09375 -3.984375 5.328125 -3.421875 5.796875 -2.984375 C 6.273438 -2.554688 6.9375 -2.34375 7.78125 -2.34375 C 8.457031 -2.34375 9.054688 -2.503906 9.578125 -2.828125 C 10.109375 -3.148438 10.53125 -3.585938 10.84375 -4.140625 C 11.15625 -4.691406 11.3125 -5.328125 11.3125 -6.046875 L 11.3125 -9.609375 C 11.3125 -10.640625 11.082031 -11.378906 10.625 -11.828125 C 10.175781 -12.285156 9.414062 -12.515625 8.34375 -12.515625 C 7.738281 -12.515625 7.09375 -12.441406 6.40625 -12.296875 C 5.71875 -12.148438 4.992188 -11.898438 4.234375 -11.546875 C 3.835938 -11.367188 3.488281 -11.316406 3.1875 -11.390625 C 2.894531 -11.472656 2.664062 -11.644531 2.5 -11.90625 C 2.332031 -12.164062 2.25 -12.445312 2.25 -12.75 C 2.25 -13.0625 2.332031 -13.363281 2.5 -13.65625 C 2.664062 -13.957031 2.945312 -14.179688 3.34375 -14.328125 C 4.28125 -14.722656 5.1875 -15.003906 6.0625 -15.171875 C 6.945312 -15.335938 7.75 -15.421875 8.46875 -15.421875 C 9.945312 -15.421875 11.164062 -15.191406 12.125 -14.734375 C 13.082031 -14.285156 13.796875 -13.601562 14.265625 -12.6875 C 14.742188 -11.769531 14.984375 -10.585938 14.984375 -9.140625 L 14.984375 -1.734375 C 14.984375 -1.085938 14.828125 -0.59375 14.515625 -0.25 C 14.210938 0.0820312 13.769531 0.25 13.1875 0.25 C 12.613281 0.25 12.164062 0.0820312 11.84375 -0.25 C 11.53125 -0.59375 11.375 -1.085938 11.375 -1.734375 L 11.375 -3.21875 L 11.609375 -3.21875 C 11.472656 -2.488281 11.191406 -1.863281 10.765625 -1.34375 C 10.335938 -0.820312 9.804688 -0.414062 9.171875 -0.125 C 8.535156 0.164062 7.804688 0.3125 6.984375 0.3125 Z M 6.984375 0.3125 "/></g></g></g><g fill="#5e4d5c" fill-opacity="1"><g transform="translate(199.712083, 175.132657)"><g/></g></g><g fill="#5e4d5c" fill-opacity="1"><g transform="translate(208.096172, 175.132657)"><g><path d="M 3.921875 0.25 C 3.304688 0.25 2.832031 0.0820312 2.5 -0.25 C 2.175781 -0.59375 2.015625 -1.085938 2.015625 -1.734375 L 2.015625 -13.40625 C 2.015625 -14.039062 2.175781 -14.523438 2.5 -14.859375 C 2.832031 -15.191406 3.296875 -15.359375 3.890625 -15.359375 C 4.484375 -15.359375 4.945312 -15.191406 5.28125 -14.859375 C 5.613281 -14.523438 5.78125 -14.039062 5.78125 -13.40625 L 5.78125 -11.3125 L 5.4375 -12.078125 C 5.882812 -13.171875 6.585938 -14 7.546875 -14.5625 C 8.503906 -15.132812 9.59375 -15.421875 10.8125 -15.421875 C 12.03125 -15.421875 13.03125 -15.191406 13.8125 -14.734375 C 14.59375 -14.285156 15.175781 -13.601562 15.5625 -12.6875 C 15.957031 -11.769531 16.15625 -10.609375 16.15625 -9.203125 L 16.15625 -1.734375 C 16.15625 -1.085938 15.988281 -0.59375 15.65625 -0.25 C 15.332031 0.0820312 14.859375 0.25 14.234375 0.25 C 13.617188 0.25 13.140625 0.0820312 12.796875 -0.25 C 12.460938 -0.59375 12.296875 -1.085938 12.296875 -1.734375 L 12.296875 -9.015625 C 12.296875 -10.191406 12.070312 -11.046875 11.625 -11.578125 C 11.1875 -12.117188 10.503906 -12.390625 9.578125 -12.390625 C 8.441406 -12.390625 7.539062 -12.03125 6.875 -11.3125 C 6.207031 -10.601562 5.875 -9.664062 5.875 -8.5 L 5.875 -1.734375 C 5.875 -0.410156 5.222656 0.25 3.921875 0.25 Z M 3.921875 0.25 "/></g></g></g><g fill="#5e4d5c" fill-opacity="1"><g transform="translate(226.166968, 175.132657)"><g><path d="M 9.453125 0.3125 C 7.742188 0.3125 6.269531 -0.00390625 5.03125 -0.640625 C 3.800781 -1.285156 2.847656 -2.191406 2.171875 -3.359375 C 1.503906 -4.535156 1.171875 -5.925781 1.171875 -7.53125 C 1.171875 -9.101562 1.492188 -10.472656 2.140625 -11.640625 C 2.796875 -12.816406 3.691406 -13.738281 4.828125 -14.40625 C 5.972656 -15.082031 7.273438 -15.421875 8.734375 -15.421875 C 9.804688 -15.421875 10.769531 -15.242188 11.625 -14.890625 C 12.476562 -14.535156 13.207031 -14.03125 13.8125 -13.375 C 14.425781 -12.71875 14.890625 -11.921875 15.203125 -10.984375 C 15.523438 -10.046875 15.6875 -8.988281 15.6875 -7.8125 C 15.6875 -7.445312 15.554688 -7.164062 15.296875 -6.96875 C 15.046875 -6.769531 14.679688 -6.671875 14.203125 -6.671875 L 4.296875 -6.671875 L 4.296875 -8.890625 L 12.96875 -8.890625 L 12.484375 -8.4375 C 12.484375 -9.382812 12.34375 -10.175781 12.0625 -10.8125 C 11.78125 -11.445312 11.378906 -11.929688 10.859375 -12.265625 C 10.335938 -12.609375 9.679688 -12.78125 8.890625 -12.78125 C 8.023438 -12.78125 7.289062 -12.578125 6.6875 -12.171875 C 6.082031 -11.773438 5.617188 -11.210938 5.296875 -10.484375 C 4.972656 -9.753906 4.8125 -8.882812 4.8125 -7.875 L 4.8125 -7.65625 C 4.8125 -5.96875 5.207031 -4.707031 6 -3.875 C 6.800781 -3.039062 7.972656 -2.625 9.515625 -2.625 C 10.046875 -2.625 10.644531 -2.691406 11.3125 -2.828125 C 11.988281 -2.960938 12.625 -3.191406 13.21875 -3.515625 C 13.65625 -3.765625 14.035156 -3.875 14.359375 -3.84375 C 14.691406 -3.8125 14.957031 -3.691406 15.15625 -3.484375 C 15.351562 -3.285156 15.46875 -3.035156 15.5 -2.734375 C 15.539062 -2.429688 15.484375 -2.125 15.328125 -1.8125 C 15.179688 -1.507812 14.921875 -1.242188 14.546875 -1.015625 C 13.828125 -0.566406 13 -0.234375 12.0625 -0.015625 C 11.125 0.203125 10.253906 0.3125 9.453125 0.3125 Z M 9.453125 0.3125 "/></g></g></g><g fill="#5e4d5c" fill-opacity="1"><g transform="translate(242.909483, 175.132657)"><g><path d="M 7.84375 0.25 C 7.332031 0.25 6.890625 0.117188 6.515625 -0.140625 C 6.148438 -0.398438 5.851562 -0.804688 5.625 -1.359375 L 1.140625 -12.78125 C 0.953125 -13.28125 0.894531 -13.71875 0.96875 -14.09375 C 1.039062 -14.476562 1.234375 -14.785156 1.546875 -15.015625 C 1.859375 -15.242188 2.269531 -15.359375 2.78125 -15.359375 C 3.226562 -15.359375 3.597656 -15.25 3.890625 -15.03125 C 4.179688 -14.8125 4.429688 -14.40625 4.640625 -13.8125 L 8.375 -3.515625 L 7.65625 -3.515625 L 11.515625 -14.0625 C 11.679688 -14.507812 11.90625 -14.835938 12.1875 -15.046875 C 12.46875 -15.253906 12.832031 -15.359375 13.28125 -15.359375 C 13.738281 -15.359375 14.109375 -15.25 14.390625 -15.03125 C 14.679688 -14.8125 14.898438 -14.488281 15.046875 -14.0625 L 18.84375 -3.515625 L 18.1875 -3.515625 L 21.96875 -13.90625 C 22.164062 -14.457031 22.425781 -14.835938 22.75 -15.046875 C 23.070312 -15.253906 23.425781 -15.359375 23.8125 -15.359375 C 24.3125 -15.359375 24.691406 -15.234375 24.953125 -14.984375 C 25.222656 -14.734375 25.378906 -14.414062 25.421875 -14.03125 C 25.460938 -13.65625 25.390625 -13.238281 25.203125 -12.78125 L 20.765625 -1.359375 C 20.554688 -0.828125 20.257812 -0.425781 19.875 -0.15625 C 19.5 0.113281 19.050781 0.25 18.53125 0.25 C 18.019531 0.25 17.570312 0.113281 17.1875 -0.15625 C 16.8125 -0.425781 16.519531 -0.828125 16.3125 -1.359375 L 12.265625 -12.078125 L 14.03125 -12.078125 L 10.078125 -1.390625 C 9.867188 -0.835938 9.578125 -0.425781 9.203125 -0.15625 C 8.835938 0.113281 8.382812 0.25 7.84375 0.25 Z M 7.84375 0.25 "/></g></g></g><g fill="#5e4d5c" fill-opacity="1"><g transform="translate(269.258868, 175.132657)"><g/></g></g><g fill="#5e4d5c" fill-opacity="1"><g transform="translate(277.630132, 175.132657)"><g><path d="M 7.46875 0.3125 C 6.21875 0.3125 5.179688 0.0820312 4.359375 -0.375 C 3.535156 -0.84375 2.921875 -1.539062 2.515625 -2.46875 C 2.117188 -3.394531 1.921875 -4.550781 1.921875 -5.9375 L 1.921875 -13.40625 C 1.921875 -14.0625 2.082031 -14.550781 2.40625 -14.875 C 2.738281 -15.195312 3.210938 -15.359375 3.828125 -15.359375 C 4.441406 -15.359375 4.921875 -15.195312 5.265625 -14.875 C 5.609375 -14.550781 5.78125 -14.0625 5.78125 -13.40625 L 5.78125 -5.875 C 5.78125 -4.800781 5.992188 -4.003906 6.421875 -3.484375 C 6.859375 -2.972656 7.550781 -2.71875 8.5 -2.71875 C 9.53125 -2.71875 10.375 -3.070312 11.03125 -3.78125 C 11.6875 -4.488281 12.015625 -5.429688 12.015625 -6.609375 L 12.015625 -13.40625 C 12.015625 -14.0625 12.175781 -14.550781 12.5 -14.875 C 12.832031 -15.195312 13.3125 -15.359375 13.9375 -15.359375 C 14.550781 -15.359375 15.023438 -15.195312 15.359375 -14.875 C 15.703125 -14.550781 15.875 -14.0625 15.875 -13.40625 L 15.875 -1.734375 C 15.875 -0.410156 15.25 0.25 14 0.25 C 13.394531 0.25 12.925781 0.0820312 12.59375 -0.25 C 12.269531 -0.59375 12.109375 -1.085938 12.109375 -1.734375 L 12.109375 -4.078125 L 12.546875 -3.15625 C 12.109375 -2.039062 11.453125 -1.179688 10.578125 -0.578125 C 9.703125 0.015625 8.664062 0.3125 7.46875 0.3125 Z M 7.46875 0.3125 "/></g></g></g><g fill="#5e4d5c" fill-opacity="1"><g transform="translate(295.515591, 175.132657)"><g><path d="M 7.53125 0.3125 C 6.644531 0.3125 5.707031 0.21875 4.71875 0.03125 C 3.738281 -0.15625 2.851562 -0.472656 2.0625 -0.921875 C 1.738281 -1.128906 1.507812 -1.367188 1.375 -1.640625 C 1.238281 -1.921875 1.1875 -2.203125 1.21875 -2.484375 C 1.25 -2.765625 1.351562 -3.003906 1.53125 -3.203125 C 1.707031 -3.410156 1.929688 -3.546875 2.203125 -3.609375 C 2.484375 -3.671875 2.789062 -3.617188 3.125 -3.453125 C 3.945312 -3.066406 4.71875 -2.796875 5.4375 -2.640625 C 6.15625 -2.484375 6.863281 -2.40625 7.5625 -2.40625 C 8.550781 -2.40625 9.285156 -2.570312 9.765625 -2.90625 C 10.253906 -3.25 10.5 -3.703125 10.5 -4.265625 C 10.5 -4.734375 10.335938 -5.097656 10.015625 -5.359375 C 9.703125 -5.617188 9.226562 -5.8125 8.59375 -5.9375 L 5.5 -6.515625 C 4.21875 -6.765625 3.242188 -7.234375 2.578125 -7.921875 C 1.910156 -8.609375 1.578125 -9.5 1.578125 -10.59375 C 1.578125 -11.582031 1.847656 -12.4375 2.390625 -13.15625 C 2.941406 -13.875 3.695312 -14.429688 4.65625 -14.828125 C 5.625 -15.222656 6.738281 -15.421875 8 -15.421875 C 8.90625 -15.421875 9.753906 -15.320312 10.546875 -15.125 C 11.335938 -14.925781 12.101562 -14.617188 12.84375 -14.203125 C 13.15625 -14.046875 13.367188 -13.832031 13.484375 -13.5625 C 13.597656 -13.289062 13.625 -13.015625 13.5625 -12.734375 C 13.5 -12.460938 13.375 -12.21875 13.1875 -12 C 13 -11.78125 12.765625 -11.644531 12.484375 -11.59375 C 12.210938 -11.539062 11.898438 -11.597656 11.546875 -11.765625 C 10.910156 -12.097656 10.296875 -12.335938 9.703125 -12.484375 C 9.117188 -12.628906 8.5625 -12.703125 8.03125 -12.703125 C 7.019531 -12.703125 6.269531 -12.523438 5.78125 -12.171875 C 5.300781 -11.816406 5.0625 -11.351562 5.0625 -10.78125 C 5.0625 -10.34375 5.207031 -9.976562 5.5 -9.6875 C 5.789062 -9.40625 6.234375 -9.210938 6.828125 -9.109375 L 9.921875 -8.53125 C 11.253906 -8.28125 12.265625 -7.820312 12.953125 -7.15625 C 13.648438 -6.5 14 -5.617188 14 -4.515625 C 14 -3.003906 13.410156 -1.820312 12.234375 -0.96875 C 11.054688 -0.113281 9.488281 0.3125 7.53125 0.3125 Z M 7.53125 0.3125 "/></g></g></g><g fill="#5e4d5c" fill-opacity="1"><g transform="translate(310.590028, 175.132657)"><g><path d="M 9.453125 0.3125 C 7.742188 0.3125 6.269531 -0.00390625 5.03125 -0.640625 C 3.800781 -1.285156 2.847656 -2.191406 2.171875 -3.359375 C 1.503906 -4.535156 1.171875 -5.925781 1.171875 -7.53125 C 1.171875 -9.101562 1.492188 -10.472656 2.140625 -11.640625 C 2.796875 -12.816406 3.691406 -13.738281 4.828125 -14.40625 C 5.972656 -15.082031 7.273438 -15.421875 8.734375 -15.421875 C 9.804688 -15.421875 10.769531 -15.242188 11.625 -14.890625 C 12.476562 -14.535156 13.207031 -14.03125 13.8125 -13.375 C 14.425781 -12.71875 14.890625 -11.921875 15.203125 -10.984375 C 15.523438 -10.046875 15.6875 -8.988281 15.6875 -7.8125 C 15.6875 -7.445312 15.554688 -7.164062 15.296875 -6.96875 C 15.046875 -6.769531 14.679688 -6.671875 14.203125 -6.671875 L 4.296875 -6.671875 L 4.296875 -8.890625 L 12.96875 -8.890625 L 12.484375 -8.4375 C 12.484375 -9.382812 12.34375 -10.175781 12.0625 -10.8125 C 11.78125 -11.445312 11.378906 -11.929688 10.859375 -12.265625 C 10.335938 -12.609375 9.679688 -12.78125 8.890625 -12.78125 C 8.023438 -12.78125 7.289062 -12.578125 6.6875 -12.171875 C 6.082031 -11.773438 5.617188 -11.210938 5.296875 -10.484375 C 4.972656 -9.753906 4.8125 -8.882812 4.8125 -7.875 L 4.8125 -7.65625 C 4.8125 -5.96875 5.207031 -4.707031 6 -3.875 C 6.800781 -3.039062 7.972656 -2.625 9.515625 -2.625 C 10.046875 -2.625 10.644531 -2.691406 11.3125 -2.828125 C 11.988281 -2.960938 12.625 -3.191406 13.21875 -3.515625 C 13.65625 -3.765625 14.035156 -3.875 14.359375 -3.84375 C 14.691406 -3.8125 14.957031 -3.691406 15.15625 -3.484375 C 15.351562 -3.285156 15.46875 -3.035156 15.5 -2.734375 C 15.539062 -2.429688 15.484375 -2.125 15.328125 -1.8125 C 15.179688 -1.507812 14.921875 -1.242188 14.546875 -1.015625 C 13.828125 -0.566406 13 -0.234375 12.0625 -0.015625 C 11.125 0.203125 10.253906 0.3125 9.453125 0.3125 Z M 9.453125 0.3125 "/></g></g></g><g fill="#5e4d5c" fill-opacity="1"><g transform="translate(327.332543, 175.132657)"><g><path d="M 3.984375 0.25 C 3.347656 0.25 2.859375 0.0820312 2.515625 -0.25 C 2.179688 -0.59375 2.015625 -1.085938 2.015625 -1.734375 L 2.015625 -13.40625 C 2.015625 -14.039062 2.175781 -14.523438 2.5 -14.859375 C 2.832031 -15.191406 3.296875 -15.359375 3.890625 -15.359375 C 4.484375 -15.359375 4.945312 -15.191406 5.28125 -14.859375 C 5.613281 -14.523438 5.78125 -14.039062 5.78125 -13.40625 L 5.78125 -11.453125 L 5.46875 -11.453125 C 5.757812 -12.691406 6.328125 -13.628906 7.171875 -14.265625 C 8.015625 -14.910156 9.132812 -15.296875 10.53125 -15.421875 C 10.96875 -15.453125 11.3125 -15.335938 11.5625 -15.078125 C 11.820312 -14.828125 11.972656 -14.4375 12.015625 -13.90625 C 12.054688 -13.382812 11.9375 -12.960938 11.65625 -12.640625 C 11.382812 -12.328125 10.96875 -12.140625 10.40625 -12.078125 L 9.734375 -12.015625 C 8.472656 -11.890625 7.523438 -11.503906 6.890625 -10.859375 C 6.253906 -10.210938 5.9375 -9.300781 5.9375 -8.125 L 5.9375 -1.734375 C 5.9375 -1.085938 5.769531 -0.59375 5.4375 -0.25 C 5.101562 0.0820312 4.617188 0.25 3.984375 0.25 Z M 3.984375 0.25 "/></g></g></g><g fill="#5e4d5c" fill-opacity="1"><g transform="translate(339.441523, 175.132657)"><g><path d="M 6.890625 -6.296875 C 6.492188 -6.296875 6.1875 -6.425781 5.96875 -6.6875 C 5.757812 -6.945312 5.65625 -7.289062 5.65625 -7.71875 C 5.65625 -8.363281 5.726562 -8.96875 5.875 -9.53125 C 6.03125 -10.09375 6.285156 -10.660156 6.640625 -11.234375 C 6.992188 -11.816406 7.457031 -12.425781 8.03125 -13.0625 C 8.46875 -13.5625 8.8125 -14 9.0625 -14.375 C 9.320312 -14.757812 9.507812 -15.125 9.625 -15.46875 C 9.738281 -15.820312 9.796875 -16.1875 9.796875 -16.5625 C 9.796875 -17.238281 9.546875 -17.769531 9.046875 -18.15625 C 8.554688 -18.550781 7.859375 -18.75 6.953125 -18.75 C 6.128906 -18.75 5.378906 -18.640625 4.703125 -18.421875 C 4.035156 -18.210938 3.363281 -17.910156 2.6875 -17.515625 C 2.238281 -17.242188 1.832031 -17.125 1.46875 -17.15625 C 1.101562 -17.1875 0.804688 -17.316406 0.578125 -17.546875 C 0.359375 -17.773438 0.21875 -18.050781 0.15625 -18.375 C 0.09375 -18.707031 0.144531 -19.046875 0.3125 -19.390625 C 0.476562 -19.742188 0.773438 -20.066406 1.203125 -20.359375 C 2.046875 -20.910156 3.015625 -21.335938 4.109375 -21.640625 C 5.203125 -21.941406 6.234375 -22.09375 7.203125 -22.09375 C 8.492188 -22.09375 9.628906 -21.875 10.609375 -21.4375 C 11.585938 -21.007812 12.347656 -20.410156 12.890625 -19.640625 C 13.441406 -18.878906 13.71875 -17.984375 13.71875 -16.953125 C 13.71875 -16.316406 13.625 -15.710938 13.4375 -15.140625 C 13.25 -14.578125 12.945312 -14.015625 12.53125 -13.453125 C 12.125 -12.890625 11.5625 -12.273438 10.84375 -11.609375 C 10.207031 -11.035156 9.695312 -10.507812 9.3125 -10.03125 C 8.925781 -9.5625 8.644531 -9.109375 8.46875 -8.671875 C 8.300781 -8.242188 8.1875 -7.785156 8.125 -7.296875 C 8.101562 -7.003906 7.984375 -6.765625 7.765625 -6.578125 C 7.546875 -6.390625 7.253906 -6.296875 6.890625 -6.296875 Z M 6.828125 0.15625 C 6.128906 0.15625 5.566406 -0.0546875 5.140625 -0.484375 C 4.722656 -0.921875 4.515625 -1.476562 4.515625 -2.15625 C 4.515625 -2.820312 4.722656 -3.363281 5.140625 -3.78125 C 5.566406 -4.207031 6.128906 -4.421875 6.828125 -4.421875 C 7.546875 -4.421875 8.101562 -4.207031 8.5 -3.78125 C 8.90625 -3.363281 9.109375 -2.820312 9.109375 -2.15625 C 9.109375 -1.476562 8.90625 -0.921875 8.5 -0.484375 C 8.101562 -0.0546875 7.546875 0.15625 6.828125 0.15625 Z M 6.828125 0.15625 "/></g></g></g></svg>